G04 #@! TF.GenerationSoftware,KiCad,Pcbnew,5.1.10*
G04 #@! TF.CreationDate,2021-11-16T11:39:58-06:00*
G04 #@! TF.ProjectId,a_dux_dux,615f6475-785f-4647-9578-2e6b69636164,VERSION_HERE*
G04 #@! TF.SameCoordinates,Original*
G04 #@! TF.FileFunction,Profile,NP*
%FSLAX46Y46*%
G04 Gerber Fmt 4.6, Leading zero omitted, Abs format (unit mm)*
G04 Created by KiCad (PCBNEW 5.1.10) date 2021-11-16 11:39:58*
%MOMM*%
%LPD*%
G01*
G04 APERTURE LIST*
G04 #@! TA.AperFunction,Profile*
%ADD10C,0.150000*%
G04 #@! TD*
G04 APERTURE END LIST*
D10*
X189628085Y-130699030D02*
X189247297Y-130403057D01*
X178758136Y-85333396D02*
G75*
G02*
X179186704Y-83125489I2944579J573987D01*
G01*
X179187125Y-83124842D02*
X179571399Y-82533113D01*
X179571824Y-82532462D02*
G75*
G02*
X181464098Y-81231937I2516009J-1633915D01*
G01*
X191779357Y-131138071D02*
G75*
G02*
X189628085Y-130699030I-517357J2955051D01*
G01*
X189247297Y-130403057D02*
G75*
G02*
X187858523Y-128157033I1760703J2641057D01*
G01*
X298427914Y-133285883D02*
G75*
G02*
X298192051Y-135072628I-2954785J-518888D01*
G01*
X298192052Y-135072627D02*
X293965870Y-144135703D01*
X293965870Y-144135705D02*
G75*
G02*
X292273007Y-145686929I-2718924J1267855D01*
G01*
X292272278Y-145687192D02*
X291609272Y-145928508D01*
X291608545Y-145928774D02*
G75*
G02*
X289314628Y-145828619I-1026061J2819080D01*
G01*
X275720011Y-139489343D02*
X289314628Y-145828619D01*
X198556000Y-76722000D02*
G75*
G02*
X197764521Y-77735042I-999388J-34897D01*
G01*
X219354087Y-61855273D02*
G75*
G02*
X218531540Y-62927235I-996194J-87155D01*
G01*
X239141892Y-59556651D02*
G75*
G02*
X238145698Y-58643806I1J1000000D01*
G01*
X261199078Y-62389984D02*
G75*
G02*
X260290020Y-61806651I0J999999D01*
G01*
X279562839Y-78881982D02*
G75*
G02*
X278562842Y-77881983I1J999998D01*
G01*
X297324182Y-78874534D02*
G75*
G02*
X298403769Y-79871363I79587J-996828D01*
G01*
X298427913Y-133285881D02*
G75*
G02*
X298412841Y-133112918I984927J172963D01*
G01*
X275556211Y-139429725D02*
G75*
G02*
X275720011Y-139489343I-258819J-965927D01*
G01*
X206231559Y-121160972D02*
G75*
G02*
X207418000Y-120042000I933710J198466D01*
G01*
X204205365Y-128522521D02*
X191779357Y-131138071D01*
X181464098Y-81231937D02*
X197764521Y-77735042D01*
X197514949Y-70187020D02*
X198556000Y-76722000D01*
X197514951Y-70187018D02*
G75*
G02*
X198011917Y-67945345I2954422J520945D01*
G01*
X198012359Y-67944710D02*
X198417050Y-67366751D01*
X198417498Y-67366115D02*
G75*
G02*
X200354010Y-66132424I2457453J-1720732D01*
G01*
X200354010Y-66132424D02*
X218531540Y-62927235D01*
X219354087Y-61855270D02*
X219192121Y-60003997D01*
X219192122Y-60003994D02*
G75*
G02*
X219882575Y-57814165I2988584J261464D01*
G01*
X219883070Y-57813572D02*
X220336594Y-57273085D01*
X220337092Y-57272491D02*
G75*
G02*
X222373758Y-56212270I2298133J-1928363D01*
G01*
X222373758Y-56212270D02*
X234328096Y-55166401D01*
X234328095Y-55166402D02*
G75*
G02*
X236517926Y-55856852I261468J-2988585D01*
G01*
X236518518Y-55857350D02*
X237059010Y-56310874D01*
X237059598Y-56311372D02*
G75*
G02*
X238119821Y-58348037I-1928361J-2298134D01*
G01*
X238119821Y-58348037D02*
X238145698Y-58643806D01*
X239141891Y-59556652D02*
X257062842Y-59556654D01*
X257062842Y-59556654D02*
G75*
G02*
X259184161Y-60435332I1J-2999998D01*
G01*
X259184711Y-60435876D02*
X259683615Y-60934782D01*
X259684162Y-60935331D02*
G75*
G02*
X260290020Y-61806651I-2121321J-2121319D01*
G01*
X298412841Y-133112918D02*
X298403769Y-79871363D01*
X279562841Y-78881986D02*
X297324483Y-78878300D01*
X261199079Y-62389984D02*
X275062841Y-62389984D01*
X275062840Y-62389983D02*
G75*
G02*
X277184160Y-63268663I0J-3000000D01*
G01*
X277184707Y-63269213D02*
X277683614Y-63768115D01*
X277684163Y-63768665D02*
G75*
G02*
X278562841Y-65889984I-2121320J-2121318D01*
G01*
X278562842Y-77881983D02*
X278562841Y-65889984D01*
X207418000Y-120042000D02*
X275556213Y-139429725D01*
X206097640Y-127221996D02*
G75*
G02*
X204205365Y-128522521I-2516010J1633916D01*
G01*
X206482337Y-126629616D02*
X206098064Y-127221347D01*
X206231558Y-121160972D02*
X206901190Y-124371315D01*
X206901189Y-124371313D02*
G75*
G02*
X206482759Y-126628967I-2934444J-623737D01*
G01*
X178758136Y-85333396D02*
X187858523Y-128157033D01*
M02*
