M48
; DRILL file {KiCad 5.1.10} date Tue Nov 16 18:12:18 2021
; FORMAT={-:-/ absolute / metric / decimal}
; #@! TF.CreationDate,2021-11-16T18:12:18-06:00
; #@! TF.GenerationSoftware,Kicad,Pcbnew,5.1.10
; #@! TF.FileFunction,NonPlated,1,2,NPTH
FMAT,2
METRIC
T1C0.800
T2C0.900
T3C1.700
T4C1.800
T5C3.000
T6C4.900
%
G90
G05
T1
X296.672Y-126.238
X296.672Y-126.238
T2
X295.986Y-116.356
X295.986Y-116.356
X295.986Y-119.356
X295.986Y-119.356
T3
X183.404Y-86.37
X186.968Y-102.992
X190.531Y-119.614
X193.338Y-84.24
X196.902Y-100.862
X200.465Y-117.485
X202.703Y-74.261
X205.479Y-91.033
X208.256Y-107.805
X212.726Y-72.602
X215.503Y-89.373
X218.279Y-106.145
X224.004Y-64.532
X225.308Y-81.482
X226.613Y-98.432
X234.134Y-63.753
X235.438Y-80.703
X236.743Y-97.652
X245.983Y-68.057
X245.983Y-102.057
X245.983Y-85.057
X256.143Y-68.057
X256.143Y-102.057
X256.143Y-85.057
X263.983Y-87.89
X263.983Y-104.89
X263.983Y-70.89
X264.17Y-127.322
X273.947Y-130.088
X274.143Y-87.89
X274.143Y-104.89
X274.143Y-70.89
X282.865Y-133.442
X292.073Y-137.736
T4
X182.993Y-86.458
X186.557Y-103.08
X190.12Y-119.702
X193.749Y-84.152
X197.313Y-100.774
X200.876Y-117.397
X202.288Y-74.33
X205.065Y-91.101
X207.841Y-107.873
X213.14Y-72.533
X215.917Y-89.305
X218.694Y-106.077
X223.585Y-64.564
X224.89Y-81.514
X226.194Y-98.464
X234.553Y-63.72
X235.857Y-80.67
X237.161Y-97.62
X245.563Y-68.057
X245.563Y-102.057
X245.563Y-85.057
X256.563Y-68.057
X256.563Y-102.057
X256.563Y-85.057
X263.563Y-87.89
X263.563Y-104.89
X263.563Y-70.89
X263.766Y-127.208
X274.351Y-130.203
X274.563Y-87.89
X274.563Y-104.89
X274.563Y-70.89
X282.484Y-133.265
X292.454Y-137.914
T5
X182.704Y-82.723
X186.268Y-99.346
X187.132Y-79.524
X189.831Y-115.968
X190.696Y-96.147
X192.482Y-80.627
X194.259Y-112.769
X196.046Y-97.25
X199.609Y-113.872
X202.175Y-70.586
X204.952Y-87.358
X206.749Y-67.599
X207.728Y-104.129
X209.525Y-84.371
X212.041Y-68.953
X212.302Y-101.142
X214.817Y-85.724
X217.594Y-102.496
X223.799Y-60.825
X225.103Y-77.775
X226.408Y-94.725
X228.616Y-58.248
X229.92Y-75.198
X231.224Y-92.148
X233.77Y-60.058
X235.074Y-77.008
X236.378Y-93.958
X246.063Y-64.345
X246.063Y-98.345
X246.063Y-81.345
X251.063Y-62.145
X251.063Y-96.145
X251.063Y-79.145
X256.063Y-64.345
X256.063Y-98.345
X256.063Y-81.345
X264.063Y-84.178
X264.063Y-101.178
X264.063Y-67.178
X265.258Y-123.772
X269.063Y-81.978
X269.063Y-98.978
X269.063Y-64.978
X270.668Y-123.016
X274.063Y-84.178
X274.063Y-101.178
X274.063Y-67.178
X274.88Y-126.495
X284.506Y-130.112
X289.967Y-130.231
X293.569Y-134.338
T6
X188.371Y-85.305
X191.935Y-101.927
X195.498Y-118.55
X207.714Y-73.431
X210.491Y-90.203
X213.267Y-106.975
X229.069Y-64.142
X230.373Y-81.092
X231.678Y-98.042
X251.063Y-68.057
X251.063Y-102.057
X251.063Y-85.057
X269.059Y-128.705
X269.063Y-87.89
X269.063Y-104.89
X269.063Y-70.89
X287.469Y-135.589
T0
M30
