%FSLAX45Y45*%
G04 Gerber Fmt 4.5, Leading zero omitted, Abs format (unit mm)*
G04 Created by KiCad (PCBNEW 5.1.10) date 2021-11-16 11:39:55*
%MOMM*%
%LPD*%
G01*
G04 APERTURE LIST*
%TA.AperFunction,Profile*%
%ADD10C,0.150000*%
%TD*%
%ADD11C,0.200000*%
%ADD12C,0.300000*%
G04 APERTURE END LIST*
D10*
X18962809Y-13069903D02*
X18924730Y-13040306D01*
X17875814Y-8533340D02*
G75*
G02*
X17918670Y-8312549I294458J57399D01*
G01*
X17918713Y-8312484D02*
X17957140Y-8253311D01*
X17957182Y-8253246D02*
G75*
G02*
X18146410Y-8123194I251601J-163392D01*
G01*
X19177936Y-13113807D02*
G75*
G02*
X18962809Y-13069903I-51736J295505D01*
G01*
X18924730Y-13040306D02*
G75*
G02*
X18785852Y-12815703I176070J264106D01*
G01*
X29842791Y-13328588D02*
G75*
G02*
X29819205Y-13507263I-295479J-51889D01*
G01*
X29819205Y-13507263D02*
X29396587Y-14413570D01*
X29396587Y-14413570D02*
G75*
G02*
X29227301Y-14568693I-271892J126786D01*
G01*
X29227228Y-14568719D02*
X29160927Y-14592851D01*
X29160854Y-14592877D02*
G75*
G02*
X28931463Y-14582862I-102606J281908D01*
G01*
X27572001Y-13948934D02*
X28931463Y-14582862D01*
X19855600Y-7672200D02*
G75*
G02*
X19776452Y-7773504I-99939J-3490D01*
G01*
X21935409Y-6185527D02*
G75*
G02*
X21853154Y-6292723I-99619J-8716D01*
G01*
X23914189Y-5955665D02*
G75*
G02*
X23814570Y-5864381I0J100000D01*
G01*
X26119908Y-6238998D02*
G75*
G02*
X26029002Y-6180665I0J100000D01*
G01*
X27956284Y-7888198D02*
G75*
G02*
X27856284Y-7788198I0J100000D01*
G01*
X29732418Y-7887453D02*
G75*
G02*
X29840377Y-7987136I7959J-99683D01*
G01*
X29842791Y-13328588D02*
G75*
G02*
X29841284Y-13311292I98493J17296D01*
G01*
X27555621Y-13942972D02*
G75*
G02*
X27572001Y-13948934I-25882J-96593D01*
G01*
X20623156Y-12116097D02*
G75*
G02*
X20741800Y-12004200I93371J19847D01*
G01*
X20420537Y-12852252D02*
X19177936Y-13113807D01*
X18146410Y-8123194D02*
X19776452Y-7773504D01*
X19751495Y-7018702D02*
X19855600Y-7672200D01*
X19751495Y-7018702D02*
G75*
G02*
X19801192Y-6794534I295442J52095D01*
G01*
X19801236Y-6794471D02*
X19841705Y-6736675D01*
X19841750Y-6736611D02*
G75*
G02*
X20035401Y-6613242I245745J-172073D01*
G01*
X20035401Y-6613242D02*
X21853154Y-6292723D01*
X21935409Y-6185527D02*
X21919212Y-6000400D01*
X21919212Y-6000399D02*
G75*
G02*
X21988258Y-5781416I298858J26146D01*
G01*
X21988307Y-5781357D02*
X22033659Y-5727308D01*
X22033709Y-5727249D02*
G75*
G02*
X22237376Y-5621227I229813J-192836D01*
G01*
X22237376Y-5621227D02*
X23432810Y-5516640D01*
X23432809Y-5516640D02*
G75*
G02*
X23651793Y-5585685I26147J-298859D01*
G01*
X23651852Y-5585735D02*
X23705901Y-5631087D01*
X23705960Y-5631137D02*
G75*
G02*
X23811982Y-5834804I-192836J-229813D01*
G01*
X23811982Y-5834804D02*
X23814570Y-5864381D01*
X23914189Y-5955665D02*
X25706284Y-5955665D01*
X25706284Y-5955665D02*
G75*
G02*
X25918416Y-6043533I0J-300000D01*
G01*
X25918471Y-6043588D02*
X25968361Y-6093478D01*
X25968416Y-6093533D02*
G75*
G02*
X26029002Y-6180665I-212132J-212132D01*
G01*
X29841284Y-13311292D02*
X29840377Y-7987136D01*
X27956284Y-7888199D02*
X29732448Y-7887830D01*
X26119908Y-6238998D02*
X27506284Y-6238998D01*
X27506284Y-6238998D02*
G75*
G02*
X27718416Y-6326866I0J-300000D01*
G01*
X27718471Y-6326921D02*
X27768361Y-6376811D01*
X27768416Y-6376866D02*
G75*
G02*
X27856284Y-6588998I-212132J-212132D01*
G01*
X27856284Y-7788198D02*
X27856284Y-6588998D01*
X20741800Y-12004200D02*
X27555621Y-13942972D01*
X20609764Y-12722200D02*
G75*
G02*
X20420537Y-12852252I-251601J163392D01*
G01*
X20648234Y-12662962D02*
X20609806Y-12722135D01*
X20623156Y-12116097D02*
X20690119Y-12437131D01*
X20690119Y-12437131D02*
G75*
G02*
X20648276Y-12662897I-293444J-62374D01*
G01*
X17875814Y-8533340D02*
X18785852Y-12815703D01*
D11*
X18316889Y-8377632D02*
X18346889Y-8407633D01*
X18346889Y-8377632D02*
X18316889Y-8407633D01*
X18365168Y-8380697D02*
X18296598Y-8394772D01*
X18367179Y-8390493D02*
X18298609Y-8404568D01*
X18296598Y-8394772D02*
G75*
G03*
X18298609Y-8404568I1005J-4898D01*
G01*
X18367179Y-8390493D02*
G75*
G03*
X18365168Y-8380697I-1005J4898D01*
G01*
X18549565Y-9462972D02*
X18579565Y-9492972D01*
X18579565Y-9462972D02*
X18549565Y-9492972D01*
X18597845Y-9466036D02*
X18529275Y-9480112D01*
X18599856Y-9475832D02*
X18531286Y-9489908D01*
X18529275Y-9480112D02*
G75*
G03*
X18531286Y-9489908I1005J-4898D01*
G01*
X18599856Y-9475832D02*
G75*
G03*
X18597845Y-9466036I-1005J4898D01*
G01*
X18673248Y-10039861D02*
X18703248Y-10069861D01*
X18703248Y-10039861D02*
X18673248Y-10069861D01*
X18721528Y-10042925D02*
X18652958Y-10057000D01*
X18723539Y-10052721D02*
X18654968Y-10066796D01*
X18652958Y-10057000D02*
G75*
G03*
X18654968Y-10066796I1005J-4898D01*
G01*
X18723539Y-10052721D02*
G75*
G03*
X18721528Y-10042925I-1005J4898D01*
G01*
X18905925Y-11125200D02*
X18935925Y-11155200D01*
X18935925Y-11125200D02*
X18905925Y-11155200D01*
X18954204Y-11128264D02*
X18885634Y-11142340D01*
X18956215Y-11138060D02*
X18887645Y-11152136D01*
X18885634Y-11142340D02*
G75*
G03*
X18887645Y-11152136I1005J-4898D01*
G01*
X18956215Y-11138060D02*
G75*
G03*
X18954204Y-11128264I-1005J4898D01*
G01*
X19029597Y-11702098D02*
X19059597Y-11732098D01*
X19059597Y-11702098D02*
X19029597Y-11732098D01*
X19077877Y-11705163D02*
X19009306Y-11719238D01*
X19079887Y-11714958D02*
X19011317Y-11729034D01*
X19009306Y-11719238D02*
G75*
G03*
X19011317Y-11729034I1005J-4898D01*
G01*
X19079887Y-11714958D02*
G75*
G03*
X19077877Y-11705163I-1005J4898D01*
G01*
X19045794Y-9392385D02*
X19075794Y-9422385D01*
X19075794Y-9392385D02*
X19045794Y-9422385D01*
X19027619Y-9419611D02*
X19096064Y-9404937D01*
X19025523Y-9409833D02*
X19093968Y-9395159D01*
X19096064Y-9404937D02*
G75*
G03*
X19093968Y-9395160I-1048J4889D01*
G01*
X19025523Y-9409833D02*
G75*
G03*
X19027619Y-9419611I1048J-4889D01*
G01*
X19262274Y-12787438D02*
X19292274Y-12817438D01*
X19292274Y-12787438D02*
X19262274Y-12817438D01*
X19310553Y-12790502D02*
X19241983Y-12804577D01*
X19312564Y-12800298D02*
X19243994Y-12814373D01*
X19241983Y-12804577D02*
G75*
G03*
X19243994Y-12814373I1005J-4898D01*
G01*
X19312564Y-12800298D02*
G75*
G03*
X19310553Y-12790502I-1005J4898D01*
G01*
X19294672Y-8168014D02*
X19324672Y-8198014D01*
X19324672Y-8168014D02*
X19294672Y-8198014D01*
X19276606Y-8195528D02*
X19344920Y-8180258D01*
X19274424Y-8185769D02*
X19342738Y-8170499D01*
X19344920Y-8180258D02*
G75*
G03*
X19342738Y-8170499I-1091J4880D01*
G01*
X19274424Y-8185769D02*
G75*
G03*
X19276606Y-8195528I1091J-4880D01*
G01*
X19402153Y-11054613D02*
X19432153Y-11084613D01*
X19432153Y-11054613D02*
X19402153Y-11084613D01*
X19383979Y-11081839D02*
X19452424Y-11067165D01*
X19381883Y-11072061D02*
X19450327Y-11057387D01*
X19452424Y-11067165D02*
G75*
G03*
X19450327Y-11057388I-1048J4889D01*
G01*
X19381883Y-11072061D02*
G75*
G03*
X19383979Y-11081839I1048J-4889D01*
G01*
X19527349Y-9253353D02*
X19557349Y-9283353D01*
X19557349Y-9253353D02*
X19527349Y-9283353D01*
X19575628Y-9256418D02*
X19507058Y-9270493D01*
X19577639Y-9266213D02*
X19509069Y-9280289D01*
X19507058Y-9270493D02*
G75*
G03*
X19509069Y-9280289I1005J-4898D01*
G01*
X19577639Y-9266214D02*
G75*
G03*
X19575628Y-9256418I-1005J4898D01*
G01*
X19651031Y-9830242D02*
X19681031Y-9860242D01*
X19681031Y-9830242D02*
X19651031Y-9860242D01*
X19632965Y-9857757D02*
X19701279Y-9842487D01*
X19630784Y-9847997D02*
X19699098Y-9832727D01*
X19701279Y-9842487D02*
G75*
G03*
X19699098Y-9832727I-1091J4880D01*
G01*
X19630784Y-9847997D02*
G75*
G03*
X19632965Y-9857757I1091J-4880D01*
G01*
X19758502Y-12716851D02*
X19788502Y-12746851D01*
X19788502Y-12716851D02*
X19758502Y-12746851D01*
X19740328Y-12744076D02*
X19808772Y-12729403D01*
X19738231Y-12734298D02*
X19806676Y-12719625D01*
X19808772Y-12729403D02*
G75*
G03*
X19806676Y-12719625I-1048J4889D01*
G01*
X19738231Y-12734298D02*
G75*
G03*
X19740328Y-12744076I1048J-4889D01*
G01*
X19883708Y-10915581D02*
X19913708Y-10945581D01*
X19913708Y-10915581D02*
X19883708Y-10945581D01*
X19931988Y-10918646D02*
X19863417Y-10932721D01*
X19933998Y-10928441D02*
X19865428Y-10942517D01*
X19863417Y-10932721D02*
G75*
G03*
X19865428Y-10942517I1005J-4898D01*
G01*
X19933998Y-10928442D02*
G75*
G03*
X19931988Y-10918646I-1005J4898D01*
G01*
X20007380Y-11492480D02*
X20037380Y-11522480D01*
X20037380Y-11492480D02*
X20007380Y-11522480D01*
X19989314Y-11519994D02*
X20057628Y-11504724D01*
X19987132Y-11510235D02*
X20055447Y-11494965D01*
X20057628Y-11504724D02*
G75*
G03*
X20055447Y-11494965I-1091J4880D01*
G01*
X19987132Y-11510235D02*
G75*
G03*
X19989314Y-11519994I1091J-4880D01*
G01*
X20172502Y-6862257D02*
X20202502Y-6892257D01*
X20202502Y-6862257D02*
X20172502Y-6892257D01*
X20221307Y-6866902D02*
X20152150Y-6877732D01*
X20222855Y-6876782D02*
X20153697Y-6887612D01*
X20152150Y-6877732D02*
G75*
G03*
X20153697Y-6887612I774J-4940D01*
G01*
X20222855Y-6876782D02*
G75*
G03*
X20221307Y-6866902I-774J4940D01*
G01*
X20240057Y-12577819D02*
X20270057Y-12607819D01*
X20270057Y-12577819D02*
X20240057Y-12607819D01*
X20288336Y-12580883D02*
X20219766Y-12594959D01*
X20290347Y-12590679D02*
X20221777Y-12604755D01*
X20219766Y-12594959D02*
G75*
G03*
X20221777Y-12604755I1005J-4898D01*
G01*
X20290347Y-12590679D02*
G75*
G03*
X20288336Y-12580883I-1005J4898D01*
G01*
X20353794Y-7957352D02*
X20383794Y-7987352D01*
X20383794Y-7957352D02*
X20353794Y-7987352D01*
X20402599Y-7961997D02*
X20333442Y-7972827D01*
X20404146Y-7971877D02*
X20334989Y-7982707D01*
X20333442Y-7972827D02*
G75*
G03*
X20334989Y-7982707I774J-4940D01*
G01*
X20404146Y-7971877D02*
G75*
G03*
X20402599Y-7961997I-774J4940D01*
G01*
X20450152Y-8539429D02*
X20480152Y-8569429D01*
X20480152Y-8539429D02*
X20450152Y-8569429D01*
X20498957Y-8544074D02*
X20429800Y-8554904D01*
X20500504Y-8553954D02*
X20431347Y-8564784D01*
X20429800Y-8554904D02*
G75*
G03*
X20431347Y-8564784I774J-4940D01*
G01*
X20500504Y-8553954D02*
G75*
G03*
X20498957Y-8544074I-774J4940D01*
G01*
X20631444Y-9634524D02*
X20661444Y-9664524D01*
X20661444Y-9634524D02*
X20631444Y-9664524D01*
X20680249Y-9639170D02*
X20611091Y-9649999D01*
X20681796Y-9649049D02*
X20612639Y-9659879D01*
X20611091Y-9649999D02*
G75*
G03*
X20612639Y-9659879I774J-4940D01*
G01*
X20681796Y-9649049D02*
G75*
G03*
X20680249Y-9639170I-774J4940D01*
G01*
X20727811Y-10216600D02*
X20757811Y-10246600D01*
X20757811Y-10216600D02*
X20727811Y-10246600D01*
X20776616Y-10221246D02*
X20707459Y-10232076D01*
X20778163Y-10231125D02*
X20709006Y-10241955D01*
X20707459Y-10232076D02*
G75*
G03*
X20709006Y-10241955I774J-4940D01*
G01*
X20778163Y-10231125D02*
G75*
G03*
X20776616Y-10221246I-774J4940D01*
G01*
X20852797Y-7910219D02*
X20882797Y-7940219D01*
X20882797Y-7910219D02*
X20852797Y-7940219D01*
X20834083Y-7935868D02*
X20903143Y-7924436D01*
X20832450Y-7926003D02*
X20901510Y-7914570D01*
X20903143Y-7924436D02*
G75*
G03*
X20901510Y-7914570I-817J4933D01*
G01*
X20832450Y-7926003D02*
G75*
G03*
X20834083Y-7935868I817J-4933D01*
G01*
X20909103Y-11311695D02*
X20939103Y-11341695D01*
X20939103Y-11311695D02*
X20909103Y-11341695D01*
X20957908Y-11316341D02*
X20888751Y-11327171D01*
X20959455Y-11326220D02*
X20890298Y-11337050D01*
X20888751Y-11327171D02*
G75*
G03*
X20890298Y-11337050I774J-4940D01*
G01*
X20959455Y-11326220D02*
G75*
G03*
X20957908Y-11316341I-774J4940D01*
G01*
X21130446Y-9587391D02*
X21160446Y-9617391D01*
X21160446Y-9587391D02*
X21130446Y-9617391D01*
X21111733Y-9613041D02*
X21180793Y-9601608D01*
X21110099Y-9603175D02*
X21179159Y-9591742D01*
X21180793Y-9601608D02*
G75*
G03*
X21179159Y-9591742I-817J4933D01*
G01*
X21110099Y-9603175D02*
G75*
G03*
X21111733Y-9613041I817J-4933D01*
G01*
X21159075Y-6698931D02*
X21189075Y-6728931D01*
X21189075Y-6698931D02*
X21159075Y-6728931D01*
X21140455Y-6724874D02*
X21209413Y-6712839D01*
X21138736Y-6715023D02*
X21207694Y-6702988D01*
X21209413Y-6712839D02*
G75*
G03*
X21207694Y-6702988I-860J4926D01*
G01*
X21138736Y-6715023D02*
G75*
G03*
X21140455Y-6724874I860J-4926D01*
G01*
X21340366Y-7794026D02*
X21370366Y-7824026D01*
X21370366Y-7794026D02*
X21340366Y-7824026D01*
X21389171Y-7798671D02*
X21320014Y-7809501D01*
X21390719Y-7808551D02*
X21321561Y-7819381D01*
X21320014Y-7809501D02*
G75*
G03*
X21321561Y-7819381I774J-4940D01*
G01*
X21390719Y-7808551D02*
G75*
G03*
X21389171Y-7798671I-774J4940D01*
G01*
X21408105Y-11264563D02*
X21438105Y-11294563D01*
X21438105Y-11264563D02*
X21408105Y-11294563D01*
X21389392Y-11290212D02*
X21458452Y-11278779D01*
X21387759Y-11280346D02*
X21456819Y-11268913D01*
X21458452Y-11278779D02*
G75*
G03*
X21456819Y-11268913I-817J4933D01*
G01*
X21387759Y-11280346D02*
G75*
G03*
X21389392Y-11290212I817J-4933D01*
G01*
X21436724Y-8376103D02*
X21466724Y-8406103D01*
X21466724Y-8376103D02*
X21436724Y-8406103D01*
X21418105Y-8402046D02*
X21487062Y-8390011D01*
X21416385Y-8392195D02*
X21485343Y-8380160D01*
X21487062Y-8390011D02*
G75*
G03*
X21485343Y-8380160I-860J4926D01*
G01*
X21416386Y-8392195D02*
G75*
G03*
X21418105Y-8402046I860J-4926D01*
G01*
X21618016Y-9471198D02*
X21648016Y-9501198D01*
X21648016Y-9471198D02*
X21618016Y-9501198D01*
X21666821Y-9475844D02*
X21597664Y-9486673D01*
X21668368Y-9485723D02*
X21599211Y-9496553D01*
X21597664Y-9486673D02*
G75*
G03*
X21599211Y-9496553I774J-4940D01*
G01*
X21668368Y-9485723D02*
G75*
G03*
X21666821Y-9475844I-774J4940D01*
G01*
X21714383Y-10053275D02*
X21744383Y-10083275D01*
X21744383Y-10053275D02*
X21714383Y-10083275D01*
X21695764Y-10079218D02*
X21764722Y-10067183D01*
X21694045Y-10069367D02*
X21763002Y-10057331D01*
X21764722Y-10067183D02*
G75*
G03*
X21763002Y-10057332I-860J4926D01*
G01*
X21694045Y-10069367D02*
G75*
G03*
X21695764Y-10079218I860J-4926D01*
G01*
X21895675Y-11148370D02*
X21925675Y-11178370D01*
X21925675Y-11148370D02*
X21895675Y-11178370D01*
X21944480Y-11153015D02*
X21875323Y-11163845D01*
X21946027Y-11162895D02*
X21876870Y-11173724D01*
X21875323Y-11163845D02*
G75*
G03*
X21876870Y-11173724I774J-4940D01*
G01*
X21946027Y-11162895D02*
G75*
G03*
X21944480Y-11153015I-774J4940D01*
G01*
X22350816Y-5884234D02*
X22380816Y-5914234D01*
X22380816Y-5884234D02*
X22350816Y-5914234D01*
X22400395Y-5891865D02*
X22330557Y-5896626D01*
X22401075Y-5901842D02*
X22331237Y-5906603D01*
X22330557Y-5896626D02*
G75*
G03*
X22331237Y-5906603I340J-4988D01*
G01*
X22401075Y-5901842D02*
G75*
G03*
X22400394Y-5891865I-340J4988D01*
G01*
X22435974Y-6990963D02*
X22465974Y-7020963D01*
X22465974Y-6990963D02*
X22435974Y-7020963D01*
X22485553Y-6998594D02*
X22415715Y-7003355D01*
X22486233Y-7008571D02*
X22416395Y-7013332D01*
X22415715Y-7003355D02*
G75*
G03*
X22416395Y-7013332I340J-4988D01*
G01*
X22486233Y-7008571D02*
G75*
G03*
X22485553Y-6998594I-340J4988D01*
G01*
X22481238Y-7579224D02*
X22511238Y-7609224D01*
X22511238Y-7579224D02*
X22481238Y-7609224D01*
X22530817Y-7586855D02*
X22460979Y-7591616D01*
X22531497Y-7596831D02*
X22461659Y-7601593D01*
X22460979Y-7591616D02*
G75*
G03*
X22461659Y-7601592I340J-4988D01*
G01*
X22531497Y-7596831D02*
G75*
G03*
X22530817Y-7586855I-340J4988D01*
G01*
X22566396Y-8685952D02*
X22596396Y-8715952D01*
X22596396Y-8685952D02*
X22566396Y-8715952D01*
X22615975Y-8693583D02*
X22546137Y-8698344D01*
X22616655Y-8703560D02*
X22546817Y-8708321D01*
X22546137Y-8698344D02*
G75*
G03*
X22546817Y-8708321I340J-4988D01*
G01*
X22616655Y-8703560D02*
G75*
G03*
X22615975Y-8693583I-340J4988D01*
G01*
X22611660Y-9274213D02*
X22641660Y-9304213D01*
X22641660Y-9274213D02*
X22611660Y-9304213D01*
X22661239Y-9281844D02*
X22591401Y-9286605D01*
X22661919Y-9291821D02*
X22592081Y-9296582D01*
X22591401Y-9286605D02*
G75*
G03*
X22592081Y-9296582I340J-4988D01*
G01*
X22661919Y-9291821D02*
G75*
G03*
X22661239Y-9281844I-340J4988D01*
G01*
X22696818Y-10380942D02*
X22726818Y-10410942D01*
X22726818Y-10380942D02*
X22696818Y-10410942D01*
X22746397Y-10388573D02*
X22676559Y-10393334D01*
X22747077Y-10398550D02*
X22677239Y-10403311D01*
X22676559Y-10393334D02*
G75*
G03*
X22677240Y-10403311I340J-4988D01*
G01*
X22747077Y-10398550D02*
G75*
G03*
X22746397Y-10388573I-340J4988D01*
G01*
X22937185Y-6987500D02*
X22967185Y-7017500D01*
X22967185Y-6987500D02*
X22937185Y-7017500D01*
X22917672Y-7010170D02*
X22987466Y-7004800D01*
X22916905Y-7000200D02*
X22986699Y-6994830D01*
X22987466Y-7004800D02*
G75*
G03*
X22986698Y-6994829I-384J4985D01*
G01*
X22916905Y-7000200D02*
G75*
G03*
X22917672Y-7010170I384J-4985D01*
G01*
X23067607Y-8682490D02*
X23097607Y-8712490D01*
X23097607Y-8682490D02*
X23067607Y-8712490D01*
X23048094Y-8705160D02*
X23117888Y-8699790D01*
X23047327Y-8695189D02*
X23117121Y-8689819D01*
X23117888Y-8699790D02*
G75*
G03*
X23117121Y-8689819I-384J4985D01*
G01*
X23047327Y-8695189D02*
G75*
G03*
X23048094Y-8705160I384J-4985D01*
G01*
X23198030Y-10377479D02*
X23228030Y-10407479D01*
X23228030Y-10377479D02*
X23198030Y-10407479D01*
X23178517Y-10400150D02*
X23248310Y-10394779D01*
X23177749Y-10390179D02*
X23247543Y-10384809D01*
X23248310Y-10394779D02*
G75*
G03*
X23247543Y-10384809I-384J4985D01*
G01*
X23177749Y-10390179D02*
G75*
G03*
X23178517Y-10400150I384J-4985D01*
G01*
X23347868Y-5807515D02*
X23377868Y-5837515D01*
X23377868Y-5807515D02*
X23347868Y-5837515D01*
X23328423Y-5830486D02*
X23398168Y-5824507D01*
X23327569Y-5820523D02*
X23397313Y-5814544D01*
X23398168Y-5824507D02*
G75*
G03*
X23397313Y-5814544I-427J4982D01*
G01*
X23327569Y-5820523D02*
G75*
G03*
X23328423Y-5830486I427J-4982D01*
G01*
X23433026Y-6914244D02*
X23463026Y-6944244D01*
X23463026Y-6914244D02*
X23433026Y-6944244D01*
X23482605Y-6921875D02*
X23412767Y-6926636D01*
X23483285Y-6931852D02*
X23413448Y-6936613D01*
X23412767Y-6926636D02*
G75*
G03*
X23413448Y-6936613I340J-4988D01*
G01*
X23483285Y-6931852D02*
G75*
G03*
X23482605Y-6921875I-340J4988D01*
G01*
X23478291Y-7502505D02*
X23508291Y-7532505D01*
X23508291Y-7502505D02*
X23478291Y-7532505D01*
X23458846Y-7525476D02*
X23528590Y-7519497D01*
X23457991Y-7515512D02*
X23527736Y-7509533D01*
X23528590Y-7519497D02*
G75*
G03*
X23527736Y-7509533I-427J4982D01*
G01*
X23457991Y-7515512D02*
G75*
G03*
X23458846Y-7525476I427J-4982D01*
G01*
X23563449Y-8609233D02*
X23593449Y-8639233D01*
X23593449Y-8609233D02*
X23563449Y-8639233D01*
X23613028Y-8616864D02*
X23543190Y-8621625D01*
X23613708Y-8626841D02*
X23543870Y-8631602D01*
X23543190Y-8621625D02*
G75*
G03*
X23543870Y-8631602I340J-4988D01*
G01*
X23613708Y-8626841D02*
G75*
G03*
X23613027Y-8616864I-340J4988D01*
G01*
X23608713Y-9197494D02*
X23638713Y-9227494D01*
X23638713Y-9197494D02*
X23608713Y-9227494D01*
X23589268Y-9220466D02*
X23659012Y-9214486D01*
X23588414Y-9210502D02*
X23658158Y-9204523D01*
X23659012Y-9214486D02*
G75*
G03*
X23658158Y-9204523I-427J4982D01*
G01*
X23588414Y-9210502D02*
G75*
G03*
X23589268Y-9220466I427J-4982D01*
G01*
X23693871Y-10304223D02*
X23723871Y-10334223D01*
X23723871Y-10304223D02*
X23693871Y-10334223D01*
X23743450Y-10311854D02*
X23673612Y-10316615D01*
X23744130Y-10321831D02*
X23674292Y-10326592D01*
X23673612Y-10316615D02*
G75*
G03*
X23674292Y-10326592I340J-4988D01*
G01*
X23744130Y-10321831D02*
G75*
G03*
X23743450Y-10311854I-340J4988D01*
G01*
X24591283Y-6235660D02*
X24621283Y-6265660D01*
X24621283Y-6235660D02*
X24591283Y-6265660D01*
X24641325Y-6245966D02*
X24571328Y-6245355D01*
X24641238Y-6255965D02*
X24571241Y-6255355D01*
X24571328Y-6245355D02*
G75*
G03*
X24571241Y-6255355I-44J-5000D01*
G01*
X24641238Y-6255965D02*
G75*
G03*
X24641325Y-6245966I44J5000D01*
G01*
X24591283Y-7345660D02*
X24621283Y-7375660D01*
X24621283Y-7345660D02*
X24591283Y-7375660D01*
X24641325Y-7355966D02*
X24571328Y-7355355D01*
X24641238Y-7365965D02*
X24571241Y-7365355D01*
X24571328Y-7355355D02*
G75*
G03*
X24571241Y-7365355I-44J-5000D01*
G01*
X24641238Y-7365965D02*
G75*
G03*
X24641325Y-7355966I44J5000D01*
G01*
X24591283Y-9635668D02*
X24621283Y-9665668D01*
X24621283Y-9635668D02*
X24591283Y-9665668D01*
X24641325Y-9645974D02*
X24571328Y-9645363D01*
X24641238Y-9655974D02*
X24571241Y-9655363D01*
X24571328Y-9645363D02*
G75*
G03*
X24571241Y-9655363I-44J-5000D01*
G01*
X24641238Y-9655974D02*
G75*
G03*
X24641325Y-9645974I44J5000D01*
G01*
X24591283Y-10745668D02*
X24621283Y-10775668D01*
X24621283Y-10745668D02*
X24591283Y-10775668D01*
X24641325Y-10755974D02*
X24571328Y-10755363D01*
X24641238Y-10765974D02*
X24571241Y-10765363D01*
X24571328Y-10755363D02*
G75*
G03*
X24571241Y-10765363I-44J-5000D01*
G01*
X24641238Y-10765974D02*
G75*
G03*
X24641325Y-10755974I44J5000D01*
G01*
X24591288Y-7935669D02*
X24621288Y-7965669D01*
X24621288Y-7935669D02*
X24591288Y-7965669D01*
X24641331Y-7945974D02*
X24571333Y-7945364D01*
X24641243Y-7955974D02*
X24571246Y-7955363D01*
X24571333Y-7945364D02*
G75*
G03*
X24571246Y-7955363I-44J-5000D01*
G01*
X24641244Y-7955974D02*
G75*
G03*
X24641331Y-7945974I44J5000D01*
G01*
X24591288Y-9045669D02*
X24621288Y-9075669D01*
X24621288Y-9045669D02*
X24591288Y-9075669D01*
X24641331Y-9055974D02*
X24571333Y-9055364D01*
X24641243Y-9065974D02*
X24571246Y-9065363D01*
X24571333Y-9055364D02*
G75*
G03*
X24571246Y-9065363I-44J-5000D01*
G01*
X24641244Y-9065974D02*
G75*
G03*
X24641331Y-9055974I44J5000D01*
G01*
X25091283Y-7380660D02*
X25121283Y-7410660D01*
X25121283Y-7380660D02*
X25091283Y-7410660D01*
X25071283Y-7400660D02*
X25141283Y-7400660D01*
X25071283Y-7390660D02*
X25141283Y-7390660D01*
X25141283Y-7400660D02*
G75*
G03*
X25141283Y-7390660I0J5000D01*
G01*
X25071283Y-7390660D02*
G75*
G03*
X25071283Y-7400660I0J-5000D01*
G01*
X25091283Y-10780668D02*
X25121283Y-10810668D01*
X25121283Y-10780668D02*
X25091283Y-10810668D01*
X25071283Y-10800668D02*
X25141283Y-10800668D01*
X25071283Y-10790668D02*
X25141283Y-10790668D01*
X25141283Y-10800668D02*
G75*
G03*
X25141283Y-10790668I0J5000D01*
G01*
X25071283Y-10790668D02*
G75*
G03*
X25071283Y-10800668I0J-5000D01*
G01*
X25091288Y-9080669D02*
X25121288Y-9110669D01*
X25121288Y-9080669D02*
X25091288Y-9110669D01*
X25071288Y-9100669D02*
X25141288Y-9100669D01*
X25071288Y-9090669D02*
X25141288Y-9090669D01*
X25141288Y-9100669D02*
G75*
G03*
X25141288Y-9090669I0J5000D01*
G01*
X25071288Y-9090669D02*
G75*
G03*
X25071288Y-9100669I0J-5000D01*
G01*
X25591283Y-6235660D02*
X25621283Y-6265660D01*
X25621283Y-6235660D02*
X25591283Y-6265660D01*
X25571328Y-6255965D02*
X25641325Y-6255355D01*
X25571241Y-6245966D02*
X25641238Y-6245355D01*
X25641325Y-6255355D02*
G75*
G03*
X25641238Y-6245355I-44J5000D01*
G01*
X25571241Y-6245966D02*
G75*
G03*
X25571328Y-6255965I44J-5000D01*
G01*
X25591283Y-7345660D02*
X25621283Y-7375660D01*
X25621283Y-7345660D02*
X25591283Y-7375660D01*
X25641325Y-7355966D02*
X25571328Y-7355355D01*
X25641238Y-7365965D02*
X25571241Y-7365355D01*
X25571328Y-7355355D02*
G75*
G03*
X25571241Y-7365355I-44J-5000D01*
G01*
X25641238Y-7365965D02*
G75*
G03*
X25641325Y-7355966I44J5000D01*
G01*
X25591283Y-9635668D02*
X25621283Y-9665668D01*
X25621283Y-9635668D02*
X25591283Y-9665668D01*
X25571328Y-9655974D02*
X25641325Y-9655363D01*
X25571241Y-9645974D02*
X25641238Y-9645363D01*
X25641325Y-9655363D02*
G75*
G03*
X25641238Y-9645363I-44J5000D01*
G01*
X25571241Y-9645974D02*
G75*
G03*
X25571328Y-9655974I44J-5000D01*
G01*
X25591283Y-10745668D02*
X25621283Y-10775668D01*
X25621283Y-10745668D02*
X25591283Y-10775668D01*
X25641325Y-10755974D02*
X25571328Y-10755363D01*
X25641238Y-10765974D02*
X25571241Y-10765363D01*
X25571328Y-10755363D02*
G75*
G03*
X25571241Y-10765363I-44J-5000D01*
G01*
X25641238Y-10765974D02*
G75*
G03*
X25641325Y-10755974I44J5000D01*
G01*
X25591288Y-7935669D02*
X25621288Y-7965669D01*
X25621288Y-7935669D02*
X25591288Y-7965669D01*
X25571333Y-7955974D02*
X25641331Y-7955363D01*
X25571246Y-7945974D02*
X25641243Y-7945364D01*
X25641331Y-7955363D02*
G75*
G03*
X25641244Y-7945364I-44J5000D01*
G01*
X25571246Y-7945974D02*
G75*
G03*
X25571333Y-7955974I44J-5000D01*
G01*
X25591288Y-9045669D02*
X25621288Y-9075669D01*
X25621288Y-9045669D02*
X25591288Y-9075669D01*
X25641331Y-9055974D02*
X25571333Y-9055364D01*
X25641243Y-9065974D02*
X25571246Y-9065363D01*
X25571333Y-9055364D02*
G75*
G03*
X25571246Y-9065363I-44J-5000D01*
G01*
X25641244Y-9065974D02*
G75*
G03*
X25641331Y-9055974I44J5000D01*
G01*
X26258631Y-13253397D02*
X26288631Y-13283397D01*
X26288631Y-13253397D02*
X26258631Y-13283397D01*
X26308627Y-13273421D02*
X26241441Y-13253775D01*
X26305821Y-13283019D02*
X26238634Y-13263373D01*
X26241441Y-13253775D02*
G75*
G03*
X26238634Y-13263373I-1403J-4799D01*
G01*
X26305821Y-13283019D02*
G75*
G03*
X26308627Y-13273421I1403J4799D01*
G01*
X26391282Y-8218997D02*
X26421282Y-8248997D01*
X26421282Y-8218997D02*
X26391282Y-8248997D01*
X26441324Y-8229303D02*
X26371327Y-8228692D01*
X26441237Y-8239302D02*
X26371239Y-8238692D01*
X26371327Y-8228692D02*
G75*
G03*
X26371239Y-8238692I-44J-5000D01*
G01*
X26441237Y-8239302D02*
G75*
G03*
X26441324Y-8229303I44J5000D01*
G01*
X26391282Y-9328997D02*
X26421282Y-9358997D01*
X26421282Y-9328997D02*
X26391282Y-9358997D01*
X26441324Y-9339303D02*
X26371327Y-9338692D01*
X26441237Y-9349302D02*
X26371239Y-9348692D01*
X26371327Y-9338692D02*
G75*
G03*
X26371239Y-9348692I-44J-5000D01*
G01*
X26441237Y-9349302D02*
G75*
G03*
X26441324Y-9339303I44J5000D01*
G01*
X26391286Y-9918996D02*
X26421286Y-9948996D01*
X26421286Y-9918996D02*
X26391286Y-9948996D01*
X26441329Y-9929302D02*
X26371331Y-9928691D01*
X26441241Y-9939301D02*
X26371244Y-9938690D01*
X26371331Y-9928691D02*
G75*
G03*
X26371244Y-9938690I-44J-5000D01*
G01*
X26441241Y-9939301D02*
G75*
G03*
X26441329Y-9929302I44J5000D01*
G01*
X26391286Y-11028996D02*
X26421286Y-11058996D01*
X26421286Y-11028996D02*
X26391286Y-11058996D01*
X26441329Y-11039302D02*
X26371331Y-11038691D01*
X26441241Y-11049301D02*
X26371244Y-11048690D01*
X26371331Y-11038691D02*
G75*
G03*
X26371244Y-11048690I-44J-5000D01*
G01*
X26441241Y-11049301D02*
G75*
G03*
X26441329Y-11039302I44J5000D01*
G01*
X26391287Y-6518998D02*
X26421287Y-6548998D01*
X26421287Y-6518998D02*
X26391287Y-6548998D01*
X26441329Y-6529303D02*
X26371332Y-6528693D01*
X26441242Y-6539303D02*
X26371245Y-6538692D01*
X26371332Y-6528693D02*
G75*
G03*
X26371245Y-6538692I-44J-5000D01*
G01*
X26441242Y-6539303D02*
G75*
G03*
X26441329Y-6529303I44J5000D01*
G01*
X26391287Y-7628998D02*
X26421287Y-7658998D01*
X26421287Y-7628998D02*
X26391287Y-7658998D01*
X26441329Y-7639303D02*
X26371332Y-7638693D01*
X26441242Y-7649303D02*
X26371245Y-7648692D01*
X26371332Y-7638693D02*
G75*
G03*
X26371245Y-7648692I-44J-5000D01*
G01*
X26441242Y-7649303D02*
G75*
G03*
X26441329Y-7639303I44J5000D01*
G01*
X26560862Y-12185335D02*
X26590862Y-12215335D01*
X26590862Y-12185335D02*
X26560862Y-12215335D01*
X26610858Y-12205359D02*
X26543672Y-12185713D01*
X26608052Y-12214957D02*
X26540865Y-12195311D01*
X26543672Y-12185713D02*
G75*
G03*
X26540865Y-12195311I-1403J-4799D01*
G01*
X26608052Y-12214957D02*
G75*
G03*
X26610858Y-12205359I1403J4799D01*
G01*
X26730210Y-13423215D02*
X26760210Y-13453215D01*
X26760210Y-13423215D02*
X26730210Y-13453215D01*
X26710171Y-13433496D02*
X26777526Y-13452556D01*
X26712894Y-13423874D02*
X26780249Y-13442933D01*
X26777526Y-13452556D02*
G75*
G03*
X26780249Y-13442933I1361J4811D01*
G01*
X26712894Y-13423874D02*
G75*
G03*
X26710171Y-13433496I-1361J-4811D01*
G01*
X26891282Y-9363997D02*
X26921282Y-9393997D01*
X26921282Y-9363997D02*
X26891282Y-9393997D01*
X26871282Y-9383997D02*
X26941282Y-9383997D01*
X26871282Y-9373997D02*
X26941282Y-9373997D01*
X26941282Y-9383997D02*
G75*
G03*
X26941282Y-9373997I0J5000D01*
G01*
X26871282Y-9373997D02*
G75*
G03*
X26871282Y-9383997I0J-5000D01*
G01*
X26891286Y-11063996D02*
X26921286Y-11093996D01*
X26921286Y-11063996D02*
X26891286Y-11093996D01*
X26871286Y-11083996D02*
X26941286Y-11083996D01*
X26871286Y-11073996D02*
X26941286Y-11073996D01*
X26941286Y-11083996D02*
G75*
G03*
X26941286Y-11073996I0J5000D01*
G01*
X26871286Y-11073996D02*
G75*
G03*
X26871286Y-11083996I0J-5000D01*
G01*
X26891287Y-7663998D02*
X26921287Y-7693998D01*
X26921287Y-7663998D02*
X26891287Y-7693998D01*
X26871287Y-7683998D02*
X26941287Y-7683998D01*
X26871287Y-7673998D02*
X26941287Y-7673998D01*
X26941287Y-7683998D02*
G75*
G03*
X26941287Y-7673998I0J5000D01*
G01*
X26871287Y-7673998D02*
G75*
G03*
X26871287Y-7683998I0J-5000D01*
G01*
X27220849Y-13525677D02*
X27250849Y-13555677D01*
X27250849Y-13525677D02*
X27220849Y-13555677D01*
X27270845Y-13545702D02*
X27203659Y-13526055D01*
X27268039Y-13555300D02*
X27200852Y-13535653D01*
X27203659Y-13526055D02*
G75*
G03*
X27200852Y-13535653I-1403J-4799D01*
G01*
X27268039Y-13555300D02*
G75*
G03*
X27270845Y-13545702I1403J4799D01*
G01*
X27391282Y-8218997D02*
X27421282Y-8248997D01*
X27421282Y-8218997D02*
X27391282Y-8248997D01*
X27371327Y-8239302D02*
X27441324Y-8238692D01*
X27371239Y-8229303D02*
X27441237Y-8228692D01*
X27441324Y-8238692D02*
G75*
G03*
X27441237Y-8228692I-44J5000D01*
G01*
X27371239Y-8229303D02*
G75*
G03*
X27371327Y-8239302I44J-5000D01*
G01*
X27391282Y-9328997D02*
X27421282Y-9358997D01*
X27421282Y-9328997D02*
X27391282Y-9358997D01*
X27441324Y-9339303D02*
X27371327Y-9338692D01*
X27441237Y-9349302D02*
X27371239Y-9348692D01*
X27371327Y-9338692D02*
G75*
G03*
X27371239Y-9348692I-44J-5000D01*
G01*
X27441237Y-9349302D02*
G75*
G03*
X27441324Y-9339303I44J5000D01*
G01*
X27391286Y-9918996D02*
X27421286Y-9948996D01*
X27421286Y-9918996D02*
X27391286Y-9948996D01*
X27371331Y-9939301D02*
X27441329Y-9938690D01*
X27371244Y-9929302D02*
X27441241Y-9928691D01*
X27441329Y-9938690D02*
G75*
G03*
X27441241Y-9928691I-44J5000D01*
G01*
X27371244Y-9929302D02*
G75*
G03*
X27371331Y-9939301I44J-5000D01*
G01*
X27391286Y-11028996D02*
X27421286Y-11058996D01*
X27421286Y-11028996D02*
X27391286Y-11058996D01*
X27441329Y-11039302D02*
X27371331Y-11038691D01*
X27441241Y-11049301D02*
X27371244Y-11048690D01*
X27371331Y-11038691D02*
G75*
G03*
X27371244Y-11048690I-44J-5000D01*
G01*
X27441241Y-11049301D02*
G75*
G03*
X27441329Y-11039302I44J5000D01*
G01*
X27391287Y-6518998D02*
X27421287Y-6548998D01*
X27421287Y-6518998D02*
X27391287Y-6548998D01*
X27371332Y-6539303D02*
X27441329Y-6538692D01*
X27371245Y-6529303D02*
X27441242Y-6528693D01*
X27441329Y-6538692D02*
G75*
G03*
X27441242Y-6528693I-44J5000D01*
G01*
X27371245Y-6529303D02*
G75*
G03*
X27371332Y-6539303I44J-5000D01*
G01*
X27391287Y-7628998D02*
X27421287Y-7658998D01*
X27421287Y-7628998D02*
X27391287Y-7658998D01*
X27441329Y-7639303D02*
X27371332Y-7638693D01*
X27441242Y-7649303D02*
X27371245Y-7648692D01*
X27371332Y-7638693D02*
G75*
G03*
X27371245Y-7648692I-44J-5000D01*
G01*
X27441242Y-7649303D02*
G75*
G03*
X27441329Y-7639303I44J5000D01*
G01*
X27523080Y-12457615D02*
X27553080Y-12487615D01*
X27553080Y-12457615D02*
X27523080Y-12487615D01*
X27503001Y-12468202D02*
X27570520Y-12486674D01*
X27505640Y-12458557D02*
X27573159Y-12477028D01*
X27570520Y-12486674D02*
G75*
G03*
X27573159Y-12477028I1319J4823D01*
G01*
X27505640Y-12458557D02*
G75*
G03*
X27503001Y-12468202I-1319J-4823D01*
G01*
X28044186Y-13835620D02*
X28074186Y-13865620D01*
X28074186Y-13835620D02*
X28044186Y-13865620D01*
X28092929Y-13861175D02*
X28029748Y-13831039D01*
X28088624Y-13870201D02*
X28025443Y-13840065D01*
X28029748Y-13831039D02*
G75*
G03*
X28025443Y-13840065I-2153J-4513D01*
G01*
X28088624Y-13870201D02*
G75*
G03*
X28092929Y-13861175I2153J4513D01*
G01*
X28482548Y-14078650D02*
X28512548Y-14108650D01*
X28512548Y-14078650D02*
X28482548Y-14108650D01*
X28463714Y-14083390D02*
X28527156Y-14112973D01*
X28467940Y-14074327D02*
X28531382Y-14103910D01*
X28527156Y-14112973D02*
G75*
G03*
X28531382Y-14103910I2113J4532D01*
G01*
X28467940Y-14074327D02*
G75*
G03*
X28463714Y-14083390I-2113J-4532D01*
G01*
X28513292Y-12829618D02*
X28543292Y-12859618D01*
X28543292Y-12829618D02*
X28513292Y-12859618D01*
X28562035Y-12855173D02*
X28498854Y-12825038D01*
X28557730Y-12864199D02*
X28494549Y-12834063D01*
X28498854Y-12825038D02*
G75*
G03*
X28494549Y-12834063I-2153J-4513D01*
G01*
X28557730Y-12864199D02*
G75*
G03*
X28562035Y-12855173I2153J4513D01*
G01*
X28950494Y-14258238D02*
X28980494Y-14288238D01*
X28980494Y-14258238D02*
X28950494Y-14288238D01*
X28999237Y-14283793D02*
X28936056Y-14253658D01*
X28994931Y-14292819D02*
X28931751Y-14262683D01*
X28936056Y-14253658D02*
G75*
G03*
X28931750Y-14262683I-2153J-4513D01*
G01*
X28994931Y-14292819D02*
G75*
G03*
X28999237Y-14283793I2153J4513D01*
G01*
X29419600Y-13252237D02*
X29449600Y-13282237D01*
X29449600Y-13252237D02*
X29419600Y-13282237D01*
X29400678Y-13257272D02*
X29464375Y-13286301D01*
X29404825Y-13248173D02*
X29468522Y-13277201D01*
X29464375Y-13286301D02*
G75*
G03*
X29468522Y-13277201I2074J4550D01*
G01*
X29404825Y-13248173D02*
G75*
G03*
X29400678Y-13257272I-2074J-4550D01*
G01*
X18540200Y-9318734D02*
G75*
G03*
X18540200Y-9318734I-20000J0D01*
G01*
X18492963Y-9334800D02*
X18551630Y-9322223D01*
X18488771Y-9315245D02*
X18547438Y-9302667D01*
X18551630Y-9322223D02*
G75*
G03*
X18547438Y-9302667I-2096J9778D01*
G01*
X18488771Y-9315245D02*
G75*
G03*
X18492963Y-9334800I2096J-9778D01*
G01*
X18896560Y-10980962D02*
G75*
G03*
X18896560Y-10980962I-20000J0D01*
G01*
X18849323Y-10997028D02*
X18907990Y-10984451D01*
X18845130Y-10977473D02*
X18903797Y-10964895D01*
X18907990Y-10984451D02*
G75*
G03*
X18903797Y-10964895I-2096J9778D01*
G01*
X18845130Y-10977473D02*
G75*
G03*
X18849323Y-10997028I2096J-9778D01*
G01*
X19155861Y-8183253D02*
G75*
G03*
X19155861Y-8183253I-20000J0D01*
G01*
X19252909Y-12643199D02*
G75*
G03*
X19252909Y-12643199I-20000J0D01*
G01*
X19205671Y-12659266D02*
X19264338Y-12646689D01*
X19201479Y-12639710D02*
X19260146Y-12627133D01*
X19264338Y-12646689D02*
G75*
G03*
X19260146Y-12627133I-2096J9778D01*
G01*
X19201479Y-12639710D02*
G75*
G03*
X19205671Y-12659266I2096J-9778D01*
G01*
X19537539Y-9104923D02*
G75*
G03*
X19537539Y-9104923I-20000J0D01*
G01*
X19544777Y-9088857D02*
X19486110Y-9101434D01*
X19548969Y-9108412D02*
X19490302Y-9120989D01*
X19486110Y-9101434D02*
G75*
G03*
X19490302Y-9120989I2096J-9778D01*
G01*
X19548969Y-9108412D02*
G75*
G03*
X19544777Y-9088857I-2096J9778D01*
G01*
X19893899Y-10767151D02*
G75*
G03*
X19893899Y-10767151I-20000J0D01*
G01*
X19901136Y-10751085D02*
X19842469Y-10763662D01*
X19905328Y-10770640D02*
X19846661Y-10783217D01*
X19842469Y-10763662D02*
G75*
G03*
X19846661Y-10783217I2096J-9778D01*
G01*
X19905328Y-10770640D02*
G75*
G03*
X19901136Y-10751085I-2096J9778D01*
G01*
X20250248Y-12429389D02*
G75*
G03*
X20250248Y-12429389I-20000J0D01*
G01*
X20257485Y-12413322D02*
X20198818Y-12425899D01*
X20261677Y-12432878D02*
X20203010Y-12445455D01*
X20198818Y-12425899D02*
G75*
G03*
X20203010Y-12445455I2096J-9778D01*
G01*
X20261677Y-12432878D02*
G75*
G03*
X20257485Y-12413322I-2096J9778D01*
G01*
X20351980Y-7811201D02*
G75*
G03*
X20351980Y-7811201I-20000J0D01*
G01*
X20304016Y-7825966D02*
X20363210Y-7816167D01*
X20300749Y-7806235D02*
X20359944Y-7796435D01*
X20363210Y-7816167D02*
G75*
G03*
X20359944Y-7796435I-1633J9866D01*
G01*
X20300749Y-7806235D02*
G75*
G03*
X20304016Y-7825966I1633J-9866D01*
G01*
X20629629Y-9488373D02*
G75*
G03*
X20629629Y-9488373I-20000J0D01*
G01*
X20581665Y-9503139D02*
X20640859Y-9493339D01*
X20578399Y-9483407D02*
X20637593Y-9473608D01*
X20640860Y-9493339D02*
G75*
G03*
X20637593Y-9473608I-1633J9866D01*
G01*
X20578399Y-9483407D02*
G75*
G03*
X20581665Y-9503139I1633J-9866D01*
G01*
X20907288Y-11165544D02*
G75*
G03*
X20907288Y-11165544I-20000J0D01*
G01*
X20859324Y-11180310D02*
X20918519Y-11170510D01*
X20856058Y-11160579D02*
X20915252Y-11150779D01*
X20918519Y-11170510D02*
G75*
G03*
X20915252Y-11150779I-1633J9866D01*
G01*
X20856058Y-11160579D02*
G75*
G03*
X20859324Y-11180310I1633J-9866D01*
G01*
X21020445Y-6705983D02*
G75*
G03*
X21020445Y-6705983I-20000J0D01*
G01*
X21358283Y-7644608D02*
G75*
G03*
X21358283Y-7644608I-20000J0D01*
G01*
X21366247Y-7629843D02*
X21307053Y-7639643D01*
X21369514Y-7649574D02*
X21310319Y-7659374D01*
X21307053Y-7639643D02*
G75*
G03*
X21310319Y-7659374I1633J-9866D01*
G01*
X21369514Y-7649574D02*
G75*
G03*
X21366247Y-7629843I-1633J9866D01*
G01*
X21635933Y-9321781D02*
G75*
G03*
X21635933Y-9321781I-20000J0D01*
G01*
X21643897Y-9307015D02*
X21584702Y-9316815D01*
X21647163Y-9326747D02*
X21587969Y-9336546D01*
X21584702Y-9316815D02*
G75*
G03*
X21587969Y-9336546I1633J-9866D01*
G01*
X21647163Y-9326747D02*
G75*
G03*
X21643897Y-9307015I-1633J9866D01*
G01*
X21913592Y-10998952D02*
G75*
G03*
X21913592Y-10998952I-20000J0D01*
G01*
X21921556Y-10984186D02*
X21862362Y-10993986D01*
X21924822Y-11003918D02*
X21865628Y-11013717D01*
X21862361Y-10993986D02*
G75*
G03*
X21865628Y-11013717I1633J-9866D01*
G01*
X21924822Y-11003918D02*
G75*
G03*
X21921556Y-10984186I-1633J9866D01*
G01*
X22448345Y-6842216D02*
G75*
G03*
X22448345Y-6842216I-20000J0D01*
G01*
X22399200Y-6854488D02*
X22459023Y-6849885D01*
X22397666Y-6834547D02*
X22457489Y-6829944D01*
X22459023Y-6849885D02*
G75*
G03*
X22457489Y-6829944I-767J9971D01*
G01*
X22397666Y-6834547D02*
G75*
G03*
X22399200Y-6854488I767J-9971D01*
G01*
X22578767Y-8537206D02*
G75*
G03*
X22578767Y-8537206I-20000J0D01*
G01*
X22529622Y-8549478D02*
X22589446Y-8544875D01*
X22528088Y-8529537D02*
X22587911Y-8524934D01*
X22589446Y-8544875D02*
G75*
G03*
X22587911Y-8524934I-767J9971D01*
G01*
X22528088Y-8529537D02*
G75*
G03*
X22529622Y-8549478I767J-9971D01*
G01*
X22709189Y-10232195D02*
G75*
G03*
X22709189Y-10232195I-20000J0D01*
G01*
X22660045Y-10244468D02*
X22719868Y-10239864D01*
X22658510Y-10224526D02*
X22718334Y-10219923D01*
X22719868Y-10239864D02*
G75*
G03*
X22718334Y-10219923I-767J9971D01*
G01*
X22658510Y-10224527D02*
G75*
G03*
X22660045Y-10244468I767J-9971D01*
G01*
X23210592Y-5799464D02*
G75*
G03*
X23210592Y-5799464I-20000J0D01*
G01*
X23465338Y-6763963D02*
G75*
G03*
X23465338Y-6763963I-20000J0D01*
G01*
X23474483Y-6751691D02*
X23414660Y-6756294D01*
X23476017Y-6771632D02*
X23416194Y-6776235D01*
X23414660Y-6756294D02*
G75*
G03*
X23416194Y-6776235I767J-9971D01*
G01*
X23476017Y-6771632D02*
G75*
G03*
X23474483Y-6751691I-767J9971D01*
G01*
X23595761Y-8458952D02*
G75*
G03*
X23595761Y-8458952I-20000J0D01*
G01*
X23604905Y-8446680D02*
X23545082Y-8451283D01*
X23606439Y-8466621D02*
X23546616Y-8471224D01*
X23545082Y-8451283D02*
G75*
G03*
X23546616Y-8471224I767J-9971D01*
G01*
X23606439Y-8466621D02*
G75*
G03*
X23604905Y-8446680I-767J9971D01*
G01*
X23726183Y-10153942D02*
G75*
G03*
X23726183Y-10153942I-20000J0D01*
G01*
X23735327Y-10141670D02*
X23675504Y-10146273D01*
X23736862Y-10161611D02*
X23677039Y-10166214D01*
X23675504Y-10146273D02*
G75*
G03*
X23677039Y-10166214I767J-9971D01*
G01*
X23736862Y-10161611D02*
G75*
G03*
X23735327Y-10141670I-767J9971D01*
G01*
X23972200Y-9372600D02*
G75*
G03*
X23972200Y-9372600I-20000J0D01*
G01*
X24616283Y-7195660D02*
G75*
G03*
X24616283Y-7195660I-20000J0D01*
G01*
X24566283Y-7205660D02*
X24626283Y-7205660D01*
X24566283Y-7185660D02*
X24626283Y-7185660D01*
X24626283Y-7205660D02*
G75*
G03*
X24626283Y-7185660I0J10000D01*
G01*
X24566283Y-7185660D02*
G75*
G03*
X24566283Y-7205660I0J-10000D01*
G01*
X24616283Y-10595668D02*
G75*
G03*
X24616283Y-10595668I-20000J0D01*
G01*
X24566283Y-10605668D02*
X24626283Y-10605668D01*
X24566283Y-10585668D02*
X24626283Y-10585668D01*
X24626283Y-10605668D02*
G75*
G03*
X24626283Y-10585668I0J10000D01*
G01*
X24566283Y-10585668D02*
G75*
G03*
X24566283Y-10605668I0J-10000D01*
G01*
X24616288Y-8895669D02*
G75*
G03*
X24616288Y-8895669I-20000J0D01*
G01*
X24566288Y-8905669D02*
X24626288Y-8905669D01*
X24566288Y-8885669D02*
X24626288Y-8885669D01*
X24626288Y-8905669D02*
G75*
G03*
X24626288Y-8885669I0J10000D01*
G01*
X24566288Y-8885669D02*
G75*
G03*
X24566288Y-8905669I0J-10000D01*
G01*
X25456283Y-6214460D02*
G75*
G03*
X25456283Y-6214460I-20000J0D01*
G01*
X25456283Y-9614468D02*
G75*
G03*
X25456283Y-9614468I-20000J0D01*
G01*
X25456288Y-7914469D02*
G75*
G03*
X25456288Y-7914469I-20000J0D01*
G01*
X25636283Y-7195660D02*
G75*
G03*
X25636283Y-7195660I-20000J0D01*
G01*
X25646283Y-7185660D02*
X25586283Y-7185660D01*
X25646283Y-7205660D02*
X25586283Y-7205660D01*
X25586283Y-7185660D02*
G75*
G03*
X25586283Y-7205660I0J-10000D01*
G01*
X25646283Y-7205660D02*
G75*
G03*
X25646283Y-7185660I0J10000D01*
G01*
X25636283Y-10595668D02*
G75*
G03*
X25636283Y-10595668I-20000J0D01*
G01*
X25646283Y-10585668D02*
X25586283Y-10585668D01*
X25646283Y-10605668D02*
X25586283Y-10605668D01*
X25586283Y-10585668D02*
G75*
G03*
X25586283Y-10605668I0J-10000D01*
G01*
X25646283Y-10605668D02*
G75*
G03*
X25646283Y-10585668I0J10000D01*
G01*
X25636288Y-8895669D02*
G75*
G03*
X25636288Y-8895669I-20000J0D01*
G01*
X25646288Y-8885669D02*
X25586288Y-8885669D01*
X25646288Y-8905669D02*
X25586288Y-8905669D01*
X25586288Y-8885669D02*
G75*
G03*
X25586288Y-8905669I0J-10000D01*
G01*
X25646288Y-8905669D02*
G75*
G03*
X25646288Y-8885669I0J10000D01*
G01*
X25953400Y-9829800D02*
G75*
G03*
X25953400Y-9829800I-20000J0D01*
G01*
X26328935Y-13106908D02*
G75*
G03*
X26328935Y-13106908I-20000J0D01*
G01*
X26277346Y-13108362D02*
X26335079Y-13124699D01*
X26282791Y-13089118D02*
X26340524Y-13105454D01*
X26335079Y-13124699D02*
G75*
G03*
X26340524Y-13105454I2723J9622D01*
G01*
X26282791Y-13089118D02*
G75*
G03*
X26277346Y-13108362I-2723J-9622D01*
G01*
X26416282Y-9178997D02*
G75*
G03*
X26416282Y-9178997I-20000J0D01*
G01*
X26366282Y-9188997D02*
X26426282Y-9188997D01*
X26366282Y-9168997D02*
X26426282Y-9168997D01*
X26426282Y-9188997D02*
G75*
G03*
X26426282Y-9168997I0J10000D01*
G01*
X26366282Y-9168997D02*
G75*
G03*
X26366282Y-9188997I0J-10000D01*
G01*
X26416286Y-10878996D02*
G75*
G03*
X26416286Y-10878996I-20000J0D01*
G01*
X26366286Y-10888996D02*
X26426286Y-10888996D01*
X26366286Y-10868996D02*
X26426286Y-10868996D01*
X26426286Y-10888996D02*
G75*
G03*
X26426286Y-10868996I0J10000D01*
G01*
X26366286Y-10868996D02*
G75*
G03*
X26366286Y-10888996I0J-10000D01*
G01*
X26416287Y-7478998D02*
G75*
G03*
X26416287Y-7478998I-20000J0D01*
G01*
X26366287Y-7488998D02*
X26426287Y-7488998D01*
X26366287Y-7468998D02*
X26426287Y-7468998D01*
X26426287Y-7488998D02*
G75*
G03*
X26426287Y-7468998I0J10000D01*
G01*
X26366287Y-7468998D02*
G75*
G03*
X26366287Y-7488998I0J-10000D01*
G01*
X26588400Y-9906000D02*
G75*
G03*
X26588400Y-9906000I-20000J0D01*
G01*
X26613800Y-8204200D02*
G75*
G03*
X26613800Y-8204200I-20000J0D01*
G01*
X27256287Y-6497798D02*
G75*
G03*
X27256287Y-6497798I-20000J0D01*
G01*
X27310397Y-13384634D02*
G75*
G03*
X27310397Y-13384634I-20000J0D01*
G01*
X27321987Y-13383180D02*
X27264254Y-13366843D01*
X27316541Y-13402425D02*
X27258808Y-13386088D01*
X27264254Y-13366843D02*
G75*
G03*
X27258808Y-13386088I-2723J-9622D01*
G01*
X27316541Y-13402425D02*
G75*
G03*
X27321987Y-13383180I2723J9622D01*
G01*
X27388227Y-12407627D02*
G75*
G03*
X27388227Y-12407627I-20000J0D01*
G01*
X27436282Y-9178997D02*
G75*
G03*
X27436282Y-9178997I-20000J0D01*
G01*
X27446282Y-9168997D02*
X27386282Y-9168997D01*
X27446282Y-9188997D02*
X27386282Y-9188997D01*
X27386282Y-9168997D02*
G75*
G03*
X27386282Y-9188997I0J-10000D01*
G01*
X27446282Y-9188997D02*
G75*
G03*
X27446282Y-9168997I0J10000D01*
G01*
X27436286Y-10878996D02*
G75*
G03*
X27436286Y-10878996I-20000J0D01*
G01*
X27446286Y-10868996D02*
X27386286Y-10868996D01*
X27446286Y-10888996D02*
X27386286Y-10888996D01*
X27386286Y-10868996D02*
G75*
G03*
X27386286Y-10888996I0J-10000D01*
G01*
X27446286Y-10888996D02*
G75*
G03*
X27446286Y-10868996I0J10000D01*
G01*
X27436287Y-7478998D02*
G75*
G03*
X27436287Y-7478998I-20000J0D01*
G01*
X27446287Y-7468998D02*
X27386287Y-7468998D01*
X27446287Y-7488998D02*
X27386287Y-7488998D01*
X27386287Y-7468998D02*
G75*
G03*
X27386287Y-7488998I0J-10000D01*
G01*
X27446287Y-7488998D02*
G75*
G03*
X27446287Y-7468998I0J10000D01*
G01*
X27756800Y-8432800D02*
G75*
G03*
X27756800Y-8432800I-20000J0D01*
G01*
X27756800Y-10134600D02*
G75*
G03*
X27756800Y-10134600I-20000J0D01*
G01*
X28139855Y-13696853D02*
G75*
G03*
X28139855Y-13696853I-20000J0D01*
G01*
X28088439Y-13693238D02*
X28142818Y-13718595D01*
X28096892Y-13675111D02*
X28151270Y-13700469D01*
X28142818Y-13718595D02*
G75*
G03*
X28151270Y-13700468I4226J9063D01*
G01*
X28096892Y-13675111D02*
G75*
G03*
X28088439Y-13693238I-4226J-9063D01*
G01*
X28569000Y-8357200D02*
G75*
G03*
X28569000Y-8357200I-20000J0D01*
G01*
X28569600Y-8610600D02*
G75*
G03*
X28569600Y-8610600I-20000J0D01*
G01*
X28569600Y-8864600D02*
G75*
G03*
X28569600Y-8864600I-20000J0D01*
G01*
X28569600Y-9118600D02*
G75*
G03*
X28569600Y-9118600I-20000J0D01*
G01*
X28569600Y-9372600D02*
G75*
G03*
X28569600Y-9372600I-20000J0D01*
G01*
X28569600Y-9626600D02*
G75*
G03*
X28569600Y-9626600I-20000J0D01*
G01*
X28569600Y-9880600D02*
G75*
G03*
X28569600Y-9880600I-20000J0D01*
G01*
X28569600Y-10134600D02*
G75*
G03*
X28569600Y-10134600I-20000J0D01*
G01*
X28569600Y-10388600D02*
G75*
G03*
X28569600Y-10388600I-20000J0D01*
G01*
X28569600Y-10642600D02*
G75*
G03*
X28569600Y-10642600I-20000J0D01*
G01*
X28569600Y-10896600D02*
G75*
G03*
X28569600Y-10896600I-20000J0D01*
G01*
X28569600Y-11150600D02*
G75*
G03*
X28569600Y-11150600I-20000J0D01*
G01*
X28595000Y-11607800D02*
G75*
G03*
X28595000Y-11607800I-20000J0D01*
G01*
X29064289Y-14127924D02*
G75*
G03*
X29064289Y-14127924I-20000J0D01*
G01*
X29075704Y-14131539D02*
X29021325Y-14106182D01*
X29067252Y-14149665D02*
X29012873Y-14124308D01*
X29021326Y-14106182D02*
G75*
G03*
X29012873Y-14124308I-4226J-9063D01*
G01*
X29067252Y-14149665D02*
G75*
G03*
X29075704Y-14131539I4226J9063D01*
G01*
X29069566Y-8208099D02*
G75*
G03*
X29069566Y-8208099I-20000J0D01*
G01*
X29071250Y-8489950D02*
G75*
G03*
X29071250Y-8489950I-20000J0D01*
G01*
X29077600Y-8737600D02*
G75*
G03*
X29077600Y-8737600I-20000J0D01*
G01*
X29077600Y-8991600D02*
G75*
G03*
X29077600Y-8991600I-20000J0D01*
G01*
X29077600Y-9245600D02*
G75*
G03*
X29077600Y-9245600I-20000J0D01*
G01*
X29077600Y-9499600D02*
G75*
G03*
X29077600Y-9499600I-20000J0D01*
G01*
X29077600Y-9753600D02*
G75*
G03*
X29077600Y-9753600I-20000J0D01*
G01*
X29077600Y-10007600D02*
G75*
G03*
X29077600Y-10007600I-20000J0D01*
G01*
X29077600Y-10261600D02*
G75*
G03*
X29077600Y-10261600I-20000J0D01*
G01*
X29077600Y-10515600D02*
G75*
G03*
X29077600Y-10515600I-20000J0D01*
G01*
X29077600Y-10769600D02*
G75*
G03*
X29077600Y-10769600I-20000J0D01*
G01*
X29077600Y-11023600D02*
G75*
G03*
X29077600Y-11023600I-20000J0D01*
G01*
X29306200Y-11785600D02*
G75*
G03*
X29306200Y-11785600I-20000J0D01*
G01*
X29309800Y-12010600D02*
G75*
G03*
X29309800Y-12010600I-20000J0D01*
G01*
X29576800Y-12564200D02*
G75*
G03*
X29576800Y-12564200I-20000J0D01*
G01*
X29797600Y-12683400D02*
G75*
G03*
X29797600Y-12683400I-20000J0D01*
G01*
X28041600Y-11796400D02*
X28041600Y-11876400D01*
X28001600Y-11836400D02*
X28081600Y-11836400D01*
X28041600Y-11996400D02*
X28041600Y-12076400D01*
X28001600Y-12036400D02*
X28081600Y-12036400D01*
X28075977Y-8334537D02*
X28075977Y-8277063D01*
X28018503Y-8277063D01*
X28018503Y-8334537D01*
X28075977Y-8334537D01*
X28075977Y-8588537D02*
X28075977Y-8531063D01*
X28018503Y-8531063D01*
X28018503Y-8588537D01*
X28075977Y-8588537D01*
X28075977Y-8842537D02*
X28075977Y-8785063D01*
X28018503Y-8785063D01*
X28018503Y-8842537D01*
X28075977Y-8842537D01*
X28075977Y-9096537D02*
X28075977Y-9039063D01*
X28018503Y-9039063D01*
X28018503Y-9096537D01*
X28075977Y-9096537D01*
X28075977Y-9350537D02*
X28075977Y-9293063D01*
X28018503Y-9293063D01*
X28018503Y-9350537D01*
X28075977Y-9350537D01*
X28075977Y-9604537D02*
X28075977Y-9547063D01*
X28018503Y-9547063D01*
X28018503Y-9604537D01*
X28075977Y-9604537D01*
X28075977Y-9858537D02*
X28075977Y-9801063D01*
X28018503Y-9801063D01*
X28018503Y-9858537D01*
X28075977Y-9858537D01*
X28075977Y-10112537D02*
X28075977Y-10055063D01*
X28018503Y-10055063D01*
X28018503Y-10112537D01*
X28075977Y-10112537D01*
X28075977Y-10366537D02*
X28075977Y-10309063D01*
X28018503Y-10309063D01*
X28018503Y-10366537D01*
X28075977Y-10366537D01*
X28075977Y-10620537D02*
X28075977Y-10563063D01*
X28018503Y-10563063D01*
X28018503Y-10620537D01*
X28075977Y-10620537D01*
X28075977Y-10874537D02*
X28075977Y-10817063D01*
X28018503Y-10817063D01*
X28018503Y-10874537D01*
X28075977Y-10874537D01*
X28075977Y-11128537D02*
X28075977Y-11071063D01*
X28018503Y-11071063D01*
X28018503Y-11128537D01*
X28075977Y-11128537D01*
X29597977Y-8334537D02*
X29597977Y-8277063D01*
X29540503Y-8277063D01*
X29540503Y-8334537D01*
X29597977Y-8334537D01*
X29597977Y-8588537D02*
X29597977Y-8531063D01*
X29540503Y-8531063D01*
X29540503Y-8588537D01*
X29597977Y-8588537D01*
X29597977Y-8842537D02*
X29597977Y-8785063D01*
X29540503Y-8785063D01*
X29540503Y-8842537D01*
X29597977Y-8842537D01*
X29597977Y-9096537D02*
X29597977Y-9039063D01*
X29540503Y-9039063D01*
X29540503Y-9096537D01*
X29597977Y-9096537D01*
X29597977Y-9350537D02*
X29597977Y-9293063D01*
X29540503Y-9293063D01*
X29540503Y-9350537D01*
X29597977Y-9350537D01*
X29597977Y-9604537D02*
X29597977Y-9547063D01*
X29540503Y-9547063D01*
X29540503Y-9604537D01*
X29597977Y-9604537D01*
X29597977Y-9858537D02*
X29597977Y-9801063D01*
X29540503Y-9801063D01*
X29540503Y-9858537D01*
X29597977Y-9858537D01*
X29597977Y-10112537D02*
X29597977Y-10055063D01*
X29540503Y-10055063D01*
X29540503Y-10112537D01*
X29597977Y-10112537D01*
X29597977Y-10366537D02*
X29597977Y-10309063D01*
X29540503Y-10309063D01*
X29540503Y-10366537D01*
X29597977Y-10366537D01*
X29597977Y-10620537D02*
X29597977Y-10563063D01*
X29540503Y-10563063D01*
X29540503Y-10620537D01*
X29597977Y-10620537D01*
X29597977Y-10874537D02*
X29597977Y-10817063D01*
X29540503Y-10817063D01*
X29540503Y-10874537D01*
X29597977Y-10874537D01*
X29597977Y-11128537D02*
X29597977Y-11071063D01*
X29540503Y-11071063D01*
X29540503Y-11128537D01*
X29597977Y-11128537D01*
D12*
X18149200Y-15084184D02*
X18149200Y-14784184D01*
X18220628Y-14784184D01*
X18263486Y-14798470D01*
X18292057Y-14827041D01*
X18306343Y-14855612D01*
X18320628Y-14912755D01*
X18320628Y-14955612D01*
X18306343Y-15012755D01*
X18292057Y-15041327D01*
X18263486Y-15069898D01*
X18220628Y-15084184D01*
X18149200Y-15084184D01*
X18449200Y-15084184D02*
X18449200Y-14884184D01*
X18449200Y-14941327D02*
X18463486Y-14912755D01*
X18477771Y-14898470D01*
X18506343Y-14884184D01*
X18534914Y-14884184D01*
X18634914Y-15084184D02*
X18634914Y-14884184D01*
X18634914Y-14784184D02*
X18620628Y-14798470D01*
X18634914Y-14812755D01*
X18649200Y-14798470D01*
X18634914Y-14784184D01*
X18634914Y-14812755D01*
X18820628Y-15084184D02*
X18792057Y-15069898D01*
X18777771Y-15041327D01*
X18777771Y-14784184D01*
X18977771Y-15084184D02*
X18949200Y-15069898D01*
X18934914Y-15041327D01*
X18934914Y-14784184D01*
X19320628Y-15084184D02*
X19320628Y-14784184D01*
X19420628Y-14998470D01*
X19520628Y-14784184D01*
X19520628Y-15084184D01*
X19792057Y-15084184D02*
X19792057Y-14927041D01*
X19777771Y-14898470D01*
X19749200Y-14884184D01*
X19692057Y-14884184D01*
X19663486Y-14898470D01*
X19792057Y-15069898D02*
X19763486Y-15084184D01*
X19692057Y-15084184D01*
X19663486Y-15069898D01*
X19649200Y-15041327D01*
X19649200Y-15012755D01*
X19663486Y-14984184D01*
X19692057Y-14969898D01*
X19763486Y-14969898D01*
X19792057Y-14955612D01*
X19934914Y-14884184D02*
X19934914Y-15184184D01*
X19934914Y-14898470D02*
X19963486Y-14884184D01*
X20020628Y-14884184D01*
X20049200Y-14898470D01*
X20063486Y-14912755D01*
X20077771Y-14941327D01*
X20077771Y-15027041D01*
X20063486Y-15055612D01*
X20049200Y-15069898D01*
X20020628Y-15084184D01*
X19963486Y-15084184D01*
X19934914Y-15069898D01*
X20206343Y-15055612D02*
X20220628Y-15069898D01*
X20206343Y-15084184D01*
X20192057Y-15069898D01*
X20206343Y-15055612D01*
X20206343Y-15084184D01*
X20206343Y-14898470D02*
X20220628Y-14912755D01*
X20206343Y-14927041D01*
X20192057Y-14912755D01*
X20206343Y-14898470D01*
X20206343Y-14927041D01*
X17832771Y-15563470D02*
X17862771Y-15593470D01*
X17862771Y-15563470D02*
X17832771Y-15593470D01*
X18206343Y-15414184D02*
X18234914Y-15414184D01*
X18263486Y-15428470D01*
X18277771Y-15442755D01*
X18292057Y-15471327D01*
X18306343Y-15528470D01*
X18306343Y-15599898D01*
X18292057Y-15657041D01*
X18277771Y-15685612D01*
X18263486Y-15699898D01*
X18234914Y-15714184D01*
X18206343Y-15714184D01*
X18177771Y-15699898D01*
X18163486Y-15685612D01*
X18149200Y-15657041D01*
X18134914Y-15599898D01*
X18134914Y-15528470D01*
X18149200Y-15471327D01*
X18163486Y-15442755D01*
X18177771Y-15428470D01*
X18206343Y-15414184D01*
X18434914Y-15685612D02*
X18449200Y-15699898D01*
X18434914Y-15714184D01*
X18420628Y-15699898D01*
X18434914Y-15685612D01*
X18434914Y-15714184D01*
X18549200Y-15414184D02*
X18734914Y-15414184D01*
X18634914Y-15528470D01*
X18677771Y-15528470D01*
X18706343Y-15542755D01*
X18720628Y-15557041D01*
X18734914Y-15585612D01*
X18734914Y-15657041D01*
X18720628Y-15685612D01*
X18706343Y-15699898D01*
X18677771Y-15714184D01*
X18592057Y-15714184D01*
X18563486Y-15699898D01*
X18549200Y-15685612D01*
X18920628Y-15414184D02*
X18949200Y-15414184D01*
X18977771Y-15428470D01*
X18992057Y-15442755D01*
X19006343Y-15471327D01*
X19020628Y-15528470D01*
X19020628Y-15599898D01*
X19006343Y-15657041D01*
X18992057Y-15685612D01*
X18977771Y-15699898D01*
X18949200Y-15714184D01*
X18920628Y-15714184D01*
X18892057Y-15699898D01*
X18877771Y-15685612D01*
X18863486Y-15657041D01*
X18849200Y-15599898D01*
X18849200Y-15528470D01*
X18863486Y-15471327D01*
X18877771Y-15442755D01*
X18892057Y-15428470D01*
X18920628Y-15414184D01*
X19206343Y-15414184D02*
X19234914Y-15414184D01*
X19263486Y-15428470D01*
X19277771Y-15442755D01*
X19292057Y-15471327D01*
X19306343Y-15528470D01*
X19306343Y-15599898D01*
X19292057Y-15657041D01*
X19277771Y-15685612D01*
X19263486Y-15699898D01*
X19234914Y-15714184D01*
X19206343Y-15714184D01*
X19177771Y-15699898D01*
X19163486Y-15685612D01*
X19149200Y-15657041D01*
X19134914Y-15599898D01*
X19134914Y-15528470D01*
X19149200Y-15471327D01*
X19163486Y-15442755D01*
X19177771Y-15428470D01*
X19206343Y-15414184D01*
X19434914Y-15714184D02*
X19434914Y-15514184D01*
X19434914Y-15542755D02*
X19449200Y-15528470D01*
X19477771Y-15514184D01*
X19520628Y-15514184D01*
X19549200Y-15528470D01*
X19563486Y-15557041D01*
X19563486Y-15714184D01*
X19563486Y-15557041D02*
X19577771Y-15528470D01*
X19606343Y-15514184D01*
X19649200Y-15514184D01*
X19677771Y-15528470D01*
X19692057Y-15557041D01*
X19692057Y-15714184D01*
X19834914Y-15714184D02*
X19834914Y-15514184D01*
X19834914Y-15542755D02*
X19849200Y-15528470D01*
X19877771Y-15514184D01*
X19920628Y-15514184D01*
X19949200Y-15528470D01*
X19963486Y-15557041D01*
X19963486Y-15714184D01*
X19963486Y-15557041D02*
X19977771Y-15528470D01*
X20006343Y-15514184D01*
X20049200Y-15514184D01*
X20077771Y-15528470D01*
X20092057Y-15557041D01*
X20092057Y-15714184D01*
X20677771Y-15399898D02*
X20420628Y-15785612D01*
X21063486Y-15414184D02*
X21092057Y-15414184D01*
X21120628Y-15428470D01*
X21134914Y-15442755D01*
X21149200Y-15471327D01*
X21163486Y-15528470D01*
X21163486Y-15599898D01*
X21149200Y-15657041D01*
X21134914Y-15685612D01*
X21120628Y-15699898D01*
X21092057Y-15714184D01*
X21063486Y-15714184D01*
X21034914Y-15699898D01*
X21020628Y-15685612D01*
X21006343Y-15657041D01*
X20992057Y-15599898D01*
X20992057Y-15528470D01*
X21006343Y-15471327D01*
X21020628Y-15442755D01*
X21034914Y-15428470D01*
X21063486Y-15414184D01*
X21292057Y-15685612D02*
X21306343Y-15699898D01*
X21292057Y-15714184D01*
X21277771Y-15699898D01*
X21292057Y-15685612D01*
X21292057Y-15714184D01*
X21492057Y-15414184D02*
X21520628Y-15414184D01*
X21549200Y-15428470D01*
X21563486Y-15442755D01*
X21577771Y-15471327D01*
X21592057Y-15528470D01*
X21592057Y-15599898D01*
X21577771Y-15657041D01*
X21563486Y-15685612D01*
X21549200Y-15699898D01*
X21520628Y-15714184D01*
X21492057Y-15714184D01*
X21463486Y-15699898D01*
X21449200Y-15685612D01*
X21434914Y-15657041D01*
X21420628Y-15599898D01*
X21420628Y-15528470D01*
X21434914Y-15471327D01*
X21449200Y-15442755D01*
X21463486Y-15428470D01*
X21492057Y-15414184D01*
X21877771Y-15714184D02*
X21706343Y-15714184D01*
X21792057Y-15714184D02*
X21792057Y-15414184D01*
X21763486Y-15457041D01*
X21734914Y-15485612D01*
X21706343Y-15499898D01*
X22163486Y-15714184D02*
X21992057Y-15714184D01*
X22077771Y-15714184D02*
X22077771Y-15414184D01*
X22049200Y-15457041D01*
X22020628Y-15485612D01*
X21992057Y-15499898D01*
X22334914Y-15542755D02*
X22306343Y-15528470D01*
X22292057Y-15514184D01*
X22277771Y-15485612D01*
X22277771Y-15471327D01*
X22292057Y-15442755D01*
X22306343Y-15428470D01*
X22334914Y-15414184D01*
X22392057Y-15414184D01*
X22420628Y-15428470D01*
X22434914Y-15442755D01*
X22449200Y-15471327D01*
X22449200Y-15485612D01*
X22434914Y-15514184D01*
X22420628Y-15528470D01*
X22392057Y-15542755D01*
X22334914Y-15542755D01*
X22306343Y-15557041D01*
X22292057Y-15571327D01*
X22277771Y-15599898D01*
X22277771Y-15657041D01*
X22292057Y-15685612D01*
X22306343Y-15699898D01*
X22334914Y-15714184D01*
X22392057Y-15714184D01*
X22420628Y-15699898D01*
X22434914Y-15685612D01*
X22449200Y-15657041D01*
X22449200Y-15599898D01*
X22434914Y-15571327D01*
X22420628Y-15557041D01*
X22392057Y-15542755D01*
X22563485Y-15414184D02*
X22563485Y-15471327D01*
X22677771Y-15414184D02*
X22677771Y-15471327D01*
X23120628Y-15828470D02*
X23106343Y-15814184D01*
X23077771Y-15771327D01*
X23063485Y-15742755D01*
X23049200Y-15699898D01*
X23034914Y-15628470D01*
X23034914Y-15571327D01*
X23049200Y-15499898D01*
X23063485Y-15457041D01*
X23077771Y-15428470D01*
X23106343Y-15385612D01*
X23120628Y-15371327D01*
X23292057Y-15414184D02*
X23320628Y-15414184D01*
X23349200Y-15428470D01*
X23363485Y-15442755D01*
X23377771Y-15471327D01*
X23392057Y-15528470D01*
X23392057Y-15599898D01*
X23377771Y-15657041D01*
X23363485Y-15685612D01*
X23349200Y-15699898D01*
X23320628Y-15714184D01*
X23292057Y-15714184D01*
X23263485Y-15699898D01*
X23249200Y-15685612D01*
X23234914Y-15657041D01*
X23220628Y-15599898D01*
X23220628Y-15528470D01*
X23234914Y-15471327D01*
X23249200Y-15442755D01*
X23263485Y-15428470D01*
X23292057Y-15414184D01*
X23749200Y-15714184D02*
X23749200Y-15414184D01*
X23877771Y-15714184D02*
X23877771Y-15557041D01*
X23863485Y-15528470D01*
X23834914Y-15514184D01*
X23792057Y-15514184D01*
X23763485Y-15528470D01*
X23749200Y-15542755D01*
X24063485Y-15714184D02*
X24034914Y-15699898D01*
X24020628Y-15685612D01*
X24006343Y-15657041D01*
X24006343Y-15571327D01*
X24020628Y-15542755D01*
X24034914Y-15528470D01*
X24063485Y-15514184D01*
X24106343Y-15514184D01*
X24134914Y-15528470D01*
X24149200Y-15542755D01*
X24163485Y-15571327D01*
X24163485Y-15657041D01*
X24149200Y-15685612D01*
X24134914Y-15699898D01*
X24106343Y-15714184D01*
X24063485Y-15714184D01*
X24334914Y-15714184D02*
X24306343Y-15699898D01*
X24292057Y-15671327D01*
X24292057Y-15414184D01*
X24563485Y-15699898D02*
X24534914Y-15714184D01*
X24477771Y-15714184D01*
X24449200Y-15699898D01*
X24434914Y-15671327D01*
X24434914Y-15557041D01*
X24449200Y-15528470D01*
X24477771Y-15514184D01*
X24534914Y-15514184D01*
X24563485Y-15528470D01*
X24577771Y-15557041D01*
X24577771Y-15585612D01*
X24434914Y-15614184D01*
X24692057Y-15699898D02*
X24720628Y-15714184D01*
X24777771Y-15714184D01*
X24806343Y-15699898D01*
X24820628Y-15671327D01*
X24820628Y-15657041D01*
X24806343Y-15628470D01*
X24777771Y-15614184D01*
X24734914Y-15614184D01*
X24706343Y-15599898D01*
X24692057Y-15571327D01*
X24692057Y-15557041D01*
X24706343Y-15528470D01*
X24734914Y-15514184D01*
X24777771Y-15514184D01*
X24806343Y-15528470D01*
X25177771Y-15599898D02*
X25406343Y-15599898D01*
X25292057Y-15714184D02*
X25292057Y-15485612D01*
X25820628Y-15542755D02*
X25792057Y-15528470D01*
X25777771Y-15514184D01*
X25763485Y-15485612D01*
X25763485Y-15471327D01*
X25777771Y-15442755D01*
X25792057Y-15428470D01*
X25820628Y-15414184D01*
X25877771Y-15414184D01*
X25906343Y-15428470D01*
X25920628Y-15442755D01*
X25934914Y-15471327D01*
X25934914Y-15485612D01*
X25920628Y-15514184D01*
X25906343Y-15528470D01*
X25877771Y-15542755D01*
X25820628Y-15542755D01*
X25792057Y-15557041D01*
X25777771Y-15571327D01*
X25763485Y-15599898D01*
X25763485Y-15657041D01*
X25777771Y-15685612D01*
X25792057Y-15699898D01*
X25820628Y-15714184D01*
X25877771Y-15714184D01*
X25906343Y-15699898D01*
X25920628Y-15685612D01*
X25934914Y-15657041D01*
X25934914Y-15599898D01*
X25920628Y-15571327D01*
X25906343Y-15557041D01*
X25877771Y-15542755D01*
X26206343Y-15414184D02*
X26063485Y-15414184D01*
X26049200Y-15557041D01*
X26063485Y-15542755D01*
X26092057Y-15528470D01*
X26163485Y-15528470D01*
X26192057Y-15542755D01*
X26206343Y-15557041D01*
X26220628Y-15585612D01*
X26220628Y-15657041D01*
X26206343Y-15685612D01*
X26192057Y-15699898D01*
X26163485Y-15714184D01*
X26092057Y-15714184D01*
X26063485Y-15699898D01*
X26049200Y-15685612D01*
X26563485Y-15699898D02*
X26592057Y-15714184D01*
X26649200Y-15714184D01*
X26677771Y-15699898D01*
X26692057Y-15671327D01*
X26692057Y-15657041D01*
X26677771Y-15628470D01*
X26649200Y-15614184D01*
X26606343Y-15614184D01*
X26577771Y-15599898D01*
X26563485Y-15571327D01*
X26563485Y-15557041D01*
X26577771Y-15528470D01*
X26606343Y-15514184D01*
X26649200Y-15514184D01*
X26677771Y-15528470D01*
X26863485Y-15714184D02*
X26834914Y-15699898D01*
X26820628Y-15671327D01*
X26820628Y-15414184D01*
X27020628Y-15714184D02*
X26992057Y-15699898D01*
X26977771Y-15685612D01*
X26963485Y-15657041D01*
X26963485Y-15571327D01*
X26977771Y-15542755D01*
X26992057Y-15528470D01*
X27020628Y-15514184D01*
X27063485Y-15514184D01*
X27092057Y-15528470D01*
X27106343Y-15542755D01*
X27120628Y-15571327D01*
X27120628Y-15657041D01*
X27106343Y-15685612D01*
X27092057Y-15699898D01*
X27063485Y-15714184D01*
X27020628Y-15714184D01*
X27206343Y-15514184D02*
X27320628Y-15514184D01*
X27249200Y-15414184D02*
X27249200Y-15671327D01*
X27263485Y-15699898D01*
X27292057Y-15714184D01*
X27320628Y-15714184D01*
X27406343Y-15699898D02*
X27434914Y-15714184D01*
X27492057Y-15714184D01*
X27520628Y-15699898D01*
X27534914Y-15671327D01*
X27534914Y-15657041D01*
X27520628Y-15628470D01*
X27492057Y-15614184D01*
X27449200Y-15614184D01*
X27420628Y-15599898D01*
X27406343Y-15571327D01*
X27406343Y-15557041D01*
X27420628Y-15528470D01*
X27449200Y-15514184D01*
X27492057Y-15514184D01*
X27520628Y-15528470D01*
X27634914Y-15828470D02*
X27649200Y-15814184D01*
X27677771Y-15771327D01*
X27692057Y-15742755D01*
X27706343Y-15699898D01*
X27720628Y-15628470D01*
X27720628Y-15571327D01*
X27706343Y-15499898D01*
X27692057Y-15457041D01*
X27677771Y-15428470D01*
X27649200Y-15385612D01*
X27634914Y-15371327D01*
X17862771Y-15974470D02*
G75*
G03*
X17862771Y-15974470I-20000J0D01*
G01*
X18206343Y-15810184D02*
X18234914Y-15810184D01*
X18263486Y-15824470D01*
X18277771Y-15838755D01*
X18292057Y-15867327D01*
X18306343Y-15924470D01*
X18306343Y-15995898D01*
X18292057Y-16053041D01*
X18277771Y-16081612D01*
X18263486Y-16095898D01*
X18234914Y-16110184D01*
X18206343Y-16110184D01*
X18177771Y-16095898D01*
X18163486Y-16081612D01*
X18149200Y-16053041D01*
X18134914Y-15995898D01*
X18134914Y-15924470D01*
X18149200Y-15867327D01*
X18163486Y-15838755D01*
X18177771Y-15824470D01*
X18206343Y-15810184D01*
X18434914Y-16081612D02*
X18449200Y-16095898D01*
X18434914Y-16110184D01*
X18420628Y-16095898D01*
X18434914Y-16081612D01*
X18434914Y-16110184D01*
X18706343Y-15910184D02*
X18706343Y-16110184D01*
X18634914Y-15795898D02*
X18563486Y-16010184D01*
X18749200Y-16010184D01*
X18920628Y-15810184D02*
X18949200Y-15810184D01*
X18977771Y-15824470D01*
X18992057Y-15838755D01*
X19006343Y-15867327D01*
X19020628Y-15924470D01*
X19020628Y-15995898D01*
X19006343Y-16053041D01*
X18992057Y-16081612D01*
X18977771Y-16095898D01*
X18949200Y-16110184D01*
X18920628Y-16110184D01*
X18892057Y-16095898D01*
X18877771Y-16081612D01*
X18863486Y-16053041D01*
X18849200Y-15995898D01*
X18849200Y-15924470D01*
X18863486Y-15867327D01*
X18877771Y-15838755D01*
X18892057Y-15824470D01*
X18920628Y-15810184D01*
X19206343Y-15810184D02*
X19234914Y-15810184D01*
X19263486Y-15824470D01*
X19277771Y-15838755D01*
X19292057Y-15867327D01*
X19306343Y-15924470D01*
X19306343Y-15995898D01*
X19292057Y-16053041D01*
X19277771Y-16081612D01*
X19263486Y-16095898D01*
X19234914Y-16110184D01*
X19206343Y-16110184D01*
X19177771Y-16095898D01*
X19163486Y-16081612D01*
X19149200Y-16053041D01*
X19134914Y-15995898D01*
X19134914Y-15924470D01*
X19149200Y-15867327D01*
X19163486Y-15838755D01*
X19177771Y-15824470D01*
X19206343Y-15810184D01*
X19434914Y-16110184D02*
X19434914Y-15910184D01*
X19434914Y-15938755D02*
X19449200Y-15924470D01*
X19477771Y-15910184D01*
X19520628Y-15910184D01*
X19549200Y-15924470D01*
X19563486Y-15953041D01*
X19563486Y-16110184D01*
X19563486Y-15953041D02*
X19577771Y-15924470D01*
X19606343Y-15910184D01*
X19649200Y-15910184D01*
X19677771Y-15924470D01*
X19692057Y-15953041D01*
X19692057Y-16110184D01*
X19834914Y-16110184D02*
X19834914Y-15910184D01*
X19834914Y-15938755D02*
X19849200Y-15924470D01*
X19877771Y-15910184D01*
X19920628Y-15910184D01*
X19949200Y-15924470D01*
X19963486Y-15953041D01*
X19963486Y-16110184D01*
X19963486Y-15953041D02*
X19977771Y-15924470D01*
X20006343Y-15910184D01*
X20049200Y-15910184D01*
X20077771Y-15924470D01*
X20092057Y-15953041D01*
X20092057Y-16110184D01*
X20677771Y-15795898D02*
X20420628Y-16181612D01*
X21063486Y-15810184D02*
X21092057Y-15810184D01*
X21120628Y-15824470D01*
X21134914Y-15838755D01*
X21149200Y-15867327D01*
X21163486Y-15924470D01*
X21163486Y-15995898D01*
X21149200Y-16053041D01*
X21134914Y-16081612D01*
X21120628Y-16095898D01*
X21092057Y-16110184D01*
X21063486Y-16110184D01*
X21034914Y-16095898D01*
X21020628Y-16081612D01*
X21006343Y-16053041D01*
X20992057Y-15995898D01*
X20992057Y-15924470D01*
X21006343Y-15867327D01*
X21020628Y-15838755D01*
X21034914Y-15824470D01*
X21063486Y-15810184D01*
X21292057Y-16081612D02*
X21306343Y-16095898D01*
X21292057Y-16110184D01*
X21277771Y-16095898D01*
X21292057Y-16081612D01*
X21292057Y-16110184D01*
X21492057Y-15810184D02*
X21520628Y-15810184D01*
X21549200Y-15824470D01*
X21563486Y-15838755D01*
X21577771Y-15867327D01*
X21592057Y-15924470D01*
X21592057Y-15995898D01*
X21577771Y-16053041D01*
X21563486Y-16081612D01*
X21549200Y-16095898D01*
X21520628Y-16110184D01*
X21492057Y-16110184D01*
X21463486Y-16095898D01*
X21449200Y-16081612D01*
X21434914Y-16053041D01*
X21420628Y-15995898D01*
X21420628Y-15924470D01*
X21434914Y-15867327D01*
X21449200Y-15838755D01*
X21463486Y-15824470D01*
X21492057Y-15810184D01*
X21877771Y-16110184D02*
X21706343Y-16110184D01*
X21792057Y-16110184D02*
X21792057Y-15810184D01*
X21763486Y-15853041D01*
X21734914Y-15881612D01*
X21706343Y-15895898D01*
X22149200Y-15810184D02*
X22006343Y-15810184D01*
X21992057Y-15953041D01*
X22006343Y-15938755D01*
X22034914Y-15924470D01*
X22106343Y-15924470D01*
X22134914Y-15938755D01*
X22149200Y-15953041D01*
X22163486Y-15981612D01*
X22163486Y-16053041D01*
X22149200Y-16081612D01*
X22134914Y-16095898D01*
X22106343Y-16110184D01*
X22034914Y-16110184D01*
X22006343Y-16095898D01*
X21992057Y-16081612D01*
X22263486Y-15810184D02*
X22463485Y-15810184D01*
X22334914Y-16110184D01*
X22563485Y-15810184D02*
X22563485Y-15867327D01*
X22677771Y-15810184D02*
X22677771Y-15867327D01*
X23120628Y-16224470D02*
X23106343Y-16210184D01*
X23077771Y-16167327D01*
X23063485Y-16138755D01*
X23049200Y-16095898D01*
X23034914Y-16024470D01*
X23034914Y-15967327D01*
X23049200Y-15895898D01*
X23063485Y-15853041D01*
X23077771Y-15824470D01*
X23106343Y-15781612D01*
X23120628Y-15767327D01*
X23363485Y-15910184D02*
X23363485Y-16110184D01*
X23292057Y-15795898D02*
X23220628Y-16010184D01*
X23406343Y-16010184D01*
X23492057Y-15810184D02*
X23677771Y-15810184D01*
X23577771Y-15924470D01*
X23620628Y-15924470D01*
X23649200Y-15938755D01*
X23663485Y-15953041D01*
X23677771Y-15981612D01*
X23677771Y-16053041D01*
X23663485Y-16081612D01*
X23649200Y-16095898D01*
X23620628Y-16110184D01*
X23534914Y-16110184D01*
X23506343Y-16095898D01*
X23492057Y-16081612D01*
X24034914Y-16110184D02*
X24034914Y-15810184D01*
X24163485Y-16110184D02*
X24163485Y-15953041D01*
X24149200Y-15924470D01*
X24120628Y-15910184D01*
X24077771Y-15910184D01*
X24049200Y-15924470D01*
X24034914Y-15938755D01*
X24349200Y-16110184D02*
X24320628Y-16095898D01*
X24306343Y-16081612D01*
X24292057Y-16053041D01*
X24292057Y-15967327D01*
X24306343Y-15938755D01*
X24320628Y-15924470D01*
X24349200Y-15910184D01*
X24392057Y-15910184D01*
X24420628Y-15924470D01*
X24434914Y-15938755D01*
X24449200Y-15967327D01*
X24449200Y-16053041D01*
X24434914Y-16081612D01*
X24420628Y-16095898D01*
X24392057Y-16110184D01*
X24349200Y-16110184D01*
X24620628Y-16110184D02*
X24592057Y-16095898D01*
X24577771Y-16067327D01*
X24577771Y-15810184D01*
X24849200Y-16095898D02*
X24820628Y-16110184D01*
X24763485Y-16110184D01*
X24734914Y-16095898D01*
X24720628Y-16067327D01*
X24720628Y-15953041D01*
X24734914Y-15924470D01*
X24763485Y-15910184D01*
X24820628Y-15910184D01*
X24849200Y-15924470D01*
X24863485Y-15953041D01*
X24863485Y-15981612D01*
X24720628Y-16010184D01*
X24977771Y-16095898D02*
X25006343Y-16110184D01*
X25063485Y-16110184D01*
X25092057Y-16095898D01*
X25106343Y-16067327D01*
X25106343Y-16053041D01*
X25092057Y-16024470D01*
X25063485Y-16010184D01*
X25020628Y-16010184D01*
X24992057Y-15995898D01*
X24977771Y-15967327D01*
X24977771Y-15953041D01*
X24992057Y-15924470D01*
X25020628Y-15910184D01*
X25063485Y-15910184D01*
X25092057Y-15924470D01*
X25463485Y-15995898D02*
X25692057Y-15995898D01*
X25577771Y-16110184D02*
X25577771Y-15881612D01*
X26034914Y-15810184D02*
X26220628Y-15810184D01*
X26120628Y-15924470D01*
X26163485Y-15924470D01*
X26192057Y-15938755D01*
X26206343Y-15953041D01*
X26220628Y-15981612D01*
X26220628Y-16053041D01*
X26206343Y-16081612D01*
X26192057Y-16095898D01*
X26163485Y-16110184D01*
X26077771Y-16110184D01*
X26049200Y-16095898D01*
X26034914Y-16081612D01*
X26477771Y-15910184D02*
X26477771Y-16110184D01*
X26406343Y-15795898D02*
X26334914Y-16010184D01*
X26520628Y-16010184D01*
X26849200Y-16095898D02*
X26877771Y-16110184D01*
X26934914Y-16110184D01*
X26963485Y-16095898D01*
X26977771Y-16067327D01*
X26977771Y-16053041D01*
X26963485Y-16024470D01*
X26934914Y-16010184D01*
X26892057Y-16010184D01*
X26863485Y-15995898D01*
X26849200Y-15967327D01*
X26849200Y-15953041D01*
X26863485Y-15924470D01*
X26892057Y-15910184D01*
X26934914Y-15910184D01*
X26963485Y-15924470D01*
X27149200Y-16110184D02*
X27120628Y-16095898D01*
X27106343Y-16067327D01*
X27106343Y-15810184D01*
X27306343Y-16110184D02*
X27277771Y-16095898D01*
X27263485Y-16081612D01*
X27249200Y-16053041D01*
X27249200Y-15967327D01*
X27263485Y-15938755D01*
X27277771Y-15924470D01*
X27306343Y-15910184D01*
X27349200Y-15910184D01*
X27377771Y-15924470D01*
X27392057Y-15938755D01*
X27406343Y-15967327D01*
X27406343Y-16053041D01*
X27392057Y-16081612D01*
X27377771Y-16095898D01*
X27349200Y-16110184D01*
X27306343Y-16110184D01*
X27492057Y-15910184D02*
X27606343Y-15910184D01*
X27534914Y-15810184D02*
X27534914Y-16067327D01*
X27549200Y-16095898D01*
X27577771Y-16110184D01*
X27606343Y-16110184D01*
X27692057Y-16095898D02*
X27720628Y-16110184D01*
X27777771Y-16110184D01*
X27806343Y-16095898D01*
X27820628Y-16067327D01*
X27820628Y-16053041D01*
X27806343Y-16024470D01*
X27777771Y-16010184D01*
X27734914Y-16010184D01*
X27706343Y-15995898D01*
X27692057Y-15967327D01*
X27692057Y-15953041D01*
X27706343Y-15924470D01*
X27734914Y-15910184D01*
X27777771Y-15910184D01*
X27806343Y-15924470D01*
X27920628Y-16224470D02*
X27934914Y-16210184D01*
X27963485Y-16167327D01*
X27977771Y-16138755D01*
X27992057Y-16095898D01*
X28006343Y-16024470D01*
X28006343Y-15967327D01*
X27992057Y-15895898D01*
X27977771Y-15853041D01*
X27963485Y-15824470D01*
X27934914Y-15781612D01*
X27920628Y-15767327D01*
X17822771Y-16330470D02*
X17822771Y-16410470D01*
X17782771Y-16370470D02*
X17862771Y-16370470D01*
X18206343Y-16206184D02*
X18234914Y-16206184D01*
X18263486Y-16220470D01*
X18277771Y-16234755D01*
X18292057Y-16263327D01*
X18306343Y-16320470D01*
X18306343Y-16391898D01*
X18292057Y-16449041D01*
X18277771Y-16477612D01*
X18263486Y-16491898D01*
X18234914Y-16506184D01*
X18206343Y-16506184D01*
X18177771Y-16491898D01*
X18163486Y-16477612D01*
X18149200Y-16449041D01*
X18134914Y-16391898D01*
X18134914Y-16320470D01*
X18149200Y-16263327D01*
X18163486Y-16234755D01*
X18177771Y-16220470D01*
X18206343Y-16206184D01*
X18434914Y-16477612D02*
X18449200Y-16491898D01*
X18434914Y-16506184D01*
X18420628Y-16491898D01*
X18434914Y-16477612D01*
X18434914Y-16506184D01*
X18620628Y-16334755D02*
X18592057Y-16320470D01*
X18577771Y-16306184D01*
X18563486Y-16277612D01*
X18563486Y-16263327D01*
X18577771Y-16234755D01*
X18592057Y-16220470D01*
X18620628Y-16206184D01*
X18677771Y-16206184D01*
X18706343Y-16220470D01*
X18720628Y-16234755D01*
X18734914Y-16263327D01*
X18734914Y-16277612D01*
X18720628Y-16306184D01*
X18706343Y-16320470D01*
X18677771Y-16334755D01*
X18620628Y-16334755D01*
X18592057Y-16349041D01*
X18577771Y-16363327D01*
X18563486Y-16391898D01*
X18563486Y-16449041D01*
X18577771Y-16477612D01*
X18592057Y-16491898D01*
X18620628Y-16506184D01*
X18677771Y-16506184D01*
X18706343Y-16491898D01*
X18720628Y-16477612D01*
X18734914Y-16449041D01*
X18734914Y-16391898D01*
X18720628Y-16363327D01*
X18706343Y-16349041D01*
X18677771Y-16334755D01*
X18920628Y-16206184D02*
X18949200Y-16206184D01*
X18977771Y-16220470D01*
X18992057Y-16234755D01*
X19006343Y-16263327D01*
X19020628Y-16320470D01*
X19020628Y-16391898D01*
X19006343Y-16449041D01*
X18992057Y-16477612D01*
X18977771Y-16491898D01*
X18949200Y-16506184D01*
X18920628Y-16506184D01*
X18892057Y-16491898D01*
X18877771Y-16477612D01*
X18863486Y-16449041D01*
X18849200Y-16391898D01*
X18849200Y-16320470D01*
X18863486Y-16263327D01*
X18877771Y-16234755D01*
X18892057Y-16220470D01*
X18920628Y-16206184D01*
X19206343Y-16206184D02*
X19234914Y-16206184D01*
X19263486Y-16220470D01*
X19277771Y-16234755D01*
X19292057Y-16263327D01*
X19306343Y-16320470D01*
X19306343Y-16391898D01*
X19292057Y-16449041D01*
X19277771Y-16477612D01*
X19263486Y-16491898D01*
X19234914Y-16506184D01*
X19206343Y-16506184D01*
X19177771Y-16491898D01*
X19163486Y-16477612D01*
X19149200Y-16449041D01*
X19134914Y-16391898D01*
X19134914Y-16320470D01*
X19149200Y-16263327D01*
X19163486Y-16234755D01*
X19177771Y-16220470D01*
X19206343Y-16206184D01*
X19434914Y-16506184D02*
X19434914Y-16306184D01*
X19434914Y-16334755D02*
X19449200Y-16320470D01*
X19477771Y-16306184D01*
X19520628Y-16306184D01*
X19549200Y-16320470D01*
X19563486Y-16349041D01*
X19563486Y-16506184D01*
X19563486Y-16349041D02*
X19577771Y-16320470D01*
X19606343Y-16306184D01*
X19649200Y-16306184D01*
X19677771Y-16320470D01*
X19692057Y-16349041D01*
X19692057Y-16506184D01*
X19834914Y-16506184D02*
X19834914Y-16306184D01*
X19834914Y-16334755D02*
X19849200Y-16320470D01*
X19877771Y-16306184D01*
X19920628Y-16306184D01*
X19949200Y-16320470D01*
X19963486Y-16349041D01*
X19963486Y-16506184D01*
X19963486Y-16349041D02*
X19977771Y-16320470D01*
X20006343Y-16306184D01*
X20049200Y-16306184D01*
X20077771Y-16320470D01*
X20092057Y-16349041D01*
X20092057Y-16506184D01*
X20677771Y-16191898D02*
X20420628Y-16577612D01*
X21063486Y-16206184D02*
X21092057Y-16206184D01*
X21120628Y-16220470D01*
X21134914Y-16234755D01*
X21149200Y-16263327D01*
X21163486Y-16320470D01*
X21163486Y-16391898D01*
X21149200Y-16449041D01*
X21134914Y-16477612D01*
X21120628Y-16491898D01*
X21092057Y-16506184D01*
X21063486Y-16506184D01*
X21034914Y-16491898D01*
X21020628Y-16477612D01*
X21006343Y-16449041D01*
X20992057Y-16391898D01*
X20992057Y-16320470D01*
X21006343Y-16263327D01*
X21020628Y-16234755D01*
X21034914Y-16220470D01*
X21063486Y-16206184D01*
X21292057Y-16477612D02*
X21306343Y-16491898D01*
X21292057Y-16506184D01*
X21277771Y-16491898D01*
X21292057Y-16477612D01*
X21292057Y-16506184D01*
X21492057Y-16206184D02*
X21520628Y-16206184D01*
X21549200Y-16220470D01*
X21563486Y-16234755D01*
X21577771Y-16263327D01*
X21592057Y-16320470D01*
X21592057Y-16391898D01*
X21577771Y-16449041D01*
X21563486Y-16477612D01*
X21549200Y-16491898D01*
X21520628Y-16506184D01*
X21492057Y-16506184D01*
X21463486Y-16491898D01*
X21449200Y-16477612D01*
X21434914Y-16449041D01*
X21420628Y-16391898D01*
X21420628Y-16320470D01*
X21434914Y-16263327D01*
X21449200Y-16234755D01*
X21463486Y-16220470D01*
X21492057Y-16206184D01*
X21692057Y-16206184D02*
X21877771Y-16206184D01*
X21777771Y-16320470D01*
X21820628Y-16320470D01*
X21849200Y-16334755D01*
X21863486Y-16349041D01*
X21877771Y-16377612D01*
X21877771Y-16449041D01*
X21863486Y-16477612D01*
X21849200Y-16491898D01*
X21820628Y-16506184D01*
X21734914Y-16506184D01*
X21706343Y-16491898D01*
X21692057Y-16477612D01*
X22163486Y-16506184D02*
X21992057Y-16506184D01*
X22077771Y-16506184D02*
X22077771Y-16206184D01*
X22049200Y-16249041D01*
X22020628Y-16277612D01*
X21992057Y-16291898D01*
X22434914Y-16206184D02*
X22292057Y-16206184D01*
X22277771Y-16349041D01*
X22292057Y-16334755D01*
X22320628Y-16320470D01*
X22392057Y-16320470D01*
X22420628Y-16334755D01*
X22434914Y-16349041D01*
X22449200Y-16377612D01*
X22449200Y-16449041D01*
X22434914Y-16477612D01*
X22420628Y-16491898D01*
X22392057Y-16506184D01*
X22320628Y-16506184D01*
X22292057Y-16491898D01*
X22277771Y-16477612D01*
X22563485Y-16206184D02*
X22563485Y-16263327D01*
X22677771Y-16206184D02*
X22677771Y-16263327D01*
X23120628Y-16620470D02*
X23106343Y-16606184D01*
X23077771Y-16563327D01*
X23063485Y-16534755D01*
X23049200Y-16491898D01*
X23034914Y-16420470D01*
X23034914Y-16363327D01*
X23049200Y-16291898D01*
X23063485Y-16249041D01*
X23077771Y-16220470D01*
X23106343Y-16177612D01*
X23120628Y-16163327D01*
X23220628Y-16234755D02*
X23234914Y-16220470D01*
X23263485Y-16206184D01*
X23334914Y-16206184D01*
X23363485Y-16220470D01*
X23377771Y-16234755D01*
X23392057Y-16263327D01*
X23392057Y-16291898D01*
X23377771Y-16334755D01*
X23206343Y-16506184D01*
X23392057Y-16506184D01*
X23749200Y-16506184D02*
X23749200Y-16206184D01*
X23877771Y-16506184D02*
X23877771Y-16349041D01*
X23863485Y-16320470D01*
X23834914Y-16306184D01*
X23792057Y-16306184D01*
X23763485Y-16320470D01*
X23749200Y-16334755D01*
X24063485Y-16506184D02*
X24034914Y-16491898D01*
X24020628Y-16477612D01*
X24006343Y-16449041D01*
X24006343Y-16363327D01*
X24020628Y-16334755D01*
X24034914Y-16320470D01*
X24063485Y-16306184D01*
X24106343Y-16306184D01*
X24134914Y-16320470D01*
X24149200Y-16334755D01*
X24163485Y-16363327D01*
X24163485Y-16449041D01*
X24149200Y-16477612D01*
X24134914Y-16491898D01*
X24106343Y-16506184D01*
X24063485Y-16506184D01*
X24334914Y-16506184D02*
X24306343Y-16491898D01*
X24292057Y-16463327D01*
X24292057Y-16206184D01*
X24563485Y-16491898D02*
X24534914Y-16506184D01*
X24477771Y-16506184D01*
X24449200Y-16491898D01*
X24434914Y-16463327D01*
X24434914Y-16349041D01*
X24449200Y-16320470D01*
X24477771Y-16306184D01*
X24534914Y-16306184D01*
X24563485Y-16320470D01*
X24577771Y-16349041D01*
X24577771Y-16377612D01*
X24434914Y-16406184D01*
X24692057Y-16491898D02*
X24720628Y-16506184D01*
X24777771Y-16506184D01*
X24806343Y-16491898D01*
X24820628Y-16463327D01*
X24820628Y-16449041D01*
X24806343Y-16420470D01*
X24777771Y-16406184D01*
X24734914Y-16406184D01*
X24706343Y-16391898D01*
X24692057Y-16363327D01*
X24692057Y-16349041D01*
X24706343Y-16320470D01*
X24734914Y-16306184D01*
X24777771Y-16306184D01*
X24806343Y-16320470D01*
X24920628Y-16620470D02*
X24934914Y-16606184D01*
X24963485Y-16563327D01*
X24977771Y-16534755D01*
X24992057Y-16491898D01*
X25006343Y-16420470D01*
X25006343Y-16363327D01*
X24992057Y-16291898D01*
X24977771Y-16249041D01*
X24963485Y-16220470D01*
X24934914Y-16177612D01*
X24920628Y-16163327D01*
X17850868Y-16795207D02*
X17850868Y-16737733D01*
X17793394Y-16737733D01*
X17793394Y-16795207D01*
X17850868Y-16795207D01*
X18206343Y-16602184D02*
X18234914Y-16602184D01*
X18263486Y-16616470D01*
X18277771Y-16630755D01*
X18292057Y-16659327D01*
X18306343Y-16716470D01*
X18306343Y-16787898D01*
X18292057Y-16845041D01*
X18277771Y-16873613D01*
X18263486Y-16887898D01*
X18234914Y-16902184D01*
X18206343Y-16902184D01*
X18177771Y-16887898D01*
X18163486Y-16873613D01*
X18149200Y-16845041D01*
X18134914Y-16787898D01*
X18134914Y-16716470D01*
X18149200Y-16659327D01*
X18163486Y-16630755D01*
X18177771Y-16616470D01*
X18206343Y-16602184D01*
X18434914Y-16873613D02*
X18449200Y-16887898D01*
X18434914Y-16902184D01*
X18420628Y-16887898D01*
X18434914Y-16873613D01*
X18434914Y-16902184D01*
X18620628Y-16730755D02*
X18592057Y-16716470D01*
X18577771Y-16702184D01*
X18563486Y-16673612D01*
X18563486Y-16659327D01*
X18577771Y-16630755D01*
X18592057Y-16616470D01*
X18620628Y-16602184D01*
X18677771Y-16602184D01*
X18706343Y-16616470D01*
X18720628Y-16630755D01*
X18734914Y-16659327D01*
X18734914Y-16673612D01*
X18720628Y-16702184D01*
X18706343Y-16716470D01*
X18677771Y-16730755D01*
X18620628Y-16730755D01*
X18592057Y-16745041D01*
X18577771Y-16759327D01*
X18563486Y-16787898D01*
X18563486Y-16845041D01*
X18577771Y-16873613D01*
X18592057Y-16887898D01*
X18620628Y-16902184D01*
X18677771Y-16902184D01*
X18706343Y-16887898D01*
X18720628Y-16873613D01*
X18734914Y-16845041D01*
X18734914Y-16787898D01*
X18720628Y-16759327D01*
X18706343Y-16745041D01*
X18677771Y-16730755D01*
X19020628Y-16902184D02*
X18849200Y-16902184D01*
X18934914Y-16902184D02*
X18934914Y-16602184D01*
X18906343Y-16645041D01*
X18877771Y-16673612D01*
X18849200Y-16687898D01*
X19120628Y-16602184D02*
X19306343Y-16602184D01*
X19206343Y-16716470D01*
X19249200Y-16716470D01*
X19277771Y-16730755D01*
X19292057Y-16745041D01*
X19306343Y-16773612D01*
X19306343Y-16845041D01*
X19292057Y-16873613D01*
X19277771Y-16887898D01*
X19249200Y-16902184D01*
X19163486Y-16902184D01*
X19134914Y-16887898D01*
X19120628Y-16873613D01*
X19434914Y-16902184D02*
X19434914Y-16702184D01*
X19434914Y-16730755D02*
X19449200Y-16716470D01*
X19477771Y-16702184D01*
X19520628Y-16702184D01*
X19549200Y-16716470D01*
X19563486Y-16745041D01*
X19563486Y-16902184D01*
X19563486Y-16745041D02*
X19577771Y-16716470D01*
X19606343Y-16702184D01*
X19649200Y-16702184D01*
X19677771Y-16716470D01*
X19692057Y-16745041D01*
X19692057Y-16902184D01*
X19834914Y-16902184D02*
X19834914Y-16702184D01*
X19834914Y-16730755D02*
X19849200Y-16716470D01*
X19877771Y-16702184D01*
X19920628Y-16702184D01*
X19949200Y-16716470D01*
X19963486Y-16745041D01*
X19963486Y-16902184D01*
X19963486Y-16745041D02*
X19977771Y-16716470D01*
X20006343Y-16702184D01*
X20049200Y-16702184D01*
X20077771Y-16716470D01*
X20092057Y-16745041D01*
X20092057Y-16902184D01*
X20677771Y-16587898D02*
X20420628Y-16973613D01*
X21063486Y-16602184D02*
X21092057Y-16602184D01*
X21120628Y-16616470D01*
X21134914Y-16630755D01*
X21149200Y-16659327D01*
X21163486Y-16716470D01*
X21163486Y-16787898D01*
X21149200Y-16845041D01*
X21134914Y-16873613D01*
X21120628Y-16887898D01*
X21092057Y-16902184D01*
X21063486Y-16902184D01*
X21034914Y-16887898D01*
X21020628Y-16873613D01*
X21006343Y-16845041D01*
X20992057Y-16787898D01*
X20992057Y-16716470D01*
X21006343Y-16659327D01*
X21020628Y-16630755D01*
X21034914Y-16616470D01*
X21063486Y-16602184D01*
X21292057Y-16873613D02*
X21306343Y-16887898D01*
X21292057Y-16902184D01*
X21277771Y-16887898D01*
X21292057Y-16873613D01*
X21292057Y-16902184D01*
X21492057Y-16602184D02*
X21520628Y-16602184D01*
X21549200Y-16616470D01*
X21563486Y-16630755D01*
X21577771Y-16659327D01*
X21592057Y-16716470D01*
X21592057Y-16787898D01*
X21577771Y-16845041D01*
X21563486Y-16873613D01*
X21549200Y-16887898D01*
X21520628Y-16902184D01*
X21492057Y-16902184D01*
X21463486Y-16887898D01*
X21449200Y-16873613D01*
X21434914Y-16845041D01*
X21420628Y-16787898D01*
X21420628Y-16716470D01*
X21434914Y-16659327D01*
X21449200Y-16630755D01*
X21463486Y-16616470D01*
X21492057Y-16602184D01*
X21692057Y-16602184D02*
X21877771Y-16602184D01*
X21777771Y-16716470D01*
X21820628Y-16716470D01*
X21849200Y-16730755D01*
X21863486Y-16745041D01*
X21877771Y-16773612D01*
X21877771Y-16845041D01*
X21863486Y-16873613D01*
X21849200Y-16887898D01*
X21820628Y-16902184D01*
X21734914Y-16902184D01*
X21706343Y-16887898D01*
X21692057Y-16873613D01*
X21992057Y-16630755D02*
X22006343Y-16616470D01*
X22034914Y-16602184D01*
X22106343Y-16602184D01*
X22134914Y-16616470D01*
X22149200Y-16630755D01*
X22163486Y-16659327D01*
X22163486Y-16687898D01*
X22149200Y-16730755D01*
X21977771Y-16902184D01*
X22163486Y-16902184D01*
X22349200Y-16602184D02*
X22377771Y-16602184D01*
X22406343Y-16616470D01*
X22420628Y-16630755D01*
X22434914Y-16659327D01*
X22449200Y-16716470D01*
X22449200Y-16787898D01*
X22434914Y-16845041D01*
X22420628Y-16873613D01*
X22406343Y-16887898D01*
X22377771Y-16902184D01*
X22349200Y-16902184D01*
X22320628Y-16887898D01*
X22306343Y-16873613D01*
X22292057Y-16845041D01*
X22277771Y-16787898D01*
X22277771Y-16716470D01*
X22292057Y-16659327D01*
X22306343Y-16630755D01*
X22320628Y-16616470D01*
X22349200Y-16602184D01*
X22563485Y-16602184D02*
X22563485Y-16659327D01*
X22677771Y-16602184D02*
X22677771Y-16659327D01*
X23120628Y-17016470D02*
X23106343Y-17002184D01*
X23077771Y-16959327D01*
X23063485Y-16930755D01*
X23049200Y-16887898D01*
X23034914Y-16816470D01*
X23034914Y-16759327D01*
X23049200Y-16687898D01*
X23063485Y-16645041D01*
X23077771Y-16616470D01*
X23106343Y-16573612D01*
X23120628Y-16559327D01*
X23220628Y-16630755D02*
X23234914Y-16616470D01*
X23263485Y-16602184D01*
X23334914Y-16602184D01*
X23363485Y-16616470D01*
X23377771Y-16630755D01*
X23392057Y-16659327D01*
X23392057Y-16687898D01*
X23377771Y-16730755D01*
X23206343Y-16902184D01*
X23392057Y-16902184D01*
X23649200Y-16702184D02*
X23649200Y-16902184D01*
X23577771Y-16587898D02*
X23506343Y-16802184D01*
X23692057Y-16802184D01*
X24034914Y-16902184D02*
X24034914Y-16602184D01*
X24163485Y-16902184D02*
X24163485Y-16745041D01*
X24149200Y-16716470D01*
X24120628Y-16702184D01*
X24077771Y-16702184D01*
X24049200Y-16716470D01*
X24034914Y-16730755D01*
X24349200Y-16902184D02*
X24320628Y-16887898D01*
X24306343Y-16873613D01*
X24292057Y-16845041D01*
X24292057Y-16759327D01*
X24306343Y-16730755D01*
X24320628Y-16716470D01*
X24349200Y-16702184D01*
X24392057Y-16702184D01*
X24420628Y-16716470D01*
X24434914Y-16730755D01*
X24449200Y-16759327D01*
X24449200Y-16845041D01*
X24434914Y-16873613D01*
X24420628Y-16887898D01*
X24392057Y-16902184D01*
X24349200Y-16902184D01*
X24620628Y-16902184D02*
X24592057Y-16887898D01*
X24577771Y-16859327D01*
X24577771Y-16602184D01*
X24849200Y-16887898D02*
X24820628Y-16902184D01*
X24763485Y-16902184D01*
X24734914Y-16887898D01*
X24720628Y-16859327D01*
X24720628Y-16745041D01*
X24734914Y-16716470D01*
X24763485Y-16702184D01*
X24820628Y-16702184D01*
X24849200Y-16716470D01*
X24863485Y-16745041D01*
X24863485Y-16773612D01*
X24720628Y-16802184D01*
X24977771Y-16887898D02*
X25006343Y-16902184D01*
X25063485Y-16902184D01*
X25092057Y-16887898D01*
X25106343Y-16859327D01*
X25106343Y-16845041D01*
X25092057Y-16816470D01*
X25063485Y-16802184D01*
X25020628Y-16802184D01*
X24992057Y-16787898D01*
X24977771Y-16759327D01*
X24977771Y-16745041D01*
X24992057Y-16716470D01*
X25020628Y-16702184D01*
X25063485Y-16702184D01*
X25092057Y-16716470D01*
X25206343Y-17016470D02*
X25220628Y-17002184D01*
X25249200Y-16959327D01*
X25263485Y-16930755D01*
X25277771Y-16887898D01*
X25292057Y-16816470D01*
X25292057Y-16759327D01*
X25277771Y-16687898D01*
X25263485Y-16645041D01*
X25249200Y-16616470D01*
X25220628Y-16573612D01*
X25206343Y-16559327D01*
M02*
