G04 #@! TF.GenerationSoftware,KiCad,Pcbnew,5.1.10*
G04 #@! TF.CreationDate,2021-11-16T11:39:58-06:00*
G04 #@! TF.ProjectId,a_dux_dux,615f6475-785f-4647-9578-2e6b69636164,VERSION_HERE*
G04 #@! TF.SameCoordinates,Original*
G04 #@! TF.FileFunction,Soldermask,Top*
G04 #@! TF.FilePolarity,Negative*
%FSLAX46Y46*%
G04 Gerber Fmt 4.6, Leading zero omitted, Abs format (unit mm)*
G04 Created by KiCad (PCBNEW 5.1.10) date 2021-11-16 11:39:58*
%MOMM*%
%LPD*%
G01*
G04 APERTURE LIST*
%ADD10C,3.100000*%
%ADD11C,1.800000*%
%ADD12C,1.900000*%
%ADD13O,2.300000X1.700000*%
%ADD14O,2.300000X1.600000*%
%ADD15C,0.900000*%
%ADD16C,1.000000*%
%ADD17O,1.450000X1.450000*%
%ADD18C,0.100000*%
%ADD19C,1.624000*%
G04 APERTURE END LIST*
G04 #@! TO.C,S4*
G36*
G01*
X199525845Y-109195220D02*
X199525845Y-109195220D01*
G75*
G02*
X199370146Y-109431351I-195915J-40216D01*
G01*
X198684444Y-109572105D01*
G75*
G02*
X198448313Y-109416406I-40216J195915D01*
G01*
X198448313Y-109416406D01*
G75*
G02*
X198604012Y-109180275I195915J40216D01*
G01*
X199289714Y-109039521D01*
G75*
G02*
X199525845Y-109195220I40216J-195915D01*
G01*
G37*
D10*
X191695515Y-99146555D03*
G36*
G01*
X185595178Y-104085015D02*
X183052942Y-104630023D01*
G75*
G02*
X182993572Y-104591615I-10481J48889D01*
G01*
X182448564Y-102049379D01*
G75*
G02*
X182486972Y-101990009I48889J10481D01*
G01*
X185029208Y-101445001D01*
G75*
G02*
X185088578Y-101483409I10481J-48889D01*
G01*
X185633586Y-104025645D01*
G75*
G02*
X185595178Y-104085015I-48889J-10481D01*
G01*
G37*
X197045592Y-100249585D03*
X187267760Y-102345770D03*
G36*
G01*
X193874697Y-100008916D02*
X193329689Y-97466680D01*
G75*
G02*
X193368097Y-97407310I48889J10481D01*
G01*
X195910333Y-96862302D01*
G75*
G02*
X195969703Y-96900710I10481J-48889D01*
G01*
X196514711Y-99442946D01*
G75*
G02*
X196476303Y-99502316I-48889J-10481D01*
G01*
X193934067Y-100047324D01*
G75*
G02*
X193874697Y-100008916I-10481J48889D01*
G01*
G37*
G36*
G01*
X199863438Y-107430447D02*
X199863438Y-107430447D01*
G75*
G02*
X199210498Y-108439739I-831116J-178176D01*
G01*
X198623828Y-108565511D01*
G75*
G02*
X197614536Y-107912571I-178176J831116D01*
G01*
X197614536Y-107912571D01*
G75*
G02*
X198267476Y-106903279I831116J178176D01*
G01*
X198854146Y-106777507D01*
G75*
G02*
X199863438Y-107430447I178176J-831116D01*
G01*
G37*
G36*
G01*
X187911035Y-100337474D02*
X187911035Y-100337474D01*
G75*
G02*
X187288237Y-101281996I-783660J-160862D01*
G01*
X186798449Y-101382534D01*
G75*
G02*
X185853927Y-100759736I-160862J783660D01*
G01*
X185853927Y-100759736D01*
G75*
G02*
X186476725Y-99815214I783660J160862D01*
G01*
X186966513Y-99714676D01*
G75*
G02*
X187911035Y-100337474I160862J-783660D01*
G01*
G37*
D11*
X187967641Y-105992071D03*
X197901919Y-103862347D03*
G36*
G01*
X193047079Y-110937191D02*
X193047079Y-110937191D01*
G75*
G02*
X193661611Y-109987269I782227J167695D01*
G01*
X194346059Y-109840537D01*
G75*
G02*
X195295981Y-110455069I167695J-782227D01*
G01*
X195295981Y-110455069D01*
G75*
G02*
X194681449Y-111404991I-782227J-167695D01*
G01*
X193997001Y-111551723D01*
G75*
G02*
X193047079Y-110937191I-167695J782227D01*
G01*
G37*
D12*
X198312588Y-103774307D03*
X187556972Y-106080111D03*
G36*
G01*
X187641147Y-110050680D02*
X187641147Y-110050680D01*
G75*
G02*
X188294087Y-109041388I831116J178176D01*
G01*
X188880757Y-108915616D01*
G75*
G02*
X189890049Y-109568556I178176J-831116D01*
G01*
X189890049Y-109568556D01*
G75*
G02*
X189237109Y-110577848I-831116J-178176D01*
G01*
X188650439Y-110703620D01*
G75*
G02*
X187641147Y-110050680I-178176J831116D01*
G01*
G37*
G36*
G01*
X195635601Y-98681470D02*
X195635601Y-98681470D01*
G75*
G02*
X196241819Y-97726222I780733J174515D01*
G01*
X196729777Y-97617150D01*
G75*
G02*
X197685025Y-98223368I174515J-780733D01*
G01*
X197685025Y-98223368D01*
G75*
G02*
X197078807Y-99178616I-780733J-174515D01*
G01*
X196590849Y-99287688D01*
G75*
G02*
X195635601Y-98681470I-174515J780733D01*
G01*
G37*
G04 #@! TD*
G04 #@! TO.C,S16*
G36*
G01*
X236333213Y-86204924D02*
X236333213Y-86204924D01*
G75*
G02*
X236147279Y-86418064I-199537J-13603D01*
G01*
X235448901Y-86465674D01*
G75*
G02*
X235235761Y-86279740I-13603J199537D01*
G01*
X235235761Y-86279740D01*
G75*
G02*
X235421695Y-86066600I199537J13603D01*
G01*
X236120073Y-86018990D01*
G75*
G02*
X236333213Y-86204924I13603J-199537D01*
G01*
G37*
D10*
X229919870Y-75197708D03*
G36*
G01*
X223212853Y-79274279D02*
X220620516Y-79473748D01*
G75*
G02*
X220566827Y-79427731I-3836J49853D01*
G01*
X220367358Y-76835394D01*
G75*
G02*
X220413375Y-76781705I49853J3836D01*
G01*
X223005712Y-76582236D01*
G75*
G02*
X223059401Y-76628253I3836J-49853D01*
G01*
X223258870Y-79220590D01*
G75*
G02*
X223212853Y-79274279I-49853J-3836D01*
G01*
G37*
X235073916Y-77007629D03*
X225103388Y-77774819D03*
G36*
G01*
X231963857Y-76344274D02*
X231764388Y-73751937D01*
G75*
G02*
X231810405Y-73698248I49853J3836D01*
G01*
X234402742Y-73498779D01*
G75*
G02*
X234456431Y-73544796I3836J-49853D01*
G01*
X234655900Y-76137133D01*
G75*
G02*
X234609883Y-76190822I-49853J-3836D01*
G01*
X232017546Y-76390291D01*
G75*
G02*
X231963857Y-76344274I-3836J49853D01*
G01*
G37*
G36*
G01*
X236904217Y-84501296D02*
X236904217Y-84501296D01*
G75*
G02*
X236121933Y-85414002I-847495J-65211D01*
G01*
X235523701Y-85460034D01*
G75*
G02*
X234610995Y-84677750I-65211J847495D01*
G01*
X234610995Y-84677750D01*
G75*
G02*
X235393279Y-83765044I847495J65211D01*
G01*
X235991511Y-83719012D01*
G75*
G02*
X236904217Y-84501296I65211J-847495D01*
G01*
G37*
G36*
G01*
X226009947Y-75870820D02*
X226009947Y-75870820D01*
G75*
G02*
X225266212Y-76723379I-798147J-54412D01*
G01*
X224767370Y-76757387D01*
G75*
G02*
X223914811Y-76013652I-54412J798147D01*
G01*
X223914811Y-76013652D01*
G75*
G02*
X224658546Y-75161093I798147J54412D01*
G01*
X225157388Y-75127085D01*
G75*
G02*
X226009947Y-75870820I54412J-798147D01*
G01*
G37*
D11*
X225308405Y-81482017D03*
X235438461Y-80702551D03*
G36*
G01*
X229679465Y-87063122D02*
X229679465Y-87063122D01*
G75*
G02*
X230415732Y-86204105I797642J61375D01*
G01*
X231113668Y-86150401D01*
G75*
G02*
X231972685Y-86886668I61375J-797642D01*
G01*
X231972685Y-86886668D01*
G75*
G02*
X231236418Y-87745685I-797642J-61375D01*
G01*
X230538482Y-87799389D01*
G75*
G02*
X229679465Y-87063122I-61375J797642D01*
G01*
G37*
D12*
X235857223Y-80670329D03*
X224889643Y-81514239D03*
G36*
G01*
X224441057Y-85460284D02*
X224441057Y-85460284D01*
G75*
G02*
X225223341Y-84547578I847495J65211D01*
G01*
X225821573Y-84501546D01*
G75*
G02*
X226734279Y-85283830I65211J-847495D01*
G01*
X226734279Y-85283830D01*
G75*
G02*
X225951995Y-86196536I-847495J-65211D01*
G01*
X225353763Y-86242568D01*
G75*
G02*
X224441057Y-85460284I-65211J847495D01*
G01*
G37*
G36*
G01*
X233886744Y-75264734D02*
X233886744Y-75264734D01*
G75*
G02*
X234615486Y-74399324I797076J68334D01*
G01*
X235113658Y-74356616D01*
G75*
G02*
X235979068Y-75085358I68334J-797076D01*
G01*
X235979068Y-75085358D01*
G75*
G02*
X235250326Y-75950768I-797076J-68334D01*
G01*
X234752154Y-75993476D01*
G75*
G02*
X233886744Y-75264734I-68334J797076D01*
G01*
G37*
G04 #@! TD*
G04 #@! TO.C,S34*
G36*
G01*
X290151358Y-142969165D02*
X290151358Y-142969165D01*
G75*
G02*
X289884739Y-143063580I-180517J86102D01*
G01*
X289252929Y-142762222D01*
G75*
G02*
X289158514Y-142495603I86102J180517D01*
G01*
X289158514Y-142495603D01*
G75*
G02*
X289425133Y-142401188I180517J-86102D01*
G01*
X290056943Y-142702546D01*
G75*
G02*
X290151358Y-142969165I-86102J-180517D01*
G01*
G37*
D10*
X289967447Y-130231192D03*
G36*
G01*
X282122997Y-130490257D02*
X279766597Y-129391449D01*
G75*
G02*
X279742413Y-129325003I21131J45315D01*
G01*
X280841221Y-126968603D01*
G75*
G02*
X280907667Y-126944419I45315J-21131D01*
G01*
X283264067Y-128043227D01*
G75*
G02*
X283288251Y-128109673I-21131J-45315D01*
G01*
X282189443Y-130466073D01*
G75*
G02*
X282122997Y-130490257I-45315J21131D01*
G01*
G37*
X293569226Y-134338161D03*
X284506148Y-130111978D03*
G36*
G01*
X291185344Y-132233498D02*
X292284152Y-129877098D01*
G75*
G02*
X292350598Y-129852914I45315J-21131D01*
G01*
X294706998Y-130951722D01*
G75*
G02*
X294731182Y-131018168I-21131J-45315D01*
G01*
X293632374Y-133374568D01*
G75*
G02*
X293565928Y-133398752I-45315J21131D01*
G01*
X291209528Y-132299944D01*
G75*
G02*
X291185344Y-132233498I21131J45315D01*
G01*
G37*
G36*
G01*
X291485140Y-141765249D02*
X291485140Y-141765249D01*
G75*
G02*
X290355552Y-142176385I-770362J359226D01*
G01*
X289811768Y-141922815D01*
G75*
G02*
X289400632Y-140793227I359226J770362D01*
G01*
X289400632Y-140793227D01*
G75*
G02*
X290530220Y-140382091I770362J-359226D01*
G01*
X291074004Y-140635661D01*
G75*
G02*
X291485140Y-141765249I-359226J-770362D01*
G01*
G37*
G36*
G01*
X286230634Y-128898221D02*
X286230634Y-128898221D01*
G75*
G02*
X285164157Y-129275880I-722068J344409D01*
G01*
X284712865Y-129060624D01*
G75*
G02*
X284335206Y-127994147I344409J722068D01*
G01*
X284335206Y-127994147D01*
G75*
G02*
X285401683Y-127616488I722068J-344409D01*
G01*
X285852975Y-127831744D01*
G75*
G02*
X286230634Y-128898221I-344409J-722068D01*
G01*
G37*
D11*
X282864884Y-133442383D03*
X292072972Y-137736185D03*
G36*
G01*
X283933226Y-140450489D02*
X283933226Y-140450489D01*
G75*
G02*
X284996367Y-140063538I725046J-338095D01*
G01*
X285630783Y-140359370D01*
G75*
G02*
X286017734Y-141422511I-338095J-725046D01*
G01*
X286017734Y-141422511D01*
G75*
G02*
X284954593Y-141809462I-725046J338095D01*
G01*
X284320177Y-141513630D01*
G75*
G02*
X283933226Y-140450489I338095J725046D01*
G01*
G37*
D12*
X292453621Y-137913684D03*
X282484235Y-133264884D03*
G36*
G01*
X280156293Y-136482520D02*
X280156293Y-136482520D01*
G75*
G02*
X281285881Y-136071384I770362J-359226D01*
G01*
X281829665Y-136324954D01*
G75*
G02*
X282240801Y-137454542I-359226J-770362D01*
G01*
X282240801Y-137454542D01*
G75*
G02*
X281111213Y-137865678I-770362J359226D01*
G01*
X280567429Y-137612108D01*
G75*
G02*
X280156293Y-136482520I359226J770362D01*
G01*
G37*
G36*
G01*
X293390539Y-132236939D02*
X293390539Y-132236939D01*
G75*
G02*
X294450263Y-131840725I727969J-331755D01*
G01*
X294905243Y-132048071D01*
G75*
G02*
X295301457Y-133107795I-331755J-727969D01*
G01*
X295301457Y-133107795D01*
G75*
G02*
X294241733Y-133504009I-727969J331755D01*
G01*
X293786753Y-133296663D01*
G75*
G02*
X293390539Y-132236939I331755J727969D01*
G01*
G37*
G04 #@! TD*
G04 #@! TO.C,S28*
G36*
G01*
X274612797Y-93444771D02*
X274612797Y-93444771D01*
G75*
G02*
X274411060Y-93643018I-199992J1745D01*
G01*
X273711086Y-93636910D01*
G75*
G02*
X273512839Y-93435173I1745J199992D01*
G01*
X273512839Y-93435173D01*
G75*
G02*
X273714576Y-93236926I199992J-1745D01*
G01*
X274414550Y-93243034D01*
G75*
G02*
X274612797Y-93444771I-1745J-199992D01*
G01*
G37*
D10*
X269062818Y-81977972D03*
G36*
G01*
X262062818Y-85527972D02*
X259462818Y-85527972D01*
G75*
G02*
X259412818Y-85477972I0J50000D01*
G01*
X259412818Y-82877972D01*
G75*
G02*
X259462818Y-82827972I50000J0D01*
G01*
X262062818Y-82827972D01*
G75*
G02*
X262112818Y-82877972I0J-50000D01*
G01*
X262112818Y-85477972D01*
G75*
G02*
X262062818Y-85527972I-50000J0D01*
G01*
G37*
X274062818Y-84177972D03*
X264062818Y-84177972D03*
G36*
G01*
X271012818Y-83277972D02*
X271012818Y-80677972D01*
G75*
G02*
X271062818Y-80627972I50000J0D01*
G01*
X273662818Y-80627972D01*
G75*
G02*
X273712818Y-80677972I0J-50000D01*
G01*
X273712818Y-83277972D01*
G75*
G02*
X273662818Y-83327972I-50000J0D01*
G01*
X271062818Y-83327972D01*
G75*
G02*
X271012818Y-83277972I0J50000D01*
G01*
G37*
D13*
X274162818Y-91789972D03*
G36*
G01*
X265112778Y-82349135D02*
X265112778Y-82349135D01*
G75*
G02*
X264305827Y-83142124I-799970J6981D01*
G01*
X263805847Y-83137760D01*
G75*
G02*
X263012858Y-82330809I6981J799970D01*
G01*
X263012858Y-82330809D01*
G75*
G02*
X263819809Y-81537820I799970J-6981D01*
G01*
X264319789Y-81542184D01*
G75*
G02*
X265112778Y-82349135I-6981J-799970D01*
G01*
G37*
D11*
X263982818Y-87889972D03*
X274142818Y-87889972D03*
D14*
X269062818Y-93789972D03*
D12*
X274562818Y-87889972D03*
X263562818Y-87889972D03*
D13*
X263962818Y-91789972D03*
G36*
G01*
X273012858Y-82349135D02*
X273012858Y-82349135D01*
G75*
G02*
X273805847Y-81542184I799970J6981D01*
G01*
X274305827Y-81537820D01*
G75*
G02*
X275112778Y-82330809I6981J-799970D01*
G01*
X275112778Y-82330809D01*
G75*
G02*
X274319789Y-83137760I-799970J-6981D01*
G01*
X273819809Y-83142124D01*
G75*
G02*
X273012858Y-82349135I-6981J799970D01*
G01*
G37*
G04 #@! TD*
G04 #@! TO.C,S32*
G36*
G01*
X272886382Y-135561139D02*
X272886382Y-135561139D01*
G75*
G02*
X272638288Y-135696967I-191961J56133D01*
G01*
X271966424Y-135500501D01*
G75*
G02*
X271830596Y-135252407I56133J191961D01*
G01*
X271830596Y-135252407D01*
G75*
G02*
X272078690Y-135116579I191961J-56133D01*
G01*
X272750554Y-135313045D01*
G75*
G02*
X272886382Y-135561139I-56133J-191961D01*
G01*
G37*
D10*
X270668275Y-123016429D03*
G36*
G01*
X262966154Y-124526342D02*
X260464387Y-123818413D01*
G75*
G02*
X260429890Y-123756688I13614J48111D01*
G01*
X261137819Y-121254921D01*
G75*
G02*
X261199544Y-121220424I48111J-13614D01*
G01*
X263701311Y-121928353D01*
G75*
G02*
X263735808Y-121990078I-13614J-48111D01*
G01*
X263027879Y-124491845D01*
G75*
G02*
X262966154Y-124526342I-48111J13614D01*
G01*
G37*
X274880348Y-126494710D03*
X265258168Y-123771908D03*
G36*
G01*
X272190635Y-124798259D02*
X272898564Y-122296492D01*
G75*
G02*
X272960289Y-122261995I48111J-13614D01*
G01*
X275462056Y-122969924D01*
G75*
G02*
X275496553Y-123031649I-13614J-48111D01*
G01*
X274788624Y-125533416D01*
G75*
G02*
X274726899Y-125567913I-48111J13614D01*
G01*
X272225132Y-124859984D01*
G75*
G02*
X272190635Y-124798259I13614J48111D01*
G01*
G37*
G36*
G01*
X274010523Y-134159463D02*
X274010523Y-134159463D01*
G75*
G02*
X272961200Y-134745910I-817885J231438D01*
G01*
X272383870Y-134582542D01*
G75*
G02*
X271797423Y-133533219I231438J817885D01*
G01*
X271797423Y-133533219D01*
G75*
G02*
X272846746Y-132946772I817885J-231438D01*
G01*
X273424076Y-133110140D01*
G75*
G02*
X274010523Y-134159463I-231438J-817885D01*
G01*
G37*
G36*
G01*
X266766414Y-122298051D02*
X266766414Y-122298051D01*
G75*
G02*
X265774037Y-122841362I-767844J224533D01*
G01*
X265294135Y-122701028D01*
G75*
G02*
X264750824Y-121708651I224533J767844D01*
G01*
X264750824Y-121708651D01*
G75*
G02*
X265743201Y-121165340I767844J-224533D01*
G01*
X266223103Y-121305674D01*
G75*
G02*
X266766414Y-122298051I-224533J-767844D01*
G01*
G37*
D11*
X264170487Y-127321878D03*
X273946621Y-130088246D03*
G36*
G01*
X266345551Y-134069026D02*
X266345551Y-134069026D01*
G75*
G02*
X267333149Y-133517076I769774J-217824D01*
G01*
X268006701Y-133707672D01*
G75*
G02*
X268558651Y-134695270I-217824J-769774D01*
G01*
X268558651Y-134695270D01*
G75*
G02*
X267571053Y-135247220I-769774J217824D01*
G01*
X266897501Y-135056624D01*
G75*
G02*
X266345551Y-134069026I217824J769774D01*
G01*
G37*
D12*
X274350753Y-130202603D03*
X263766355Y-127207521D03*
G36*
G01*
X261982799Y-130755961D02*
X261982799Y-130755961D01*
G75*
G02*
X263032122Y-130169514I817885J-231438D01*
G01*
X263609452Y-130332882D01*
G75*
G02*
X264195899Y-131382205I-231438J-817885D01*
G01*
X264195899Y-131382205D01*
G75*
G02*
X263146576Y-131968652I-817885J231438D01*
G01*
X262569246Y-131805284D01*
G75*
G02*
X261982799Y-130755961I231438J817885D01*
G01*
G37*
G36*
G01*
X274368014Y-124449087D02*
X274368014Y-124449087D01*
G75*
G02*
X275350758Y-123888539I771646J-211098D01*
G01*
X275833036Y-124020475D01*
G75*
G02*
X276393584Y-125003219I-211098J-771646D01*
G01*
X276393584Y-125003219D01*
G75*
G02*
X275410840Y-125563767I-771646J211098D01*
G01*
X274928562Y-125431831D01*
G75*
G02*
X274368014Y-124449087I211098J771646D01*
G01*
G37*
G04 #@! TD*
G04 #@! TO.C,S24*
G36*
G01*
X256612810Y-73611402D02*
X256612810Y-73611402D01*
G75*
G02*
X256411073Y-73809649I-199992J1745D01*
G01*
X255711099Y-73803541D01*
G75*
G02*
X255512852Y-73601804I1745J199992D01*
G01*
X255512852Y-73601804D01*
G75*
G02*
X255714589Y-73403557I199992J-1745D01*
G01*
X256414563Y-73409665D01*
G75*
G02*
X256612810Y-73611402I-1745J-199992D01*
G01*
G37*
D10*
X251062831Y-62144603D03*
G36*
G01*
X244062831Y-65694603D02*
X241462831Y-65694603D01*
G75*
G02*
X241412831Y-65644603I0J50000D01*
G01*
X241412831Y-63044603D01*
G75*
G02*
X241462831Y-62994603I50000J0D01*
G01*
X244062831Y-62994603D01*
G75*
G02*
X244112831Y-63044603I0J-50000D01*
G01*
X244112831Y-65644603D01*
G75*
G02*
X244062831Y-65694603I-50000J0D01*
G01*
G37*
X256062831Y-64344603D03*
X246062831Y-64344603D03*
G36*
G01*
X253012831Y-63444603D02*
X253012831Y-60844603D01*
G75*
G02*
X253062831Y-60794603I50000J0D01*
G01*
X255662831Y-60794603D01*
G75*
G02*
X255712831Y-60844603I0J-50000D01*
G01*
X255712831Y-63444603D01*
G75*
G02*
X255662831Y-63494603I-50000J0D01*
G01*
X253062831Y-63494603D01*
G75*
G02*
X253012831Y-63444603I0J50000D01*
G01*
G37*
D13*
X256162831Y-71956603D03*
G36*
G01*
X247112791Y-62515766D02*
X247112791Y-62515766D01*
G75*
G02*
X246305840Y-63308755I-799970J6981D01*
G01*
X245805860Y-63304391D01*
G75*
G02*
X245012871Y-62497440I6981J799970D01*
G01*
X245012871Y-62497440D01*
G75*
G02*
X245819822Y-61704451I799970J-6981D01*
G01*
X246319802Y-61708815D01*
G75*
G02*
X247112791Y-62515766I-6981J-799970D01*
G01*
G37*
D11*
X245982831Y-68056603D03*
X256142831Y-68056603D03*
D14*
X251062831Y-73956603D03*
D12*
X256562831Y-68056603D03*
X245562831Y-68056603D03*
D13*
X245962831Y-71956603D03*
G36*
G01*
X255012871Y-62515766D02*
X255012871Y-62515766D01*
G75*
G02*
X255805860Y-61708815I799970J6981D01*
G01*
X256305840Y-61704451D01*
G75*
G02*
X257112791Y-62497440I6981J-799970D01*
G01*
X257112791Y-62497440D01*
G75*
G02*
X256319802Y-63304391I-799970J-6981D01*
G01*
X255819822Y-63308755D01*
G75*
G02*
X255012871Y-62515766I-6981J799970D01*
G01*
G37*
G04 #@! TD*
G04 #@! TO.C,S18*
G36*
G01*
X235028991Y-69255029D02*
X235028991Y-69255029D01*
G75*
G02*
X234843057Y-69468169I-199537J-13603D01*
G01*
X234144679Y-69515779D01*
G75*
G02*
X233931539Y-69329845I-13603J199537D01*
G01*
X233931539Y-69329845D01*
G75*
G02*
X234117473Y-69116705I199537J13603D01*
G01*
X234815851Y-69069095D01*
G75*
G02*
X235028991Y-69255029I13603J-199537D01*
G01*
G37*
D10*
X228615648Y-58247813D03*
G36*
G01*
X221908631Y-62324384D02*
X219316294Y-62523853D01*
G75*
G02*
X219262605Y-62477836I-3836J49853D01*
G01*
X219063136Y-59885499D01*
G75*
G02*
X219109153Y-59831810I49853J3836D01*
G01*
X221701490Y-59632341D01*
G75*
G02*
X221755179Y-59678358I3836J-49853D01*
G01*
X221954648Y-62270695D01*
G75*
G02*
X221908631Y-62324384I-49853J-3836D01*
G01*
G37*
X233769694Y-60057734D03*
X223799166Y-60824924D03*
G36*
G01*
X230659635Y-59394379D02*
X230460166Y-56802042D01*
G75*
G02*
X230506183Y-56748353I49853J3836D01*
G01*
X233098520Y-56548884D01*
G75*
G02*
X233152209Y-56594901I3836J-49853D01*
G01*
X233351678Y-59187238D01*
G75*
G02*
X233305661Y-59240927I-49853J-3836D01*
G01*
X230713324Y-59440396D01*
G75*
G02*
X230659635Y-59394379I-3836J49853D01*
G01*
G37*
G36*
G01*
X235599995Y-67551401D02*
X235599995Y-67551401D01*
G75*
G02*
X234817711Y-68464107I-847495J-65211D01*
G01*
X234219479Y-68510139D01*
G75*
G02*
X233306773Y-67727855I-65211J847495D01*
G01*
X233306773Y-67727855D01*
G75*
G02*
X234089057Y-66815149I847495J65211D01*
G01*
X234687289Y-66769117D01*
G75*
G02*
X235599995Y-67551401I65211J-847495D01*
G01*
G37*
G36*
G01*
X224705725Y-58920925D02*
X224705725Y-58920925D01*
G75*
G02*
X223961990Y-59773484I-798147J-54412D01*
G01*
X223463148Y-59807492D01*
G75*
G02*
X222610589Y-59063757I-54412J798147D01*
G01*
X222610589Y-59063757D01*
G75*
G02*
X223354324Y-58211198I798147J54412D01*
G01*
X223853166Y-58177190D01*
G75*
G02*
X224705725Y-58920925I54412J-798147D01*
G01*
G37*
D11*
X224004183Y-64532122D03*
X234134239Y-63752656D03*
G36*
G01*
X228375243Y-70113227D02*
X228375243Y-70113227D01*
G75*
G02*
X229111510Y-69254210I797642J61375D01*
G01*
X229809446Y-69200506D01*
G75*
G02*
X230668463Y-69936773I61375J-797642D01*
G01*
X230668463Y-69936773D01*
G75*
G02*
X229932196Y-70795790I-797642J-61375D01*
G01*
X229234260Y-70849494D01*
G75*
G02*
X228375243Y-70113227I-61375J797642D01*
G01*
G37*
D12*
X234553001Y-63720434D03*
X223585421Y-64564344D03*
G36*
G01*
X223136835Y-68510389D02*
X223136835Y-68510389D01*
G75*
G02*
X223919119Y-67597683I847495J65211D01*
G01*
X224517351Y-67551651D01*
G75*
G02*
X225430057Y-68333935I65211J-847495D01*
G01*
X225430057Y-68333935D01*
G75*
G02*
X224647773Y-69246641I-847495J-65211D01*
G01*
X224049541Y-69292673D01*
G75*
G02*
X223136835Y-68510389I-65211J847495D01*
G01*
G37*
G36*
G01*
X232582522Y-58314839D02*
X232582522Y-58314839D01*
G75*
G02*
X233311264Y-57449429I797076J68334D01*
G01*
X233809436Y-57406721D01*
G75*
G02*
X234674846Y-58135463I68334J-797076D01*
G01*
X234674846Y-58135463D01*
G75*
G02*
X233946104Y-59000873I-797076J-68334D01*
G01*
X233447932Y-59043581D01*
G75*
G02*
X232582522Y-58314839I-68334J797076D01*
G01*
G37*
G04 #@! TD*
G04 #@! TO.C,S26*
G36*
G01*
X274612843Y-110444758D02*
X274612843Y-110444758D01*
G75*
G02*
X274411106Y-110643005I-199992J1745D01*
G01*
X273711132Y-110636897D01*
G75*
G02*
X273512885Y-110435160I1745J199992D01*
G01*
X273512885Y-110435160D01*
G75*
G02*
X273714622Y-110236913I199992J-1745D01*
G01*
X274414596Y-110243021D01*
G75*
G02*
X274612843Y-110444758I-1745J-199992D01*
G01*
G37*
D10*
X269062864Y-98977959D03*
G36*
G01*
X262062864Y-102527959D02*
X259462864Y-102527959D01*
G75*
G02*
X259412864Y-102477959I0J50000D01*
G01*
X259412864Y-99877959D01*
G75*
G02*
X259462864Y-99827959I50000J0D01*
G01*
X262062864Y-99827959D01*
G75*
G02*
X262112864Y-99877959I0J-50000D01*
G01*
X262112864Y-102477959D01*
G75*
G02*
X262062864Y-102527959I-50000J0D01*
G01*
G37*
X274062864Y-101177959D03*
X264062864Y-101177959D03*
G36*
G01*
X271012864Y-100277959D02*
X271012864Y-97677959D01*
G75*
G02*
X271062864Y-97627959I50000J0D01*
G01*
X273662864Y-97627959D01*
G75*
G02*
X273712864Y-97677959I0J-50000D01*
G01*
X273712864Y-100277959D01*
G75*
G02*
X273662864Y-100327959I-50000J0D01*
G01*
X271062864Y-100327959D01*
G75*
G02*
X271012864Y-100277959I0J50000D01*
G01*
G37*
D13*
X274162864Y-108789959D03*
G36*
G01*
X265112824Y-99349122D02*
X265112824Y-99349122D01*
G75*
G02*
X264305873Y-100142111I-799970J6981D01*
G01*
X263805893Y-100137747D01*
G75*
G02*
X263012904Y-99330796I6981J799970D01*
G01*
X263012904Y-99330796D01*
G75*
G02*
X263819855Y-98537807I799970J-6981D01*
G01*
X264319835Y-98542171D01*
G75*
G02*
X265112824Y-99349122I-6981J-799970D01*
G01*
G37*
D11*
X263982864Y-104889959D03*
X274142864Y-104889959D03*
D14*
X269062864Y-110789959D03*
D12*
X274562864Y-104889959D03*
X263562864Y-104889959D03*
D13*
X263962864Y-108789959D03*
G36*
G01*
X273012904Y-99349122D02*
X273012904Y-99349122D01*
G75*
G02*
X273805893Y-98542171I799970J6981D01*
G01*
X274305873Y-98537807D01*
G75*
G02*
X275112824Y-99330796I6981J-799970D01*
G01*
X275112824Y-99330796D01*
G75*
G02*
X274319835Y-100137747I-799970J-6981D01*
G01*
X273819855Y-100142111D01*
G75*
G02*
X273012904Y-99349122I-6981J799970D01*
G01*
G37*
G04 #@! TD*
G04 #@! TO.C,S20*
G36*
G01*
X256612811Y-107611483D02*
X256612811Y-107611483D01*
G75*
G02*
X256411074Y-107809730I-199992J1745D01*
G01*
X255711100Y-107803622D01*
G75*
G02*
X255512853Y-107601885I1745J199992D01*
G01*
X255512853Y-107601885D01*
G75*
G02*
X255714590Y-107403638I199992J-1745D01*
G01*
X256414564Y-107409746D01*
G75*
G02*
X256612811Y-107611483I-1745J-199992D01*
G01*
G37*
D10*
X251062832Y-96144684D03*
G36*
G01*
X244062832Y-99694684D02*
X241462832Y-99694684D01*
G75*
G02*
X241412832Y-99644684I0J50000D01*
G01*
X241412832Y-97044684D01*
G75*
G02*
X241462832Y-96994684I50000J0D01*
G01*
X244062832Y-96994684D01*
G75*
G02*
X244112832Y-97044684I0J-50000D01*
G01*
X244112832Y-99644684D01*
G75*
G02*
X244062832Y-99694684I-50000J0D01*
G01*
G37*
X256062832Y-98344684D03*
X246062832Y-98344684D03*
G36*
G01*
X253012832Y-97444684D02*
X253012832Y-94844684D01*
G75*
G02*
X253062832Y-94794684I50000J0D01*
G01*
X255662832Y-94794684D01*
G75*
G02*
X255712832Y-94844684I0J-50000D01*
G01*
X255712832Y-97444684D01*
G75*
G02*
X255662832Y-97494684I-50000J0D01*
G01*
X253062832Y-97494684D01*
G75*
G02*
X253012832Y-97444684I0J50000D01*
G01*
G37*
D13*
X256162832Y-105956684D03*
G36*
G01*
X247112792Y-96515847D02*
X247112792Y-96515847D01*
G75*
G02*
X246305841Y-97308836I-799970J6981D01*
G01*
X245805861Y-97304472D01*
G75*
G02*
X245012872Y-96497521I6981J799970D01*
G01*
X245012872Y-96497521D01*
G75*
G02*
X245819823Y-95704532I799970J-6981D01*
G01*
X246319803Y-95708896D01*
G75*
G02*
X247112792Y-96515847I-6981J-799970D01*
G01*
G37*
D11*
X245982832Y-102056684D03*
X256142832Y-102056684D03*
D14*
X251062832Y-107956684D03*
D12*
X256562832Y-102056684D03*
X245562832Y-102056684D03*
D13*
X245962832Y-105956684D03*
G36*
G01*
X255012872Y-96515847D02*
X255012872Y-96515847D01*
G75*
G02*
X255805861Y-95708896I799970J6981D01*
G01*
X256305841Y-95704532D01*
G75*
G02*
X257112792Y-96497521I6981J-799970D01*
G01*
X257112792Y-96497521D01*
G75*
G02*
X256319803Y-97304472I-799970J-6981D01*
G01*
X255819823Y-97308836D01*
G75*
G02*
X255012872Y-96515847I-6981J799970D01*
G01*
G37*
G04 #@! TD*
G04 #@! TO.C,S22*
G36*
G01*
X256612864Y-90611487D02*
X256612864Y-90611487D01*
G75*
G02*
X256411127Y-90809734I-199992J1745D01*
G01*
X255711153Y-90803626D01*
G75*
G02*
X255512906Y-90601889I1745J199992D01*
G01*
X255512906Y-90601889D01*
G75*
G02*
X255714643Y-90403642I199992J-1745D01*
G01*
X256414617Y-90409750D01*
G75*
G02*
X256612864Y-90611487I-1745J-199992D01*
G01*
G37*
D10*
X251062885Y-79144688D03*
G36*
G01*
X244062885Y-82694688D02*
X241462885Y-82694688D01*
G75*
G02*
X241412885Y-82644688I0J50000D01*
G01*
X241412885Y-80044688D01*
G75*
G02*
X241462885Y-79994688I50000J0D01*
G01*
X244062885Y-79994688D01*
G75*
G02*
X244112885Y-80044688I0J-50000D01*
G01*
X244112885Y-82644688D01*
G75*
G02*
X244062885Y-82694688I-50000J0D01*
G01*
G37*
X256062885Y-81344688D03*
X246062885Y-81344688D03*
G36*
G01*
X253012885Y-80444688D02*
X253012885Y-77844688D01*
G75*
G02*
X253062885Y-77794688I50000J0D01*
G01*
X255662885Y-77794688D01*
G75*
G02*
X255712885Y-77844688I0J-50000D01*
G01*
X255712885Y-80444688D01*
G75*
G02*
X255662885Y-80494688I-50000J0D01*
G01*
X253062885Y-80494688D01*
G75*
G02*
X253012885Y-80444688I0J50000D01*
G01*
G37*
D13*
X256162885Y-88956688D03*
G36*
G01*
X247112845Y-79515851D02*
X247112845Y-79515851D01*
G75*
G02*
X246305894Y-80308840I-799970J6981D01*
G01*
X245805914Y-80304476D01*
G75*
G02*
X245012925Y-79497525I6981J799970D01*
G01*
X245012925Y-79497525D01*
G75*
G02*
X245819876Y-78704536I799970J-6981D01*
G01*
X246319856Y-78708900D01*
G75*
G02*
X247112845Y-79515851I-6981J-799970D01*
G01*
G37*
D11*
X245982885Y-85056688D03*
X256142885Y-85056688D03*
D14*
X251062885Y-90956688D03*
D12*
X256562885Y-85056688D03*
X245562885Y-85056688D03*
D13*
X245962885Y-88956688D03*
G36*
G01*
X255012925Y-79515851D02*
X255012925Y-79515851D01*
G75*
G02*
X255805914Y-78708900I799970J6981D01*
G01*
X256305894Y-78704536D01*
G75*
G02*
X257112845Y-79497525I6981J-799970D01*
G01*
X257112845Y-79497525D01*
G75*
G02*
X256319856Y-80304476I-799970J-6981D01*
G01*
X255819876Y-80308840D01*
G75*
G02*
X255012925Y-79515851I-6981J799970D01*
G01*
G37*
G04 #@! TD*
G04 #@! TO.C,S6*
G36*
G01*
X195962251Y-92572940D02*
X195962251Y-92572940D01*
G75*
G02*
X195806552Y-92809071I-195915J-40216D01*
G01*
X195120850Y-92949825D01*
G75*
G02*
X194884719Y-92794126I-40216J195915D01*
G01*
X194884719Y-92794126D01*
G75*
G02*
X195040418Y-92557995I195915J40216D01*
G01*
X195726120Y-92417241D01*
G75*
G02*
X195962251Y-92572940I40216J-195915D01*
G01*
G37*
D10*
X188131921Y-82524275D03*
G36*
G01*
X182031584Y-87462735D02*
X179489348Y-88007743D01*
G75*
G02*
X179429978Y-87969335I-10481J48889D01*
G01*
X178884970Y-85427099D01*
G75*
G02*
X178923378Y-85367729I48889J10481D01*
G01*
X181465614Y-84822721D01*
G75*
G02*
X181524984Y-84861129I10481J-48889D01*
G01*
X182069992Y-87403365D01*
G75*
G02*
X182031584Y-87462735I-48889J-10481D01*
G01*
G37*
X193481998Y-83627305D03*
X183704166Y-85723490D03*
G36*
G01*
X190311103Y-83386636D02*
X189766095Y-80844400D01*
G75*
G02*
X189804503Y-80785030I48889J10481D01*
G01*
X192346739Y-80240022D01*
G75*
G02*
X192406109Y-80278430I10481J-48889D01*
G01*
X192951117Y-82820666D01*
G75*
G02*
X192912709Y-82880036I-48889J-10481D01*
G01*
X190370473Y-83425044D01*
G75*
G02*
X190311103Y-83386636I-10481J48889D01*
G01*
G37*
G36*
G01*
X196299844Y-90808167D02*
X196299844Y-90808167D01*
G75*
G02*
X195646904Y-91817459I-831116J-178176D01*
G01*
X195060234Y-91943231D01*
G75*
G02*
X194050942Y-91290291I-178176J831116D01*
G01*
X194050942Y-91290291D01*
G75*
G02*
X194703882Y-90280999I831116J178176D01*
G01*
X195290552Y-90155227D01*
G75*
G02*
X196299844Y-90808167I178176J-831116D01*
G01*
G37*
G36*
G01*
X184347441Y-83715194D02*
X184347441Y-83715194D01*
G75*
G02*
X183724643Y-84659716I-783660J-160862D01*
G01*
X183234855Y-84760254D01*
G75*
G02*
X182290333Y-84137456I-160862J783660D01*
G01*
X182290333Y-84137456D01*
G75*
G02*
X182913131Y-83192934I783660J160862D01*
G01*
X183402919Y-83092396D01*
G75*
G02*
X184347441Y-83715194I160862J-783660D01*
G01*
G37*
D11*
X184404047Y-89369791D03*
X194338325Y-87240067D03*
G36*
G01*
X189483485Y-94314911D02*
X189483485Y-94314911D01*
G75*
G02*
X190098017Y-93364989I782227J167695D01*
G01*
X190782465Y-93218257D01*
G75*
G02*
X191732387Y-93832789I167695J-782227D01*
G01*
X191732387Y-93832789D01*
G75*
G02*
X191117855Y-94782711I-782227J-167695D01*
G01*
X190433407Y-94929443D01*
G75*
G02*
X189483485Y-94314911I-167695J782227D01*
G01*
G37*
D12*
X194748994Y-87152027D03*
X183993378Y-89457831D03*
G36*
G01*
X184077553Y-93428400D02*
X184077553Y-93428400D01*
G75*
G02*
X184730493Y-92419108I831116J178176D01*
G01*
X185317163Y-92293336D01*
G75*
G02*
X186326455Y-92946276I178176J-831116D01*
G01*
X186326455Y-92946276D01*
G75*
G02*
X185673515Y-93955568I-831116J-178176D01*
G01*
X185086845Y-94081340D01*
G75*
G02*
X184077553Y-93428400I-178176J831116D01*
G01*
G37*
G36*
G01*
X192072007Y-82059190D02*
X192072007Y-82059190D01*
G75*
G02*
X192678225Y-81103942I780733J174515D01*
G01*
X193166183Y-80994870D01*
G75*
G02*
X194121431Y-81601088I174515J-780733D01*
G01*
X194121431Y-81601088D01*
G75*
G02*
X193515213Y-82556336I-780733J-174515D01*
G01*
X193027255Y-82665408D01*
G75*
G02*
X192072007Y-82059190I-174515J780733D01*
G01*
G37*
G04 #@! TD*
G04 #@! TO.C,S30*
G36*
G01*
X274612851Y-76444777D02*
X274612851Y-76444777D01*
G75*
G02*
X274411114Y-76643024I-199992J1745D01*
G01*
X273711140Y-76636916D01*
G75*
G02*
X273512893Y-76435179I1745J199992D01*
G01*
X273512893Y-76435179D01*
G75*
G02*
X273714630Y-76236932I199992J-1745D01*
G01*
X274414604Y-76243040D01*
G75*
G02*
X274612851Y-76444777I-1745J-199992D01*
G01*
G37*
D10*
X269062872Y-64977978D03*
G36*
G01*
X262062872Y-68527978D02*
X259462872Y-68527978D01*
G75*
G02*
X259412872Y-68477978I0J50000D01*
G01*
X259412872Y-65877978D01*
G75*
G02*
X259462872Y-65827978I50000J0D01*
G01*
X262062872Y-65827978D01*
G75*
G02*
X262112872Y-65877978I0J-50000D01*
G01*
X262112872Y-68477978D01*
G75*
G02*
X262062872Y-68527978I-50000J0D01*
G01*
G37*
X274062872Y-67177978D03*
X264062872Y-67177978D03*
G36*
G01*
X271012872Y-66277978D02*
X271012872Y-63677978D01*
G75*
G02*
X271062872Y-63627978I50000J0D01*
G01*
X273662872Y-63627978D01*
G75*
G02*
X273712872Y-63677978I0J-50000D01*
G01*
X273712872Y-66277978D01*
G75*
G02*
X273662872Y-66327978I-50000J0D01*
G01*
X271062872Y-66327978D01*
G75*
G02*
X271012872Y-66277978I0J50000D01*
G01*
G37*
D13*
X274162872Y-74789978D03*
G36*
G01*
X265112832Y-65349141D02*
X265112832Y-65349141D01*
G75*
G02*
X264305881Y-66142130I-799970J6981D01*
G01*
X263805901Y-66137766D01*
G75*
G02*
X263012912Y-65330815I6981J799970D01*
G01*
X263012912Y-65330815D01*
G75*
G02*
X263819863Y-64537826I799970J-6981D01*
G01*
X264319843Y-64542190D01*
G75*
G02*
X265112832Y-65349141I-6981J-799970D01*
G01*
G37*
D11*
X263982872Y-70889978D03*
X274142872Y-70889978D03*
D14*
X269062872Y-76789978D03*
D12*
X274562872Y-70889978D03*
X263562872Y-70889978D03*
D13*
X263962872Y-74789978D03*
G36*
G01*
X273012912Y-65349141D02*
X273012912Y-65349141D01*
G75*
G02*
X273805901Y-64542190I799970J6981D01*
G01*
X274305881Y-64537826D01*
G75*
G02*
X275112832Y-65330815I6981J-799970D01*
G01*
X275112832Y-65330815D01*
G75*
G02*
X274319843Y-66137766I-799970J-6981D01*
G01*
X273819863Y-66142130D01*
G75*
G02*
X273012912Y-65349141I-6981J799970D01*
G01*
G37*
G04 #@! TD*
G04 #@! TO.C,S10*
G36*
G01*
X216873535Y-94776892D02*
X216873535Y-94776892D01*
G75*
G02*
X216706885Y-95005426I-197592J-30942D01*
G01*
X216015313Y-95113724D01*
G75*
G02*
X215786779Y-94947074I-30942J197592D01*
G01*
X215786779Y-94947074D01*
G75*
G02*
X215953429Y-94718540I197592J30942D01*
G01*
X216645001Y-94610242D01*
G75*
G02*
X216873535Y-94776892I30942J-197592D01*
G01*
G37*
D10*
X209525254Y-84370522D03*
G36*
G01*
X203199056Y-89016136D02*
X200633968Y-89440784D01*
G75*
G02*
X200576473Y-89399621I-8166J49329D01*
G01*
X200151825Y-86834533D01*
G75*
G02*
X200192988Y-86777038I49329J8166D01*
G01*
X202758076Y-86352390D01*
G75*
G02*
X202815571Y-86393553I8166J-49329D01*
G01*
X203240219Y-88958641D01*
G75*
G02*
X203199056Y-89016136I-49329J-8166D01*
G01*
G37*
X214817432Y-85724351D03*
X204951710Y-87357611D03*
G36*
G01*
X211661393Y-85334581D02*
X211236745Y-82769493D01*
G75*
G02*
X211277908Y-82711998I49329J8166D01*
G01*
X213842996Y-82287350D01*
G75*
G02*
X213900491Y-82328513I8166J-49329D01*
G01*
X214325139Y-84893601D01*
G75*
G02*
X214283976Y-84951096I-49329J-8166D01*
G01*
X211718888Y-85375744D01*
G75*
G02*
X211661393Y-85334581I-8166J49329D01*
G01*
G37*
G36*
G01*
X217293884Y-93029981D02*
X217293884Y-93029981D01*
G75*
G02*
X216594125Y-94007394I-838586J-138827D01*
G01*
X216002181Y-94105390D01*
G75*
G02*
X215024768Y-93405631I-138827J838586D01*
G01*
X215024768Y-93405631D01*
G75*
G02*
X215724527Y-92428218I838586J138827D01*
G01*
X216316471Y-92330222D01*
G75*
G02*
X217293884Y-93029981I138827J-838586D01*
G01*
G37*
G36*
G01*
X205688875Y-85381845D02*
X205688875Y-85381845D01*
G75*
G02*
X205022275Y-86295981I-790368J-123768D01*
G01*
X204528295Y-86373337D01*
G75*
G02*
X203614159Y-85706737I-123768J790368D01*
G01*
X203614159Y-85706737D01*
G75*
G02*
X204280759Y-84792601I790368J123768D01*
G01*
X204774739Y-84715245D01*
G75*
G02*
X205688875Y-85381845I123768J-790368D01*
G01*
G37*
D11*
X205479050Y-91032833D03*
X215502624Y-89373441D03*
G36*
G01*
X210319902Y-96211738D02*
X210319902Y-96211738D01*
G75*
G02*
X210978499Y-95291819I789258J130661D01*
G01*
X211669099Y-95177491D01*
G75*
G02*
X212589018Y-95836088I130661J-789258D01*
G01*
X212589018Y-95836088D01*
G75*
G02*
X211930421Y-96756007I-789258J-130661D01*
G01*
X211239821Y-96870335D01*
G75*
G02*
X210319902Y-96211738I-130661J789258D01*
G01*
G37*
D12*
X215916984Y-89304844D03*
X205064690Y-91101430D03*
G36*
G01*
X204961732Y-95071556D02*
X204961732Y-95071556D01*
G75*
G02*
X205661491Y-94094143I838586J138827D01*
G01*
X206253435Y-93996147D01*
G75*
G02*
X207230848Y-94695906I138827J-838586D01*
G01*
X207230848Y-94695906D01*
G75*
G02*
X206531089Y-95673319I-838586J-138827D01*
G01*
X205939145Y-95771315D01*
G75*
G02*
X204961732Y-95071556I-138827J838586D01*
G01*
G37*
G36*
G01*
X213482875Y-84091557D02*
X213482875Y-84091557D01*
G75*
G02*
X214133419Y-83165927I788087J137543D01*
G01*
X214625973Y-83079963D01*
G75*
G02*
X215551603Y-83730507I137543J-788087D01*
G01*
X215551603Y-83730507D01*
G75*
G02*
X214901059Y-84656137I-788087J-137543D01*
G01*
X214408505Y-84742101D01*
G75*
G02*
X213482875Y-84091557I-137543J788087D01*
G01*
G37*
G04 #@! TD*
G04 #@! TO.C,S14*
G36*
G01*
X237637437Y-103154821D02*
X237637437Y-103154821D01*
G75*
G02*
X237451503Y-103367961I-199537J-13603D01*
G01*
X236753125Y-103415571D01*
G75*
G02*
X236539985Y-103229637I-13603J199537D01*
G01*
X236539985Y-103229637D01*
G75*
G02*
X236725919Y-103016497I199537J13603D01*
G01*
X237424297Y-102968887D01*
G75*
G02*
X237637437Y-103154821I13603J-199537D01*
G01*
G37*
D10*
X231224094Y-92147605D03*
G36*
G01*
X224517077Y-96224176D02*
X221924740Y-96423645D01*
G75*
G02*
X221871051Y-96377628I-3836J49853D01*
G01*
X221671582Y-93785291D01*
G75*
G02*
X221717599Y-93731602I49853J3836D01*
G01*
X224309936Y-93532133D01*
G75*
G02*
X224363625Y-93578150I3836J-49853D01*
G01*
X224563094Y-96170487D01*
G75*
G02*
X224517077Y-96224176I-49853J-3836D01*
G01*
G37*
X236378140Y-93957526D03*
X226407612Y-94724716D03*
G36*
G01*
X233268081Y-93294171D02*
X233068612Y-90701834D01*
G75*
G02*
X233114629Y-90648145I49853J3836D01*
G01*
X235706966Y-90448676D01*
G75*
G02*
X235760655Y-90494693I3836J-49853D01*
G01*
X235960124Y-93087030D01*
G75*
G02*
X235914107Y-93140719I-49853J-3836D01*
G01*
X233321770Y-93340188D01*
G75*
G02*
X233268081Y-93294171I-3836J49853D01*
G01*
G37*
G36*
G01*
X238208441Y-101451193D02*
X238208441Y-101451193D01*
G75*
G02*
X237426157Y-102363899I-847495J-65211D01*
G01*
X236827925Y-102409931D01*
G75*
G02*
X235915219Y-101627647I-65211J847495D01*
G01*
X235915219Y-101627647D01*
G75*
G02*
X236697503Y-100714941I847495J65211D01*
G01*
X237295735Y-100668909D01*
G75*
G02*
X238208441Y-101451193I65211J-847495D01*
G01*
G37*
G36*
G01*
X227314171Y-92820717D02*
X227314171Y-92820717D01*
G75*
G02*
X226570436Y-93673276I-798147J-54412D01*
G01*
X226071594Y-93707284D01*
G75*
G02*
X225219035Y-92963549I-54412J798147D01*
G01*
X225219035Y-92963549D01*
G75*
G02*
X225962770Y-92110990I798147J54412D01*
G01*
X226461612Y-92076982D01*
G75*
G02*
X227314171Y-92820717I54412J-798147D01*
G01*
G37*
D11*
X226612629Y-98431914D03*
X236742685Y-97652448D03*
G36*
G01*
X230983689Y-104013019D02*
X230983689Y-104013019D01*
G75*
G02*
X231719956Y-103154002I797642J61375D01*
G01*
X232417892Y-103100298D01*
G75*
G02*
X233276909Y-103836565I61375J-797642D01*
G01*
X233276909Y-103836565D01*
G75*
G02*
X232540642Y-104695582I-797642J-61375D01*
G01*
X231842706Y-104749286D01*
G75*
G02*
X230983689Y-104013019I-61375J797642D01*
G01*
G37*
D12*
X237161447Y-97620226D03*
X226193867Y-98464136D03*
G36*
G01*
X225745281Y-102410181D02*
X225745281Y-102410181D01*
G75*
G02*
X226527565Y-101497475I847495J65211D01*
G01*
X227125797Y-101451443D01*
G75*
G02*
X228038503Y-102233727I65211J-847495D01*
G01*
X228038503Y-102233727D01*
G75*
G02*
X227256219Y-103146433I-847495J-65211D01*
G01*
X226657987Y-103192465D01*
G75*
G02*
X225745281Y-102410181I-65211J847495D01*
G01*
G37*
G36*
G01*
X235190968Y-92214631D02*
X235190968Y-92214631D01*
G75*
G02*
X235919710Y-91349221I797076J68334D01*
G01*
X236417882Y-91306513D01*
G75*
G02*
X237283292Y-92035255I68334J-797076D01*
G01*
X237283292Y-92035255D01*
G75*
G02*
X236554550Y-92900665I-797076J-68334D01*
G01*
X236056378Y-92943373D01*
G75*
G02*
X235190968Y-92214631I-68334J797076D01*
G01*
G37*
G04 #@! TD*
G04 #@! TO.C,S12*
G36*
G01*
X214097042Y-78005171D02*
X214097042Y-78005171D01*
G75*
G02*
X213930392Y-78233705I-197592J-30942D01*
G01*
X213238820Y-78342003D01*
G75*
G02*
X213010286Y-78175353I-30942J197592D01*
G01*
X213010286Y-78175353D01*
G75*
G02*
X213176936Y-77946819I197592J30942D01*
G01*
X213868508Y-77838521D01*
G75*
G02*
X214097042Y-78005171I30942J-197592D01*
G01*
G37*
D10*
X206748761Y-67598801D03*
G36*
G01*
X200422563Y-72244415D02*
X197857475Y-72669063D01*
G75*
G02*
X197799980Y-72627900I-8166J49329D01*
G01*
X197375332Y-70062812D01*
G75*
G02*
X197416495Y-70005317I49329J8166D01*
G01*
X199981583Y-69580669D01*
G75*
G02*
X200039078Y-69621832I8166J-49329D01*
G01*
X200463726Y-72186920D01*
G75*
G02*
X200422563Y-72244415I-49329J-8166D01*
G01*
G37*
X212040939Y-68952630D03*
X202175217Y-70585890D03*
G36*
G01*
X208884900Y-68562860D02*
X208460252Y-65997772D01*
G75*
G02*
X208501415Y-65940277I49329J8166D01*
G01*
X211066503Y-65515629D01*
G75*
G02*
X211123998Y-65556792I8166J-49329D01*
G01*
X211548646Y-68121880D01*
G75*
G02*
X211507483Y-68179375I-49329J-8166D01*
G01*
X208942395Y-68604023D01*
G75*
G02*
X208884900Y-68562860I-8166J49329D01*
G01*
G37*
G36*
G01*
X214517391Y-76258260D02*
X214517391Y-76258260D01*
G75*
G02*
X213817632Y-77235673I-838586J-138827D01*
G01*
X213225688Y-77333669D01*
G75*
G02*
X212248275Y-76633910I-138827J838586D01*
G01*
X212248275Y-76633910D01*
G75*
G02*
X212948034Y-75656497I838586J138827D01*
G01*
X213539978Y-75558501D01*
G75*
G02*
X214517391Y-76258260I138827J-838586D01*
G01*
G37*
G36*
G01*
X202912382Y-68610124D02*
X202912382Y-68610124D01*
G75*
G02*
X202245782Y-69524260I-790368J-123768D01*
G01*
X201751802Y-69601616D01*
G75*
G02*
X200837666Y-68935016I-123768J790368D01*
G01*
X200837666Y-68935016D01*
G75*
G02*
X201504266Y-68020880I790368J123768D01*
G01*
X201998246Y-67943524D01*
G75*
G02*
X202912382Y-68610124I123768J-790368D01*
G01*
G37*
D11*
X202702557Y-74261112D03*
X212726131Y-72601720D03*
G36*
G01*
X207543409Y-79440017D02*
X207543409Y-79440017D01*
G75*
G02*
X208202006Y-78520098I789258J130661D01*
G01*
X208892606Y-78405770D01*
G75*
G02*
X209812525Y-79064367I130661J-789258D01*
G01*
X209812525Y-79064367D01*
G75*
G02*
X209153928Y-79984286I-789258J-130661D01*
G01*
X208463328Y-80098614D01*
G75*
G02*
X207543409Y-79440017I-130661J789258D01*
G01*
G37*
D12*
X213140491Y-72533123D03*
X202288197Y-74329709D03*
G36*
G01*
X202185239Y-78299835D02*
X202185239Y-78299835D01*
G75*
G02*
X202884998Y-77322422I838586J138827D01*
G01*
X203476942Y-77224426D01*
G75*
G02*
X204454355Y-77924185I138827J-838586D01*
G01*
X204454355Y-77924185D01*
G75*
G02*
X203754596Y-78901598I-838586J-138827D01*
G01*
X203162652Y-78999594D01*
G75*
G02*
X202185239Y-78299835I-138827J838586D01*
G01*
G37*
G36*
G01*
X210706382Y-67319836D02*
X210706382Y-67319836D01*
G75*
G02*
X211356926Y-66394206I788087J137543D01*
G01*
X211849480Y-66308242D01*
G75*
G02*
X212775110Y-66958786I137543J-788087D01*
G01*
X212775110Y-66958786D01*
G75*
G02*
X212124566Y-67884416I-788087J-137543D01*
G01*
X211632012Y-67970380D01*
G75*
G02*
X210706382Y-67319836I-137543J788087D01*
G01*
G37*
G04 #@! TD*
G04 #@! TO.C,S2*
G36*
G01*
X203089333Y-125817597D02*
X203089333Y-125817597D01*
G75*
G02*
X202933634Y-126053728I-195915J-40216D01*
G01*
X202247932Y-126194482D01*
G75*
G02*
X202011801Y-126038783I-40216J195915D01*
G01*
X202011801Y-126038783D01*
G75*
G02*
X202167500Y-125802652I195915J40216D01*
G01*
X202853202Y-125661898D01*
G75*
G02*
X203089333Y-125817597I40216J-195915D01*
G01*
G37*
D10*
X195259003Y-115768932D03*
G36*
G01*
X189158666Y-120707392D02*
X186616430Y-121252400D01*
G75*
G02*
X186557060Y-121213992I-10481J48889D01*
G01*
X186012052Y-118671756D01*
G75*
G02*
X186050460Y-118612386I48889J10481D01*
G01*
X188592696Y-118067378D01*
G75*
G02*
X188652066Y-118105786I10481J-48889D01*
G01*
X189197074Y-120648022D01*
G75*
G02*
X189158666Y-120707392I-48889J-10481D01*
G01*
G37*
X200609080Y-116871962D03*
X190831248Y-118968147D03*
G36*
G01*
X197438185Y-116631293D02*
X196893177Y-114089057D01*
G75*
G02*
X196931585Y-114029687I48889J10481D01*
G01*
X199473821Y-113484679D01*
G75*
G02*
X199533191Y-113523087I10481J-48889D01*
G01*
X200078199Y-116065323D01*
G75*
G02*
X200039791Y-116124693I-48889J-10481D01*
G01*
X197497555Y-116669701D01*
G75*
G02*
X197438185Y-116631293I-10481J48889D01*
G01*
G37*
G36*
G01*
X203426926Y-124052824D02*
X203426926Y-124052824D01*
G75*
G02*
X202773986Y-125062116I-831116J-178176D01*
G01*
X202187316Y-125187888D01*
G75*
G02*
X201178024Y-124534948I-178176J831116D01*
G01*
X201178024Y-124534948D01*
G75*
G02*
X201830964Y-123525656I831116J178176D01*
G01*
X202417634Y-123399884D01*
G75*
G02*
X203426926Y-124052824I178176J-831116D01*
G01*
G37*
G36*
G01*
X191474523Y-116959851D02*
X191474523Y-116959851D01*
G75*
G02*
X190851725Y-117904373I-783660J-160862D01*
G01*
X190361937Y-118004911D01*
G75*
G02*
X189417415Y-117382113I-160862J783660D01*
G01*
X189417415Y-117382113D01*
G75*
G02*
X190040213Y-116437591I783660J160862D01*
G01*
X190530001Y-116337053D01*
G75*
G02*
X191474523Y-116959851I160862J-783660D01*
G01*
G37*
D11*
X191531129Y-122614448D03*
X201465407Y-120484724D03*
G36*
G01*
X196610567Y-127559568D02*
X196610567Y-127559568D01*
G75*
G02*
X197225099Y-126609646I782227J167695D01*
G01*
X197909547Y-126462914D01*
G75*
G02*
X198859469Y-127077446I167695J-782227D01*
G01*
X198859469Y-127077446D01*
G75*
G02*
X198244937Y-128027368I-782227J-167695D01*
G01*
X197560489Y-128174100D01*
G75*
G02*
X196610567Y-127559568I-167695J782227D01*
G01*
G37*
D12*
X201876076Y-120396684D03*
X191120460Y-122702488D03*
G36*
G01*
X191204635Y-126673057D02*
X191204635Y-126673057D01*
G75*
G02*
X191857575Y-125663765I831116J178176D01*
G01*
X192444245Y-125537993D01*
G75*
G02*
X193453537Y-126190933I178176J-831116D01*
G01*
X193453537Y-126190933D01*
G75*
G02*
X192800597Y-127200225I-831116J-178176D01*
G01*
X192213927Y-127325997D01*
G75*
G02*
X191204635Y-126673057I-178176J831116D01*
G01*
G37*
G36*
G01*
X199199089Y-115303847D02*
X199199089Y-115303847D01*
G75*
G02*
X199805307Y-114348599I780733J174515D01*
G01*
X200293265Y-114239527D01*
G75*
G02*
X201248513Y-114845745I174515J-780733D01*
G01*
X201248513Y-114845745D01*
G75*
G02*
X200642295Y-115800993I-780733J-174515D01*
G01*
X200154337Y-115910065D01*
G75*
G02*
X199199089Y-115303847I-174515J780733D01*
G01*
G37*
G04 #@! TD*
G04 #@! TO.C,S8*
G36*
G01*
X219650128Y-111548605D02*
X219650128Y-111548605D01*
G75*
G02*
X219483478Y-111777139I-197592J-30942D01*
G01*
X218791906Y-111885437D01*
G75*
G02*
X218563372Y-111718787I-30942J197592D01*
G01*
X218563372Y-111718787D01*
G75*
G02*
X218730022Y-111490253I197592J30942D01*
G01*
X219421594Y-111381955D01*
G75*
G02*
X219650128Y-111548605I30942J-197592D01*
G01*
G37*
D10*
X212301847Y-101142235D03*
G36*
G01*
X205975649Y-105787849D02*
X203410561Y-106212497D01*
G75*
G02*
X203353066Y-106171334I-8166J49329D01*
G01*
X202928418Y-103606246D01*
G75*
G02*
X202969581Y-103548751I49329J8166D01*
G01*
X205534669Y-103124103D01*
G75*
G02*
X205592164Y-103165266I8166J-49329D01*
G01*
X206016812Y-105730354D01*
G75*
G02*
X205975649Y-105787849I-49329J-8166D01*
G01*
G37*
X217594025Y-102496064D03*
X207728303Y-104129324D03*
G36*
G01*
X214437986Y-102106294D02*
X214013338Y-99541206D01*
G75*
G02*
X214054501Y-99483711I49329J8166D01*
G01*
X216619589Y-99059063D01*
G75*
G02*
X216677084Y-99100226I8166J-49329D01*
G01*
X217101732Y-101665314D01*
G75*
G02*
X217060569Y-101722809I-49329J-8166D01*
G01*
X214495481Y-102147457D01*
G75*
G02*
X214437986Y-102106294I-8166J49329D01*
G01*
G37*
G36*
G01*
X220070477Y-109801694D02*
X220070477Y-109801694D01*
G75*
G02*
X219370718Y-110779107I-838586J-138827D01*
G01*
X218778774Y-110877103D01*
G75*
G02*
X217801361Y-110177344I-138827J838586D01*
G01*
X217801361Y-110177344D01*
G75*
G02*
X218501120Y-109199931I838586J138827D01*
G01*
X219093064Y-109101935D01*
G75*
G02*
X220070477Y-109801694I138827J-838586D01*
G01*
G37*
G36*
G01*
X208465468Y-102153558D02*
X208465468Y-102153558D01*
G75*
G02*
X207798868Y-103067694I-790368J-123768D01*
G01*
X207304888Y-103145050D01*
G75*
G02*
X206390752Y-102478450I-123768J790368D01*
G01*
X206390752Y-102478450D01*
G75*
G02*
X207057352Y-101564314I790368J123768D01*
G01*
X207551332Y-101486958D01*
G75*
G02*
X208465468Y-102153558I123768J-790368D01*
G01*
G37*
D11*
X208255643Y-107804546D03*
X218279217Y-106145154D03*
G36*
G01*
X213096495Y-112983451D02*
X213096495Y-112983451D01*
G75*
G02*
X213755092Y-112063532I789258J130661D01*
G01*
X214445692Y-111949204D01*
G75*
G02*
X215365611Y-112607801I130661J-789258D01*
G01*
X215365611Y-112607801D01*
G75*
G02*
X214707014Y-113527720I-789258J-130661D01*
G01*
X214016414Y-113642048D01*
G75*
G02*
X213096495Y-112983451I-130661J789258D01*
G01*
G37*
D12*
X218693577Y-106076557D03*
X207841283Y-107873143D03*
G36*
G01*
X207738325Y-111843269D02*
X207738325Y-111843269D01*
G75*
G02*
X208438084Y-110865856I838586J138827D01*
G01*
X209030028Y-110767860D01*
G75*
G02*
X210007441Y-111467619I138827J-838586D01*
G01*
X210007441Y-111467619D01*
G75*
G02*
X209307682Y-112445032I-838586J-138827D01*
G01*
X208715738Y-112543028D01*
G75*
G02*
X207738325Y-111843269I-138827J838586D01*
G01*
G37*
G36*
G01*
X216259468Y-100863270D02*
X216259468Y-100863270D01*
G75*
G02*
X216910012Y-99937640I788087J137543D01*
G01*
X217402566Y-99851676D01*
G75*
G02*
X218328196Y-100502220I137543J-788087D01*
G01*
X218328196Y-100502220D01*
G75*
G02*
X217677652Y-101427850I-788087J-137543D01*
G01*
X217185098Y-101513814D01*
G75*
G02*
X216259468Y-100863270I-137543J788087D01*
G01*
G37*
G04 #@! TD*
D15*
G04 #@! TO.C,REF\u002A\u002A*
X296672000Y-126238000D03*
G04 #@! TD*
D16*
G04 #@! TO.C,REF\u002A\u002A*
X295986000Y-116356000D03*
X295986000Y-119356000D03*
G04 #@! TD*
D17*
G04 #@! TO.C,REF\u002A\u002A*
X280416000Y-120364000D03*
G36*
G01*
X279691000Y-119039000D02*
X279691000Y-117689000D01*
G75*
G02*
X279741000Y-117639000I50000J0D01*
G01*
X281091000Y-117639000D01*
G75*
G02*
X281141000Y-117689000I0J-50000D01*
G01*
X281141000Y-119039000D01*
G75*
G02*
X281091000Y-119089000I-50000J0D01*
G01*
X279741000Y-119089000D01*
G75*
G02*
X279691000Y-119039000I0J50000D01*
G01*
G37*
G04 #@! TD*
G04 #@! TO.C,REF\u002A\u002A*
G36*
G01*
X295276000Y-122056000D02*
X294476000Y-122056000D01*
G75*
G02*
X294426000Y-122006000I0J50000D01*
G01*
X294426000Y-121006000D01*
G75*
G02*
X294476000Y-120956000I50000J0D01*
G01*
X295276000Y-120956000D01*
G75*
G02*
X295326000Y-121006000I0J-50000D01*
G01*
X295326000Y-122006000D01*
G75*
G02*
X295276000Y-122056000I-50000J0D01*
G01*
G37*
G36*
G01*
X295276000Y-114756000D02*
X294476000Y-114756000D01*
G75*
G02*
X294426000Y-114706000I0J50000D01*
G01*
X294426000Y-113706000D01*
G75*
G02*
X294476000Y-113656000I50000J0D01*
G01*
X295276000Y-113656000D01*
G75*
G02*
X295326000Y-113706000I0J-50000D01*
G01*
X295326000Y-114706000D01*
G75*
G02*
X295276000Y-114756000I-50000J0D01*
G01*
G37*
G36*
G01*
X297486000Y-114756000D02*
X296686000Y-114756000D01*
G75*
G02*
X296636000Y-114706000I0J50000D01*
G01*
X296636000Y-113706000D01*
G75*
G02*
X296686000Y-113656000I50000J0D01*
G01*
X297486000Y-113656000D01*
G75*
G02*
X297536000Y-113706000I0J-50000D01*
G01*
X297536000Y-114706000D01*
G75*
G02*
X297486000Y-114756000I-50000J0D01*
G01*
G37*
G36*
G01*
X297486000Y-122056000D02*
X296686000Y-122056000D01*
G75*
G02*
X296636000Y-122006000I0J50000D01*
G01*
X296636000Y-121006000D01*
G75*
G02*
X296686000Y-120956000I50000J0D01*
G01*
X297486000Y-120956000D01*
G75*
G02*
X297536000Y-121006000I0J-50000D01*
G01*
X297536000Y-122006000D01*
G75*
G02*
X297486000Y-122056000I-50000J0D01*
G01*
G37*
G36*
G01*
X294976000Y-116006000D02*
X293476000Y-116006000D01*
G75*
G02*
X293426000Y-115956000I0J50000D01*
G01*
X293426000Y-115256000D01*
G75*
G02*
X293476000Y-115206000I50000J0D01*
G01*
X294976000Y-115206000D01*
G75*
G02*
X295026000Y-115256000I0J-50000D01*
G01*
X295026000Y-115956000D01*
G75*
G02*
X294976000Y-116006000I-50000J0D01*
G01*
G37*
G36*
G01*
X294976000Y-117506000D02*
X293476000Y-117506000D01*
G75*
G02*
X293426000Y-117456000I0J50000D01*
G01*
X293426000Y-116756000D01*
G75*
G02*
X293476000Y-116706000I50000J0D01*
G01*
X294976000Y-116706000D01*
G75*
G02*
X295026000Y-116756000I0J-50000D01*
G01*
X295026000Y-117456000D01*
G75*
G02*
X294976000Y-117506000I-50000J0D01*
G01*
G37*
G36*
G01*
X294976000Y-120506000D02*
X293476000Y-120506000D01*
G75*
G02*
X293426000Y-120456000I0J50000D01*
G01*
X293426000Y-119756000D01*
G75*
G02*
X293476000Y-119706000I50000J0D01*
G01*
X294976000Y-119706000D01*
G75*
G02*
X295026000Y-119756000I0J-50000D01*
G01*
X295026000Y-120456000D01*
G75*
G02*
X294976000Y-120506000I-50000J0D01*
G01*
G37*
D16*
X295986000Y-116356000D03*
X295986000Y-119356000D03*
G04 #@! TD*
D18*
G04 #@! TO.C,C1*
G36*
X282406000Y-96181000D02*
G01*
X282406000Y-95081000D01*
X283506000Y-95081000D01*
X283506000Y-96181000D01*
X282406000Y-96181000D01*
G37*
G36*
X292566000Y-96181000D02*
G01*
X292566000Y-95081000D01*
X293666000Y-95081000D01*
X293666000Y-96181000D01*
X292566000Y-96181000D01*
G37*
G36*
X283676000Y-83481000D02*
G01*
X283676000Y-82381000D01*
X284776000Y-82381000D01*
X284776000Y-83481000D01*
X283676000Y-83481000D01*
G37*
G36*
X291296000Y-108881000D02*
G01*
X291296000Y-107781000D01*
X292396000Y-107781000D01*
X292396000Y-108881000D01*
X291296000Y-108881000D01*
G37*
G36*
X282406000Y-111421000D02*
G01*
X282406000Y-110321000D01*
X283506000Y-110321000D01*
X283506000Y-111421000D01*
X282406000Y-111421000D01*
G37*
G36*
X282406000Y-98721000D02*
G01*
X282406000Y-97621000D01*
X283506000Y-97621000D01*
X283506000Y-98721000D01*
X282406000Y-98721000D01*
G37*
G36*
X283676000Y-91101000D02*
G01*
X283676000Y-90001000D01*
X284776000Y-90001000D01*
X284776000Y-91101000D01*
X283676000Y-91101000D01*
G37*
G36*
X292566000Y-91101000D02*
G01*
X292566000Y-90001000D01*
X293666000Y-90001000D01*
X293666000Y-91101000D01*
X292566000Y-91101000D01*
G37*
G36*
X292566000Y-103801000D02*
G01*
X292566000Y-102701000D01*
X293666000Y-102701000D01*
X293666000Y-103801000D01*
X292566000Y-103801000D01*
G37*
G36*
X292566000Y-111421000D02*
G01*
X292566000Y-110321000D01*
X293666000Y-110321000D01*
X293666000Y-111421000D01*
X292566000Y-111421000D01*
G37*
G36*
X291296000Y-93641000D02*
G01*
X291296000Y-92541000D01*
X292396000Y-92541000D01*
X292396000Y-93641000D01*
X291296000Y-93641000D01*
G37*
G36*
X283676000Y-108881000D02*
G01*
X283676000Y-107781000D01*
X284776000Y-107781000D01*
X284776000Y-108881000D01*
X283676000Y-108881000D01*
G37*
G36*
X292566000Y-93641000D02*
G01*
X292566000Y-92541000D01*
X293666000Y-92541000D01*
X293666000Y-93641000D01*
X292566000Y-93641000D01*
G37*
G36*
X282406000Y-91101000D02*
G01*
X282406000Y-90001000D01*
X283506000Y-90001000D01*
X283506000Y-91101000D01*
X282406000Y-91101000D01*
G37*
G36*
X282406000Y-88561000D02*
G01*
X282406000Y-87461000D01*
X283506000Y-87461000D01*
X283506000Y-88561000D01*
X282406000Y-88561000D01*
G37*
G36*
X292566000Y-86021000D02*
G01*
X292566000Y-84921000D01*
X293666000Y-84921000D01*
X293666000Y-86021000D01*
X292566000Y-86021000D01*
G37*
G36*
X283676000Y-86021000D02*
G01*
X283676000Y-84921000D01*
X284776000Y-84921000D01*
X284776000Y-86021000D01*
X283676000Y-86021000D01*
G37*
G36*
X292566000Y-88561000D02*
G01*
X292566000Y-87461000D01*
X293666000Y-87461000D01*
X293666000Y-88561000D01*
X292566000Y-88561000D01*
G37*
G36*
X292566000Y-98721000D02*
G01*
X292566000Y-97621000D01*
X293666000Y-97621000D01*
X293666000Y-98721000D01*
X292566000Y-98721000D01*
G37*
G36*
X292566000Y-106341000D02*
G01*
X292566000Y-105241000D01*
X293666000Y-105241000D01*
X293666000Y-106341000D01*
X292566000Y-106341000D01*
G37*
G36*
X283676000Y-98721000D02*
G01*
X283676000Y-97621000D01*
X284776000Y-97621000D01*
X284776000Y-98721000D01*
X283676000Y-98721000D01*
G37*
G36*
X291296000Y-91101000D02*
G01*
X291296000Y-90001000D01*
X292396000Y-90001000D01*
X292396000Y-91101000D01*
X291296000Y-91101000D01*
G37*
G36*
X282406000Y-106341000D02*
G01*
X282406000Y-105241000D01*
X283506000Y-105241000D01*
X283506000Y-106341000D01*
X282406000Y-106341000D01*
G37*
G36*
X291296000Y-111421000D02*
G01*
X291296000Y-110321000D01*
X292396000Y-110321000D01*
X292396000Y-111421000D01*
X291296000Y-111421000D01*
G37*
G36*
X291296000Y-96181000D02*
G01*
X291296000Y-95081000D01*
X292396000Y-95081000D01*
X292396000Y-96181000D01*
X291296000Y-96181000D01*
G37*
G36*
X291296000Y-101261000D02*
G01*
X291296000Y-100161000D01*
X292396000Y-100161000D01*
X292396000Y-101261000D01*
X291296000Y-101261000D01*
G37*
G36*
X292566000Y-101261000D02*
G01*
X292566000Y-100161000D01*
X293666000Y-100161000D01*
X293666000Y-101261000D01*
X292566000Y-101261000D01*
G37*
G36*
X283676000Y-106341000D02*
G01*
X283676000Y-105241000D01*
X284776000Y-105241000D01*
X284776000Y-106341000D01*
X283676000Y-106341000D01*
G37*
G36*
X292566000Y-83481000D02*
G01*
X292566000Y-82381000D01*
X293666000Y-82381000D01*
X293666000Y-83481000D01*
X292566000Y-83481000D01*
G37*
G36*
X291296000Y-103801000D02*
G01*
X291296000Y-102701000D01*
X292396000Y-102701000D01*
X292396000Y-103801000D01*
X291296000Y-103801000D01*
G37*
G36*
X291296000Y-98721000D02*
G01*
X291296000Y-97621000D01*
X292396000Y-97621000D01*
X292396000Y-98721000D01*
X291296000Y-98721000D01*
G37*
G36*
X291296000Y-83481000D02*
G01*
X291296000Y-82381000D01*
X292396000Y-82381000D01*
X292396000Y-83481000D01*
X291296000Y-83481000D01*
G37*
G36*
X283676000Y-111421000D02*
G01*
X283676000Y-110321000D01*
X284776000Y-110321000D01*
X284776000Y-111421000D01*
X283676000Y-111421000D01*
G37*
G36*
X282406000Y-93641000D02*
G01*
X282406000Y-92541000D01*
X283506000Y-92541000D01*
X283506000Y-93641000D01*
X282406000Y-93641000D01*
G37*
G36*
X291296000Y-88561000D02*
G01*
X291296000Y-87461000D01*
X292396000Y-87461000D01*
X292396000Y-88561000D01*
X291296000Y-88561000D01*
G37*
G36*
X291296000Y-106341000D02*
G01*
X291296000Y-105241000D01*
X292396000Y-105241000D01*
X292396000Y-106341000D01*
X291296000Y-106341000D01*
G37*
G36*
X283676000Y-103801000D02*
G01*
X283676000Y-102701000D01*
X284776000Y-102701000D01*
X284776000Y-103801000D01*
X283676000Y-103801000D01*
G37*
G36*
X282406000Y-86021000D02*
G01*
X282406000Y-84921000D01*
X283506000Y-84921000D01*
X283506000Y-86021000D01*
X282406000Y-86021000D01*
G37*
G36*
X282406000Y-83481000D02*
G01*
X282406000Y-82381000D01*
X283506000Y-82381000D01*
X283506000Y-83481000D01*
X282406000Y-83481000D01*
G37*
G36*
X283676000Y-96181000D02*
G01*
X283676000Y-95081000D01*
X284776000Y-95081000D01*
X284776000Y-96181000D01*
X283676000Y-96181000D01*
G37*
G36*
X291296000Y-86021000D02*
G01*
X291296000Y-84921000D01*
X292396000Y-84921000D01*
X292396000Y-86021000D01*
X291296000Y-86021000D01*
G37*
G36*
X282406000Y-108881000D02*
G01*
X282406000Y-107781000D01*
X283506000Y-107781000D01*
X283506000Y-108881000D01*
X282406000Y-108881000D01*
G37*
G36*
X283676000Y-101261000D02*
G01*
X283676000Y-100161000D01*
X284776000Y-100161000D01*
X284776000Y-101261000D01*
X283676000Y-101261000D01*
G37*
G36*
X282406000Y-103801000D02*
G01*
X282406000Y-102701000D01*
X283506000Y-102701000D01*
X283506000Y-103801000D01*
X282406000Y-103801000D01*
G37*
G36*
X282406000Y-101261000D02*
G01*
X282406000Y-100161000D01*
X283506000Y-100161000D01*
X283506000Y-101261000D01*
X282406000Y-101261000D01*
G37*
G36*
X283676000Y-88561000D02*
G01*
X283676000Y-87461000D01*
X284776000Y-87461000D01*
X284776000Y-88561000D01*
X283676000Y-88561000D01*
G37*
G36*
X283676000Y-93641000D02*
G01*
X283676000Y-92541000D01*
X284776000Y-92541000D01*
X284776000Y-93641000D01*
X283676000Y-93641000D01*
G37*
G36*
X292566000Y-108881000D02*
G01*
X292566000Y-107781000D01*
X293666000Y-107781000D01*
X293666000Y-108881000D01*
X292566000Y-108881000D01*
G37*
G36*
X292566000Y-98721000D02*
G01*
X292566000Y-97621000D01*
X293666000Y-97621000D01*
X293666000Y-98721000D01*
X292566000Y-98721000D01*
G37*
G36*
X282406000Y-98721000D02*
G01*
X282406000Y-97621000D01*
X283506000Y-97621000D01*
X283506000Y-98721000D01*
X282406000Y-98721000D01*
G37*
G36*
X291296000Y-98721000D02*
G01*
X291296000Y-97621000D01*
X292396000Y-97621000D01*
X292396000Y-98721000D01*
X291296000Y-98721000D01*
G37*
G36*
X283676000Y-98721000D02*
G01*
X283676000Y-97621000D01*
X284776000Y-97621000D01*
X284776000Y-98721000D01*
X283676000Y-98721000D01*
G37*
G36*
X292566000Y-101261000D02*
G01*
X292566000Y-100161000D01*
X293666000Y-100161000D01*
X293666000Y-101261000D01*
X292566000Y-101261000D01*
G37*
G36*
X282406000Y-101261000D02*
G01*
X282406000Y-100161000D01*
X283506000Y-100161000D01*
X283506000Y-101261000D01*
X282406000Y-101261000D01*
G37*
G36*
X291296000Y-101261000D02*
G01*
X291296000Y-100161000D01*
X292396000Y-100161000D01*
X292396000Y-101261000D01*
X291296000Y-101261000D01*
G37*
G36*
X283676000Y-101261000D02*
G01*
X283676000Y-100161000D01*
X284776000Y-100161000D01*
X284776000Y-101261000D01*
X283676000Y-101261000D01*
G37*
G36*
X292566000Y-103801000D02*
G01*
X292566000Y-102701000D01*
X293666000Y-102701000D01*
X293666000Y-103801000D01*
X292566000Y-103801000D01*
G37*
G36*
X282406000Y-103801000D02*
G01*
X282406000Y-102701000D01*
X283506000Y-102701000D01*
X283506000Y-103801000D01*
X282406000Y-103801000D01*
G37*
G36*
X291296000Y-103801000D02*
G01*
X291296000Y-102701000D01*
X292396000Y-102701000D01*
X292396000Y-103801000D01*
X291296000Y-103801000D01*
G37*
G36*
X283676000Y-103801000D02*
G01*
X283676000Y-102701000D01*
X284776000Y-102701000D01*
X284776000Y-103801000D01*
X283676000Y-103801000D01*
G37*
G36*
X292566000Y-106341000D02*
G01*
X292566000Y-105241000D01*
X293666000Y-105241000D01*
X293666000Y-106341000D01*
X292566000Y-106341000D01*
G37*
G36*
X282406000Y-106341000D02*
G01*
X282406000Y-105241000D01*
X283506000Y-105241000D01*
X283506000Y-106341000D01*
X282406000Y-106341000D01*
G37*
G36*
X291296000Y-106341000D02*
G01*
X291296000Y-105241000D01*
X292396000Y-105241000D01*
X292396000Y-106341000D01*
X291296000Y-106341000D01*
G37*
G36*
X283676000Y-106341000D02*
G01*
X283676000Y-105241000D01*
X284776000Y-105241000D01*
X284776000Y-106341000D01*
X283676000Y-106341000D01*
G37*
G36*
X292566000Y-108881000D02*
G01*
X292566000Y-107781000D01*
X293666000Y-107781000D01*
X293666000Y-108881000D01*
X292566000Y-108881000D01*
G37*
G36*
X282406000Y-108881000D02*
G01*
X282406000Y-107781000D01*
X283506000Y-107781000D01*
X283506000Y-108881000D01*
X282406000Y-108881000D01*
G37*
G36*
X291296000Y-108881000D02*
G01*
X291296000Y-107781000D01*
X292396000Y-107781000D01*
X292396000Y-108881000D01*
X291296000Y-108881000D01*
G37*
G36*
X283676000Y-108881000D02*
G01*
X283676000Y-107781000D01*
X284776000Y-107781000D01*
X284776000Y-108881000D01*
X283676000Y-108881000D01*
G37*
G36*
X292566000Y-111421000D02*
G01*
X292566000Y-110321000D01*
X293666000Y-110321000D01*
X293666000Y-111421000D01*
X292566000Y-111421000D01*
G37*
G36*
X282406000Y-111421000D02*
G01*
X282406000Y-110321000D01*
X283506000Y-110321000D01*
X283506000Y-111421000D01*
X282406000Y-111421000D01*
G37*
G36*
X291296000Y-111421000D02*
G01*
X291296000Y-110321000D01*
X292396000Y-110321000D01*
X292396000Y-111421000D01*
X291296000Y-111421000D01*
G37*
G36*
X283676000Y-111421000D02*
G01*
X283676000Y-110321000D01*
X284776000Y-110321000D01*
X284776000Y-111421000D01*
X283676000Y-111421000D01*
G37*
G36*
X292566000Y-96181000D02*
G01*
X292566000Y-95081000D01*
X293666000Y-95081000D01*
X293666000Y-96181000D01*
X292566000Y-96181000D01*
G37*
G36*
X282406000Y-96181000D02*
G01*
X282406000Y-95081000D01*
X283506000Y-95081000D01*
X283506000Y-96181000D01*
X282406000Y-96181000D01*
G37*
G36*
X291296000Y-96181000D02*
G01*
X291296000Y-95081000D01*
X292396000Y-95081000D01*
X292396000Y-96181000D01*
X291296000Y-96181000D01*
G37*
G36*
X283676000Y-96181000D02*
G01*
X283676000Y-95081000D01*
X284776000Y-95081000D01*
X284776000Y-96181000D01*
X283676000Y-96181000D01*
G37*
G36*
X292566000Y-93641000D02*
G01*
X292566000Y-92541000D01*
X293666000Y-92541000D01*
X293666000Y-93641000D01*
X292566000Y-93641000D01*
G37*
G36*
X282406000Y-93641000D02*
G01*
X282406000Y-92541000D01*
X283506000Y-92541000D01*
X283506000Y-93641000D01*
X282406000Y-93641000D01*
G37*
G36*
X291296000Y-93641000D02*
G01*
X291296000Y-92541000D01*
X292396000Y-92541000D01*
X292396000Y-93641000D01*
X291296000Y-93641000D01*
G37*
G36*
X283676000Y-93641000D02*
G01*
X283676000Y-92541000D01*
X284776000Y-92541000D01*
X284776000Y-93641000D01*
X283676000Y-93641000D01*
G37*
G36*
X292566000Y-91101000D02*
G01*
X292566000Y-90001000D01*
X293666000Y-90001000D01*
X293666000Y-91101000D01*
X292566000Y-91101000D01*
G37*
G36*
X282406000Y-91101000D02*
G01*
X282406000Y-90001000D01*
X283506000Y-90001000D01*
X283506000Y-91101000D01*
X282406000Y-91101000D01*
G37*
G36*
X291296000Y-91101000D02*
G01*
X291296000Y-90001000D01*
X292396000Y-90001000D01*
X292396000Y-91101000D01*
X291296000Y-91101000D01*
G37*
G36*
X283676000Y-91101000D02*
G01*
X283676000Y-90001000D01*
X284776000Y-90001000D01*
X284776000Y-91101000D01*
X283676000Y-91101000D01*
G37*
G36*
X292566000Y-88561000D02*
G01*
X292566000Y-87461000D01*
X293666000Y-87461000D01*
X293666000Y-88561000D01*
X292566000Y-88561000D01*
G37*
G36*
X282406000Y-88561000D02*
G01*
X282406000Y-87461000D01*
X283506000Y-87461000D01*
X283506000Y-88561000D01*
X282406000Y-88561000D01*
G37*
G36*
X291296000Y-88561000D02*
G01*
X291296000Y-87461000D01*
X292396000Y-87461000D01*
X292396000Y-88561000D01*
X291296000Y-88561000D01*
G37*
G36*
X283676000Y-88561000D02*
G01*
X283676000Y-87461000D01*
X284776000Y-87461000D01*
X284776000Y-88561000D01*
X283676000Y-88561000D01*
G37*
G36*
X292566000Y-86021000D02*
G01*
X292566000Y-84921000D01*
X293666000Y-84921000D01*
X293666000Y-86021000D01*
X292566000Y-86021000D01*
G37*
G36*
X282406000Y-86021000D02*
G01*
X282406000Y-84921000D01*
X283506000Y-84921000D01*
X283506000Y-86021000D01*
X282406000Y-86021000D01*
G37*
G36*
X291296000Y-86021000D02*
G01*
X291296000Y-84921000D01*
X292396000Y-84921000D01*
X292396000Y-86021000D01*
X291296000Y-86021000D01*
G37*
G36*
X283676000Y-86021000D02*
G01*
X283676000Y-84921000D01*
X284776000Y-84921000D01*
X284776000Y-86021000D01*
X283676000Y-86021000D01*
G37*
G36*
X291296000Y-83481000D02*
G01*
X291296000Y-82381000D01*
X292396000Y-82381000D01*
X292396000Y-83481000D01*
X291296000Y-83481000D01*
G37*
G36*
X292566000Y-83481000D02*
G01*
X292566000Y-82381000D01*
X293666000Y-82381000D01*
X293666000Y-83481000D01*
X292566000Y-83481000D01*
G37*
G36*
X283676000Y-83481000D02*
G01*
X283676000Y-82381000D01*
X284776000Y-82381000D01*
X284776000Y-83481000D01*
X283676000Y-83481000D01*
G37*
G36*
X282406000Y-83481000D02*
G01*
X282406000Y-82381000D01*
X283506000Y-82381000D01*
X283506000Y-83481000D01*
X282406000Y-83481000D01*
G37*
D19*
X295692400Y-83058000D03*
X295692400Y-85598000D03*
X295692400Y-88138000D03*
X295692400Y-90678000D03*
X295692400Y-93218000D03*
X295692400Y-95758000D03*
X295692400Y-98298000D03*
X295692400Y-100838000D03*
X295692400Y-103378000D03*
X295692400Y-105918000D03*
X295692400Y-108458000D03*
X295692400Y-110998000D03*
X280472400Y-110998000D03*
X280472400Y-108458000D03*
X280472400Y-105918000D03*
X280472400Y-103378000D03*
X280472400Y-100838000D03*
X280472400Y-98298000D03*
X280472400Y-95758000D03*
X280472400Y-93218000D03*
X280472400Y-90678000D03*
X280472400Y-88138000D03*
X280472400Y-85598000D03*
X280472400Y-83058000D03*
G04 #@! TD*
D15*
G04 #@! TO.C,REF\u002A\u002A*
X296672000Y-126238000D03*
G36*
G01*
X295822000Y-127438000D02*
X297522000Y-127438000D01*
G75*
G02*
X297572000Y-127488000I0J-50000D01*
G01*
X297572000Y-128388000D01*
G75*
G02*
X297522000Y-128438000I-50000J0D01*
G01*
X295822000Y-128438000D01*
G75*
G02*
X295772000Y-128388000I0J50000D01*
G01*
X295772000Y-127488000D01*
G75*
G02*
X295822000Y-127438000I50000J0D01*
G01*
G37*
G36*
G01*
X295822000Y-124038000D02*
X297522000Y-124038000D01*
G75*
G02*
X297572000Y-124088000I0J-50000D01*
G01*
X297572000Y-124988000D01*
G75*
G02*
X297522000Y-125038000I-50000J0D01*
G01*
X295822000Y-125038000D01*
G75*
G02*
X295772000Y-124988000I0J50000D01*
G01*
X295772000Y-124088000D01*
G75*
G02*
X295822000Y-124038000I50000J0D01*
G01*
G37*
G04 #@! TD*
M02*
