G04 #@! TF.GenerationSoftware,KiCad,Pcbnew,5.1.10*
G04 #@! TF.CreationDate,2021-11-16T18:12:20-06:00*
G04 #@! TF.ProjectId,a_dux_dux,615f6475-785f-4647-9578-2e6b69636164,VERSION_HERE*
G04 #@! TF.SameCoordinates,Original*
G04 #@! TF.FileFunction,Copper,L1,Top*
G04 #@! TF.FilePolarity,Positive*
%FSLAX46Y46*%
G04 Gerber Fmt 4.6, Leading zero omitted, Abs format (unit mm)*
G04 Created by KiCad (PCBNEW 5.1.10) date 2021-11-16 18:12:20*
%MOMM*%
%LPD*%
G01*
G04 APERTURE LIST*
G04 #@! TA.AperFunction,EtchedComponent*
%ADD10C,0.100000*%
G04 #@! TD*
G04 #@! TA.AperFunction,SMDPad,CuDef*
%ADD11C,0.100000*%
G04 #@! TD*
G04 #@! TA.AperFunction,SMDPad,CuDef*
%ADD12R,2.600000X2.600000*%
G04 #@! TD*
G04 #@! TA.AperFunction,ComponentPad*
%ADD13O,2.200000X1.600000*%
G04 #@! TD*
G04 #@! TA.AperFunction,ComponentPad*
%ADD14O,2.200000X1.500000*%
G04 #@! TD*
G04 #@! TA.AperFunction,ComponentPad*
%ADD15O,1.350000X1.350000*%
G04 #@! TD*
G04 #@! TA.AperFunction,ComponentPad*
%ADD16R,1.350000X1.350000*%
G04 #@! TD*
G04 #@! TA.AperFunction,SMDPad,CuDef*
%ADD17R,0.800000X1.000000*%
G04 #@! TD*
G04 #@! TA.AperFunction,SMDPad,CuDef*
%ADD18R,1.500000X0.700000*%
G04 #@! TD*
G04 #@! TA.AperFunction,ComponentPad*
%ADD19C,1.524000*%
G04 #@! TD*
G04 #@! TA.AperFunction,SMDPad,CuDef*
%ADD20R,1.700000X0.900000*%
G04 #@! TD*
G04 #@! TA.AperFunction,ViaPad*
%ADD21C,0.800000*%
G04 #@! TD*
G04 #@! TA.AperFunction,Conductor*
%ADD22C,0.250000*%
G04 #@! TD*
G04 #@! TA.AperFunction,Conductor*
%ADD23C,0.500000*%
G04 #@! TD*
G04 APERTURE END LIST*
D10*
G04 #@! TO.C,C1*
G36*
X295656000Y-111125000D02*
G01*
X293116000Y-111125000D01*
X293116000Y-110744000D01*
X295656000Y-110744000D01*
X295656000Y-111125000D01*
G37*
X295656000Y-111125000D02*
X293116000Y-111125000D01*
X293116000Y-110744000D01*
X295656000Y-110744000D01*
X295656000Y-111125000D01*
G36*
X295656000Y-108585000D02*
G01*
X293116000Y-108585000D01*
X293116000Y-108204000D01*
X295656000Y-108204000D01*
X295656000Y-108585000D01*
G37*
X295656000Y-108585000D02*
X293116000Y-108585000D01*
X293116000Y-108204000D01*
X295656000Y-108204000D01*
X295656000Y-108585000D01*
G36*
X295656000Y-106045000D02*
G01*
X293116000Y-106045000D01*
X293116000Y-105664000D01*
X295656000Y-105664000D01*
X295656000Y-106045000D01*
G37*
X295656000Y-106045000D02*
X293116000Y-106045000D01*
X293116000Y-105664000D01*
X295656000Y-105664000D01*
X295656000Y-106045000D01*
G36*
X295656000Y-103505000D02*
G01*
X293116000Y-103505000D01*
X293116000Y-103124000D01*
X295656000Y-103124000D01*
X295656000Y-103505000D01*
G37*
X295656000Y-103505000D02*
X293116000Y-103505000D01*
X293116000Y-103124000D01*
X295656000Y-103124000D01*
X295656000Y-103505000D01*
G36*
X295656000Y-100965000D02*
G01*
X293116000Y-100965000D01*
X293116000Y-100584000D01*
X295656000Y-100584000D01*
X295656000Y-100965000D01*
G37*
X295656000Y-100965000D02*
X293116000Y-100965000D01*
X293116000Y-100584000D01*
X295656000Y-100584000D01*
X295656000Y-100965000D01*
G36*
X295656000Y-98425000D02*
G01*
X293116000Y-98425000D01*
X293116000Y-98044000D01*
X295656000Y-98044000D01*
X295656000Y-98425000D01*
G37*
X295656000Y-98425000D02*
X293116000Y-98425000D01*
X293116000Y-98044000D01*
X295656000Y-98044000D01*
X295656000Y-98425000D01*
G36*
X295656000Y-95885000D02*
G01*
X293116000Y-95885000D01*
X293116000Y-95504000D01*
X295656000Y-95504000D01*
X295656000Y-95885000D01*
G37*
X295656000Y-95885000D02*
X293116000Y-95885000D01*
X293116000Y-95504000D01*
X295656000Y-95504000D01*
X295656000Y-95885000D01*
G36*
X295656000Y-93345000D02*
G01*
X293116000Y-93345000D01*
X293116000Y-92964000D01*
X295656000Y-92964000D01*
X295656000Y-93345000D01*
G37*
X295656000Y-93345000D02*
X293116000Y-93345000D01*
X293116000Y-92964000D01*
X295656000Y-92964000D01*
X295656000Y-93345000D01*
G36*
X295656000Y-90805000D02*
G01*
X293116000Y-90805000D01*
X293116000Y-90424000D01*
X295656000Y-90424000D01*
X295656000Y-90805000D01*
G37*
X295656000Y-90805000D02*
X293116000Y-90805000D01*
X293116000Y-90424000D01*
X295656000Y-90424000D01*
X295656000Y-90805000D01*
G36*
X295656000Y-88265000D02*
G01*
X293116000Y-88265000D01*
X293116000Y-87884000D01*
X295656000Y-87884000D01*
X295656000Y-88265000D01*
G37*
X295656000Y-88265000D02*
X293116000Y-88265000D01*
X293116000Y-87884000D01*
X295656000Y-87884000D01*
X295656000Y-88265000D01*
G36*
X295656000Y-85725000D02*
G01*
X293116000Y-85725000D01*
X293116000Y-85344000D01*
X295656000Y-85344000D01*
X295656000Y-85725000D01*
G37*
X295656000Y-85725000D02*
X293116000Y-85725000D01*
X293116000Y-85344000D01*
X295656000Y-85344000D01*
X295656000Y-85725000D01*
G36*
X295656000Y-83185000D02*
G01*
X293116000Y-83185000D01*
X293116000Y-82804000D01*
X295656000Y-82804000D01*
X295656000Y-83185000D01*
G37*
X295656000Y-83185000D02*
X293116000Y-83185000D01*
X293116000Y-82804000D01*
X295656000Y-82804000D01*
X295656000Y-83185000D01*
G36*
X282956000Y-111125000D02*
G01*
X280416000Y-111125000D01*
X280416000Y-110744000D01*
X282956000Y-110744000D01*
X282956000Y-111125000D01*
G37*
X282956000Y-111125000D02*
X280416000Y-111125000D01*
X280416000Y-110744000D01*
X282956000Y-110744000D01*
X282956000Y-111125000D01*
G36*
X282956000Y-108585000D02*
G01*
X280416000Y-108585000D01*
X280416000Y-108204000D01*
X282956000Y-108204000D01*
X282956000Y-108585000D01*
G37*
X282956000Y-108585000D02*
X280416000Y-108585000D01*
X280416000Y-108204000D01*
X282956000Y-108204000D01*
X282956000Y-108585000D01*
G36*
X282956000Y-106045000D02*
G01*
X280416000Y-106045000D01*
X280416000Y-105664000D01*
X282956000Y-105664000D01*
X282956000Y-106045000D01*
G37*
X282956000Y-106045000D02*
X280416000Y-106045000D01*
X280416000Y-105664000D01*
X282956000Y-105664000D01*
X282956000Y-106045000D01*
G36*
X282956000Y-103505000D02*
G01*
X280416000Y-103505000D01*
X280416000Y-103124000D01*
X282956000Y-103124000D01*
X282956000Y-103505000D01*
G37*
X282956000Y-103505000D02*
X280416000Y-103505000D01*
X280416000Y-103124000D01*
X282956000Y-103124000D01*
X282956000Y-103505000D01*
G36*
X282956000Y-100965000D02*
G01*
X280416000Y-100965000D01*
X280416000Y-100584000D01*
X282956000Y-100584000D01*
X282956000Y-100965000D01*
G37*
X282956000Y-100965000D02*
X280416000Y-100965000D01*
X280416000Y-100584000D01*
X282956000Y-100584000D01*
X282956000Y-100965000D01*
G36*
X282956000Y-98425000D02*
G01*
X280416000Y-98425000D01*
X280416000Y-98044000D01*
X282956000Y-98044000D01*
X282956000Y-98425000D01*
G37*
X282956000Y-98425000D02*
X280416000Y-98425000D01*
X280416000Y-98044000D01*
X282956000Y-98044000D01*
X282956000Y-98425000D01*
G36*
X282956000Y-95885000D02*
G01*
X280416000Y-95885000D01*
X280416000Y-95504000D01*
X282956000Y-95504000D01*
X282956000Y-95885000D01*
G37*
X282956000Y-95885000D02*
X280416000Y-95885000D01*
X280416000Y-95504000D01*
X282956000Y-95504000D01*
X282956000Y-95885000D01*
G36*
X282956000Y-93345000D02*
G01*
X280416000Y-93345000D01*
X280416000Y-92964000D01*
X282956000Y-92964000D01*
X282956000Y-93345000D01*
G37*
X282956000Y-93345000D02*
X280416000Y-93345000D01*
X280416000Y-92964000D01*
X282956000Y-92964000D01*
X282956000Y-93345000D01*
G36*
X282956000Y-90805000D02*
G01*
X280416000Y-90805000D01*
X280416000Y-90424000D01*
X282956000Y-90424000D01*
X282956000Y-90805000D01*
G37*
X282956000Y-90805000D02*
X280416000Y-90805000D01*
X280416000Y-90424000D01*
X282956000Y-90424000D01*
X282956000Y-90805000D01*
G36*
X282956000Y-85725000D02*
G01*
X280416000Y-85725000D01*
X280416000Y-85344000D01*
X282956000Y-85344000D01*
X282956000Y-85725000D01*
G37*
X282956000Y-85725000D02*
X280416000Y-85725000D01*
X280416000Y-85344000D01*
X282956000Y-85344000D01*
X282956000Y-85725000D01*
G36*
X282956000Y-83185000D02*
G01*
X280416000Y-83185000D01*
X280416000Y-82804000D01*
X282956000Y-82804000D01*
X282956000Y-83185000D01*
G37*
X282956000Y-83185000D02*
X280416000Y-83185000D01*
X280416000Y-82804000D01*
X282956000Y-82804000D01*
X282956000Y-83185000D01*
G36*
X282956000Y-88265000D02*
G01*
X280416000Y-88265000D01*
X280416000Y-87884000D01*
X282956000Y-87884000D01*
X282956000Y-88265000D01*
G37*
X282956000Y-88265000D02*
X280416000Y-88265000D01*
X280416000Y-87884000D01*
X282956000Y-87884000D01*
X282956000Y-88265000D01*
G04 #@! TD*
G04 #@! TO.P,S4,*
G04 #@! TO.N,*
G04 #@! TA.AperFunction,ComponentPad*
G36*
G01*
X198476866Y-106205274D02*
X198476866Y-106205274D01*
G75*
G02*
X198360092Y-106382372I-146936J-30162D01*
G01*
X197674390Y-106523126D01*
G75*
G02*
X197497292Y-106406352I-30162J146936D01*
G01*
X197497292Y-106406352D01*
G75*
G02*
X197614066Y-106229254I146936J30162D01*
G01*
X198299768Y-106088500D01*
G75*
G02*
X198476866Y-106205274I30162J-146936D01*
G01*
G37*
G04 #@! TD.AperFunction*
G04 #@! TA.AperFunction,ComponentPad*
G36*
G01*
X188699034Y-108301460D02*
X188699034Y-108301460D01*
G75*
G02*
X188582260Y-108478558I-146936J-30162D01*
G01*
X187896558Y-108619312D01*
G75*
G02*
X187719460Y-108502538I-30162J146936D01*
G01*
X187719460Y-108502538D01*
G75*
G02*
X187836234Y-108325440I146936J30162D01*
G01*
X188521936Y-108184686D01*
G75*
G02*
X188699034Y-108301460I30162J-146936D01*
G01*
G37*
G04 #@! TD.AperFunction*
G04 #@! TA.AperFunction,SMDPad,CuDef*
D11*
G04 #@! TO.P,S4,1*
G04 #@! TO.N,P8*
G36*
X184584697Y-101036126D02*
G01*
X182042461Y-101581134D01*
X181497453Y-99038898D01*
X184039689Y-98493890D01*
X184584697Y-101036126D01*
G37*
G04 #@! TD.AperFunction*
G04 #@! TA.AperFunction,SMDPad,CuDef*
G04 #@! TO.P,S4,2*
G04 #@! TO.N,GND*
G36*
X192923586Y-96998435D02*
G01*
X192378578Y-94456199D01*
X194920814Y-93911191D01*
X195465822Y-96453427D01*
X192923586Y-96998435D01*
G37*
G04 #@! TD.AperFunction*
G04 #@! TO.P,S4,1*
G04 #@! TO.N,P8*
G04 #@! TA.AperFunction,ComponentPad*
G36*
G01*
X198814549Y-104440928D02*
X198814549Y-104440928D01*
G75*
G02*
X198200017Y-105390850I-782227J-167695D01*
G01*
X197613347Y-105516622D01*
G75*
G02*
X196663425Y-104902090I-167695J782227D01*
G01*
X196663425Y-104902090D01*
G75*
G02*
X197277957Y-103952168I782227J167695D01*
G01*
X197864627Y-103826396D01*
G75*
G02*
X198814549Y-104440928I167695J-782227D01*
G01*
G37*
G04 #@! TD.AperFunction*
G04 #@! TO.P,S4,*
G04 #@! TO.N,*
G04 #@! TA.AperFunction,ComponentPad*
G36*
G01*
X186862056Y-97347528D02*
X186862056Y-97347528D01*
G75*
G02*
X186278183Y-98233017I-734681J-150808D01*
G01*
X185788395Y-98333555D01*
G75*
G02*
X184902906Y-97749682I-150808J734681D01*
G01*
X184902906Y-97749682D01*
G75*
G02*
X185486779Y-96864193I734681J150808D01*
G01*
X185976567Y-96763655D01*
G75*
G02*
X186862056Y-97347528I150808J-734681D01*
G01*
G37*
G04 #@! TD.AperFunction*
G04 #@! TO.P,S4,2*
G04 #@! TO.N,GND*
G04 #@! TA.AperFunction,ComponentPad*
G36*
G01*
X192095969Y-107926710D02*
X192095969Y-107926710D01*
G75*
G02*
X192672092Y-107036159I733337J157214D01*
G01*
X193356540Y-106889427D01*
G75*
G02*
X194247091Y-107465550I157214J-733337D01*
G01*
X194247091Y-107465550D01*
G75*
G02*
X193670968Y-108356101I-733337J-157214D01*
G01*
X192986520Y-108502833D01*
G75*
G02*
X192095969Y-107926710I-157214J733337D01*
G01*
G37*
G04 #@! TD.AperFunction*
G04 #@! TO.P,S4,1*
G04 #@! TO.N,P8*
G04 #@! TA.AperFunction,ComponentPad*
G36*
G01*
X186690036Y-107040199D02*
X186690036Y-107040199D01*
G75*
G02*
X187304568Y-106090277I782227J167695D01*
G01*
X187891238Y-105964505D01*
G75*
G02*
X188841160Y-106579037I167695J-782227D01*
G01*
X188841160Y-106579037D01*
G75*
G02*
X188226628Y-107528959I-782227J-167695D01*
G01*
X187639958Y-107654731D01*
G75*
G02*
X186690036Y-107040199I-167695J782227D01*
G01*
G37*
G04 #@! TD.AperFunction*
G04 #@! TO.P,S4,*
G04 #@! TO.N,*
G04 #@! TA.AperFunction,ComponentPad*
G36*
G01*
X194684396Y-95670562D02*
X194684396Y-95670562D01*
G75*
G02*
X195252727Y-94775017I731938J163607D01*
G01*
X195740685Y-94665945D01*
G75*
G02*
X196636230Y-95234276I163607J-731938D01*
G01*
X196636230Y-95234276D01*
G75*
G02*
X196067899Y-96129821I-731938J-163607D01*
G01*
X195579941Y-96238893D01*
G75*
G02*
X194684396Y-95670562I-163607J731938D01*
G01*
G37*
G04 #@! TD.AperFunction*
G04 #@! TD*
G04 #@! TO.P,S16,*
G04 #@! TO.N,*
G04 #@! TA.AperFunction,ComponentPad*
G36*
G01*
X236283329Y-86208325D02*
X236283329Y-86208325D01*
G75*
G02*
X236143878Y-86368180I-149653J-10202D01*
G01*
X235445500Y-86415790D01*
G75*
G02*
X235285645Y-86276339I-10202J149653D01*
G01*
X235285645Y-86276339D01*
G75*
G02*
X235425096Y-86116484I149653J10202D01*
G01*
X236123474Y-86068874D01*
G75*
G02*
X236283329Y-86208325I10202J-149653D01*
G01*
G37*
G04 #@! TD.AperFunction*
G04 #@! TA.AperFunction,ComponentPad*
G36*
G01*
X226312802Y-86975515D02*
X226312802Y-86975515D01*
G75*
G02*
X226173351Y-87135370I-149653J-10202D01*
G01*
X225474973Y-87182980D01*
G75*
G02*
X225315118Y-87043529I-10202J149653D01*
G01*
X225315118Y-87043529D01*
G75*
G02*
X225454569Y-86883674I149653J10202D01*
G01*
X226152947Y-86836064D01*
G75*
G02*
X226312802Y-86975515I10202J-149653D01*
G01*
G37*
G04 #@! TD.AperFunction*
G04 #@! TA.AperFunction,SMDPad,CuDef*
G04 #@! TO.P,S16,1*
G04 #@! TO.N,P16*
G36*
X223209017Y-79224426D02*
G01*
X220616680Y-79423895D01*
X220417211Y-76831558D01*
X223009548Y-76632089D01*
X223209017Y-79224426D01*
G37*
G04 #@! TD.AperFunction*
G04 #@! TA.AperFunction,SMDPad,CuDef*
G04 #@! TO.P,S16,2*
G04 #@! TO.N,GND*
G36*
X232013710Y-76340438D02*
G01*
X231814241Y-73748101D01*
X234406578Y-73548632D01*
X234606047Y-76140969D01*
X232013710Y-76340438D01*
G37*
G04 #@! TD.AperFunction*
G04 #@! TO.P,S16,1*
G04 #@! TO.N,P16*
G04 #@! TA.AperFunction,ComponentPad*
G36*
G01*
X236854364Y-84505132D02*
X236854364Y-84505132D01*
G75*
G02*
X236118097Y-85364149I-797642J-61375D01*
G01*
X235519865Y-85410181D01*
G75*
G02*
X234660848Y-84673914I-61375J797642D01*
G01*
X234660848Y-84673914D01*
G75*
G02*
X235397115Y-83814897I797642J61375D01*
G01*
X235995347Y-83768865D01*
G75*
G02*
X236854364Y-84505132I61375J-797642D01*
G01*
G37*
G04 #@! TD.AperFunction*
G04 #@! TO.P,S16,*
G04 #@! TO.N,*
G04 #@! TA.AperFunction,ComponentPad*
G36*
G01*
X225960063Y-75874221D02*
X225960063Y-75874221D01*
G75*
G02*
X225262811Y-76673495I-748263J-51011D01*
G01*
X224763969Y-76707503D01*
G75*
G02*
X223964695Y-76010251I-51011J748263D01*
G01*
X223964695Y-76010251D01*
G75*
G02*
X224661947Y-75210977I748263J51011D01*
G01*
X225160789Y-75176969D01*
G75*
G02*
X225960063Y-75874221I51011J-748263D01*
G01*
G37*
G04 #@! TD.AperFunction*
G04 #@! TO.P,S16,2*
G04 #@! TO.N,GND*
G04 #@! TA.AperFunction,ComponentPad*
G36*
G01*
X229729317Y-87059286D02*
X229729317Y-87059286D01*
G75*
G02*
X230419568Y-86253957I747790J57539D01*
G01*
X231117504Y-86200253D01*
G75*
G02*
X231922833Y-86890504I57539J-747790D01*
G01*
X231922833Y-86890504D01*
G75*
G02*
X231232582Y-87695833I-747790J-57539D01*
G01*
X230534646Y-87749537D01*
G75*
G02*
X229729317Y-87059286I-57539J747790D01*
G01*
G37*
G04 #@! TD.AperFunction*
G04 #@! TO.P,S16,1*
G04 #@! TO.N,P16*
G04 #@! TA.AperFunction,ComponentPad*
G36*
G01*
X224490910Y-85456448D02*
X224490910Y-85456448D01*
G75*
G02*
X225227177Y-84597431I797642J61375D01*
G01*
X225825409Y-84551399D01*
G75*
G02*
X226684426Y-85287666I61375J-797642D01*
G01*
X226684426Y-85287666D01*
G75*
G02*
X225948159Y-86146683I-797642J-61375D01*
G01*
X225349927Y-86192715D01*
G75*
G02*
X224490910Y-85456448I-61375J797642D01*
G01*
G37*
G04 #@! TD.AperFunction*
G04 #@! TO.P,S16,*
G04 #@! TO.N,*
G04 #@! TA.AperFunction,ComponentPad*
G36*
G01*
X233936561Y-75260463D02*
X233936561Y-75260463D01*
G75*
G02*
X234619757Y-74449141I747259J64063D01*
G01*
X235117929Y-74406433D01*
G75*
G02*
X235929251Y-75089629I64063J-747259D01*
G01*
X235929251Y-75089629D01*
G75*
G02*
X235246055Y-75900951I-747259J-64063D01*
G01*
X234747883Y-75943659D01*
G75*
G02*
X233936561Y-75260463I-64063J747259D01*
G01*
G37*
G04 #@! TD.AperFunction*
G04 #@! TD*
G04 #@! TO.P,S34,*
G04 #@! TO.N,*
G04 #@! TA.AperFunction,ComponentPad*
G36*
G01*
X290106229Y-142947640D02*
X290106229Y-142947640D01*
G75*
G02*
X289906264Y-143018451I-135388J64577D01*
G01*
X289274454Y-142717093D01*
G75*
G02*
X289203643Y-142517128I64577J135388D01*
G01*
X289203643Y-142517128D01*
G75*
G02*
X289403608Y-142446317I135388J-64577D01*
G01*
X290035418Y-142747675D01*
G75*
G02*
X290106229Y-142947640I-64577J-135388D01*
G01*
G37*
G04 #@! TD.AperFunction*
G04 #@! TA.AperFunction,ComponentPad*
G36*
G01*
X281043151Y-138721457D02*
X281043151Y-138721457D01*
G75*
G02*
X280843186Y-138792268I-135388J64577D01*
G01*
X280211376Y-138490910D01*
G75*
G02*
X280140565Y-138290945I64577J135388D01*
G01*
X280140565Y-138290945D01*
G75*
G02*
X280340530Y-138220134I135388J-64577D01*
G01*
X280972340Y-138521492D01*
G75*
G02*
X281043151Y-138721457I-64577J-135388D01*
G01*
G37*
G04 #@! TD.AperFunction*
G04 #@! TA.AperFunction,SMDPad,CuDef*
G04 #@! TO.P,S34,1*
G04 #@! TO.N,P1*
G36*
X282144128Y-130444942D02*
G01*
X279787728Y-129346134D01*
X280886536Y-126989734D01*
X283242936Y-128088542D01*
X282144128Y-130444942D01*
G37*
G04 #@! TD.AperFunction*
G04 #@! TA.AperFunction,SMDPad,CuDef*
G04 #@! TO.P,S34,2*
G04 #@! TO.N,GND*
G36*
X291230659Y-132254629D02*
G01*
X292329467Y-129898229D01*
X294685867Y-130997037D01*
X293587059Y-133353437D01*
X291230659Y-132254629D01*
G37*
G04 #@! TD.AperFunction*
G04 #@! TO.P,S34,1*
G04 #@! TO.N,P1*
G04 #@! TA.AperFunction,ComponentPad*
G36*
G01*
X291439824Y-141744118D02*
X291439824Y-141744118D01*
G75*
G02*
X290376683Y-142131069I-725046J338095D01*
G01*
X289832899Y-141877499D01*
G75*
G02*
X289445948Y-140814358I338095J725046D01*
G01*
X289445948Y-140814358D01*
G75*
G02*
X290509089Y-140427407I725046J-338095D01*
G01*
X291052873Y-140680977D01*
G75*
G02*
X291439824Y-141744118I-338095J-725046D01*
G01*
G37*
G04 #@! TD.AperFunction*
G04 #@! TO.P,S34,*
G04 #@! TO.N,*
G04 #@! TA.AperFunction,ComponentPad*
G36*
G01*
X286185505Y-128876695D02*
X286185505Y-128876695D01*
G75*
G02*
X285185683Y-129230751I-676939J322883D01*
G01*
X284734391Y-129015495D01*
G75*
G02*
X284380335Y-128015673I322883J676939D01*
G01*
X284380335Y-128015673D01*
G75*
G02*
X285380157Y-127661617I676939J-322883D01*
G01*
X285831449Y-127876873D01*
G75*
G02*
X286185505Y-128876695I-322883J-676939D01*
G01*
G37*
G04 #@! TD.AperFunction*
G04 #@! TO.P,S34,2*
G04 #@! TO.N,GND*
G04 #@! TA.AperFunction,ComponentPad*
G36*
G01*
X283978541Y-140471620D02*
X283978541Y-140471620D01*
G75*
G02*
X284975236Y-140108853I679731J-316964D01*
G01*
X285609652Y-140404685D01*
G75*
G02*
X285972419Y-141401380I-316964J-679731D01*
G01*
X285972419Y-141401380D01*
G75*
G02*
X284975724Y-141764147I-679731J316964D01*
G01*
X284341308Y-141468315D01*
G75*
G02*
X283978541Y-140471620I316964J679731D01*
G01*
G37*
G04 #@! TD.AperFunction*
G04 #@! TO.P,S34,1*
G04 #@! TO.N,P1*
G04 #@! TA.AperFunction,ComponentPad*
G36*
G01*
X280201609Y-136503651D02*
X280201609Y-136503651D01*
G75*
G02*
X281264750Y-136116700I725046J-338095D01*
G01*
X281808534Y-136370270D01*
G75*
G02*
X282195485Y-137433411I-338095J-725046D01*
G01*
X282195485Y-137433411D01*
G75*
G02*
X281132344Y-137820362I-725046J338095D01*
G01*
X280588560Y-137566792D01*
G75*
G02*
X280201609Y-136503651I338095J725046D01*
G01*
G37*
G04 #@! TD.AperFunction*
G04 #@! TO.P,S34,*
G04 #@! TO.N,*
G04 #@! TA.AperFunction,ComponentPad*
G36*
G01*
X293436037Y-132257674D02*
X293436037Y-132257674D01*
G75*
G02*
X294429528Y-131886223I682471J-311020D01*
G01*
X294884508Y-132093569D01*
G75*
G02*
X295255959Y-133087060I-311020J-682471D01*
G01*
X295255959Y-133087060D01*
G75*
G02*
X294262468Y-133458511I-682471J311020D01*
G01*
X293807488Y-133251165D01*
G75*
G02*
X293436037Y-132257674I311020J682471D01*
G01*
G37*
G04 #@! TD.AperFunction*
G04 #@! TD*
G04 #@! TO.P,S28,*
G04 #@! TO.N,*
G04 #@! TA.AperFunction,ComponentPad*
G36*
G01*
X274562799Y-93444335D02*
X274562799Y-93444335D01*
G75*
G02*
X274411496Y-93593020I-149994J1309D01*
G01*
X273711522Y-93586912D01*
G75*
G02*
X273562837Y-93435609I1309J149994D01*
G01*
X273562837Y-93435609D01*
G75*
G02*
X273714140Y-93286924I149994J-1309D01*
G01*
X274414114Y-93293032D01*
G75*
G02*
X274562799Y-93444335I-1309J-149994D01*
G01*
G37*
G04 #@! TD.AperFunction*
G04 #@! TA.AperFunction,ComponentPad*
G36*
G01*
X264562799Y-93444335D02*
X264562799Y-93444335D01*
G75*
G02*
X264411496Y-93593020I-149994J1309D01*
G01*
X263711522Y-93586912D01*
G75*
G02*
X263562837Y-93435609I1309J149994D01*
G01*
X263562837Y-93435609D01*
G75*
G02*
X263714140Y-93286924I149994J-1309D01*
G01*
X264414114Y-93293032D01*
G75*
G02*
X264562799Y-93444335I-1309J-149994D01*
G01*
G37*
G04 #@! TD.AperFunction*
D12*
G04 #@! TO.P,S28,1*
G04 #@! TO.N,P15*
X260762818Y-84177972D03*
G04 #@! TO.P,S28,2*
G04 #@! TO.N,GND*
X272362818Y-81977972D03*
D13*
G04 #@! TO.P,S28,1*
G04 #@! TO.N,P15*
X274162818Y-91789972D03*
G04 #@! TO.P,S28,*
G04 #@! TO.N,*
G04 #@! TA.AperFunction,ComponentPad*
G36*
G01*
X265062779Y-82348699D02*
X265062779Y-82348699D01*
G75*
G02*
X264306263Y-83092125I-749971J6545D01*
G01*
X263806283Y-83087761D01*
G75*
G02*
X263062857Y-82331245I6545J749971D01*
G01*
X263062857Y-82331245D01*
G75*
G02*
X263819373Y-81587819I749971J-6545D01*
G01*
X264319353Y-81592183D01*
G75*
G02*
X265062779Y-82348699I-6545J-749971D01*
G01*
G37*
G04 #@! TD.AperFunction*
D14*
G04 #@! TO.P,S28,2*
G04 #@! TO.N,GND*
X269062818Y-93789972D03*
D13*
G04 #@! TO.P,S28,1*
G04 #@! TO.N,P15*
X263962818Y-91789972D03*
G04 #@! TO.P,S28,*
G04 #@! TO.N,*
G04 #@! TA.AperFunction,ComponentPad*
G36*
G01*
X273062857Y-82348699D02*
X273062857Y-82348699D01*
G75*
G02*
X273806283Y-81592183I749971J6545D01*
G01*
X274306263Y-81587819D01*
G75*
G02*
X275062779Y-82331245I6545J-749971D01*
G01*
X275062779Y-82331245D01*
G75*
G02*
X274319353Y-83087761I-749971J-6545D01*
G01*
X273819373Y-83092125D01*
G75*
G02*
X273062857Y-82348699I-6545J749971D01*
G01*
G37*
G04 #@! TD.AperFunction*
G04 #@! TD*
G04 #@! TO.P,S32,*
G04 #@! TO.N,*
G04 #@! TA.AperFunction,ComponentPad*
G36*
G01*
X272838392Y-135547106D02*
X272838392Y-135547106D01*
G75*
G02*
X272652321Y-135648977I-143971J42100D01*
G01*
X271980457Y-135452511D01*
G75*
G02*
X271878586Y-135266440I42100J143971D01*
G01*
X271878586Y-135266440D01*
G75*
G02*
X272064657Y-135164569I143971J-42100D01*
G01*
X272736521Y-135361035D01*
G75*
G02*
X272838392Y-135547106I-42100J-143971D01*
G01*
G37*
G04 #@! TD.AperFunction*
G04 #@! TA.AperFunction,ComponentPad*
G36*
G01*
X263216212Y-132824304D02*
X263216212Y-132824304D01*
G75*
G02*
X263030141Y-132926175I-143971J42100D01*
G01*
X262358277Y-132729709D01*
G75*
G02*
X262256406Y-132543638I42100J143971D01*
G01*
X262256406Y-132543638D01*
G75*
G02*
X262442477Y-132441767I143971J-42100D01*
G01*
X263114341Y-132638233D01*
G75*
G02*
X263216212Y-132824304I-42100J-143971D01*
G01*
G37*
G04 #@! TD.AperFunction*
G04 #@! TA.AperFunction,SMDPad,CuDef*
D11*
G04 #@! TO.P,S32,1*
G04 #@! TO.N,P0*
G36*
X262979768Y-124478231D02*
G01*
X260478001Y-123770302D01*
X261185930Y-121268535D01*
X263687697Y-121976464D01*
X262979768Y-124478231D01*
G37*
G04 #@! TD.AperFunction*
G04 #@! TA.AperFunction,SMDPad,CuDef*
G04 #@! TO.P,S32,2*
G04 #@! TO.N,GND*
G36*
X272238746Y-124811873D02*
G01*
X272946675Y-122310106D01*
X275448442Y-123018035D01*
X274740513Y-125519802D01*
X272238746Y-124811873D01*
G37*
G04 #@! TD.AperFunction*
G04 #@! TO.P,S32,1*
G04 #@! TO.N,P0*
G04 #@! TA.AperFunction,ComponentPad*
G36*
G01*
X273962412Y-134145849D02*
X273962412Y-134145849D01*
G75*
G02*
X272974814Y-134697799I-769774J217824D01*
G01*
X272397484Y-134534431D01*
G75*
G02*
X271845534Y-133546833I217824J769774D01*
G01*
X271845534Y-133546833D01*
G75*
G02*
X272833132Y-132994883I769774J-217824D01*
G01*
X273410462Y-133158251D01*
G75*
G02*
X273962412Y-134145849I-217824J-769774D01*
G01*
G37*
G04 #@! TD.AperFunction*
G04 #@! TO.P,S32,*
G04 #@! TO.N,*
G04 #@! TA.AperFunction,ComponentPad*
G36*
G01*
X266718424Y-122284018D02*
X266718424Y-122284018D01*
G75*
G02*
X265788070Y-122793372I-719854J210500D01*
G01*
X265308168Y-122653038D01*
G75*
G02*
X264798814Y-121722684I210500J719854D01*
G01*
X264798814Y-121722684D01*
G75*
G02*
X265729168Y-121213330I719854J-210500D01*
G01*
X266209070Y-121353664D01*
G75*
G02*
X266718424Y-122284018I-210500J-719854D01*
G01*
G37*
G04 #@! TD.AperFunction*
G04 #@! TO.P,S32,2*
G04 #@! TO.N,GND*
G04 #@! TA.AperFunction,ComponentPad*
G36*
G01*
X266393662Y-134082640D02*
X266393662Y-134082640D01*
G75*
G02*
X267319535Y-133565187I721663J-204210D01*
G01*
X267993087Y-133755783D01*
G75*
G02*
X268510540Y-134681656I-204210J-721663D01*
G01*
X268510540Y-134681656D01*
G75*
G02*
X267584667Y-135199109I-721663J204210D01*
G01*
X266911115Y-135008513D01*
G75*
G02*
X266393662Y-134082640I204210J721663D01*
G01*
G37*
G04 #@! TD.AperFunction*
G04 #@! TO.P,S32,1*
G04 #@! TO.N,P0*
G04 #@! TA.AperFunction,ComponentPad*
G36*
G01*
X262030910Y-130769575D02*
X262030910Y-130769575D01*
G75*
G02*
X263018508Y-130217625I769774J-217824D01*
G01*
X263595838Y-130380993D01*
G75*
G02*
X264147788Y-131368591I-217824J-769774D01*
G01*
X264147788Y-131368591D01*
G75*
G02*
X263160190Y-131920541I-769774J217824D01*
G01*
X262582860Y-131757173D01*
G75*
G02*
X262030910Y-130769575I217824J769774D01*
G01*
G37*
G04 #@! TD.AperFunction*
G04 #@! TO.P,S32,*
G04 #@! TO.N,*
G04 #@! TA.AperFunction,ComponentPad*
G36*
G01*
X274416242Y-124462280D02*
X274416242Y-124462280D01*
G75*
G02*
X275337565Y-123936767I723418J-197905D01*
G01*
X275819843Y-124068703D01*
G75*
G02*
X276345356Y-124990026I-197905J-723418D01*
G01*
X276345356Y-124990026D01*
G75*
G02*
X275424033Y-125515539I-723418J197905D01*
G01*
X274941755Y-125383603D01*
G75*
G02*
X274416242Y-124462280I197905J723418D01*
G01*
G37*
G04 #@! TD.AperFunction*
G04 #@! TD*
G04 #@! TO.P,S24,*
G04 #@! TO.N,*
G04 #@! TA.AperFunction,ComponentPad*
G36*
G01*
X256562812Y-73610966D02*
X256562812Y-73610966D01*
G75*
G02*
X256411509Y-73759651I-149994J1309D01*
G01*
X255711535Y-73753543D01*
G75*
G02*
X255562850Y-73602240I1309J149994D01*
G01*
X255562850Y-73602240D01*
G75*
G02*
X255714153Y-73453555I149994J-1309D01*
G01*
X256414127Y-73459663D01*
G75*
G02*
X256562812Y-73610966I-1309J-149994D01*
G01*
G37*
G04 #@! TD.AperFunction*
G04 #@! TA.AperFunction,ComponentPad*
G36*
G01*
X246562812Y-73610966D02*
X246562812Y-73610966D01*
G75*
G02*
X246411509Y-73759651I-149994J1309D01*
G01*
X245711535Y-73753543D01*
G75*
G02*
X245562850Y-73602240I1309J149994D01*
G01*
X245562850Y-73602240D01*
G75*
G02*
X245714153Y-73453555I149994J-1309D01*
G01*
X246414127Y-73459663D01*
G75*
G02*
X246562812Y-73610966I-1309J-149994D01*
G01*
G37*
G04 #@! TD.AperFunction*
D12*
G04 #@! TO.P,S24,1*
G04 #@! TO.N,P20*
X242762831Y-64344603D03*
G04 #@! TO.P,S24,2*
G04 #@! TO.N,GND*
X254362831Y-62144603D03*
D13*
G04 #@! TO.P,S24,1*
G04 #@! TO.N,P20*
X256162831Y-71956603D03*
G04 #@! TO.P,S24,*
G04 #@! TO.N,*
G04 #@! TA.AperFunction,ComponentPad*
G36*
G01*
X247062792Y-62515330D02*
X247062792Y-62515330D01*
G75*
G02*
X246306276Y-63258756I-749971J6545D01*
G01*
X245806296Y-63254392D01*
G75*
G02*
X245062870Y-62497876I6545J749971D01*
G01*
X245062870Y-62497876D01*
G75*
G02*
X245819386Y-61754450I749971J-6545D01*
G01*
X246319366Y-61758814D01*
G75*
G02*
X247062792Y-62515330I-6545J-749971D01*
G01*
G37*
G04 #@! TD.AperFunction*
D14*
G04 #@! TO.P,S24,2*
G04 #@! TO.N,GND*
X251062831Y-73956603D03*
D13*
G04 #@! TO.P,S24,1*
G04 #@! TO.N,P20*
X245962831Y-71956603D03*
G04 #@! TO.P,S24,*
G04 #@! TO.N,*
G04 #@! TA.AperFunction,ComponentPad*
G36*
G01*
X255062870Y-62515330D02*
X255062870Y-62515330D01*
G75*
G02*
X255806296Y-61758814I749971J6545D01*
G01*
X256306276Y-61754450D01*
G75*
G02*
X257062792Y-62497876I6545J-749971D01*
G01*
X257062792Y-62497876D01*
G75*
G02*
X256319366Y-63254392I-749971J-6545D01*
G01*
X255819386Y-63258756D01*
G75*
G02*
X255062870Y-62515330I-6545J749971D01*
G01*
G37*
G04 #@! TD.AperFunction*
G04 #@! TD*
G04 #@! TO.P,S18,*
G04 #@! TO.N,*
G04 #@! TA.AperFunction,ComponentPad*
G36*
G01*
X234979107Y-69258430D02*
X234979107Y-69258430D01*
G75*
G02*
X234839656Y-69418285I-149653J-10202D01*
G01*
X234141278Y-69465895D01*
G75*
G02*
X233981423Y-69326444I-10202J149653D01*
G01*
X233981423Y-69326444D01*
G75*
G02*
X234120874Y-69166589I149653J10202D01*
G01*
X234819252Y-69118979D01*
G75*
G02*
X234979107Y-69258430I10202J-149653D01*
G01*
G37*
G04 #@! TD.AperFunction*
G04 #@! TA.AperFunction,ComponentPad*
G36*
G01*
X225008580Y-70025620D02*
X225008580Y-70025620D01*
G75*
G02*
X224869129Y-70185475I-149653J-10202D01*
G01*
X224170751Y-70233085D01*
G75*
G02*
X224010896Y-70093634I-10202J149653D01*
G01*
X224010896Y-70093634D01*
G75*
G02*
X224150347Y-69933779I149653J10202D01*
G01*
X224848725Y-69886169D01*
G75*
G02*
X225008580Y-70025620I10202J-149653D01*
G01*
G37*
G04 #@! TD.AperFunction*
G04 #@! TA.AperFunction,SMDPad,CuDef*
D11*
G04 #@! TO.P,S18,1*
G04 #@! TO.N,P19*
G36*
X221904795Y-62274531D02*
G01*
X219312458Y-62474000D01*
X219112989Y-59881663D01*
X221705326Y-59682194D01*
X221904795Y-62274531D01*
G37*
G04 #@! TD.AperFunction*
G04 #@! TA.AperFunction,SMDPad,CuDef*
G04 #@! TO.P,S18,2*
G04 #@! TO.N,GND*
G36*
X230709488Y-59390543D02*
G01*
X230510019Y-56798206D01*
X233102356Y-56598737D01*
X233301825Y-59191074D01*
X230709488Y-59390543D01*
G37*
G04 #@! TD.AperFunction*
G04 #@! TO.P,S18,1*
G04 #@! TO.N,P19*
G04 #@! TA.AperFunction,ComponentPad*
G36*
G01*
X235550142Y-67555237D02*
X235550142Y-67555237D01*
G75*
G02*
X234813875Y-68414254I-797642J-61375D01*
G01*
X234215643Y-68460286D01*
G75*
G02*
X233356626Y-67724019I-61375J797642D01*
G01*
X233356626Y-67724019D01*
G75*
G02*
X234092893Y-66865002I797642J61375D01*
G01*
X234691125Y-66818970D01*
G75*
G02*
X235550142Y-67555237I61375J-797642D01*
G01*
G37*
G04 #@! TD.AperFunction*
G04 #@! TO.P,S18,*
G04 #@! TO.N,*
G04 #@! TA.AperFunction,ComponentPad*
G36*
G01*
X224655841Y-58924326D02*
X224655841Y-58924326D01*
G75*
G02*
X223958589Y-59723600I-748263J-51011D01*
G01*
X223459747Y-59757608D01*
G75*
G02*
X222660473Y-59060356I-51011J748263D01*
G01*
X222660473Y-59060356D01*
G75*
G02*
X223357725Y-58261082I748263J51011D01*
G01*
X223856567Y-58227074D01*
G75*
G02*
X224655841Y-58924326I51011J-748263D01*
G01*
G37*
G04 #@! TD.AperFunction*
G04 #@! TO.P,S18,2*
G04 #@! TO.N,GND*
G04 #@! TA.AperFunction,ComponentPad*
G36*
G01*
X228425095Y-70109391D02*
X228425095Y-70109391D01*
G75*
G02*
X229115346Y-69304062I747790J57539D01*
G01*
X229813282Y-69250358D01*
G75*
G02*
X230618611Y-69940609I57539J-747790D01*
G01*
X230618611Y-69940609D01*
G75*
G02*
X229928360Y-70745938I-747790J-57539D01*
G01*
X229230424Y-70799642D01*
G75*
G02*
X228425095Y-70109391I-57539J747790D01*
G01*
G37*
G04 #@! TD.AperFunction*
G04 #@! TO.P,S18,1*
G04 #@! TO.N,P19*
G04 #@! TA.AperFunction,ComponentPad*
G36*
G01*
X223186688Y-68506553D02*
X223186688Y-68506553D01*
G75*
G02*
X223922955Y-67647536I797642J61375D01*
G01*
X224521187Y-67601504D01*
G75*
G02*
X225380204Y-68337771I61375J-797642D01*
G01*
X225380204Y-68337771D01*
G75*
G02*
X224643937Y-69196788I-797642J-61375D01*
G01*
X224045705Y-69242820D01*
G75*
G02*
X223186688Y-68506553I-61375J797642D01*
G01*
G37*
G04 #@! TD.AperFunction*
G04 #@! TO.P,S18,*
G04 #@! TO.N,*
G04 #@! TA.AperFunction,ComponentPad*
G36*
G01*
X232632339Y-58310568D02*
X232632339Y-58310568D01*
G75*
G02*
X233315535Y-57499246I747259J64063D01*
G01*
X233813707Y-57456538D01*
G75*
G02*
X234625029Y-58139734I64063J-747259D01*
G01*
X234625029Y-58139734D01*
G75*
G02*
X233941833Y-58951056I-747259J-64063D01*
G01*
X233443661Y-58993764D01*
G75*
G02*
X232632339Y-58310568I-64063J747259D01*
G01*
G37*
G04 #@! TD.AperFunction*
G04 #@! TD*
G04 #@! TO.P,S26,*
G04 #@! TO.N,*
G04 #@! TA.AperFunction,ComponentPad*
G36*
G01*
X274562845Y-110444322D02*
X274562845Y-110444322D01*
G75*
G02*
X274411542Y-110593007I-149994J1309D01*
G01*
X273711568Y-110586899D01*
G75*
G02*
X273562883Y-110435596I1309J149994D01*
G01*
X273562883Y-110435596D01*
G75*
G02*
X273714186Y-110286911I149994J-1309D01*
G01*
X274414160Y-110293019D01*
G75*
G02*
X274562845Y-110444322I-1309J-149994D01*
G01*
G37*
G04 #@! TD.AperFunction*
G04 #@! TA.AperFunction,ComponentPad*
G36*
G01*
X264562845Y-110444322D02*
X264562845Y-110444322D01*
G75*
G02*
X264411542Y-110593007I-149994J1309D01*
G01*
X263711568Y-110586899D01*
G75*
G02*
X263562883Y-110435596I1309J149994D01*
G01*
X263562883Y-110435596D01*
G75*
G02*
X263714186Y-110286911I149994J-1309D01*
G01*
X264414160Y-110293019D01*
G75*
G02*
X264562845Y-110444322I-1309J-149994D01*
G01*
G37*
G04 #@! TD.AperFunction*
D12*
G04 #@! TO.P,S26,1*
G04 #@! TO.N,P3*
X260762864Y-101177959D03*
G04 #@! TO.P,S26,2*
G04 #@! TO.N,GND*
X272362864Y-98977959D03*
D13*
G04 #@! TO.P,S26,1*
G04 #@! TO.N,P3*
X274162864Y-108789959D03*
G04 #@! TO.P,S26,*
G04 #@! TO.N,*
G04 #@! TA.AperFunction,ComponentPad*
G36*
G01*
X265062825Y-99348686D02*
X265062825Y-99348686D01*
G75*
G02*
X264306309Y-100092112I-749971J6545D01*
G01*
X263806329Y-100087748D01*
G75*
G02*
X263062903Y-99331232I6545J749971D01*
G01*
X263062903Y-99331232D01*
G75*
G02*
X263819419Y-98587806I749971J-6545D01*
G01*
X264319399Y-98592170D01*
G75*
G02*
X265062825Y-99348686I-6545J-749971D01*
G01*
G37*
G04 #@! TD.AperFunction*
D14*
G04 #@! TO.P,S26,2*
G04 #@! TO.N,GND*
X269062864Y-110789959D03*
D13*
G04 #@! TO.P,S26,1*
G04 #@! TO.N,P3*
X263962864Y-108789959D03*
G04 #@! TO.P,S26,*
G04 #@! TO.N,*
G04 #@! TA.AperFunction,ComponentPad*
G36*
G01*
X273062903Y-99348686D02*
X273062903Y-99348686D01*
G75*
G02*
X273806329Y-98592170I749971J6545D01*
G01*
X274306309Y-98587806D01*
G75*
G02*
X275062825Y-99331232I6545J-749971D01*
G01*
X275062825Y-99331232D01*
G75*
G02*
X274319399Y-100087748I-749971J-6545D01*
G01*
X273819419Y-100092112D01*
G75*
G02*
X273062903Y-99348686I-6545J749971D01*
G01*
G37*
G04 #@! TD.AperFunction*
G04 #@! TD*
G04 #@! TO.P,S20,*
G04 #@! TO.N,*
G04 #@! TA.AperFunction,ComponentPad*
G36*
G01*
X256562813Y-107611047D02*
X256562813Y-107611047D01*
G75*
G02*
X256411510Y-107759732I-149994J1309D01*
G01*
X255711536Y-107753624D01*
G75*
G02*
X255562851Y-107602321I1309J149994D01*
G01*
X255562851Y-107602321D01*
G75*
G02*
X255714154Y-107453636I149994J-1309D01*
G01*
X256414128Y-107459744D01*
G75*
G02*
X256562813Y-107611047I-1309J-149994D01*
G01*
G37*
G04 #@! TD.AperFunction*
G04 #@! TA.AperFunction,ComponentPad*
G36*
G01*
X246562813Y-107611047D02*
X246562813Y-107611047D01*
G75*
G02*
X246411510Y-107759732I-149994J1309D01*
G01*
X245711536Y-107753624D01*
G75*
G02*
X245562851Y-107602321I1309J149994D01*
G01*
X245562851Y-107602321D01*
G75*
G02*
X245714154Y-107453636I149994J-1309D01*
G01*
X246414128Y-107459744D01*
G75*
G02*
X246562813Y-107611047I-1309J-149994D01*
G01*
G37*
G04 #@! TD.AperFunction*
D12*
G04 #@! TO.P,S20,1*
G04 #@! TO.N,P4*
X242762832Y-98344684D03*
G04 #@! TO.P,S20,2*
G04 #@! TO.N,GND*
X254362832Y-96144684D03*
D13*
G04 #@! TO.P,S20,1*
G04 #@! TO.N,P4*
X256162832Y-105956684D03*
G04 #@! TO.P,S20,*
G04 #@! TO.N,*
G04 #@! TA.AperFunction,ComponentPad*
G36*
G01*
X247062793Y-96515411D02*
X247062793Y-96515411D01*
G75*
G02*
X246306277Y-97258837I-749971J6545D01*
G01*
X245806297Y-97254473D01*
G75*
G02*
X245062871Y-96497957I6545J749971D01*
G01*
X245062871Y-96497957D01*
G75*
G02*
X245819387Y-95754531I749971J-6545D01*
G01*
X246319367Y-95758895D01*
G75*
G02*
X247062793Y-96515411I-6545J-749971D01*
G01*
G37*
G04 #@! TD.AperFunction*
D14*
G04 #@! TO.P,S20,2*
G04 #@! TO.N,GND*
X251062832Y-107956684D03*
D13*
G04 #@! TO.P,S20,1*
G04 #@! TO.N,P4*
X245962832Y-105956684D03*
G04 #@! TO.P,S20,*
G04 #@! TO.N,*
G04 #@! TA.AperFunction,ComponentPad*
G36*
G01*
X255062871Y-96515411D02*
X255062871Y-96515411D01*
G75*
G02*
X255806297Y-95758895I749971J6545D01*
G01*
X256306277Y-95754531D01*
G75*
G02*
X257062793Y-96497957I6545J-749971D01*
G01*
X257062793Y-96497957D01*
G75*
G02*
X256319367Y-97254473I-749971J-6545D01*
G01*
X255819387Y-97258837D01*
G75*
G02*
X255062871Y-96515411I-6545J749971D01*
G01*
G37*
G04 #@! TD.AperFunction*
G04 #@! TD*
G04 #@! TO.P,S22,*
G04 #@! TO.N,*
G04 #@! TA.AperFunction,ComponentPad*
G36*
G01*
X256562866Y-90611051D02*
X256562866Y-90611051D01*
G75*
G02*
X256411563Y-90759736I-149994J1309D01*
G01*
X255711589Y-90753628D01*
G75*
G02*
X255562904Y-90602325I1309J149994D01*
G01*
X255562904Y-90602325D01*
G75*
G02*
X255714207Y-90453640I149994J-1309D01*
G01*
X256414181Y-90459748D01*
G75*
G02*
X256562866Y-90611051I-1309J-149994D01*
G01*
G37*
G04 #@! TD.AperFunction*
G04 #@! TA.AperFunction,ComponentPad*
G36*
G01*
X246562866Y-90611051D02*
X246562866Y-90611051D01*
G75*
G02*
X246411563Y-90759736I-149994J1309D01*
G01*
X245711589Y-90753628D01*
G75*
G02*
X245562904Y-90602325I1309J149994D01*
G01*
X245562904Y-90602325D01*
G75*
G02*
X245714207Y-90453640I149994J-1309D01*
G01*
X246414181Y-90459748D01*
G75*
G02*
X246562866Y-90611051I-1309J-149994D01*
G01*
G37*
G04 #@! TD.AperFunction*
D12*
G04 #@! TO.P,S22,1*
G04 #@! TO.N,P14*
X242762885Y-81344688D03*
G04 #@! TO.P,S22,2*
G04 #@! TO.N,GND*
X254362885Y-79144688D03*
D13*
G04 #@! TO.P,S22,1*
G04 #@! TO.N,P14*
X256162885Y-88956688D03*
G04 #@! TO.P,S22,*
G04 #@! TO.N,*
G04 #@! TA.AperFunction,ComponentPad*
G36*
G01*
X247062846Y-79515415D02*
X247062846Y-79515415D01*
G75*
G02*
X246306330Y-80258841I-749971J6545D01*
G01*
X245806350Y-80254477D01*
G75*
G02*
X245062924Y-79497961I6545J749971D01*
G01*
X245062924Y-79497961D01*
G75*
G02*
X245819440Y-78754535I749971J-6545D01*
G01*
X246319420Y-78758899D01*
G75*
G02*
X247062846Y-79515415I-6545J-749971D01*
G01*
G37*
G04 #@! TD.AperFunction*
D14*
G04 #@! TO.P,S22,2*
G04 #@! TO.N,GND*
X251062885Y-90956688D03*
D13*
G04 #@! TO.P,S22,1*
G04 #@! TO.N,P14*
X245962885Y-88956688D03*
G04 #@! TO.P,S22,*
G04 #@! TO.N,*
G04 #@! TA.AperFunction,ComponentPad*
G36*
G01*
X255062924Y-79515415D02*
X255062924Y-79515415D01*
G75*
G02*
X255806350Y-78758899I749971J6545D01*
G01*
X256306330Y-78754535D01*
G75*
G02*
X257062846Y-79497961I6545J-749971D01*
G01*
X257062846Y-79497961D01*
G75*
G02*
X256319420Y-80254477I-749971J-6545D01*
G01*
X255819440Y-80258841D01*
G75*
G02*
X255062924Y-79515415I-6545J749971D01*
G01*
G37*
G04 #@! TD.AperFunction*
G04 #@! TD*
G04 #@! TO.P,S6,*
G04 #@! TO.N,*
G04 #@! TA.AperFunction,ComponentPad*
G36*
G01*
X194913272Y-89582994D02*
X194913272Y-89582994D01*
G75*
G02*
X194796498Y-89760092I-146936J-30162D01*
G01*
X194110796Y-89900846D01*
G75*
G02*
X193933698Y-89784072I-30162J146936D01*
G01*
X193933698Y-89784072D01*
G75*
G02*
X194050472Y-89606974I146936J30162D01*
G01*
X194736174Y-89466220D01*
G75*
G02*
X194913272Y-89582994I30162J-146936D01*
G01*
G37*
G04 #@! TD.AperFunction*
G04 #@! TA.AperFunction,ComponentPad*
G36*
G01*
X185135440Y-91679180D02*
X185135440Y-91679180D01*
G75*
G02*
X185018666Y-91856278I-146936J-30162D01*
G01*
X184332964Y-91997032D01*
G75*
G02*
X184155866Y-91880258I-30162J146936D01*
G01*
X184155866Y-91880258D01*
G75*
G02*
X184272640Y-91703160I146936J30162D01*
G01*
X184958342Y-91562406D01*
G75*
G02*
X185135440Y-91679180I30162J-146936D01*
G01*
G37*
G04 #@! TD.AperFunction*
G04 #@! TA.AperFunction,SMDPad,CuDef*
D11*
G04 #@! TO.P,S6,1*
G04 #@! TO.N,P7*
G36*
X181021103Y-84413846D02*
G01*
X178478867Y-84958854D01*
X177933859Y-82416618D01*
X180476095Y-81871610D01*
X181021103Y-84413846D01*
G37*
G04 #@! TD.AperFunction*
G04 #@! TA.AperFunction,SMDPad,CuDef*
G04 #@! TO.P,S6,2*
G04 #@! TO.N,GND*
G36*
X189359992Y-80376155D02*
G01*
X188814984Y-77833919D01*
X191357220Y-77288911D01*
X191902228Y-79831147D01*
X189359992Y-80376155D01*
G37*
G04 #@! TD.AperFunction*
G04 #@! TO.P,S6,1*
G04 #@! TO.N,P7*
G04 #@! TA.AperFunction,ComponentPad*
G36*
G01*
X195250955Y-87818648D02*
X195250955Y-87818648D01*
G75*
G02*
X194636423Y-88768570I-782227J-167695D01*
G01*
X194049753Y-88894342D01*
G75*
G02*
X193099831Y-88279810I-167695J782227D01*
G01*
X193099831Y-88279810D01*
G75*
G02*
X193714363Y-87329888I782227J167695D01*
G01*
X194301033Y-87204116D01*
G75*
G02*
X195250955Y-87818648I167695J-782227D01*
G01*
G37*
G04 #@! TD.AperFunction*
G04 #@! TO.P,S6,*
G04 #@! TO.N,*
G04 #@! TA.AperFunction,ComponentPad*
G36*
G01*
X183298462Y-80725248D02*
X183298462Y-80725248D01*
G75*
G02*
X182714589Y-81610737I-734681J-150808D01*
G01*
X182224801Y-81711275D01*
G75*
G02*
X181339312Y-81127402I-150808J734681D01*
G01*
X181339312Y-81127402D01*
G75*
G02*
X181923185Y-80241913I734681J150808D01*
G01*
X182412973Y-80141375D01*
G75*
G02*
X183298462Y-80725248I150808J-734681D01*
G01*
G37*
G04 #@! TD.AperFunction*
G04 #@! TO.P,S6,2*
G04 #@! TO.N,GND*
G04 #@! TA.AperFunction,ComponentPad*
G36*
G01*
X188532375Y-91304430D02*
X188532375Y-91304430D01*
G75*
G02*
X189108498Y-90413879I733337J157214D01*
G01*
X189792946Y-90267147D01*
G75*
G02*
X190683497Y-90843270I157214J-733337D01*
G01*
X190683497Y-90843270D01*
G75*
G02*
X190107374Y-91733821I-733337J-157214D01*
G01*
X189422926Y-91880553D01*
G75*
G02*
X188532375Y-91304430I-157214J733337D01*
G01*
G37*
G04 #@! TD.AperFunction*
G04 #@! TO.P,S6,1*
G04 #@! TO.N,P7*
G04 #@! TA.AperFunction,ComponentPad*
G36*
G01*
X183126442Y-90417919D02*
X183126442Y-90417919D01*
G75*
G02*
X183740974Y-89467997I782227J167695D01*
G01*
X184327644Y-89342225D01*
G75*
G02*
X185277566Y-89956757I167695J-782227D01*
G01*
X185277566Y-89956757D01*
G75*
G02*
X184663034Y-90906679I-782227J-167695D01*
G01*
X184076364Y-91032451D01*
G75*
G02*
X183126442Y-90417919I-167695J782227D01*
G01*
G37*
G04 #@! TD.AperFunction*
G04 #@! TO.P,S6,*
G04 #@! TO.N,*
G04 #@! TA.AperFunction,ComponentPad*
G36*
G01*
X191120802Y-79048282D02*
X191120802Y-79048282D01*
G75*
G02*
X191689133Y-78152737I731938J163607D01*
G01*
X192177091Y-78043665D01*
G75*
G02*
X193072636Y-78611996I163607J-731938D01*
G01*
X193072636Y-78611996D01*
G75*
G02*
X192504305Y-79507541I-731938J-163607D01*
G01*
X192016347Y-79616613D01*
G75*
G02*
X191120802Y-79048282I-163607J731938D01*
G01*
G37*
G04 #@! TD.AperFunction*
G04 #@! TD*
G04 #@! TO.P,S30,*
G04 #@! TO.N,*
G04 #@! TA.AperFunction,ComponentPad*
G36*
G01*
X274562853Y-76444341D02*
X274562853Y-76444341D01*
G75*
G02*
X274411550Y-76593026I-149994J1309D01*
G01*
X273711576Y-76586918D01*
G75*
G02*
X273562891Y-76435615I1309J149994D01*
G01*
X273562891Y-76435615D01*
G75*
G02*
X273714194Y-76286930I149994J-1309D01*
G01*
X274414168Y-76293038D01*
G75*
G02*
X274562853Y-76444341I-1309J-149994D01*
G01*
G37*
G04 #@! TD.AperFunction*
G04 #@! TA.AperFunction,ComponentPad*
G36*
G01*
X264562853Y-76444341D02*
X264562853Y-76444341D01*
G75*
G02*
X264411550Y-76593026I-149994J1309D01*
G01*
X263711576Y-76586918D01*
G75*
G02*
X263562891Y-76435615I1309J149994D01*
G01*
X263562891Y-76435615D01*
G75*
G02*
X263714194Y-76286930I149994J-1309D01*
G01*
X264414168Y-76293038D01*
G75*
G02*
X264562853Y-76444341I-1309J-149994D01*
G01*
G37*
G04 #@! TD.AperFunction*
D12*
G04 #@! TO.P,S30,1*
G04 #@! TO.N,P21*
X260762872Y-67177978D03*
G04 #@! TO.P,S30,2*
G04 #@! TO.N,GND*
X272362872Y-64977978D03*
D13*
G04 #@! TO.P,S30,1*
G04 #@! TO.N,P21*
X274162872Y-74789978D03*
G04 #@! TO.P,S30,*
G04 #@! TO.N,*
G04 #@! TA.AperFunction,ComponentPad*
G36*
G01*
X265062833Y-65348705D02*
X265062833Y-65348705D01*
G75*
G02*
X264306317Y-66092131I-749971J6545D01*
G01*
X263806337Y-66087767D01*
G75*
G02*
X263062911Y-65331251I6545J749971D01*
G01*
X263062911Y-65331251D01*
G75*
G02*
X263819427Y-64587825I749971J-6545D01*
G01*
X264319407Y-64592189D01*
G75*
G02*
X265062833Y-65348705I-6545J-749971D01*
G01*
G37*
G04 #@! TD.AperFunction*
D14*
G04 #@! TO.P,S30,2*
G04 #@! TO.N,GND*
X269062872Y-76789978D03*
D13*
G04 #@! TO.P,S30,1*
G04 #@! TO.N,P21*
X263962872Y-74789978D03*
G04 #@! TO.P,S30,*
G04 #@! TO.N,*
G04 #@! TA.AperFunction,ComponentPad*
G36*
G01*
X273062911Y-65348705D02*
X273062911Y-65348705D01*
G75*
G02*
X273806337Y-64592189I749971J6545D01*
G01*
X274306317Y-64587825D01*
G75*
G02*
X275062833Y-65331251I6545J-749971D01*
G01*
X275062833Y-65331251D01*
G75*
G02*
X274319407Y-66087767I-749971J-6545D01*
G01*
X273819427Y-66092131D01*
G75*
G02*
X273062911Y-65348705I-6545J749971D01*
G01*
G37*
G04 #@! TD.AperFunction*
G04 #@! TD*
G04 #@! TO.P,S10,*
G04 #@! TO.N,*
G04 #@! TA.AperFunction,ComponentPad*
G36*
G01*
X216824137Y-94784627D02*
X216824137Y-94784627D01*
G75*
G02*
X216699150Y-94956028I-148194J-23207D01*
G01*
X216007578Y-95064326D01*
G75*
G02*
X215836177Y-94939339I-23207J148194D01*
G01*
X215836177Y-94939339D01*
G75*
G02*
X215961164Y-94767938I148194J23207D01*
G01*
X216652736Y-94659640D01*
G75*
G02*
X216824137Y-94784627I23207J-148194D01*
G01*
G37*
G04 #@! TD.AperFunction*
G04 #@! TA.AperFunction,ComponentPad*
G36*
G01*
X206958415Y-96417886D02*
X206958415Y-96417886D01*
G75*
G02*
X206833428Y-96589287I-148194J-23207D01*
G01*
X206141856Y-96697585D01*
G75*
G02*
X205970455Y-96572598I-23207J148194D01*
G01*
X205970455Y-96572598D01*
G75*
G02*
X206095442Y-96401197I148194J23207D01*
G01*
X206787014Y-96292899D01*
G75*
G02*
X206958415Y-96417886I23207J-148194D01*
G01*
G37*
G04 #@! TD.AperFunction*
G04 #@! TA.AperFunction,SMDPad,CuDef*
D11*
G04 #@! TO.P,S10,1*
G04 #@! TO.N,P10*
G36*
X203190890Y-88966807D02*
G01*
X200625802Y-89391455D01*
X200201154Y-86826367D01*
X202766242Y-86401719D01*
X203190890Y-88966807D01*
G37*
G04 #@! TD.AperFunction*
G04 #@! TA.AperFunction,SMDPad,CuDef*
G04 #@! TO.P,S10,2*
G04 #@! TO.N,GND*
G36*
X211710722Y-85326415D02*
G01*
X211286074Y-82761327D01*
X213851162Y-82336679D01*
X214275810Y-84901767D01*
X211710722Y-85326415D01*
G37*
G04 #@! TD.AperFunction*
G04 #@! TO.P,S10,1*
G04 #@! TO.N,P10*
G04 #@! TA.AperFunction,ComponentPad*
G36*
G01*
X217244556Y-93038147D02*
X217244556Y-93038147D01*
G75*
G02*
X216585959Y-93958066I-789258J-130661D01*
G01*
X215994015Y-94056062D01*
G75*
G02*
X215074096Y-93397465I-130661J789258D01*
G01*
X215074096Y-93397465D01*
G75*
G02*
X215732693Y-92477546I789258J130661D01*
G01*
X216324637Y-92379550D01*
G75*
G02*
X217244556Y-93038147I130661J-789258D01*
G01*
G37*
G04 #@! TD.AperFunction*
G04 #@! TO.P,S10,*
G04 #@! TO.N,*
G04 #@! TA.AperFunction,ComponentPad*
G36*
G01*
X205639477Y-85389580D02*
X205639477Y-85389580D01*
G75*
G02*
X205014540Y-86246583I-740970J-116033D01*
G01*
X204520560Y-86323939D01*
G75*
G02*
X203663557Y-85699002I-116033J740970D01*
G01*
X203663557Y-85699002D01*
G75*
G02*
X204288494Y-84841999I740970J116033D01*
G01*
X204782474Y-84764643D01*
G75*
G02*
X205639477Y-85389580I116033J-740970D01*
G01*
G37*
G04 #@! TD.AperFunction*
G04 #@! TO.P,S10,2*
G04 #@! TO.N,GND*
G04 #@! TA.AperFunction,ComponentPad*
G36*
G01*
X210369231Y-96203571D02*
X210369231Y-96203571D01*
G75*
G02*
X210986666Y-95341148I739929J122494D01*
G01*
X211677266Y-95226820D01*
G75*
G02*
X212539689Y-95844255I122494J-739929D01*
G01*
X212539689Y-95844255D01*
G75*
G02*
X211922254Y-96706678I-739929J-122494D01*
G01*
X211231654Y-96821006D01*
G75*
G02*
X210369231Y-96203571I-122494J739929D01*
G01*
G37*
G04 #@! TD.AperFunction*
G04 #@! TO.P,S10,1*
G04 #@! TO.N,P10*
G04 #@! TA.AperFunction,ComponentPad*
G36*
G01*
X205011060Y-95063390D02*
X205011060Y-95063390D01*
G75*
G02*
X205669657Y-94143471I789258J130661D01*
G01*
X206261601Y-94045475D01*
G75*
G02*
X207181520Y-94704072I130661J-789258D01*
G01*
X207181520Y-94704072D01*
G75*
G02*
X206522923Y-95623991I-789258J-130661D01*
G01*
X205930979Y-95721987D01*
G75*
G02*
X205011060Y-95063390I-130661J789258D01*
G01*
G37*
G04 #@! TD.AperFunction*
G04 #@! TO.P,S10,*
G04 #@! TO.N,*
G04 #@! TA.AperFunction,ComponentPad*
G36*
G01*
X213532130Y-84082961D02*
X213532130Y-84082961D01*
G75*
G02*
X214142015Y-83215182I738832J128947D01*
G01*
X214634569Y-83129218D01*
G75*
G02*
X215502348Y-83739103I128947J-738832D01*
G01*
X215502348Y-83739103D01*
G75*
G02*
X214892463Y-84606882I-738832J-128947D01*
G01*
X214399909Y-84692846D01*
G75*
G02*
X213532130Y-84082961I-128947J738832D01*
G01*
G37*
G04 #@! TD.AperFunction*
G04 #@! TD*
G04 #@! TO.P,S14,*
G04 #@! TO.N,*
G04 #@! TA.AperFunction,ComponentPad*
G36*
G01*
X237587553Y-103158222D02*
X237587553Y-103158222D01*
G75*
G02*
X237448102Y-103318077I-149653J-10202D01*
G01*
X236749724Y-103365687D01*
G75*
G02*
X236589869Y-103226236I-10202J149653D01*
G01*
X236589869Y-103226236D01*
G75*
G02*
X236729320Y-103066381I149653J10202D01*
G01*
X237427698Y-103018771D01*
G75*
G02*
X237587553Y-103158222I10202J-149653D01*
G01*
G37*
G04 #@! TD.AperFunction*
G04 #@! TA.AperFunction,ComponentPad*
G36*
G01*
X227617026Y-103925412D02*
X227617026Y-103925412D01*
G75*
G02*
X227477575Y-104085267I-149653J-10202D01*
G01*
X226779197Y-104132877D01*
G75*
G02*
X226619342Y-103993426I-10202J149653D01*
G01*
X226619342Y-103993426D01*
G75*
G02*
X226758793Y-103833571I149653J10202D01*
G01*
X227457171Y-103785961D01*
G75*
G02*
X227617026Y-103925412I10202J-149653D01*
G01*
G37*
G04 #@! TD.AperFunction*
G04 #@! TA.AperFunction,SMDPad,CuDef*
G04 #@! TO.P,S14,1*
G04 #@! TO.N,P5*
G36*
X224513241Y-96174323D02*
G01*
X221920904Y-96373792D01*
X221721435Y-93781455D01*
X224313772Y-93581986D01*
X224513241Y-96174323D01*
G37*
G04 #@! TD.AperFunction*
G04 #@! TA.AperFunction,SMDPad,CuDef*
G04 #@! TO.P,S14,2*
G04 #@! TO.N,GND*
G36*
X233317934Y-93290335D02*
G01*
X233118465Y-90697998D01*
X235710802Y-90498529D01*
X235910271Y-93090866D01*
X233317934Y-93290335D01*
G37*
G04 #@! TD.AperFunction*
G04 #@! TO.P,S14,1*
G04 #@! TO.N,P5*
G04 #@! TA.AperFunction,ComponentPad*
G36*
G01*
X238158588Y-101455029D02*
X238158588Y-101455029D01*
G75*
G02*
X237422321Y-102314046I-797642J-61375D01*
G01*
X236824089Y-102360078D01*
G75*
G02*
X235965072Y-101623811I-61375J797642D01*
G01*
X235965072Y-101623811D01*
G75*
G02*
X236701339Y-100764794I797642J61375D01*
G01*
X237299571Y-100718762D01*
G75*
G02*
X238158588Y-101455029I61375J-797642D01*
G01*
G37*
G04 #@! TD.AperFunction*
G04 #@! TO.P,S14,*
G04 #@! TO.N,*
G04 #@! TA.AperFunction,ComponentPad*
G36*
G01*
X227264287Y-92824118D02*
X227264287Y-92824118D01*
G75*
G02*
X226567035Y-93623392I-748263J-51011D01*
G01*
X226068193Y-93657400D01*
G75*
G02*
X225268919Y-92960148I-51011J748263D01*
G01*
X225268919Y-92960148D01*
G75*
G02*
X225966171Y-92160874I748263J51011D01*
G01*
X226465013Y-92126866D01*
G75*
G02*
X227264287Y-92824118I51011J-748263D01*
G01*
G37*
G04 #@! TD.AperFunction*
G04 #@! TO.P,S14,2*
G04 #@! TO.N,GND*
G04 #@! TA.AperFunction,ComponentPad*
G36*
G01*
X231033541Y-104009183D02*
X231033541Y-104009183D01*
G75*
G02*
X231723792Y-103203854I747790J57539D01*
G01*
X232421728Y-103150150D01*
G75*
G02*
X233227057Y-103840401I57539J-747790D01*
G01*
X233227057Y-103840401D01*
G75*
G02*
X232536806Y-104645730I-747790J-57539D01*
G01*
X231838870Y-104699434D01*
G75*
G02*
X231033541Y-104009183I-57539J747790D01*
G01*
G37*
G04 #@! TD.AperFunction*
G04 #@! TO.P,S14,1*
G04 #@! TO.N,P5*
G04 #@! TA.AperFunction,ComponentPad*
G36*
G01*
X225795134Y-102406345D02*
X225795134Y-102406345D01*
G75*
G02*
X226531401Y-101547328I797642J61375D01*
G01*
X227129633Y-101501296D01*
G75*
G02*
X227988650Y-102237563I61375J-797642D01*
G01*
X227988650Y-102237563D01*
G75*
G02*
X227252383Y-103096580I-797642J-61375D01*
G01*
X226654151Y-103142612D01*
G75*
G02*
X225795134Y-102406345I-61375J797642D01*
G01*
G37*
G04 #@! TD.AperFunction*
G04 #@! TO.P,S14,*
G04 #@! TO.N,*
G04 #@! TA.AperFunction,ComponentPad*
G36*
G01*
X235240785Y-92210360D02*
X235240785Y-92210360D01*
G75*
G02*
X235923981Y-91399038I747259J64063D01*
G01*
X236422153Y-91356330D01*
G75*
G02*
X237233475Y-92039526I64063J-747259D01*
G01*
X237233475Y-92039526D01*
G75*
G02*
X236550279Y-92850848I-747259J-64063D01*
G01*
X236052107Y-92893556D01*
G75*
G02*
X235240785Y-92210360I-64063J747259D01*
G01*
G37*
G04 #@! TD.AperFunction*
G04 #@! TD*
G04 #@! TO.P,S12,*
G04 #@! TO.N,*
G04 #@! TA.AperFunction,ComponentPad*
G36*
G01*
X214047644Y-78012906D02*
X214047644Y-78012906D01*
G75*
G02*
X213922657Y-78184307I-148194J-23207D01*
G01*
X213231085Y-78292605D01*
G75*
G02*
X213059684Y-78167618I-23207J148194D01*
G01*
X213059684Y-78167618D01*
G75*
G02*
X213184671Y-77996217I148194J23207D01*
G01*
X213876243Y-77887919D01*
G75*
G02*
X214047644Y-78012906I23207J-148194D01*
G01*
G37*
G04 #@! TD.AperFunction*
G04 #@! TA.AperFunction,ComponentPad*
G36*
G01*
X204181922Y-79646165D02*
X204181922Y-79646165D01*
G75*
G02*
X204056935Y-79817566I-148194J-23207D01*
G01*
X203365363Y-79925864D01*
G75*
G02*
X203193962Y-79800877I-23207J148194D01*
G01*
X203193962Y-79800877D01*
G75*
G02*
X203318949Y-79629476I148194J23207D01*
G01*
X204010521Y-79521178D01*
G75*
G02*
X204181922Y-79646165I23207J-148194D01*
G01*
G37*
G04 #@! TD.AperFunction*
G04 #@! TA.AperFunction,SMDPad,CuDef*
G04 #@! TO.P,S12,1*
G04 #@! TO.N,P18*
G36*
X200414397Y-72195086D02*
G01*
X197849309Y-72619734D01*
X197424661Y-70054646D01*
X199989749Y-69629998D01*
X200414397Y-72195086D01*
G37*
G04 #@! TD.AperFunction*
G04 #@! TA.AperFunction,SMDPad,CuDef*
G04 #@! TO.P,S12,2*
G04 #@! TO.N,GND*
G36*
X208934229Y-68554694D02*
G01*
X208509581Y-65989606D01*
X211074669Y-65564958D01*
X211499317Y-68130046D01*
X208934229Y-68554694D01*
G37*
G04 #@! TD.AperFunction*
G04 #@! TO.P,S12,1*
G04 #@! TO.N,P18*
G04 #@! TA.AperFunction,ComponentPad*
G36*
G01*
X214468063Y-76266426D02*
X214468063Y-76266426D01*
G75*
G02*
X213809466Y-77186345I-789258J-130661D01*
G01*
X213217522Y-77284341D01*
G75*
G02*
X212297603Y-76625744I-130661J789258D01*
G01*
X212297603Y-76625744D01*
G75*
G02*
X212956200Y-75705825I789258J130661D01*
G01*
X213548144Y-75607829D01*
G75*
G02*
X214468063Y-76266426I130661J-789258D01*
G01*
G37*
G04 #@! TD.AperFunction*
G04 #@! TO.P,S12,*
G04 #@! TO.N,*
G04 #@! TA.AperFunction,ComponentPad*
G36*
G01*
X202862984Y-68617859D02*
X202862984Y-68617859D01*
G75*
G02*
X202238047Y-69474862I-740970J-116033D01*
G01*
X201744067Y-69552218D01*
G75*
G02*
X200887064Y-68927281I-116033J740970D01*
G01*
X200887064Y-68927281D01*
G75*
G02*
X201512001Y-68070278I740970J116033D01*
G01*
X202005981Y-67992922D01*
G75*
G02*
X202862984Y-68617859I116033J-740970D01*
G01*
G37*
G04 #@! TD.AperFunction*
G04 #@! TO.P,S12,2*
G04 #@! TO.N,GND*
G04 #@! TA.AperFunction,ComponentPad*
G36*
G01*
X207592738Y-79431850D02*
X207592738Y-79431850D01*
G75*
G02*
X208210173Y-78569427I739929J122494D01*
G01*
X208900773Y-78455099D01*
G75*
G02*
X209763196Y-79072534I122494J-739929D01*
G01*
X209763196Y-79072534D01*
G75*
G02*
X209145761Y-79934957I-739929J-122494D01*
G01*
X208455161Y-80049285D01*
G75*
G02*
X207592738Y-79431850I-122494J739929D01*
G01*
G37*
G04 #@! TD.AperFunction*
G04 #@! TO.P,S12,1*
G04 #@! TO.N,P18*
G04 #@! TA.AperFunction,ComponentPad*
G36*
G01*
X202234567Y-78291669D02*
X202234567Y-78291669D01*
G75*
G02*
X202893164Y-77371750I789258J130661D01*
G01*
X203485108Y-77273754D01*
G75*
G02*
X204405027Y-77932351I130661J-789258D01*
G01*
X204405027Y-77932351D01*
G75*
G02*
X203746430Y-78852270I-789258J-130661D01*
G01*
X203154486Y-78950266D01*
G75*
G02*
X202234567Y-78291669I-130661J789258D01*
G01*
G37*
G04 #@! TD.AperFunction*
G04 #@! TO.P,S12,*
G04 #@! TO.N,*
G04 #@! TA.AperFunction,ComponentPad*
G36*
G01*
X210755637Y-67311240D02*
X210755637Y-67311240D01*
G75*
G02*
X211365522Y-66443461I738832J128947D01*
G01*
X211858076Y-66357497D01*
G75*
G02*
X212725855Y-66967382I128947J-738832D01*
G01*
X212725855Y-66967382D01*
G75*
G02*
X212115970Y-67835161I-738832J-128947D01*
G01*
X211623416Y-67921125D01*
G75*
G02*
X210755637Y-67311240I-128947J738832D01*
G01*
G37*
G04 #@! TD.AperFunction*
G04 #@! TD*
G04 #@! TO.P,S2,*
G04 #@! TO.N,*
G04 #@! TA.AperFunction,ComponentPad*
G36*
G01*
X202040354Y-122827651D02*
X202040354Y-122827651D01*
G75*
G02*
X201923580Y-123004749I-146936J-30162D01*
G01*
X201237878Y-123145503D01*
G75*
G02*
X201060780Y-123028729I-30162J146936D01*
G01*
X201060780Y-123028729D01*
G75*
G02*
X201177554Y-122851631I146936J30162D01*
G01*
X201863256Y-122710877D01*
G75*
G02*
X202040354Y-122827651I30162J-146936D01*
G01*
G37*
G04 #@! TD.AperFunction*
G04 #@! TA.AperFunction,ComponentPad*
G36*
G01*
X192262522Y-124923837D02*
X192262522Y-124923837D01*
G75*
G02*
X192145748Y-125100935I-146936J-30162D01*
G01*
X191460046Y-125241689D01*
G75*
G02*
X191282948Y-125124915I-30162J146936D01*
G01*
X191282948Y-125124915D01*
G75*
G02*
X191399722Y-124947817I146936J30162D01*
G01*
X192085424Y-124807063D01*
G75*
G02*
X192262522Y-124923837I30162J-146936D01*
G01*
G37*
G04 #@! TD.AperFunction*
G04 #@! TA.AperFunction,SMDPad,CuDef*
G04 #@! TO.P,S2,1*
G04 #@! TO.N,P9*
G36*
X188148185Y-117658503D02*
G01*
X185605949Y-118203511D01*
X185060941Y-115661275D01*
X187603177Y-115116267D01*
X188148185Y-117658503D01*
G37*
G04 #@! TD.AperFunction*
G04 #@! TA.AperFunction,SMDPad,CuDef*
G04 #@! TO.P,S2,2*
G04 #@! TO.N,GND*
G36*
X196487074Y-113620812D02*
G01*
X195942066Y-111078576D01*
X198484302Y-110533568D01*
X199029310Y-113075804D01*
X196487074Y-113620812D01*
G37*
G04 #@! TD.AperFunction*
G04 #@! TO.P,S2,1*
G04 #@! TO.N,P9*
G04 #@! TA.AperFunction,ComponentPad*
G36*
G01*
X202378037Y-121063305D02*
X202378037Y-121063305D01*
G75*
G02*
X201763505Y-122013227I-782227J-167695D01*
G01*
X201176835Y-122138999D01*
G75*
G02*
X200226913Y-121524467I-167695J782227D01*
G01*
X200226913Y-121524467D01*
G75*
G02*
X200841445Y-120574545I782227J167695D01*
G01*
X201428115Y-120448773D01*
G75*
G02*
X202378037Y-121063305I167695J-782227D01*
G01*
G37*
G04 #@! TD.AperFunction*
G04 #@! TO.P,S2,*
G04 #@! TO.N,*
G04 #@! TA.AperFunction,ComponentPad*
G36*
G01*
X190425544Y-113969905D02*
X190425544Y-113969905D01*
G75*
G02*
X189841671Y-114855394I-734681J-150808D01*
G01*
X189351883Y-114955932D01*
G75*
G02*
X188466394Y-114372059I-150808J734681D01*
G01*
X188466394Y-114372059D01*
G75*
G02*
X189050267Y-113486570I734681J150808D01*
G01*
X189540055Y-113386032D01*
G75*
G02*
X190425544Y-113969905I150808J-734681D01*
G01*
G37*
G04 #@! TD.AperFunction*
G04 #@! TO.P,S2,2*
G04 #@! TO.N,GND*
G04 #@! TA.AperFunction,ComponentPad*
G36*
G01*
X195659457Y-124549087D02*
X195659457Y-124549087D01*
G75*
G02*
X196235580Y-123658536I733337J157214D01*
G01*
X196920028Y-123511804D01*
G75*
G02*
X197810579Y-124087927I157214J-733337D01*
G01*
X197810579Y-124087927D01*
G75*
G02*
X197234456Y-124978478I-733337J-157214D01*
G01*
X196550008Y-125125210D01*
G75*
G02*
X195659457Y-124549087I-157214J733337D01*
G01*
G37*
G04 #@! TD.AperFunction*
G04 #@! TO.P,S2,1*
G04 #@! TO.N,P9*
G04 #@! TA.AperFunction,ComponentPad*
G36*
G01*
X190253524Y-123662576D02*
X190253524Y-123662576D01*
G75*
G02*
X190868056Y-122712654I782227J167695D01*
G01*
X191454726Y-122586882D01*
G75*
G02*
X192404648Y-123201414I167695J-782227D01*
G01*
X192404648Y-123201414D01*
G75*
G02*
X191790116Y-124151336I-782227J-167695D01*
G01*
X191203446Y-124277108D01*
G75*
G02*
X190253524Y-123662576I-167695J782227D01*
G01*
G37*
G04 #@! TD.AperFunction*
G04 #@! TO.P,S2,*
G04 #@! TO.N,*
G04 #@! TA.AperFunction,ComponentPad*
G36*
G01*
X198247884Y-112292939D02*
X198247884Y-112292939D01*
G75*
G02*
X198816215Y-111397394I731938J163607D01*
G01*
X199304173Y-111288322D01*
G75*
G02*
X200199718Y-111856653I163607J-731938D01*
G01*
X200199718Y-111856653D01*
G75*
G02*
X199631387Y-112752198I-731938J-163607D01*
G01*
X199143429Y-112861270D01*
G75*
G02*
X198247884Y-112292939I-163607J731938D01*
G01*
G37*
G04 #@! TD.AperFunction*
G04 #@! TD*
G04 #@! TO.P,S8,*
G04 #@! TO.N,*
G04 #@! TA.AperFunction,ComponentPad*
G36*
G01*
X219600730Y-111556340D02*
X219600730Y-111556340D01*
G75*
G02*
X219475743Y-111727741I-148194J-23207D01*
G01*
X218784171Y-111836039D01*
G75*
G02*
X218612770Y-111711052I-23207J148194D01*
G01*
X218612770Y-111711052D01*
G75*
G02*
X218737757Y-111539651I148194J23207D01*
G01*
X219429329Y-111431353D01*
G75*
G02*
X219600730Y-111556340I23207J-148194D01*
G01*
G37*
G04 #@! TD.AperFunction*
G04 #@! TA.AperFunction,ComponentPad*
G36*
G01*
X209735008Y-113189599D02*
X209735008Y-113189599D01*
G75*
G02*
X209610021Y-113361000I-148194J-23207D01*
G01*
X208918449Y-113469298D01*
G75*
G02*
X208747048Y-113344311I-23207J148194D01*
G01*
X208747048Y-113344311D01*
G75*
G02*
X208872035Y-113172910I148194J23207D01*
G01*
X209563607Y-113064612D01*
G75*
G02*
X209735008Y-113189599I23207J-148194D01*
G01*
G37*
G04 #@! TD.AperFunction*
G04 #@! TA.AperFunction,SMDPad,CuDef*
G04 #@! TO.P,S8,1*
G04 #@! TO.N,P6*
G36*
X205967483Y-105738520D02*
G01*
X203402395Y-106163168D01*
X202977747Y-103598080D01*
X205542835Y-103173432D01*
X205967483Y-105738520D01*
G37*
G04 #@! TD.AperFunction*
G04 #@! TA.AperFunction,SMDPad,CuDef*
G04 #@! TO.P,S8,2*
G04 #@! TO.N,GND*
G36*
X214487315Y-102098128D02*
G01*
X214062667Y-99533040D01*
X216627755Y-99108392D01*
X217052403Y-101673480D01*
X214487315Y-102098128D01*
G37*
G04 #@! TD.AperFunction*
G04 #@! TO.P,S8,1*
G04 #@! TO.N,P6*
G04 #@! TA.AperFunction,ComponentPad*
G36*
G01*
X220021149Y-109809860D02*
X220021149Y-109809860D01*
G75*
G02*
X219362552Y-110729779I-789258J-130661D01*
G01*
X218770608Y-110827775D01*
G75*
G02*
X217850689Y-110169178I-130661J789258D01*
G01*
X217850689Y-110169178D01*
G75*
G02*
X218509286Y-109249259I789258J130661D01*
G01*
X219101230Y-109151263D01*
G75*
G02*
X220021149Y-109809860I130661J-789258D01*
G01*
G37*
G04 #@! TD.AperFunction*
G04 #@! TO.P,S8,*
G04 #@! TO.N,*
G04 #@! TA.AperFunction,ComponentPad*
G36*
G01*
X208416070Y-102161293D02*
X208416070Y-102161293D01*
G75*
G02*
X207791133Y-103018296I-740970J-116033D01*
G01*
X207297153Y-103095652D01*
G75*
G02*
X206440150Y-102470715I-116033J740970D01*
G01*
X206440150Y-102470715D01*
G75*
G02*
X207065087Y-101613712I740970J116033D01*
G01*
X207559067Y-101536356D01*
G75*
G02*
X208416070Y-102161293I116033J-740970D01*
G01*
G37*
G04 #@! TD.AperFunction*
G04 #@! TO.P,S8,2*
G04 #@! TO.N,GND*
G04 #@! TA.AperFunction,ComponentPad*
G36*
G01*
X213145824Y-112975284D02*
X213145824Y-112975284D01*
G75*
G02*
X213763259Y-112112861I739929J122494D01*
G01*
X214453859Y-111998533D01*
G75*
G02*
X215316282Y-112615968I122494J-739929D01*
G01*
X215316282Y-112615968D01*
G75*
G02*
X214698847Y-113478391I-739929J-122494D01*
G01*
X214008247Y-113592719D01*
G75*
G02*
X213145824Y-112975284I-122494J739929D01*
G01*
G37*
G04 #@! TD.AperFunction*
G04 #@! TO.P,S8,1*
G04 #@! TO.N,P6*
G04 #@! TA.AperFunction,ComponentPad*
G36*
G01*
X207787653Y-111835103D02*
X207787653Y-111835103D01*
G75*
G02*
X208446250Y-110915184I789258J130661D01*
G01*
X209038194Y-110817188D01*
G75*
G02*
X209958113Y-111475785I130661J-789258D01*
G01*
X209958113Y-111475785D01*
G75*
G02*
X209299516Y-112395704I-789258J-130661D01*
G01*
X208707572Y-112493700D01*
G75*
G02*
X207787653Y-111835103I-130661J789258D01*
G01*
G37*
G04 #@! TD.AperFunction*
G04 #@! TO.P,S8,*
G04 #@! TO.N,*
G04 #@! TA.AperFunction,ComponentPad*
G36*
G01*
X216308723Y-100854674D02*
X216308723Y-100854674D01*
G75*
G02*
X216918608Y-99986895I738832J128947D01*
G01*
X217411162Y-99900931D01*
G75*
G02*
X218278941Y-100510816I128947J-738832D01*
G01*
X218278941Y-100510816D01*
G75*
G02*
X217669056Y-101378595I-738832J-128947D01*
G01*
X217176502Y-101464559D01*
G75*
G02*
X216308723Y-100854674I-128947J738832D01*
G01*
G37*
G04 #@! TD.AperFunction*
G04 #@! TD*
D15*
G04 #@! TO.P,REF\u002A\u002A,2*
G04 #@! TO.N,BAT*
X280416000Y-120364000D03*
D16*
G04 #@! TO.P,REF\u002A\u002A,1*
G04 #@! TO.N,GND*
X280416000Y-118364000D03*
G04 #@! TD*
D17*
G04 #@! TO.P,REF\u002A\u002A,*
G04 #@! TO.N,*
X294876000Y-121506000D03*
X294876000Y-114206000D03*
X297086000Y-114206000D03*
X297086000Y-121506000D03*
D18*
G04 #@! TO.P,REF\u002A\u002A,3*
G04 #@! TO.N,N/C*
X294226000Y-115606000D03*
G04 #@! TO.P,REF\u002A\u002A,2*
G04 #@! TO.N,RAW*
X294226000Y-117106000D03*
G04 #@! TO.P,REF\u002A\u002A,1*
G04 #@! TO.N,BAT*
X294226000Y-120106000D03*
G04 #@! TD*
G04 #@! TA.AperFunction,SMDPad,CuDef*
D11*
G04 #@! TO.P,C1,*
G04 #@! TO.N,*
G36*
X292616000Y-98671000D02*
G01*
X292616000Y-97671000D01*
X293616000Y-97671000D01*
X293616000Y-98671000D01*
X292616000Y-98671000D01*
G37*
G04 #@! TD.AperFunction*
G04 #@! TA.AperFunction,SMDPad,CuDef*
G36*
X282456000Y-98671000D02*
G01*
X282456000Y-97671000D01*
X283456000Y-97671000D01*
X283456000Y-98671000D01*
X282456000Y-98671000D01*
G37*
G04 #@! TD.AperFunction*
G04 #@! TA.AperFunction,SMDPad,CuDef*
G04 #@! TO.P,C1,7*
G04 #@! TO.N,P19*
G36*
X291346000Y-98671000D02*
G01*
X291346000Y-97671000D01*
X292346000Y-97671000D01*
X292346000Y-98671000D01*
X291346000Y-98671000D01*
G37*
G04 #@! TD.AperFunction*
G04 #@! TA.AperFunction,SMDPad,CuDef*
G04 #@! TO.P,C1,19*
G04 #@! TO.N,P4*
G36*
X283726000Y-98671000D02*
G01*
X283726000Y-97671000D01*
X284726000Y-97671000D01*
X284726000Y-98671000D01*
X283726000Y-98671000D01*
G37*
G04 #@! TD.AperFunction*
G04 #@! TA.AperFunction,SMDPad,CuDef*
G04 #@! TO.P,C1,*
G04 #@! TO.N,*
G36*
X292616000Y-101211000D02*
G01*
X292616000Y-100211000D01*
X293616000Y-100211000D01*
X293616000Y-101211000D01*
X292616000Y-101211000D01*
G37*
G04 #@! TD.AperFunction*
G04 #@! TA.AperFunction,SMDPad,CuDef*
G36*
X282456000Y-101211000D02*
G01*
X282456000Y-100211000D01*
X283456000Y-100211000D01*
X283456000Y-101211000D01*
X282456000Y-101211000D01*
G37*
G04 #@! TD.AperFunction*
G04 #@! TA.AperFunction,SMDPad,CuDef*
G04 #@! TO.P,C1,8*
G04 #@! TO.N,P18*
G36*
X291346000Y-101211000D02*
G01*
X291346000Y-100211000D01*
X292346000Y-100211000D01*
X292346000Y-101211000D01*
X291346000Y-101211000D01*
G37*
G04 #@! TD.AperFunction*
G04 #@! TA.AperFunction,SMDPad,CuDef*
G04 #@! TO.P,C1,20*
G04 #@! TO.N,P5*
G36*
X283726000Y-101211000D02*
G01*
X283726000Y-100211000D01*
X284726000Y-100211000D01*
X284726000Y-101211000D01*
X283726000Y-101211000D01*
G37*
G04 #@! TD.AperFunction*
G04 #@! TA.AperFunction,SMDPad,CuDef*
G04 #@! TO.P,C1,*
G04 #@! TO.N,*
G36*
X292616000Y-103751000D02*
G01*
X292616000Y-102751000D01*
X293616000Y-102751000D01*
X293616000Y-103751000D01*
X292616000Y-103751000D01*
G37*
G04 #@! TD.AperFunction*
G04 #@! TA.AperFunction,SMDPad,CuDef*
G36*
X282456000Y-103751000D02*
G01*
X282456000Y-102751000D01*
X283456000Y-102751000D01*
X283456000Y-103751000D01*
X282456000Y-103751000D01*
G37*
G04 #@! TD.AperFunction*
G04 #@! TA.AperFunction,SMDPad,CuDef*
G04 #@! TO.P,C1,9*
G04 #@! TO.N,P15*
G36*
X291346000Y-103751000D02*
G01*
X291346000Y-102751000D01*
X292346000Y-102751000D01*
X292346000Y-103751000D01*
X291346000Y-103751000D01*
G37*
G04 #@! TD.AperFunction*
G04 #@! TA.AperFunction,SMDPad,CuDef*
G04 #@! TO.P,C1,21*
G04 #@! TO.N,P6*
G36*
X283726000Y-103751000D02*
G01*
X283726000Y-102751000D01*
X284726000Y-102751000D01*
X284726000Y-103751000D01*
X283726000Y-103751000D01*
G37*
G04 #@! TD.AperFunction*
G04 #@! TA.AperFunction,SMDPad,CuDef*
G04 #@! TO.P,C1,*
G04 #@! TO.N,*
G36*
X292616000Y-106291000D02*
G01*
X292616000Y-105291000D01*
X293616000Y-105291000D01*
X293616000Y-106291000D01*
X292616000Y-106291000D01*
G37*
G04 #@! TD.AperFunction*
G04 #@! TA.AperFunction,SMDPad,CuDef*
G36*
X282456000Y-106291000D02*
G01*
X282456000Y-105291000D01*
X283456000Y-105291000D01*
X283456000Y-106291000D01*
X282456000Y-106291000D01*
G37*
G04 #@! TD.AperFunction*
G04 #@! TA.AperFunction,SMDPad,CuDef*
G04 #@! TO.P,C1,10*
G04 #@! TO.N,P14*
G36*
X291346000Y-106291000D02*
G01*
X291346000Y-105291000D01*
X292346000Y-105291000D01*
X292346000Y-106291000D01*
X291346000Y-106291000D01*
G37*
G04 #@! TD.AperFunction*
G04 #@! TA.AperFunction,SMDPad,CuDef*
G04 #@! TO.P,C1,22*
G04 #@! TO.N,P7*
G36*
X283726000Y-106291000D02*
G01*
X283726000Y-105291000D01*
X284726000Y-105291000D01*
X284726000Y-106291000D01*
X283726000Y-106291000D01*
G37*
G04 #@! TD.AperFunction*
G04 #@! TA.AperFunction,SMDPad,CuDef*
G04 #@! TO.P,C1,*
G04 #@! TO.N,*
G36*
X292616000Y-108831000D02*
G01*
X292616000Y-107831000D01*
X293616000Y-107831000D01*
X293616000Y-108831000D01*
X292616000Y-108831000D01*
G37*
G04 #@! TD.AperFunction*
G04 #@! TA.AperFunction,SMDPad,CuDef*
G36*
X282456000Y-108831000D02*
G01*
X282456000Y-107831000D01*
X283456000Y-107831000D01*
X283456000Y-108831000D01*
X282456000Y-108831000D01*
G37*
G04 #@! TD.AperFunction*
G04 #@! TA.AperFunction,SMDPad,CuDef*
G04 #@! TO.P,C1,11*
G04 #@! TO.N,P16*
G36*
X291346000Y-108831000D02*
G01*
X291346000Y-107831000D01*
X292346000Y-107831000D01*
X292346000Y-108831000D01*
X291346000Y-108831000D01*
G37*
G04 #@! TD.AperFunction*
G04 #@! TA.AperFunction,SMDPad,CuDef*
G04 #@! TO.P,C1,23*
G04 #@! TO.N,P8*
G36*
X283726000Y-108831000D02*
G01*
X283726000Y-107831000D01*
X284726000Y-107831000D01*
X284726000Y-108831000D01*
X283726000Y-108831000D01*
G37*
G04 #@! TD.AperFunction*
G04 #@! TA.AperFunction,SMDPad,CuDef*
G04 #@! TO.P,C1,*
G04 #@! TO.N,*
G36*
X292616000Y-111371000D02*
G01*
X292616000Y-110371000D01*
X293616000Y-110371000D01*
X293616000Y-111371000D01*
X292616000Y-111371000D01*
G37*
G04 #@! TD.AperFunction*
G04 #@! TA.AperFunction,SMDPad,CuDef*
G36*
X282456000Y-111371000D02*
G01*
X282456000Y-110371000D01*
X283456000Y-110371000D01*
X283456000Y-111371000D01*
X282456000Y-111371000D01*
G37*
G04 #@! TD.AperFunction*
G04 #@! TA.AperFunction,SMDPad,CuDef*
G04 #@! TO.P,C1,12*
G04 #@! TO.N,P10*
G36*
X291346000Y-111371000D02*
G01*
X291346000Y-110371000D01*
X292346000Y-110371000D01*
X292346000Y-111371000D01*
X291346000Y-111371000D01*
G37*
G04 #@! TD.AperFunction*
G04 #@! TA.AperFunction,SMDPad,CuDef*
G04 #@! TO.P,C1,24*
G04 #@! TO.N,P9*
G36*
X283726000Y-111371000D02*
G01*
X283726000Y-110371000D01*
X284726000Y-110371000D01*
X284726000Y-111371000D01*
X283726000Y-111371000D01*
G37*
G04 #@! TD.AperFunction*
G04 #@! TA.AperFunction,SMDPad,CuDef*
G04 #@! TO.P,C1,*
G04 #@! TO.N,*
G36*
X292616000Y-96131000D02*
G01*
X292616000Y-95131000D01*
X293616000Y-95131000D01*
X293616000Y-96131000D01*
X292616000Y-96131000D01*
G37*
G04 #@! TD.AperFunction*
G04 #@! TA.AperFunction,SMDPad,CuDef*
G36*
X282456000Y-96131000D02*
G01*
X282456000Y-95131000D01*
X283456000Y-95131000D01*
X283456000Y-96131000D01*
X282456000Y-96131000D01*
G37*
G04 #@! TD.AperFunction*
G04 #@! TA.AperFunction,SMDPad,CuDef*
G04 #@! TO.P,C1,6*
G04 #@! TO.N,P20*
G36*
X291346000Y-96131000D02*
G01*
X291346000Y-95131000D01*
X292346000Y-95131000D01*
X292346000Y-96131000D01*
X291346000Y-96131000D01*
G37*
G04 #@! TD.AperFunction*
G04 #@! TA.AperFunction,SMDPad,CuDef*
G04 #@! TO.P,C1,18*
G04 #@! TO.N,P3*
G36*
X283726000Y-96131000D02*
G01*
X283726000Y-95131000D01*
X284726000Y-95131000D01*
X284726000Y-96131000D01*
X283726000Y-96131000D01*
G37*
G04 #@! TD.AperFunction*
G04 #@! TA.AperFunction,SMDPad,CuDef*
G04 #@! TO.P,C1,*
G04 #@! TO.N,*
G36*
X292616000Y-93591000D02*
G01*
X292616000Y-92591000D01*
X293616000Y-92591000D01*
X293616000Y-93591000D01*
X292616000Y-93591000D01*
G37*
G04 #@! TD.AperFunction*
G04 #@! TA.AperFunction,SMDPad,CuDef*
G36*
X282456000Y-93591000D02*
G01*
X282456000Y-92591000D01*
X283456000Y-92591000D01*
X283456000Y-93591000D01*
X282456000Y-93591000D01*
G37*
G04 #@! TD.AperFunction*
G04 #@! TA.AperFunction,SMDPad,CuDef*
G04 #@! TO.P,C1,5*
G04 #@! TO.N,P21*
G36*
X291346000Y-93591000D02*
G01*
X291346000Y-92591000D01*
X292346000Y-92591000D01*
X292346000Y-93591000D01*
X291346000Y-93591000D01*
G37*
G04 #@! TD.AperFunction*
G04 #@! TA.AperFunction,SMDPad,CuDef*
G04 #@! TO.P,C1,17*
G04 #@! TO.N,P2*
G36*
X283726000Y-93591000D02*
G01*
X283726000Y-92591000D01*
X284726000Y-92591000D01*
X284726000Y-93591000D01*
X283726000Y-93591000D01*
G37*
G04 #@! TD.AperFunction*
G04 #@! TA.AperFunction,SMDPad,CuDef*
G04 #@! TO.P,C1,*
G04 #@! TO.N,*
G36*
X292616000Y-91051000D02*
G01*
X292616000Y-90051000D01*
X293616000Y-90051000D01*
X293616000Y-91051000D01*
X292616000Y-91051000D01*
G37*
G04 #@! TD.AperFunction*
G04 #@! TA.AperFunction,SMDPad,CuDef*
G36*
X282456000Y-91051000D02*
G01*
X282456000Y-90051000D01*
X283456000Y-90051000D01*
X283456000Y-91051000D01*
X282456000Y-91051000D01*
G37*
G04 #@! TD.AperFunction*
G04 #@! TA.AperFunction,SMDPad,CuDef*
G04 #@! TO.P,C1,4*
G04 #@! TO.N,VCC*
G36*
X291346000Y-91051000D02*
G01*
X291346000Y-90051000D01*
X292346000Y-90051000D01*
X292346000Y-91051000D01*
X291346000Y-91051000D01*
G37*
G04 #@! TD.AperFunction*
G04 #@! TA.AperFunction,SMDPad,CuDef*
G04 #@! TO.P,C1,16*
G04 #@! TO.N,GND*
G36*
X283726000Y-91051000D02*
G01*
X283726000Y-90051000D01*
X284726000Y-90051000D01*
X284726000Y-91051000D01*
X283726000Y-91051000D01*
G37*
G04 #@! TD.AperFunction*
G04 #@! TA.AperFunction,SMDPad,CuDef*
G04 #@! TO.P,C1,*
G04 #@! TO.N,*
G36*
X292616000Y-88511000D02*
G01*
X292616000Y-87511000D01*
X293616000Y-87511000D01*
X293616000Y-88511000D01*
X292616000Y-88511000D01*
G37*
G04 #@! TD.AperFunction*
G04 #@! TA.AperFunction,SMDPad,CuDef*
G36*
X282456000Y-88511000D02*
G01*
X282456000Y-87511000D01*
X283456000Y-87511000D01*
X283456000Y-88511000D01*
X282456000Y-88511000D01*
G37*
G04 #@! TD.AperFunction*
G04 #@! TA.AperFunction,SMDPad,CuDef*
G04 #@! TO.P,C1,3*
G04 #@! TO.N,RST*
G36*
X291346000Y-88511000D02*
G01*
X291346000Y-87511000D01*
X292346000Y-87511000D01*
X292346000Y-88511000D01*
X291346000Y-88511000D01*
G37*
G04 #@! TD.AperFunction*
G04 #@! TA.AperFunction,SMDPad,CuDef*
G04 #@! TO.P,C1,15*
G04 #@! TO.N,GND*
G36*
X283726000Y-88511000D02*
G01*
X283726000Y-87511000D01*
X284726000Y-87511000D01*
X284726000Y-88511000D01*
X283726000Y-88511000D01*
G37*
G04 #@! TD.AperFunction*
G04 #@! TA.AperFunction,SMDPad,CuDef*
G04 #@! TO.P,C1,*
G04 #@! TO.N,*
G36*
X292616000Y-85971000D02*
G01*
X292616000Y-84971000D01*
X293616000Y-84971000D01*
X293616000Y-85971000D01*
X292616000Y-85971000D01*
G37*
G04 #@! TD.AperFunction*
G04 #@! TA.AperFunction,SMDPad,CuDef*
G36*
X282456000Y-85971000D02*
G01*
X282456000Y-84971000D01*
X283456000Y-84971000D01*
X283456000Y-85971000D01*
X282456000Y-85971000D01*
G37*
G04 #@! TD.AperFunction*
G04 #@! TA.AperFunction,SMDPad,CuDef*
G04 #@! TO.P,C1,2*
G04 #@! TO.N,GND*
G36*
X291346000Y-85971000D02*
G01*
X291346000Y-84971000D01*
X292346000Y-84971000D01*
X292346000Y-85971000D01*
X291346000Y-85971000D01*
G37*
G04 #@! TD.AperFunction*
G04 #@! TA.AperFunction,SMDPad,CuDef*
G04 #@! TO.P,C1,14*
G04 #@! TO.N,P0*
G36*
X283726000Y-85971000D02*
G01*
X283726000Y-84971000D01*
X284726000Y-84971000D01*
X284726000Y-85971000D01*
X283726000Y-85971000D01*
G37*
G04 #@! TD.AperFunction*
G04 #@! TA.AperFunction,SMDPad,CuDef*
G04 #@! TO.P,C1,1*
G04 #@! TO.N,RAW*
G36*
X291346000Y-83431000D02*
G01*
X291346000Y-82431000D01*
X292346000Y-82431000D01*
X292346000Y-83431000D01*
X291346000Y-83431000D01*
G37*
G04 #@! TD.AperFunction*
G04 #@! TA.AperFunction,SMDPad,CuDef*
G04 #@! TO.P,C1,*
G04 #@! TO.N,*
G36*
X292616000Y-83431000D02*
G01*
X292616000Y-82431000D01*
X293616000Y-82431000D01*
X293616000Y-83431000D01*
X292616000Y-83431000D01*
G37*
G04 #@! TD.AperFunction*
G04 #@! TA.AperFunction,SMDPad,CuDef*
G04 #@! TO.P,C1,13*
G04 #@! TO.N,P1*
G36*
X283726000Y-83431000D02*
G01*
X283726000Y-82431000D01*
X284726000Y-82431000D01*
X284726000Y-83431000D01*
X283726000Y-83431000D01*
G37*
G04 #@! TD.AperFunction*
G04 #@! TA.AperFunction,SMDPad,CuDef*
G04 #@! TO.P,C1,*
G04 #@! TO.N,*
G36*
X282456000Y-83431000D02*
G01*
X282456000Y-82431000D01*
X283456000Y-82431000D01*
X283456000Y-83431000D01*
X282456000Y-83431000D01*
G37*
G04 #@! TD.AperFunction*
D19*
X295692400Y-83058000D03*
X295692400Y-85598000D03*
X295692400Y-88138000D03*
X295692400Y-90678000D03*
X295692400Y-93218000D03*
X295692400Y-95758000D03*
X295692400Y-98298000D03*
X295692400Y-100838000D03*
X295692400Y-103378000D03*
X295692400Y-105918000D03*
X295692400Y-108458000D03*
X295692400Y-110998000D03*
X280472400Y-110998000D03*
X280472400Y-108458000D03*
X280472400Y-105918000D03*
X280472400Y-103378000D03*
X280472400Y-100838000D03*
X280472400Y-98298000D03*
X280472400Y-95758000D03*
X280472400Y-93218000D03*
X280472400Y-90678000D03*
X280472400Y-88138000D03*
X280472400Y-85598000D03*
X280472400Y-83058000D03*
G04 #@! TD*
D20*
G04 #@! TO.P,REF\u002A\u002A,2*
G04 #@! TO.N,RST*
X296672000Y-127938000D03*
G04 #@! TO.P,REF\u002A\u002A,1*
G04 #@! TO.N,GND*
X296672000Y-124538000D03*
G04 #@! TD*
D21*
G04 #@! TO.N,P7*
X290576000Y-105156000D03*
G04 #@! TO.N,GND*
X265938000Y-82042000D03*
X265684000Y-99060000D03*
X290576000Y-87376000D03*
X290576000Y-89916000D03*
X295568000Y-125642000D03*
X285496000Y-86106000D03*
X191358606Y-81832533D03*
X210004449Y-67059826D03*
X231905922Y-57994640D03*
X254362831Y-62144603D03*
X272362872Y-64977978D03*
X254362885Y-79144688D03*
X254362832Y-96144684D03*
X273682274Y-124076274D03*
G04 #@! TO.N,P6*
X290576000Y-102616000D03*
G04 #@! TO.N,P5*
X239522000Y-93726000D03*
X290576000Y-100076000D03*
G04 #@! TO.N,P4*
X259334000Y-98298000D03*
X290576000Y-97536000D03*
G04 #@! TO.N,P3*
X277368000Y-101346000D03*
X290576000Y-94996000D03*
G04 #@! TO.N,P0*
X290512500Y-84899500D03*
G04 #@! TO.N,P1*
X290495665Y-82080990D03*
G04 #@! TO.N,P19*
X285496000Y-98806000D03*
G04 #@! TO.N,P18*
X285496000Y-101346000D03*
G04 #@! TO.N,P15*
X277368000Y-84328000D03*
X285496000Y-103886000D03*
G04 #@! TO.N,P14*
X285496000Y-106426000D03*
G04 #@! TO.N,P16*
X285496000Y-108966000D03*
G04 #@! TO.N,P10*
X285496000Y-111506000D03*
G04 #@! TO.N,P20*
X285496000Y-96266000D03*
G04 #@! TO.N,P21*
X285496000Y-93726000D03*
G04 #@! TO.N,P8*
X290576000Y-107696000D03*
G04 #@! TO.N,P9*
X290576000Y-110236000D03*
G04 #@! TO.N,RAW*
X292862000Y-117856000D03*
X285490001Y-83571999D03*
G04 #@! TO.N,RST*
X285496000Y-88646000D03*
X297776000Y-126834000D03*
G04 #@! TO.N,VCC*
X285496000Y-91186000D03*
G04 #@! TO.N,P2*
X290576000Y-92456000D03*
X285750000Y-116078000D03*
G04 #@! TO.N,BAT*
X292898000Y-120106000D03*
G04 #@! TD*
D22*
G04 #@! TO.N,*
X282829000Y-110998000D02*
X282956000Y-110871000D01*
X280472400Y-110998000D02*
X282829000Y-110998000D01*
X282829000Y-108458000D02*
X282956000Y-108331000D01*
X280472400Y-108458000D02*
X282829000Y-108458000D01*
X282829000Y-105918000D02*
X282956000Y-105791000D01*
X280472400Y-105918000D02*
X282829000Y-105918000D01*
X282829000Y-103378000D02*
X282956000Y-103251000D01*
X280472400Y-103378000D02*
X282829000Y-103378000D01*
X282829000Y-100838000D02*
X282956000Y-100711000D01*
X280472400Y-100838000D02*
X282829000Y-100838000D01*
X282829000Y-98298000D02*
X282956000Y-98171000D01*
X280472400Y-98298000D02*
X282829000Y-98298000D01*
X282829000Y-95758000D02*
X282956000Y-95631000D01*
X280472400Y-95758000D02*
X282829000Y-95758000D01*
X282829000Y-93218000D02*
X282956000Y-93091000D01*
X280472400Y-93218000D02*
X282829000Y-93218000D01*
X282829000Y-90678000D02*
X282956000Y-90551000D01*
X280472400Y-90678000D02*
X282829000Y-90678000D01*
X282829000Y-88138000D02*
X282956000Y-88011000D01*
X280472400Y-88138000D02*
X282829000Y-88138000D01*
X282829000Y-85598000D02*
X282956000Y-85471000D01*
X280472400Y-85598000D02*
X282829000Y-85598000D01*
X282829000Y-83058000D02*
X282956000Y-82931000D01*
X280472400Y-83058000D02*
X282829000Y-83058000D01*
X295565400Y-82931000D02*
X295692400Y-83058000D01*
X293116000Y-82931000D02*
X295565400Y-82931000D01*
X295565400Y-85471000D02*
X295692400Y-85598000D01*
X293116000Y-85471000D02*
X295565400Y-85471000D01*
X295565400Y-88011000D02*
X295692400Y-88138000D01*
X293116000Y-88011000D02*
X295565400Y-88011000D01*
X295565400Y-93091000D02*
X295692400Y-93218000D01*
X293116000Y-93091000D02*
X295565400Y-93091000D01*
X295565400Y-95631000D02*
X295692400Y-95758000D01*
X293116000Y-95631000D02*
X295565400Y-95631000D01*
X295565400Y-98171000D02*
X295692400Y-98298000D01*
X293116000Y-98171000D02*
X295565400Y-98171000D01*
X295565400Y-100711000D02*
X295692400Y-100838000D01*
X293116000Y-100711000D02*
X295565400Y-100711000D01*
X295565400Y-103251000D02*
X295692400Y-103378000D01*
X293116000Y-103251000D02*
X295565400Y-103251000D01*
X295565400Y-105791000D02*
X295692400Y-105918000D01*
X293116000Y-105791000D02*
X295565400Y-105791000D01*
X295565400Y-108331000D02*
X295692400Y-108458000D01*
X293116000Y-108331000D02*
X295565400Y-108331000D01*
X295565400Y-110871000D02*
X295692400Y-110998000D01*
X293116000Y-110871000D02*
X295565400Y-110871000D01*
D23*
X293243000Y-90678000D02*
X293116000Y-90551000D01*
X295692400Y-90678000D02*
X293243000Y-90678000D01*
D22*
G04 #@! TO.N,P7*
X284861000Y-105156000D02*
X290576000Y-105156000D01*
X284226000Y-105791000D02*
X284861000Y-105156000D01*
G04 #@! TO.N,*
X180477481Y-88462815D02*
X185202004Y-93187338D01*
X180477481Y-86415232D02*
X180477481Y-88462815D01*
G04 #@! TO.N,GND*
X295496999Y-125713001D02*
X295568000Y-125642000D01*
X250303886Y-90197689D02*
X251062885Y-90956688D01*
X223019222Y-112755221D02*
X213967432Y-112755221D01*
X231869300Y-103905143D02*
X223019222Y-112755221D01*
X213866496Y-96013504D02*
X214623084Y-96013504D01*
X190626882Y-93445577D02*
X190626882Y-94069806D01*
X211454460Y-96750414D02*
X211454460Y-96023913D01*
X197695930Y-127326851D02*
X197695930Y-126702622D01*
X197735018Y-127318507D02*
X197735018Y-126681104D01*
D23*
X280416000Y-118364000D02*
X280416000Y-117941270D01*
X269062872Y-76789978D02*
X271227319Y-78954425D01*
X290576000Y-86741000D02*
X291846000Y-85471000D01*
X290576000Y-87376000D02*
X290576000Y-86741000D01*
X284226000Y-90551000D02*
X284226000Y-88011000D01*
X284861000Y-89916000D02*
X290576000Y-89916000D01*
X284226000Y-90551000D02*
X284861000Y-89916000D01*
X280416000Y-118364000D02*
X280416000Y-117814093D01*
X285496000Y-87387998D02*
X285496000Y-87376000D01*
X284872998Y-88011000D02*
X285496000Y-87387998D01*
X284226000Y-88011000D02*
X284872998Y-88011000D01*
X285496000Y-87376000D02*
X290576000Y-87376000D01*
X291846000Y-84971000D02*
X291846000Y-85471000D01*
X292431001Y-84385999D02*
X291846000Y-84971000D01*
X296158163Y-84385999D02*
X292431001Y-84385999D01*
X296904401Y-83639761D02*
X296158163Y-84385999D01*
X296904401Y-82476239D02*
X296904401Y-83639761D01*
X295659151Y-81230989D02*
X296904401Y-82476239D01*
X273503883Y-81230989D02*
X295659151Y-81230989D01*
X271227319Y-78954425D02*
X273503883Y-81230989D01*
X291211000Y-86106000D02*
X291846000Y-85471000D01*
X285496000Y-86106000D02*
X291211000Y-86106000D01*
X266894053Y-133824100D02*
X267452101Y-134382148D01*
X259734874Y-134382148D02*
X253221438Y-132528845D01*
X267452101Y-134382148D02*
X259734874Y-134382148D01*
X275338410Y-138364551D02*
X273731041Y-138364551D01*
X276027131Y-139053272D02*
X275338410Y-138364551D01*
X280065725Y-140936500D02*
X276027131Y-139053272D01*
X284975480Y-140936500D02*
X280065725Y-140936500D01*
X267452101Y-134610101D02*
X267452101Y-134382148D01*
X267566604Y-134382148D02*
X270681228Y-137496772D01*
X267452101Y-134382148D02*
X267566604Y-134382148D01*
X273731041Y-138364551D02*
X270681228Y-137496772D01*
X223259465Y-112795626D02*
X232130299Y-103924792D01*
X214231053Y-112795626D02*
X223259465Y-112795626D01*
X249942684Y-107956684D02*
X251062832Y-107956684D01*
X295371999Y-125838001D02*
X295568000Y-125642000D01*
X295568000Y-125642000D02*
X296672000Y-124538000D01*
X253221438Y-132528845D02*
X237856905Y-128157094D01*
X273843594Y-115570689D02*
X273843594Y-123914954D01*
X269062864Y-110789959D02*
X273843594Y-115570689D01*
X269038877Y-134382148D02*
X267452101Y-134382148D01*
X271958555Y-131462470D02*
X269038877Y-134382148D01*
X271958555Y-125799993D02*
X271958555Y-131462470D01*
X273843594Y-123914954D02*
X273682274Y-124076274D01*
X291619225Y-132964871D02*
X292958263Y-131625833D01*
X291619225Y-135859963D02*
X291619225Y-132964871D01*
X286542688Y-140936500D02*
X291619225Y-135859963D01*
X284975480Y-140936500D02*
X286542688Y-140936500D01*
X292958263Y-128251737D02*
X295568000Y-125642000D01*
X292958263Y-131625833D02*
X292958263Y-128251737D01*
X194171530Y-110763032D02*
X198485688Y-115077190D01*
X194171530Y-110696130D02*
X194171530Y-110763032D01*
X211724084Y-110288657D02*
X214231053Y-112795626D01*
X199178593Y-110288657D02*
X211724084Y-110288657D01*
X198771120Y-110696130D02*
X199178593Y-110288657D01*
X197405870Y-110696130D02*
X198771120Y-110696130D01*
X194171530Y-110696130D02*
X197405870Y-110696130D01*
X197405870Y-110696130D02*
X197688491Y-110696130D01*
X190607936Y-94140549D02*
X194922200Y-98454813D01*
X190607936Y-94073850D02*
X190607936Y-94140549D01*
X191358606Y-84389915D02*
X191358606Y-81832533D01*
X192271187Y-85302496D02*
X191358606Y-84389915D01*
X192271187Y-92410599D02*
X192271187Y-85302496D01*
X190607936Y-94073850D02*
X192271187Y-92410599D01*
X208947491Y-93516944D02*
X211454460Y-96023913D01*
X191164842Y-93516944D02*
X208947491Y-93516944D01*
X190607936Y-94073850D02*
X191164842Y-93516944D01*
X231819693Y-58080869D02*
X231905922Y-57994640D01*
X231819693Y-60993735D02*
X231819693Y-58080869D01*
X231969212Y-61143254D02*
X231819693Y-60993735D01*
X231969212Y-67577641D02*
X231969212Y-61143254D01*
X229521853Y-70025000D02*
X231969212Y-67577641D01*
X210004449Y-69802142D02*
X210004449Y-67059826D01*
X210614345Y-70412038D02*
X210004449Y-69802142D01*
X210614345Y-77315814D02*
X210614345Y-70412038D01*
X208677967Y-79252192D02*
X210614345Y-77315814D01*
X226587358Y-70025000D02*
X229521853Y-70025000D01*
X217360166Y-79252192D02*
X226587358Y-70025000D01*
X208677967Y-79252192D02*
X217360166Y-79252192D01*
X230170971Y-87629999D02*
X230826075Y-86974895D01*
X225534136Y-87629999D02*
X230170971Y-87629999D01*
X217140222Y-96023913D02*
X225534136Y-87629999D01*
X211454460Y-96023913D02*
X217140222Y-96023913D01*
X212780942Y-83355167D02*
X208677967Y-79252192D01*
X212780942Y-83831547D02*
X212780942Y-83355167D01*
X215557535Y-100126988D02*
X211454460Y-96023913D01*
X215557535Y-100603260D02*
X215557535Y-100126988D01*
X234514368Y-90663188D02*
X230826075Y-86974895D01*
X234514368Y-91894432D02*
X234514368Y-90663188D01*
X233210144Y-73713291D02*
X229521853Y-70025000D01*
X233210144Y-74944535D02*
X233210144Y-73713291D01*
X254362885Y-77256657D02*
X251062831Y-73956603D01*
X254362885Y-79144688D02*
X254362885Y-79144688D01*
X253962832Y-62544602D02*
X254362831Y-62144603D01*
X251062831Y-73956603D02*
X253962832Y-71056602D01*
X254362832Y-94256635D02*
X251062885Y-90956688D01*
X254362832Y-96144684D02*
X254362832Y-96144684D01*
X272362864Y-97090018D02*
X269881423Y-94608577D01*
X272362864Y-98977959D02*
X272362864Y-97090018D01*
X269881423Y-94608577D02*
X271227365Y-95954519D01*
X269062818Y-93789972D02*
X269881423Y-94608577D01*
X272362864Y-99991957D02*
X271962865Y-100391956D01*
X272362864Y-98977959D02*
X272362864Y-99991957D01*
X271962873Y-65377977D02*
X272362872Y-64977978D01*
X271962873Y-73889977D02*
X271962873Y-65377977D01*
X269062872Y-76789978D02*
X271962873Y-73889977D01*
X234428139Y-91980661D02*
X234514368Y-91894432D01*
X233123915Y-75030764D02*
X233210144Y-74944535D01*
X233123915Y-77943630D02*
X233123915Y-75030764D01*
X233273434Y-78093149D02*
X233123915Y-77943630D01*
X233273434Y-84527536D02*
X233273434Y-78093149D01*
X230826075Y-86974895D02*
X233273434Y-84527536D01*
X271962819Y-82377971D02*
X272362818Y-81977972D01*
X191358606Y-81832533D02*
X191358606Y-81832533D01*
X210004449Y-67059826D02*
X210004449Y-67059826D01*
X231905922Y-57994640D02*
X231905922Y-57994640D01*
X254362831Y-62144603D02*
X254362831Y-62144603D01*
X272362872Y-64977978D02*
X272362872Y-64977978D01*
X254362885Y-79144688D02*
X254362885Y-77256657D01*
X254362832Y-96144684D02*
X254362832Y-94256635D01*
X271426861Y-100927960D02*
X272362864Y-99991957D01*
X267551960Y-100927960D02*
X271426861Y-100927960D01*
X265684000Y-99060000D02*
X267551960Y-100927960D01*
X273682274Y-124076274D02*
X271958555Y-125799993D01*
X199398269Y-125655256D02*
X197735018Y-127318507D01*
X199398269Y-120157585D02*
X199398269Y-125655256D01*
X198485688Y-119245004D02*
X199398269Y-120157585D01*
X198485688Y-115077190D02*
X198485688Y-119245004D01*
X214231053Y-121267053D02*
X214465380Y-121501380D01*
X214231053Y-112795626D02*
X214231053Y-121267053D01*
X238991797Y-128480011D02*
X214465380Y-121501380D01*
X253962832Y-71056602D02*
X253962832Y-62544602D01*
X230965000Y-70025000D02*
X237411000Y-70025000D01*
X229521853Y-70025000D02*
X230965000Y-70025000D01*
X250343434Y-74676000D02*
X251062831Y-73956603D01*
X243840000Y-74676000D02*
X250343434Y-74676000D01*
X239189000Y-70025000D02*
X243840000Y-74676000D01*
X230965000Y-70025000D02*
X239189000Y-70025000D01*
X268807663Y-77045187D02*
X269062872Y-76789978D01*
X254151415Y-77045187D02*
X268807663Y-77045187D01*
X251062831Y-73956603D02*
X254151415Y-77045187D01*
X269062872Y-78917128D02*
X265938000Y-82042000D01*
X269062872Y-76789978D02*
X269062872Y-78917128D01*
X276636905Y-118364000D02*
X269062864Y-110789959D01*
X280416000Y-118364000D02*
X276636905Y-118364000D01*
D22*
X251062885Y-90956688D02*
X254848197Y-94742000D01*
D23*
X254151378Y-94045181D02*
X251062885Y-90956688D01*
X268807609Y-94045181D02*
X254151378Y-94045181D01*
X269062818Y-93789972D02*
X268807609Y-94045181D01*
X251062832Y-107956684D02*
X254866148Y-111760000D01*
X268092823Y-111760000D02*
X269062864Y-110789959D01*
X254866148Y-111760000D02*
X268092823Y-111760000D01*
X250807676Y-91211897D02*
X251062885Y-90956688D01*
X245469585Y-91211897D02*
X250807676Y-91211897D01*
X245123197Y-90865509D02*
X245469585Y-91211897D01*
X235543291Y-90865509D02*
X245123197Y-90865509D01*
X234514368Y-91894432D02*
X235543291Y-90865509D01*
X254112831Y-104906685D02*
X251062832Y-107956684D01*
X254112831Y-96394685D02*
X254112831Y-104906685D01*
X254362832Y-96144684D02*
X254112831Y-96394685D01*
X232130299Y-103924792D02*
X236663507Y-108458000D01*
X250561516Y-108458000D02*
X251062832Y-107956684D01*
X236663507Y-108458000D02*
X250561516Y-108458000D01*
D22*
G04 #@! TO.N,P6*
X284861000Y-102616000D02*
X290576000Y-102616000D01*
X284226000Y-103251000D02*
X284861000Y-102616000D01*
X218935919Y-108536337D02*
X218935919Y-109989519D01*
X214599431Y-104199849D02*
X218935919Y-108536337D01*
X211935429Y-104199849D02*
X214599431Y-104199849D01*
X209505733Y-106629545D02*
X211935429Y-104199849D01*
X206433860Y-106629545D02*
X209505733Y-106629545D01*
X204472615Y-104668300D02*
X206433860Y-106629545D01*
G04 #@! TO.N,P5*
X284861000Y-100076000D02*
X290576000Y-100076000D01*
X284226000Y-100711000D02*
X284861000Y-100076000D01*
X224689166Y-100119228D02*
X226891892Y-102321954D01*
X224689166Y-96549717D02*
X224689166Y-100119228D01*
X223117338Y-94977889D02*
X224689166Y-96549717D01*
X239522000Y-99079250D02*
X237061830Y-101539420D01*
X239522000Y-93726000D02*
X239522000Y-99079250D01*
G04 #@! TO.N,P4*
X284861000Y-97536000D02*
X290576000Y-97536000D01*
X284226000Y-98171000D02*
X284861000Y-97536000D01*
X258934001Y-103185515D02*
X256162832Y-105956684D01*
X258934001Y-98697999D02*
X258934001Y-103185515D01*
X259334000Y-98298000D02*
X258934001Y-98697999D01*
X242762832Y-102756684D02*
X245962832Y-105956684D01*
X242762832Y-98344684D02*
X242762832Y-102756684D01*
G04 #@! TO.N,P3*
X284861000Y-94996000D02*
X290576000Y-94996000D01*
X284226000Y-95631000D02*
X284861000Y-94996000D01*
X260762864Y-105589959D02*
X263962864Y-108789959D01*
X260762864Y-101177959D02*
X260762864Y-105589959D01*
X277368000Y-105584823D02*
X274162864Y-108789959D01*
X277368000Y-101346000D02*
X277368000Y-105584823D01*
G04 #@! TO.N,P0*
X284226000Y-85471000D02*
X284861000Y-85471000D01*
X285432500Y-84899500D02*
X290512500Y-84899500D01*
X284861000Y-85471000D02*
X285432500Y-84899500D01*
X262082849Y-130062583D02*
X263089349Y-131069083D01*
X262082849Y-122873383D02*
X262082849Y-130062583D01*
G04 #@! TO.N,P1*
X284226000Y-82431000D02*
X284576010Y-82080990D01*
X284226000Y-82931000D02*
X284226000Y-82431000D01*
X284576010Y-82080990D02*
X290495665Y-82080990D01*
X281198547Y-129034123D02*
X281198547Y-136968531D01*
X281515332Y-128717338D02*
X281198547Y-129034123D01*
G04 #@! TO.N,P19*
X291211000Y-98806000D02*
X285496000Y-98806000D01*
X291846000Y-98171000D02*
X291211000Y-98806000D01*
X224283446Y-67075371D02*
X224283446Y-68422162D01*
X220508892Y-63300817D02*
X224283446Y-67075371D01*
X220508892Y-61078097D02*
X220508892Y-63300817D01*
G04 #@! TO.N,P18*
X291211000Y-101346000D02*
X285496000Y-101346000D01*
X291846000Y-100711000D02*
X291211000Y-101346000D01*
X198919529Y-73711742D02*
X203319797Y-78112010D01*
X198919529Y-71124866D02*
X198919529Y-73711742D01*
G04 #@! TO.N,P15*
X291211000Y-103886000D02*
X285496000Y-103886000D01*
X291846000Y-103251000D02*
X291211000Y-103886000D01*
X260762818Y-88589972D02*
X263962818Y-91789972D01*
X260762818Y-84177972D02*
X260762818Y-88589972D01*
X277368000Y-88584790D02*
X274162818Y-91789972D01*
X277368000Y-84328000D02*
X277368000Y-88584790D01*
G04 #@! TO.N,P14*
X291211000Y-106426000D02*
X285496000Y-106426000D01*
X291846000Y-105791000D02*
X291211000Y-106426000D01*
X242762885Y-85756688D02*
X245962885Y-88956688D01*
X242762885Y-81344688D02*
X242762885Y-85756688D01*
G04 #@! TO.N,P16*
X291211000Y-108966000D02*
X285496000Y-108966000D01*
X291846000Y-108331000D02*
X291211000Y-108966000D01*
X221813114Y-81597503D02*
X225587668Y-85372057D01*
X221813114Y-78027992D02*
X221813114Y-81597503D01*
G04 #@! TO.N,P10*
X291211000Y-111506000D02*
X285496000Y-111506000D01*
X291846000Y-110871000D02*
X291211000Y-111506000D01*
X211888136Y-87428136D02*
X216159326Y-91699326D01*
X209158836Y-87428136D02*
X211888136Y-87428136D01*
X202982047Y-89182612D02*
X207404360Y-89182612D01*
X216159326Y-91699326D02*
X216159326Y-93217806D01*
X207404360Y-89182612D02*
X209158836Y-87428136D01*
X201696022Y-87896587D02*
X202982047Y-89182612D01*
G04 #@! TO.N,P20*
X291211000Y-96266000D02*
X285496000Y-96266000D01*
X291846000Y-95631000D02*
X291211000Y-96266000D01*
X242762831Y-68756603D02*
X245962831Y-71956603D01*
X242762831Y-64344603D02*
X242762831Y-68756603D01*
G04 #@! TO.N,P21*
X291211000Y-93726000D02*
X285496000Y-93726000D01*
X291846000Y-93091000D02*
X291211000Y-93726000D01*
X260762872Y-71589978D02*
X263962872Y-74789978D01*
X260762872Y-67177978D02*
X260762872Y-71589978D01*
G04 #@! TO.N,P8*
X284861000Y-107696000D02*
X290576000Y-107696000D01*
X284226000Y-108331000D02*
X284861000Y-107696000D01*
G04 #@! TO.N,*
X184041075Y-105085095D02*
X188765598Y-109809618D01*
X184041075Y-103037512D02*
X184041075Y-105085095D01*
G04 #@! TO.N,P9*
X284861000Y-110236000D02*
X290576000Y-110236000D01*
X284226000Y-110871000D02*
X284861000Y-110236000D01*
G04 #@! TO.N,*
X187604563Y-121707472D02*
X192329086Y-126431995D01*
X187604563Y-119659889D02*
X187604563Y-121707472D01*
X188737822Y-120793148D02*
X187604563Y-119659889D01*
D23*
G04 #@! TO.N,RAW*
X293612000Y-117106000D02*
X292862000Y-117856000D01*
X294226000Y-117106000D02*
X293612000Y-117106000D01*
X279260399Y-85016239D02*
X280006637Y-84270001D01*
X279260399Y-111579761D02*
X279260399Y-85016239D01*
X285536638Y-117856000D02*
X279260399Y-111579761D01*
X292862000Y-117856000D02*
X285536638Y-117856000D01*
X291846000Y-82931000D02*
X291222998Y-82931000D01*
X290581999Y-83571999D02*
X291222998Y-82931000D01*
X285490001Y-83571999D02*
X290581999Y-83571999D01*
X284791999Y-84270001D02*
X285490001Y-83571999D01*
X280006637Y-84270001D02*
X284791999Y-84270001D01*
D22*
G04 #@! TO.N,RST*
X291211000Y-88646000D02*
X291846000Y-88011000D01*
X285496000Y-88646000D02*
X291211000Y-88646000D01*
X296672000Y-127938000D02*
X297776000Y-126834000D01*
X291846000Y-87821364D02*
X291846000Y-88011000D01*
X297776000Y-126834000D02*
X298011721Y-126598278D01*
X291846000Y-88200636D02*
X291846000Y-88011000D01*
X297108999Y-89590999D02*
X293236363Y-89590999D01*
X298005569Y-90487569D02*
X297108999Y-89590999D01*
X298011721Y-126598278D02*
X298005569Y-90487569D01*
X293236363Y-89590999D02*
X291846000Y-88200636D01*
D23*
G04 #@! TO.N,VCC*
X290564002Y-91186000D02*
X285496000Y-91186000D01*
X291199002Y-90551000D02*
X290564002Y-91186000D01*
X291846000Y-90551000D02*
X291199002Y-90551000D01*
D22*
G04 #@! TO.N,P2*
X284861000Y-92456000D02*
X290576000Y-92456000D01*
X284226000Y-93091000D02*
X284861000Y-92456000D01*
G04 #@! TO.N,BAT*
X294480000Y-120106000D02*
X292898000Y-120106000D01*
X280674000Y-120106000D02*
X280416000Y-120364000D01*
D23*
X292898000Y-120106000D02*
X280674000Y-120106000D01*
X294226000Y-120106000D02*
X292898000Y-120106000D01*
G04 #@! TD*
M02*
