G04 #@! TF.GenerationSoftware,KiCad,Pcbnew,5.1.10*
G04 #@! TF.CreationDate,2021-11-16T11:23:36-06:00*
G04 #@! TF.ProjectId,a_dux_dux,615f6475-785f-4647-9578-2e6b69636164,VERSION_HERE*
G04 #@! TF.SameCoordinates,Original*
G04 #@! TF.FileFunction,Paste,Bot*
G04 #@! TF.FilePolarity,Positive*
%FSLAX46Y46*%
G04 Gerber Fmt 4.6, Leading zero omitted, Abs format (unit mm)*
G04 Created by KiCad (PCBNEW 5.1.10) date 2021-11-16 11:23:36*
%MOMM*%
%LPD*%
G01*
G04 APERTURE LIST*
%ADD10R,1.700000X0.900000*%
%ADD11R,1.500000X0.700000*%
%ADD12R,0.800000X1.000000*%
%ADD13C,0.100000*%
G04 APERTURE END LIST*
D10*
G04 #@! TO.C,REF\u002A\u002A*
X296672000Y-127938000D03*
X296672000Y-124538000D03*
G04 #@! TD*
D11*
G04 #@! TO.C,REF\u002A\u002A*
X294226000Y-115606000D03*
X294226000Y-118606000D03*
X294226000Y-120106000D03*
D12*
X297086000Y-114206000D03*
X297086000Y-121506000D03*
X294876000Y-121506000D03*
X294876000Y-114206000D03*
G04 #@! TD*
D13*
G04 #@! TO.C,C1*
G36*
X282456000Y-96131000D02*
G01*
X282456000Y-95131000D01*
X283456000Y-95131000D01*
X283456000Y-96131000D01*
X282456000Y-96131000D01*
G37*
G36*
X292616000Y-96131000D02*
G01*
X292616000Y-95131000D01*
X293616000Y-95131000D01*
X293616000Y-96131000D01*
X292616000Y-96131000D01*
G37*
G36*
X283726000Y-83431000D02*
G01*
X283726000Y-82431000D01*
X284726000Y-82431000D01*
X284726000Y-83431000D01*
X283726000Y-83431000D01*
G37*
G36*
X291346000Y-108831000D02*
G01*
X291346000Y-107831000D01*
X292346000Y-107831000D01*
X292346000Y-108831000D01*
X291346000Y-108831000D01*
G37*
G36*
X282456000Y-111371000D02*
G01*
X282456000Y-110371000D01*
X283456000Y-110371000D01*
X283456000Y-111371000D01*
X282456000Y-111371000D01*
G37*
G36*
X282456000Y-98671000D02*
G01*
X282456000Y-97671000D01*
X283456000Y-97671000D01*
X283456000Y-98671000D01*
X282456000Y-98671000D01*
G37*
G36*
X283726000Y-91051000D02*
G01*
X283726000Y-90051000D01*
X284726000Y-90051000D01*
X284726000Y-91051000D01*
X283726000Y-91051000D01*
G37*
G36*
X292616000Y-91051000D02*
G01*
X292616000Y-90051000D01*
X293616000Y-90051000D01*
X293616000Y-91051000D01*
X292616000Y-91051000D01*
G37*
G36*
X292616000Y-103751000D02*
G01*
X292616000Y-102751000D01*
X293616000Y-102751000D01*
X293616000Y-103751000D01*
X292616000Y-103751000D01*
G37*
G36*
X292616000Y-111371000D02*
G01*
X292616000Y-110371000D01*
X293616000Y-110371000D01*
X293616000Y-111371000D01*
X292616000Y-111371000D01*
G37*
G36*
X291346000Y-93591000D02*
G01*
X291346000Y-92591000D01*
X292346000Y-92591000D01*
X292346000Y-93591000D01*
X291346000Y-93591000D01*
G37*
G36*
X283726000Y-108831000D02*
G01*
X283726000Y-107831000D01*
X284726000Y-107831000D01*
X284726000Y-108831000D01*
X283726000Y-108831000D01*
G37*
G36*
X292616000Y-93591000D02*
G01*
X292616000Y-92591000D01*
X293616000Y-92591000D01*
X293616000Y-93591000D01*
X292616000Y-93591000D01*
G37*
G36*
X282456000Y-91051000D02*
G01*
X282456000Y-90051000D01*
X283456000Y-90051000D01*
X283456000Y-91051000D01*
X282456000Y-91051000D01*
G37*
G36*
X282456000Y-88511000D02*
G01*
X282456000Y-87511000D01*
X283456000Y-87511000D01*
X283456000Y-88511000D01*
X282456000Y-88511000D01*
G37*
G36*
X292616000Y-85971000D02*
G01*
X292616000Y-84971000D01*
X293616000Y-84971000D01*
X293616000Y-85971000D01*
X292616000Y-85971000D01*
G37*
G36*
X283726000Y-85971000D02*
G01*
X283726000Y-84971000D01*
X284726000Y-84971000D01*
X284726000Y-85971000D01*
X283726000Y-85971000D01*
G37*
G36*
X292616000Y-88511000D02*
G01*
X292616000Y-87511000D01*
X293616000Y-87511000D01*
X293616000Y-88511000D01*
X292616000Y-88511000D01*
G37*
G36*
X292616000Y-98671000D02*
G01*
X292616000Y-97671000D01*
X293616000Y-97671000D01*
X293616000Y-98671000D01*
X292616000Y-98671000D01*
G37*
G36*
X292616000Y-106291000D02*
G01*
X292616000Y-105291000D01*
X293616000Y-105291000D01*
X293616000Y-106291000D01*
X292616000Y-106291000D01*
G37*
G36*
X283726000Y-98671000D02*
G01*
X283726000Y-97671000D01*
X284726000Y-97671000D01*
X284726000Y-98671000D01*
X283726000Y-98671000D01*
G37*
G36*
X291346000Y-91051000D02*
G01*
X291346000Y-90051000D01*
X292346000Y-90051000D01*
X292346000Y-91051000D01*
X291346000Y-91051000D01*
G37*
G36*
X282456000Y-106291000D02*
G01*
X282456000Y-105291000D01*
X283456000Y-105291000D01*
X283456000Y-106291000D01*
X282456000Y-106291000D01*
G37*
G36*
X291346000Y-111371000D02*
G01*
X291346000Y-110371000D01*
X292346000Y-110371000D01*
X292346000Y-111371000D01*
X291346000Y-111371000D01*
G37*
G36*
X291346000Y-96131000D02*
G01*
X291346000Y-95131000D01*
X292346000Y-95131000D01*
X292346000Y-96131000D01*
X291346000Y-96131000D01*
G37*
G36*
X291346000Y-101211000D02*
G01*
X291346000Y-100211000D01*
X292346000Y-100211000D01*
X292346000Y-101211000D01*
X291346000Y-101211000D01*
G37*
G36*
X292616000Y-101211000D02*
G01*
X292616000Y-100211000D01*
X293616000Y-100211000D01*
X293616000Y-101211000D01*
X292616000Y-101211000D01*
G37*
G36*
X283726000Y-106291000D02*
G01*
X283726000Y-105291000D01*
X284726000Y-105291000D01*
X284726000Y-106291000D01*
X283726000Y-106291000D01*
G37*
G36*
X292616000Y-83431000D02*
G01*
X292616000Y-82431000D01*
X293616000Y-82431000D01*
X293616000Y-83431000D01*
X292616000Y-83431000D01*
G37*
G36*
X291346000Y-103751000D02*
G01*
X291346000Y-102751000D01*
X292346000Y-102751000D01*
X292346000Y-103751000D01*
X291346000Y-103751000D01*
G37*
G36*
X291346000Y-98671000D02*
G01*
X291346000Y-97671000D01*
X292346000Y-97671000D01*
X292346000Y-98671000D01*
X291346000Y-98671000D01*
G37*
G36*
X291346000Y-83431000D02*
G01*
X291346000Y-82431000D01*
X292346000Y-82431000D01*
X292346000Y-83431000D01*
X291346000Y-83431000D01*
G37*
G36*
X283726000Y-111371000D02*
G01*
X283726000Y-110371000D01*
X284726000Y-110371000D01*
X284726000Y-111371000D01*
X283726000Y-111371000D01*
G37*
G36*
X282456000Y-93591000D02*
G01*
X282456000Y-92591000D01*
X283456000Y-92591000D01*
X283456000Y-93591000D01*
X282456000Y-93591000D01*
G37*
G36*
X291346000Y-88511000D02*
G01*
X291346000Y-87511000D01*
X292346000Y-87511000D01*
X292346000Y-88511000D01*
X291346000Y-88511000D01*
G37*
G36*
X291346000Y-106291000D02*
G01*
X291346000Y-105291000D01*
X292346000Y-105291000D01*
X292346000Y-106291000D01*
X291346000Y-106291000D01*
G37*
G36*
X283726000Y-103751000D02*
G01*
X283726000Y-102751000D01*
X284726000Y-102751000D01*
X284726000Y-103751000D01*
X283726000Y-103751000D01*
G37*
G36*
X282456000Y-85971000D02*
G01*
X282456000Y-84971000D01*
X283456000Y-84971000D01*
X283456000Y-85971000D01*
X282456000Y-85971000D01*
G37*
G36*
X282456000Y-83431000D02*
G01*
X282456000Y-82431000D01*
X283456000Y-82431000D01*
X283456000Y-83431000D01*
X282456000Y-83431000D01*
G37*
G36*
X283726000Y-96131000D02*
G01*
X283726000Y-95131000D01*
X284726000Y-95131000D01*
X284726000Y-96131000D01*
X283726000Y-96131000D01*
G37*
G36*
X291346000Y-85971000D02*
G01*
X291346000Y-84971000D01*
X292346000Y-84971000D01*
X292346000Y-85971000D01*
X291346000Y-85971000D01*
G37*
G36*
X282456000Y-108831000D02*
G01*
X282456000Y-107831000D01*
X283456000Y-107831000D01*
X283456000Y-108831000D01*
X282456000Y-108831000D01*
G37*
G36*
X283726000Y-101211000D02*
G01*
X283726000Y-100211000D01*
X284726000Y-100211000D01*
X284726000Y-101211000D01*
X283726000Y-101211000D01*
G37*
G36*
X282456000Y-103751000D02*
G01*
X282456000Y-102751000D01*
X283456000Y-102751000D01*
X283456000Y-103751000D01*
X282456000Y-103751000D01*
G37*
G36*
X282456000Y-101211000D02*
G01*
X282456000Y-100211000D01*
X283456000Y-100211000D01*
X283456000Y-101211000D01*
X282456000Y-101211000D01*
G37*
G36*
X283726000Y-88511000D02*
G01*
X283726000Y-87511000D01*
X284726000Y-87511000D01*
X284726000Y-88511000D01*
X283726000Y-88511000D01*
G37*
G36*
X283726000Y-93591000D02*
G01*
X283726000Y-92591000D01*
X284726000Y-92591000D01*
X284726000Y-93591000D01*
X283726000Y-93591000D01*
G37*
G36*
X292616000Y-108831000D02*
G01*
X292616000Y-107831000D01*
X293616000Y-107831000D01*
X293616000Y-108831000D01*
X292616000Y-108831000D01*
G37*
G04 #@! TD*
M02*
