G04 #@! TF.GenerationSoftware,KiCad,Pcbnew,5.1.10*
G04 #@! TF.CreationDate,2021-11-06T18:09:38-05:00*
G04 #@! TF.ProjectId,a_dux_dux,615f6475-785f-4647-9578-2e6b69636164,VERSION_HERE*
G04 #@! TF.SameCoordinates,Original*
G04 #@! TF.FileFunction,Paste,Top*
G04 #@! TF.FilePolarity,Positive*
%FSLAX46Y46*%
G04 Gerber Fmt 4.6, Leading zero omitted, Abs format (unit mm)*
G04 Created by KiCad (PCBNEW 5.1.10) date 2021-11-06 18:09:38*
%MOMM*%
%LPD*%
G01*
G04 APERTURE LIST*
%ADD10R,0.800000X1.000000*%
%ADD11R,1.500000X0.700000*%
%ADD12C,0.100000*%
%ADD13R,1.700000X0.900000*%
G04 APERTURE END LIST*
D10*
G04 #@! TO.C,REF\u002A\u002A*
X267444000Y-153764000D03*
X267444000Y-146464000D03*
X269654000Y-146464000D03*
X269654000Y-153764000D03*
D11*
X266794000Y-147864000D03*
X266794000Y-149364000D03*
X266794000Y-152364000D03*
G04 #@! TD*
D12*
G04 #@! TO.C,C1*
G36*
X265184000Y-130929000D02*
G01*
X265184000Y-129929000D01*
X266184000Y-129929000D01*
X266184000Y-130929000D01*
X265184000Y-130929000D01*
G37*
G36*
X255024000Y-130929000D02*
G01*
X255024000Y-129929000D01*
X256024000Y-129929000D01*
X256024000Y-130929000D01*
X255024000Y-130929000D01*
G37*
G36*
X263914000Y-130929000D02*
G01*
X263914000Y-129929000D01*
X264914000Y-129929000D01*
X264914000Y-130929000D01*
X263914000Y-130929000D01*
G37*
G36*
X256294000Y-130929000D02*
G01*
X256294000Y-129929000D01*
X257294000Y-129929000D01*
X257294000Y-130929000D01*
X256294000Y-130929000D01*
G37*
G36*
X265184000Y-133469000D02*
G01*
X265184000Y-132469000D01*
X266184000Y-132469000D01*
X266184000Y-133469000D01*
X265184000Y-133469000D01*
G37*
G36*
X255024000Y-133469000D02*
G01*
X255024000Y-132469000D01*
X256024000Y-132469000D01*
X256024000Y-133469000D01*
X255024000Y-133469000D01*
G37*
G36*
X263914000Y-133469000D02*
G01*
X263914000Y-132469000D01*
X264914000Y-132469000D01*
X264914000Y-133469000D01*
X263914000Y-133469000D01*
G37*
G36*
X256294000Y-133469000D02*
G01*
X256294000Y-132469000D01*
X257294000Y-132469000D01*
X257294000Y-133469000D01*
X256294000Y-133469000D01*
G37*
G36*
X265184000Y-136009000D02*
G01*
X265184000Y-135009000D01*
X266184000Y-135009000D01*
X266184000Y-136009000D01*
X265184000Y-136009000D01*
G37*
G36*
X255024000Y-136009000D02*
G01*
X255024000Y-135009000D01*
X256024000Y-135009000D01*
X256024000Y-136009000D01*
X255024000Y-136009000D01*
G37*
G36*
X263914000Y-136009000D02*
G01*
X263914000Y-135009000D01*
X264914000Y-135009000D01*
X264914000Y-136009000D01*
X263914000Y-136009000D01*
G37*
G36*
X256294000Y-136009000D02*
G01*
X256294000Y-135009000D01*
X257294000Y-135009000D01*
X257294000Y-136009000D01*
X256294000Y-136009000D01*
G37*
G36*
X265184000Y-138549000D02*
G01*
X265184000Y-137549000D01*
X266184000Y-137549000D01*
X266184000Y-138549000D01*
X265184000Y-138549000D01*
G37*
G36*
X255024000Y-138549000D02*
G01*
X255024000Y-137549000D01*
X256024000Y-137549000D01*
X256024000Y-138549000D01*
X255024000Y-138549000D01*
G37*
G36*
X263914000Y-138549000D02*
G01*
X263914000Y-137549000D01*
X264914000Y-137549000D01*
X264914000Y-138549000D01*
X263914000Y-138549000D01*
G37*
G36*
X256294000Y-138549000D02*
G01*
X256294000Y-137549000D01*
X257294000Y-137549000D01*
X257294000Y-138549000D01*
X256294000Y-138549000D01*
G37*
G36*
X265184000Y-141089000D02*
G01*
X265184000Y-140089000D01*
X266184000Y-140089000D01*
X266184000Y-141089000D01*
X265184000Y-141089000D01*
G37*
G36*
X255024000Y-141089000D02*
G01*
X255024000Y-140089000D01*
X256024000Y-140089000D01*
X256024000Y-141089000D01*
X255024000Y-141089000D01*
G37*
G36*
X263914000Y-141089000D02*
G01*
X263914000Y-140089000D01*
X264914000Y-140089000D01*
X264914000Y-141089000D01*
X263914000Y-141089000D01*
G37*
G36*
X256294000Y-141089000D02*
G01*
X256294000Y-140089000D01*
X257294000Y-140089000D01*
X257294000Y-141089000D01*
X256294000Y-141089000D01*
G37*
G36*
X265184000Y-143629000D02*
G01*
X265184000Y-142629000D01*
X266184000Y-142629000D01*
X266184000Y-143629000D01*
X265184000Y-143629000D01*
G37*
G36*
X255024000Y-143629000D02*
G01*
X255024000Y-142629000D01*
X256024000Y-142629000D01*
X256024000Y-143629000D01*
X255024000Y-143629000D01*
G37*
G36*
X263914000Y-143629000D02*
G01*
X263914000Y-142629000D01*
X264914000Y-142629000D01*
X264914000Y-143629000D01*
X263914000Y-143629000D01*
G37*
G36*
X256294000Y-143629000D02*
G01*
X256294000Y-142629000D01*
X257294000Y-142629000D01*
X257294000Y-143629000D01*
X256294000Y-143629000D01*
G37*
G36*
X265184000Y-128389000D02*
G01*
X265184000Y-127389000D01*
X266184000Y-127389000D01*
X266184000Y-128389000D01*
X265184000Y-128389000D01*
G37*
G36*
X255024000Y-128389000D02*
G01*
X255024000Y-127389000D01*
X256024000Y-127389000D01*
X256024000Y-128389000D01*
X255024000Y-128389000D01*
G37*
G36*
X263914000Y-128389000D02*
G01*
X263914000Y-127389000D01*
X264914000Y-127389000D01*
X264914000Y-128389000D01*
X263914000Y-128389000D01*
G37*
G36*
X256294000Y-128389000D02*
G01*
X256294000Y-127389000D01*
X257294000Y-127389000D01*
X257294000Y-128389000D01*
X256294000Y-128389000D01*
G37*
G36*
X265184000Y-125849000D02*
G01*
X265184000Y-124849000D01*
X266184000Y-124849000D01*
X266184000Y-125849000D01*
X265184000Y-125849000D01*
G37*
G36*
X255024000Y-125849000D02*
G01*
X255024000Y-124849000D01*
X256024000Y-124849000D01*
X256024000Y-125849000D01*
X255024000Y-125849000D01*
G37*
G36*
X263914000Y-125849000D02*
G01*
X263914000Y-124849000D01*
X264914000Y-124849000D01*
X264914000Y-125849000D01*
X263914000Y-125849000D01*
G37*
G36*
X256294000Y-125849000D02*
G01*
X256294000Y-124849000D01*
X257294000Y-124849000D01*
X257294000Y-125849000D01*
X256294000Y-125849000D01*
G37*
G36*
X265184000Y-123309000D02*
G01*
X265184000Y-122309000D01*
X266184000Y-122309000D01*
X266184000Y-123309000D01*
X265184000Y-123309000D01*
G37*
G36*
X255024000Y-123309000D02*
G01*
X255024000Y-122309000D01*
X256024000Y-122309000D01*
X256024000Y-123309000D01*
X255024000Y-123309000D01*
G37*
G36*
X263914000Y-123309000D02*
G01*
X263914000Y-122309000D01*
X264914000Y-122309000D01*
X264914000Y-123309000D01*
X263914000Y-123309000D01*
G37*
G36*
X256294000Y-123309000D02*
G01*
X256294000Y-122309000D01*
X257294000Y-122309000D01*
X257294000Y-123309000D01*
X256294000Y-123309000D01*
G37*
G36*
X265184000Y-120769000D02*
G01*
X265184000Y-119769000D01*
X266184000Y-119769000D01*
X266184000Y-120769000D01*
X265184000Y-120769000D01*
G37*
G36*
X255024000Y-120769000D02*
G01*
X255024000Y-119769000D01*
X256024000Y-119769000D01*
X256024000Y-120769000D01*
X255024000Y-120769000D01*
G37*
G36*
X263914000Y-120769000D02*
G01*
X263914000Y-119769000D01*
X264914000Y-119769000D01*
X264914000Y-120769000D01*
X263914000Y-120769000D01*
G37*
G36*
X256294000Y-120769000D02*
G01*
X256294000Y-119769000D01*
X257294000Y-119769000D01*
X257294000Y-120769000D01*
X256294000Y-120769000D01*
G37*
G36*
X265184000Y-118229000D02*
G01*
X265184000Y-117229000D01*
X266184000Y-117229000D01*
X266184000Y-118229000D01*
X265184000Y-118229000D01*
G37*
G36*
X255024000Y-118229000D02*
G01*
X255024000Y-117229000D01*
X256024000Y-117229000D01*
X256024000Y-118229000D01*
X255024000Y-118229000D01*
G37*
G36*
X263914000Y-118229000D02*
G01*
X263914000Y-117229000D01*
X264914000Y-117229000D01*
X264914000Y-118229000D01*
X263914000Y-118229000D01*
G37*
G36*
X256294000Y-118229000D02*
G01*
X256294000Y-117229000D01*
X257294000Y-117229000D01*
X257294000Y-118229000D01*
X256294000Y-118229000D01*
G37*
G36*
X263914000Y-115689000D02*
G01*
X263914000Y-114689000D01*
X264914000Y-114689000D01*
X264914000Y-115689000D01*
X263914000Y-115689000D01*
G37*
G36*
X265184000Y-115689000D02*
G01*
X265184000Y-114689000D01*
X266184000Y-114689000D01*
X266184000Y-115689000D01*
X265184000Y-115689000D01*
G37*
G36*
X256294000Y-115689000D02*
G01*
X256294000Y-114689000D01*
X257294000Y-114689000D01*
X257294000Y-115689000D01*
X256294000Y-115689000D01*
G37*
G36*
X255024000Y-115689000D02*
G01*
X255024000Y-114689000D01*
X256024000Y-114689000D01*
X256024000Y-115689000D01*
X255024000Y-115689000D01*
G37*
G04 #@! TD*
D13*
G04 #@! TO.C,REF\u002A\u002A*
X269240000Y-160196000D03*
X269240000Y-156796000D03*
G04 #@! TD*
M02*
