M48
; DRILL file {KiCad 5.1.10} date Sat Nov  6 18:09:34 2021
; FORMAT={-:-/ absolute / metric / decimal}
; #@! TF.CreationDate,2021-11-06T18:09:34-05:00
; #@! TF.GenerationSoftware,Kicad,Pcbnew,5.1.10
; #@! TF.FileFunction,Plated,1,2,PTH
FMAT,2
METRIC
T1C0.400
T2C0.800
T3C0.813
T4C1.270
%
G90
G05
T1
X258.058Y-115.83
X258.064Y-118.364
X258.064Y-120.904
X258.064Y-123.444
X258.064Y-125.984
X258.064Y-128.524
X258.064Y-131.064
X258.064Y-133.604
X258.064Y-136.144
X258.064Y-138.684
X258.064Y-141.224
X258.064Y-143.764
X263.064Y-114.339
X263.08Y-117.157
X263.144Y-119.634
X263.144Y-122.174
X263.144Y-124.714
X263.144Y-127.254
X263.144Y-129.794
X263.144Y-132.334
X263.144Y-134.874
X263.144Y-137.414
X263.144Y-139.954
X263.144Y-142.494
X265.43Y-150.114
X265.466Y-152.364
X268.136Y-157.9
X270.344Y-159.092
T2
X252.984Y-150.622
X252.984Y-152.622
T3
X253.04Y-115.316
X253.04Y-117.856
X253.04Y-120.396
X253.04Y-122.936
X253.04Y-125.476
X253.04Y-128.016
X253.04Y-130.556
X253.04Y-133.096
X253.04Y-135.636
X253.04Y-138.176
X253.04Y-140.716
X253.04Y-143.256
X268.26Y-115.316
X268.26Y-117.856
X268.26Y-120.396
X268.26Y-122.936
X268.26Y-125.476
X268.26Y-128.016
X268.26Y-130.556
X268.26Y-133.096
X268.26Y-135.636
X268.26Y-138.176
X268.26Y-140.716
X268.26Y-143.256
T4
X157.847Y-125.327
X161.41Y-141.949
X163.176Y-126.332
X163.176Y-126.332
X164.974Y-158.571
X166.74Y-142.954
X166.74Y-142.954
X167.625Y-123.23
X170.303Y-159.577
X170.303Y-159.577
X171.188Y-139.853
X174.752Y-156.475
X175.97Y-110.255
X178.747Y-127.027
X181.246Y-111.51
X181.246Y-111.51
X181.523Y-143.798
X184.022Y-128.282
X184.022Y-128.282
X185.836Y-108.622
X186.799Y-145.054
X186.799Y-145.054
X188.612Y-125.393
X191.389Y-142.165
X196.943Y-100.573
X198.248Y-117.523
X199.552Y-134.473
X202.09Y-102.283
X202.09Y-102.283
X203.394Y-119.233
X203.394Y-119.233
X204.698Y-136.183
X204.698Y-136.183
X206.914Y-99.806
X208.218Y-116.755
X209.522Y-133.705
X218.517Y-158.372
X218.631Y-104.115
X218.631Y-138.115
X218.631Y-121.115
X222.757Y-161.754
X222.757Y-161.754
X223.631Y-106.215
X223.631Y-106.215
X223.631Y-140.215
X223.631Y-140.215
X223.631Y-123.215
X223.631Y-123.215
X228.139Y-161.095
X228.631Y-104.115
X228.631Y-138.115
X228.631Y-121.115
X235.781Y-163.258
X236.631Y-123.948
X236.631Y-140.948
X236.631Y-106.948
X240.02Y-166.64
X240.02Y-166.64
X241.631Y-126.048
X241.631Y-126.048
X241.631Y-143.048
X241.631Y-143.048
X241.631Y-109.048
X241.631Y-109.048
X245.403Y-165.981
X246.631Y-123.948
X246.631Y-140.948
X246.631Y-106.948
X253.899Y-169.178
X257.543Y-173.195
X257.543Y-173.195
X262.963Y-173.404
T0
M30
