G04 #@! TF.GenerationSoftware,KiCad,Pcbnew,5.1.10*
G04 #@! TF.CreationDate,2021-11-06T18:09:38-05:00*
G04 #@! TF.ProjectId,a_dux_dux,615f6475-785f-4647-9578-2e6b69636164,VERSION_HERE*
G04 #@! TF.SameCoordinates,Original*
G04 #@! TF.FileFunction,Profile,NP*
%FSLAX46Y46*%
G04 Gerber Fmt 4.6, Leading zero omitted, Abs format (unit mm)*
G04 Created by KiCad (PCBNEW 5.1.10) date 2021-11-06 18:09:38*
%MOMM*%
%LPD*%
G01*
G04 APERTURE LIST*
G04 #@! TA.AperFunction,Profile*
%ADD10C,0.150000*%
G04 #@! TD*
G04 APERTURE END LIST*
D10*
X270995914Y-165543883D02*
G75*
G02*
X270760051Y-167330628I-2954785J-518888D01*
G01*
X270760052Y-167330627D02*
X266533870Y-176393703D01*
X266533870Y-176393705D02*
G75*
G02*
X264841007Y-177944929I-2718924J1267855D01*
G01*
X264840278Y-177945192D02*
X264177272Y-178186508D01*
X264176545Y-178186774D02*
G75*
G02*
X261882628Y-178086619I-1026061J2819080D01*
G01*
X248288011Y-171747343D02*
X261882628Y-178086619D01*
X151336272Y-117641143D02*
G75*
G02*
X151336272Y-117641143I978149J207912D01*
G01*
X171124000Y-108980000D02*
G75*
G02*
X170332521Y-109993042I-999388J-34897D01*
G01*
X191922087Y-94113273D02*
G75*
G02*
X191099540Y-95185235I-996194J-87155D01*
G01*
X211709892Y-91814651D02*
G75*
G02*
X210713698Y-90901806I1J1000000D01*
G01*
X233767078Y-94647984D02*
G75*
G02*
X232858020Y-94064651I0J999999D01*
G01*
X252130839Y-111139982D02*
G75*
G02*
X251130842Y-110139983I1J999998D01*
G01*
X269892182Y-111132534D02*
G75*
G02*
X270971769Y-112129363I79587J-996828D01*
G01*
X270995913Y-165543881D02*
G75*
G02*
X270980841Y-165370918I984927J172963D01*
G01*
X248124211Y-171687725D02*
G75*
G02*
X248288011Y-171747343I-258819J-965927D01*
G01*
X178799559Y-153418972D02*
G75*
G02*
X179986000Y-152300000I933710J198466D01*
G01*
X164635594Y-163375464D02*
G75*
G02*
X164635594Y-163375464I-207911J978150D01*
G01*
X176773365Y-160780521D02*
X164635594Y-163375464D01*
X164635593Y-163375460D02*
G75*
G02*
X162377943Y-162957030I-623735J2934440D01*
G01*
X151336271Y-117641142D02*
G75*
G02*
X151754704Y-115383489I2934444J623733D01*
G01*
X151755125Y-115382842D02*
X152139399Y-114791113D01*
X152139824Y-114790462D02*
G75*
G02*
X154032098Y-113489937I2516009J-1633915D01*
G01*
X154032098Y-113489937D02*
X170332521Y-109993042D01*
X170082949Y-102445020D02*
X171124000Y-108980000D01*
X170082951Y-102445018D02*
G75*
G02*
X170579917Y-100203345I2954422J520945D01*
G01*
X170580359Y-100202710D02*
X170985050Y-99624751D01*
X170985498Y-99624115D02*
G75*
G02*
X172922010Y-98390424I2457453J-1720732D01*
G01*
X172922010Y-98390424D02*
X191099540Y-95185235D01*
X191922087Y-94113270D02*
X191760121Y-92261997D01*
X191760122Y-92261994D02*
G75*
G02*
X192450575Y-90072165I2988584J261464D01*
G01*
X192451070Y-90071572D02*
X192904594Y-89531085D01*
X192905092Y-89530491D02*
G75*
G02*
X194941758Y-88470270I2298133J-1928363D01*
G01*
X194941758Y-88470270D02*
X206896096Y-87424401D01*
X206896095Y-87424402D02*
G75*
G02*
X209085926Y-88114852I261468J-2988585D01*
G01*
X209086518Y-88115350D02*
X209627010Y-88568874D01*
X209627598Y-88569372D02*
G75*
G02*
X210687821Y-90606037I-1928361J-2298134D01*
G01*
X210687821Y-90606037D02*
X210713698Y-90901806D01*
X211709891Y-91814652D02*
X229630842Y-91814654D01*
X229630842Y-91814654D02*
G75*
G02*
X231752161Y-92693332I1J-2999998D01*
G01*
X231752711Y-92693876D02*
X232251615Y-93192782D01*
X232252162Y-93193331D02*
G75*
G02*
X232858020Y-94064651I-2121321J-2121319D01*
G01*
X270980841Y-165370918D02*
X270971769Y-112129363D01*
X252130841Y-111139986D02*
X269892483Y-111136300D01*
X233767079Y-94647984D02*
X247630841Y-94647984D01*
X247630840Y-94647983D02*
G75*
G02*
X249752160Y-95526663I0J-3000000D01*
G01*
X249752707Y-95527213D02*
X250251614Y-96026115D01*
X250252163Y-96026665D02*
G75*
G02*
X251130841Y-98147984I-2121320J-2121318D01*
G01*
X251130842Y-110139983D02*
X251130841Y-98147984D01*
X179986000Y-152300000D02*
X248124213Y-171687725D01*
X178665640Y-159479996D02*
G75*
G02*
X176773365Y-160780521I-2516010J1633916D01*
G01*
X179050337Y-158887616D02*
X178666064Y-159479347D01*
X178799558Y-153418972D02*
X179469190Y-156629315D01*
X179469189Y-156629313D02*
G75*
G02*
X179050759Y-158886967I-2934444J-623737D01*
G01*
X151336272Y-117641143D02*
X160484387Y-160679637D01*
X162377290Y-162956611D02*
X161785561Y-162572336D01*
X161784912Y-162571913D02*
G75*
G02*
X160484387Y-160679637I1633917J2516010D01*
G01*
M02*
