M48
; DRILL file {KiCad 5.1.10} date Sat Nov  6 18:09:34 2021
; FORMAT={-:-/ absolute / metric / decimal}
; #@! TF.CreationDate,2021-11-06T18:09:34-05:00
; #@! TF.GenerationSoftware,Kicad,Pcbnew,5.1.10
; #@! TF.FileFunction,NonPlated,1,2,NPTH
FMAT,2
METRIC
T1C0.800
T2C0.900
T3C1.702
T4C3.429
%
G90
G05
T1
X269.24Y-158.496
X269.24Y-158.496
T2
X268.554Y-148.614
X268.554Y-148.614
X268.554Y-151.614
X268.554Y-151.614
T3
X156.561Y-121.716
X160.125Y-138.338
X163.688Y-154.96
X167.317Y-119.41
X170.881Y-136.032
X174.444Y-152.655
X174.856Y-106.588
X177.633Y-123.359
X180.409Y-140.131
X185.708Y-104.791
X188.485Y-121.563
X191.262Y-138.335
X196.153Y-96.822
X197.458Y-113.772
X198.762Y-130.722
X207.121Y-95.978
X208.425Y-112.928
X209.729Y-129.878
X218.131Y-100.315
X218.131Y-134.315
X218.131Y-117.315
X219.071Y-154.579
X229.131Y-100.315
X229.131Y-134.315
X229.131Y-117.315
X229.655Y-157.574
X236.131Y-120.148
X236.131Y-137.148
X236.131Y-103.148
X236.334Y-159.466
X246.919Y-162.461
X247.131Y-120.148
X247.131Y-137.148
X247.131Y-103.148
X255.052Y-165.523
X265.022Y-170.172
T4
X161.939Y-120.563
X165.503Y-137.185
X169.066Y-153.808
X180.282Y-105.689
X183.059Y-122.461
X185.835Y-139.233
X201.637Y-96.4
X202.941Y-113.35
X204.246Y-130.3
X223.631Y-100.315
X223.631Y-134.315
X223.631Y-117.315
X224.363Y-156.077
X241.627Y-160.963
X241.631Y-120.148
X241.631Y-137.148
X241.631Y-103.148
X260.037Y-167.847
T0
M30
