G04 #@! TF.GenerationSoftware,KiCad,Pcbnew,5.1.10*
G04 #@! TF.CreationDate,2021-11-06T18:09:38-05:00*
G04 #@! TF.ProjectId,a_dux_dux,615f6475-785f-4647-9578-2e6b69636164,VERSION_HERE*
G04 #@! TF.SameCoordinates,Original*
G04 #@! TF.FileFunction,Soldermask,Top*
G04 #@! TF.FilePolarity,Negative*
%FSLAX46Y46*%
G04 Gerber Fmt 4.6, Leading zero omitted, Abs format (unit mm)*
G04 Created by KiCad (PCBNEW 5.1.10) date 2021-11-06 18:09:38*
%MOMM*%
%LPD*%
G01*
G04 APERTURE LIST*
%ADD10C,3.529000*%
%ADD11C,1.801800*%
%ADD12C,2.132000*%
%ADD13C,0.900000*%
%ADD14C,1.000000*%
%ADD15O,1.450000X1.450000*%
%ADD16C,0.100000*%
%ADD17C,1.624000*%
G04 APERTURE END LIST*
D10*
G04 #@! TO.C,S8*
X185835430Y-139232850D03*
D11*
X180409283Y-140131143D03*
X191261577Y-138334557D03*
D12*
X181523208Y-143798454D03*
X186799053Y-145053626D03*
X191388929Y-142165194D03*
X186799053Y-145053626D03*
G04 #@! TD*
D10*
G04 #@! TO.C,S2*
X169066268Y-153807586D03*
D11*
X163688460Y-154960488D03*
X174444076Y-152654684D03*
D12*
X164973902Y-158571255D03*
X170303018Y-159576507D03*
X174751735Y-156475069D03*
X170303018Y-159576507D03*
G04 #@! TD*
D10*
G04 #@! TO.C,S12*
X180282344Y-105689416D03*
D11*
X174856197Y-106587709D03*
X185708491Y-104791123D03*
D12*
X175970122Y-110255020D03*
X181245967Y-111510192D03*
X185835843Y-108621760D03*
X181245967Y-111510192D03*
G04 #@! TD*
D10*
G04 #@! TO.C,S14*
X204245657Y-130300181D03*
D11*
X198761867Y-130722136D03*
X209729447Y-129878226D03*
D12*
X199551926Y-134472577D03*
X204698299Y-136182792D03*
X209522453Y-133705386D03*
X204698299Y-136182792D03*
G04 #@! TD*
D10*
G04 #@! TO.C,S10*
X183058837Y-122461137D03*
D11*
X177632690Y-123359430D03*
X188484984Y-121562844D03*
D12*
X178746615Y-127026741D03*
X184022460Y-128281913D03*
X188612336Y-125393481D03*
X184022460Y-128281913D03*
G04 #@! TD*
D10*
G04 #@! TO.C,S30*
X241630872Y-103147978D03*
D11*
X236130872Y-103147978D03*
X247130872Y-103147978D03*
D12*
X236630872Y-106947978D03*
X241630872Y-109047978D03*
X246630872Y-106947978D03*
X241630872Y-109047978D03*
G04 #@! TD*
D10*
G04 #@! TO.C,S6*
X161939186Y-120562929D03*
D11*
X156561378Y-121715831D03*
X167316994Y-119410027D03*
D12*
X157846820Y-125326598D03*
X163175936Y-126331850D03*
X167624653Y-123230412D03*
X163175936Y-126331850D03*
G04 #@! TD*
D10*
G04 #@! TO.C,S22*
X223630885Y-117314688D03*
D11*
X218130885Y-117314688D03*
X229130885Y-117314688D03*
D12*
X218630885Y-121114688D03*
X223630885Y-123214688D03*
X228630885Y-121114688D03*
X223630885Y-123214688D03*
G04 #@! TD*
D10*
G04 #@! TO.C,S20*
X223630832Y-134314684D03*
D11*
X218130832Y-134314684D03*
X229130832Y-134314684D03*
D12*
X218630832Y-138114684D03*
X223630832Y-140214684D03*
X228630832Y-138114684D03*
X223630832Y-140214684D03*
G04 #@! TD*
D10*
G04 #@! TO.C,S26*
X241630864Y-137147959D03*
D11*
X236130864Y-137147959D03*
X247130864Y-137147959D03*
D12*
X236630864Y-140947959D03*
X241630864Y-143047959D03*
X246630864Y-140947959D03*
X241630864Y-143047959D03*
G04 #@! TD*
D10*
G04 #@! TO.C,S18*
X201637211Y-96400389D03*
D11*
X196153421Y-96822344D03*
X207121001Y-95978434D03*
D12*
X196943480Y-100572785D03*
X202089853Y-102283000D03*
X206914007Y-99805594D03*
X202089853Y-102283000D03*
G04 #@! TD*
D10*
G04 #@! TO.C,S24*
X223630831Y-100314603D03*
D11*
X218130831Y-100314603D03*
X229130831Y-100314603D03*
D12*
X218630831Y-104114603D03*
X223630831Y-106214603D03*
X228630831Y-104114603D03*
X223630831Y-106214603D03*
G04 #@! TD*
G04 #@! TO.C,S32*
X240020101Y-166640148D03*
X245402979Y-165980892D03*
X240020101Y-166640148D03*
X235780799Y-163258088D03*
D11*
X246918753Y-162460603D03*
X236334355Y-159465521D03*
D10*
X241626554Y-160963062D03*
G04 #@! TD*
G04 #@! TO.C,S28*
X241630818Y-120147972D03*
D11*
X236130818Y-120147972D03*
X247130818Y-120147972D03*
D12*
X236630818Y-123947972D03*
X241630818Y-126047972D03*
X246630818Y-123947972D03*
X241630818Y-126047972D03*
G04 #@! TD*
G04 #@! TO.C,S34*
X257543480Y-173194500D03*
X262962518Y-173404345D03*
X257543480Y-173194500D03*
X253899440Y-169178162D03*
D11*
X265021621Y-170171684D03*
X255052235Y-165522884D03*
D10*
X260036928Y-167847284D03*
G04 #@! TD*
G04 #@! TO.C,S16*
X202941433Y-113350284D03*
D11*
X197457643Y-113772239D03*
X208425223Y-112928329D03*
D12*
X198247702Y-117522680D03*
X203394075Y-119232895D03*
X208218229Y-116755489D03*
X203394075Y-119232895D03*
G04 #@! TD*
D10*
G04 #@! TO.C,S4*
X165502780Y-137185209D03*
D11*
X160124972Y-138338111D03*
X170880588Y-136032307D03*
D12*
X161410414Y-141948878D03*
X166739530Y-142954130D03*
X171188247Y-139852692D03*
X166739530Y-142954130D03*
G04 #@! TD*
D10*
G04 #@! TO.C,S32*
X224363056Y-156076924D03*
D11*
X219070857Y-154579383D03*
X229655255Y-157574465D03*
D12*
X218517301Y-158371950D03*
X222756603Y-161754010D03*
X228139481Y-161094754D03*
X222756603Y-161754010D03*
G04 #@! TD*
D13*
G04 #@! TO.C,REF\u002A\u002A*
X269240000Y-158496000D03*
G04 #@! TD*
D14*
G04 #@! TO.C,REF\u002A\u002A*
X268554000Y-148614000D03*
X268554000Y-151614000D03*
G04 #@! TD*
D15*
G04 #@! TO.C,REF\u002A\u002A*
X252984000Y-152622000D03*
G36*
G01*
X252259000Y-151297000D02*
X252259000Y-149947000D01*
G75*
G02*
X252309000Y-149897000I50000J0D01*
G01*
X253659000Y-149897000D01*
G75*
G02*
X253709000Y-149947000I0J-50000D01*
G01*
X253709000Y-151297000D01*
G75*
G02*
X253659000Y-151347000I-50000J0D01*
G01*
X252309000Y-151347000D01*
G75*
G02*
X252259000Y-151297000I0J50000D01*
G01*
G37*
G04 #@! TD*
G04 #@! TO.C,REF\u002A\u002A*
G36*
G01*
X267844000Y-154314000D02*
X267044000Y-154314000D01*
G75*
G02*
X266994000Y-154264000I0J50000D01*
G01*
X266994000Y-153264000D01*
G75*
G02*
X267044000Y-153214000I50000J0D01*
G01*
X267844000Y-153214000D01*
G75*
G02*
X267894000Y-153264000I0J-50000D01*
G01*
X267894000Y-154264000D01*
G75*
G02*
X267844000Y-154314000I-50000J0D01*
G01*
G37*
G36*
G01*
X267844000Y-147014000D02*
X267044000Y-147014000D01*
G75*
G02*
X266994000Y-146964000I0J50000D01*
G01*
X266994000Y-145964000D01*
G75*
G02*
X267044000Y-145914000I50000J0D01*
G01*
X267844000Y-145914000D01*
G75*
G02*
X267894000Y-145964000I0J-50000D01*
G01*
X267894000Y-146964000D01*
G75*
G02*
X267844000Y-147014000I-50000J0D01*
G01*
G37*
G36*
G01*
X270054000Y-147014000D02*
X269254000Y-147014000D01*
G75*
G02*
X269204000Y-146964000I0J50000D01*
G01*
X269204000Y-145964000D01*
G75*
G02*
X269254000Y-145914000I50000J0D01*
G01*
X270054000Y-145914000D01*
G75*
G02*
X270104000Y-145964000I0J-50000D01*
G01*
X270104000Y-146964000D01*
G75*
G02*
X270054000Y-147014000I-50000J0D01*
G01*
G37*
G36*
G01*
X270054000Y-154314000D02*
X269254000Y-154314000D01*
G75*
G02*
X269204000Y-154264000I0J50000D01*
G01*
X269204000Y-153264000D01*
G75*
G02*
X269254000Y-153214000I50000J0D01*
G01*
X270054000Y-153214000D01*
G75*
G02*
X270104000Y-153264000I0J-50000D01*
G01*
X270104000Y-154264000D01*
G75*
G02*
X270054000Y-154314000I-50000J0D01*
G01*
G37*
G36*
G01*
X267544000Y-148264000D02*
X266044000Y-148264000D01*
G75*
G02*
X265994000Y-148214000I0J50000D01*
G01*
X265994000Y-147514000D01*
G75*
G02*
X266044000Y-147464000I50000J0D01*
G01*
X267544000Y-147464000D01*
G75*
G02*
X267594000Y-147514000I0J-50000D01*
G01*
X267594000Y-148214000D01*
G75*
G02*
X267544000Y-148264000I-50000J0D01*
G01*
G37*
G36*
G01*
X267544000Y-149764000D02*
X266044000Y-149764000D01*
G75*
G02*
X265994000Y-149714000I0J50000D01*
G01*
X265994000Y-149014000D01*
G75*
G02*
X266044000Y-148964000I50000J0D01*
G01*
X267544000Y-148964000D01*
G75*
G02*
X267594000Y-149014000I0J-50000D01*
G01*
X267594000Y-149714000D01*
G75*
G02*
X267544000Y-149764000I-50000J0D01*
G01*
G37*
G36*
G01*
X267544000Y-152764000D02*
X266044000Y-152764000D01*
G75*
G02*
X265994000Y-152714000I0J50000D01*
G01*
X265994000Y-152014000D01*
G75*
G02*
X266044000Y-151964000I50000J0D01*
G01*
X267544000Y-151964000D01*
G75*
G02*
X267594000Y-152014000I0J-50000D01*
G01*
X267594000Y-152714000D01*
G75*
G02*
X267544000Y-152764000I-50000J0D01*
G01*
G37*
D14*
X268554000Y-148614000D03*
X268554000Y-151614000D03*
G04 #@! TD*
D16*
G04 #@! TO.C,C1*
G36*
X254974000Y-128439000D02*
G01*
X254974000Y-127339000D01*
X256074000Y-127339000D01*
X256074000Y-128439000D01*
X254974000Y-128439000D01*
G37*
G36*
X265134000Y-128439000D02*
G01*
X265134000Y-127339000D01*
X266234000Y-127339000D01*
X266234000Y-128439000D01*
X265134000Y-128439000D01*
G37*
G36*
X256244000Y-115739000D02*
G01*
X256244000Y-114639000D01*
X257344000Y-114639000D01*
X257344000Y-115739000D01*
X256244000Y-115739000D01*
G37*
G36*
X263864000Y-141139000D02*
G01*
X263864000Y-140039000D01*
X264964000Y-140039000D01*
X264964000Y-141139000D01*
X263864000Y-141139000D01*
G37*
G36*
X254974000Y-143679000D02*
G01*
X254974000Y-142579000D01*
X256074000Y-142579000D01*
X256074000Y-143679000D01*
X254974000Y-143679000D01*
G37*
G36*
X254974000Y-130979000D02*
G01*
X254974000Y-129879000D01*
X256074000Y-129879000D01*
X256074000Y-130979000D01*
X254974000Y-130979000D01*
G37*
G36*
X256244000Y-123359000D02*
G01*
X256244000Y-122259000D01*
X257344000Y-122259000D01*
X257344000Y-123359000D01*
X256244000Y-123359000D01*
G37*
G36*
X265134000Y-123359000D02*
G01*
X265134000Y-122259000D01*
X266234000Y-122259000D01*
X266234000Y-123359000D01*
X265134000Y-123359000D01*
G37*
G36*
X265134000Y-136059000D02*
G01*
X265134000Y-134959000D01*
X266234000Y-134959000D01*
X266234000Y-136059000D01*
X265134000Y-136059000D01*
G37*
G36*
X265134000Y-143679000D02*
G01*
X265134000Y-142579000D01*
X266234000Y-142579000D01*
X266234000Y-143679000D01*
X265134000Y-143679000D01*
G37*
G36*
X263864000Y-125899000D02*
G01*
X263864000Y-124799000D01*
X264964000Y-124799000D01*
X264964000Y-125899000D01*
X263864000Y-125899000D01*
G37*
G36*
X256244000Y-141139000D02*
G01*
X256244000Y-140039000D01*
X257344000Y-140039000D01*
X257344000Y-141139000D01*
X256244000Y-141139000D01*
G37*
G36*
X265134000Y-125899000D02*
G01*
X265134000Y-124799000D01*
X266234000Y-124799000D01*
X266234000Y-125899000D01*
X265134000Y-125899000D01*
G37*
G36*
X254974000Y-123359000D02*
G01*
X254974000Y-122259000D01*
X256074000Y-122259000D01*
X256074000Y-123359000D01*
X254974000Y-123359000D01*
G37*
G36*
X254974000Y-120819000D02*
G01*
X254974000Y-119719000D01*
X256074000Y-119719000D01*
X256074000Y-120819000D01*
X254974000Y-120819000D01*
G37*
G36*
X265134000Y-118279000D02*
G01*
X265134000Y-117179000D01*
X266234000Y-117179000D01*
X266234000Y-118279000D01*
X265134000Y-118279000D01*
G37*
G36*
X256244000Y-118279000D02*
G01*
X256244000Y-117179000D01*
X257344000Y-117179000D01*
X257344000Y-118279000D01*
X256244000Y-118279000D01*
G37*
G36*
X265134000Y-120819000D02*
G01*
X265134000Y-119719000D01*
X266234000Y-119719000D01*
X266234000Y-120819000D01*
X265134000Y-120819000D01*
G37*
G36*
X265134000Y-130979000D02*
G01*
X265134000Y-129879000D01*
X266234000Y-129879000D01*
X266234000Y-130979000D01*
X265134000Y-130979000D01*
G37*
G36*
X265134000Y-138599000D02*
G01*
X265134000Y-137499000D01*
X266234000Y-137499000D01*
X266234000Y-138599000D01*
X265134000Y-138599000D01*
G37*
G36*
X256244000Y-130979000D02*
G01*
X256244000Y-129879000D01*
X257344000Y-129879000D01*
X257344000Y-130979000D01*
X256244000Y-130979000D01*
G37*
G36*
X263864000Y-123359000D02*
G01*
X263864000Y-122259000D01*
X264964000Y-122259000D01*
X264964000Y-123359000D01*
X263864000Y-123359000D01*
G37*
G36*
X254974000Y-138599000D02*
G01*
X254974000Y-137499000D01*
X256074000Y-137499000D01*
X256074000Y-138599000D01*
X254974000Y-138599000D01*
G37*
G36*
X263864000Y-143679000D02*
G01*
X263864000Y-142579000D01*
X264964000Y-142579000D01*
X264964000Y-143679000D01*
X263864000Y-143679000D01*
G37*
G36*
X263864000Y-128439000D02*
G01*
X263864000Y-127339000D01*
X264964000Y-127339000D01*
X264964000Y-128439000D01*
X263864000Y-128439000D01*
G37*
G36*
X263864000Y-133519000D02*
G01*
X263864000Y-132419000D01*
X264964000Y-132419000D01*
X264964000Y-133519000D01*
X263864000Y-133519000D01*
G37*
G36*
X265134000Y-133519000D02*
G01*
X265134000Y-132419000D01*
X266234000Y-132419000D01*
X266234000Y-133519000D01*
X265134000Y-133519000D01*
G37*
G36*
X256244000Y-138599000D02*
G01*
X256244000Y-137499000D01*
X257344000Y-137499000D01*
X257344000Y-138599000D01*
X256244000Y-138599000D01*
G37*
G36*
X265134000Y-115739000D02*
G01*
X265134000Y-114639000D01*
X266234000Y-114639000D01*
X266234000Y-115739000D01*
X265134000Y-115739000D01*
G37*
G36*
X263864000Y-136059000D02*
G01*
X263864000Y-134959000D01*
X264964000Y-134959000D01*
X264964000Y-136059000D01*
X263864000Y-136059000D01*
G37*
G36*
X263864000Y-130979000D02*
G01*
X263864000Y-129879000D01*
X264964000Y-129879000D01*
X264964000Y-130979000D01*
X263864000Y-130979000D01*
G37*
G36*
X263864000Y-115739000D02*
G01*
X263864000Y-114639000D01*
X264964000Y-114639000D01*
X264964000Y-115739000D01*
X263864000Y-115739000D01*
G37*
G36*
X256244000Y-143679000D02*
G01*
X256244000Y-142579000D01*
X257344000Y-142579000D01*
X257344000Y-143679000D01*
X256244000Y-143679000D01*
G37*
G36*
X254974000Y-125899000D02*
G01*
X254974000Y-124799000D01*
X256074000Y-124799000D01*
X256074000Y-125899000D01*
X254974000Y-125899000D01*
G37*
G36*
X263864000Y-120819000D02*
G01*
X263864000Y-119719000D01*
X264964000Y-119719000D01*
X264964000Y-120819000D01*
X263864000Y-120819000D01*
G37*
G36*
X263864000Y-138599000D02*
G01*
X263864000Y-137499000D01*
X264964000Y-137499000D01*
X264964000Y-138599000D01*
X263864000Y-138599000D01*
G37*
G36*
X256244000Y-136059000D02*
G01*
X256244000Y-134959000D01*
X257344000Y-134959000D01*
X257344000Y-136059000D01*
X256244000Y-136059000D01*
G37*
G36*
X254974000Y-118279000D02*
G01*
X254974000Y-117179000D01*
X256074000Y-117179000D01*
X256074000Y-118279000D01*
X254974000Y-118279000D01*
G37*
G36*
X254974000Y-115739000D02*
G01*
X254974000Y-114639000D01*
X256074000Y-114639000D01*
X256074000Y-115739000D01*
X254974000Y-115739000D01*
G37*
G36*
X256244000Y-128439000D02*
G01*
X256244000Y-127339000D01*
X257344000Y-127339000D01*
X257344000Y-128439000D01*
X256244000Y-128439000D01*
G37*
G36*
X263864000Y-118279000D02*
G01*
X263864000Y-117179000D01*
X264964000Y-117179000D01*
X264964000Y-118279000D01*
X263864000Y-118279000D01*
G37*
G36*
X254974000Y-141139000D02*
G01*
X254974000Y-140039000D01*
X256074000Y-140039000D01*
X256074000Y-141139000D01*
X254974000Y-141139000D01*
G37*
G36*
X256244000Y-133519000D02*
G01*
X256244000Y-132419000D01*
X257344000Y-132419000D01*
X257344000Y-133519000D01*
X256244000Y-133519000D01*
G37*
G36*
X254974000Y-136059000D02*
G01*
X254974000Y-134959000D01*
X256074000Y-134959000D01*
X256074000Y-136059000D01*
X254974000Y-136059000D01*
G37*
G36*
X254974000Y-133519000D02*
G01*
X254974000Y-132419000D01*
X256074000Y-132419000D01*
X256074000Y-133519000D01*
X254974000Y-133519000D01*
G37*
G36*
X256244000Y-120819000D02*
G01*
X256244000Y-119719000D01*
X257344000Y-119719000D01*
X257344000Y-120819000D01*
X256244000Y-120819000D01*
G37*
G36*
X256244000Y-125899000D02*
G01*
X256244000Y-124799000D01*
X257344000Y-124799000D01*
X257344000Y-125899000D01*
X256244000Y-125899000D01*
G37*
G36*
X265134000Y-141139000D02*
G01*
X265134000Y-140039000D01*
X266234000Y-140039000D01*
X266234000Y-141139000D01*
X265134000Y-141139000D01*
G37*
G36*
X265134000Y-130979000D02*
G01*
X265134000Y-129879000D01*
X266234000Y-129879000D01*
X266234000Y-130979000D01*
X265134000Y-130979000D01*
G37*
G36*
X254974000Y-130979000D02*
G01*
X254974000Y-129879000D01*
X256074000Y-129879000D01*
X256074000Y-130979000D01*
X254974000Y-130979000D01*
G37*
G36*
X263864000Y-130979000D02*
G01*
X263864000Y-129879000D01*
X264964000Y-129879000D01*
X264964000Y-130979000D01*
X263864000Y-130979000D01*
G37*
G36*
X256244000Y-130979000D02*
G01*
X256244000Y-129879000D01*
X257344000Y-129879000D01*
X257344000Y-130979000D01*
X256244000Y-130979000D01*
G37*
G36*
X265134000Y-133519000D02*
G01*
X265134000Y-132419000D01*
X266234000Y-132419000D01*
X266234000Y-133519000D01*
X265134000Y-133519000D01*
G37*
G36*
X254974000Y-133519000D02*
G01*
X254974000Y-132419000D01*
X256074000Y-132419000D01*
X256074000Y-133519000D01*
X254974000Y-133519000D01*
G37*
G36*
X263864000Y-133519000D02*
G01*
X263864000Y-132419000D01*
X264964000Y-132419000D01*
X264964000Y-133519000D01*
X263864000Y-133519000D01*
G37*
G36*
X256244000Y-133519000D02*
G01*
X256244000Y-132419000D01*
X257344000Y-132419000D01*
X257344000Y-133519000D01*
X256244000Y-133519000D01*
G37*
G36*
X265134000Y-136059000D02*
G01*
X265134000Y-134959000D01*
X266234000Y-134959000D01*
X266234000Y-136059000D01*
X265134000Y-136059000D01*
G37*
G36*
X254974000Y-136059000D02*
G01*
X254974000Y-134959000D01*
X256074000Y-134959000D01*
X256074000Y-136059000D01*
X254974000Y-136059000D01*
G37*
G36*
X263864000Y-136059000D02*
G01*
X263864000Y-134959000D01*
X264964000Y-134959000D01*
X264964000Y-136059000D01*
X263864000Y-136059000D01*
G37*
G36*
X256244000Y-136059000D02*
G01*
X256244000Y-134959000D01*
X257344000Y-134959000D01*
X257344000Y-136059000D01*
X256244000Y-136059000D01*
G37*
G36*
X265134000Y-138599000D02*
G01*
X265134000Y-137499000D01*
X266234000Y-137499000D01*
X266234000Y-138599000D01*
X265134000Y-138599000D01*
G37*
G36*
X254974000Y-138599000D02*
G01*
X254974000Y-137499000D01*
X256074000Y-137499000D01*
X256074000Y-138599000D01*
X254974000Y-138599000D01*
G37*
G36*
X263864000Y-138599000D02*
G01*
X263864000Y-137499000D01*
X264964000Y-137499000D01*
X264964000Y-138599000D01*
X263864000Y-138599000D01*
G37*
G36*
X256244000Y-138599000D02*
G01*
X256244000Y-137499000D01*
X257344000Y-137499000D01*
X257344000Y-138599000D01*
X256244000Y-138599000D01*
G37*
G36*
X265134000Y-141139000D02*
G01*
X265134000Y-140039000D01*
X266234000Y-140039000D01*
X266234000Y-141139000D01*
X265134000Y-141139000D01*
G37*
G36*
X254974000Y-141139000D02*
G01*
X254974000Y-140039000D01*
X256074000Y-140039000D01*
X256074000Y-141139000D01*
X254974000Y-141139000D01*
G37*
G36*
X263864000Y-141139000D02*
G01*
X263864000Y-140039000D01*
X264964000Y-140039000D01*
X264964000Y-141139000D01*
X263864000Y-141139000D01*
G37*
G36*
X256244000Y-141139000D02*
G01*
X256244000Y-140039000D01*
X257344000Y-140039000D01*
X257344000Y-141139000D01*
X256244000Y-141139000D01*
G37*
G36*
X265134000Y-143679000D02*
G01*
X265134000Y-142579000D01*
X266234000Y-142579000D01*
X266234000Y-143679000D01*
X265134000Y-143679000D01*
G37*
G36*
X254974000Y-143679000D02*
G01*
X254974000Y-142579000D01*
X256074000Y-142579000D01*
X256074000Y-143679000D01*
X254974000Y-143679000D01*
G37*
G36*
X263864000Y-143679000D02*
G01*
X263864000Y-142579000D01*
X264964000Y-142579000D01*
X264964000Y-143679000D01*
X263864000Y-143679000D01*
G37*
G36*
X256244000Y-143679000D02*
G01*
X256244000Y-142579000D01*
X257344000Y-142579000D01*
X257344000Y-143679000D01*
X256244000Y-143679000D01*
G37*
G36*
X265134000Y-128439000D02*
G01*
X265134000Y-127339000D01*
X266234000Y-127339000D01*
X266234000Y-128439000D01*
X265134000Y-128439000D01*
G37*
G36*
X254974000Y-128439000D02*
G01*
X254974000Y-127339000D01*
X256074000Y-127339000D01*
X256074000Y-128439000D01*
X254974000Y-128439000D01*
G37*
G36*
X263864000Y-128439000D02*
G01*
X263864000Y-127339000D01*
X264964000Y-127339000D01*
X264964000Y-128439000D01*
X263864000Y-128439000D01*
G37*
G36*
X256244000Y-128439000D02*
G01*
X256244000Y-127339000D01*
X257344000Y-127339000D01*
X257344000Y-128439000D01*
X256244000Y-128439000D01*
G37*
G36*
X265134000Y-125899000D02*
G01*
X265134000Y-124799000D01*
X266234000Y-124799000D01*
X266234000Y-125899000D01*
X265134000Y-125899000D01*
G37*
G36*
X254974000Y-125899000D02*
G01*
X254974000Y-124799000D01*
X256074000Y-124799000D01*
X256074000Y-125899000D01*
X254974000Y-125899000D01*
G37*
G36*
X263864000Y-125899000D02*
G01*
X263864000Y-124799000D01*
X264964000Y-124799000D01*
X264964000Y-125899000D01*
X263864000Y-125899000D01*
G37*
G36*
X256244000Y-125899000D02*
G01*
X256244000Y-124799000D01*
X257344000Y-124799000D01*
X257344000Y-125899000D01*
X256244000Y-125899000D01*
G37*
G36*
X265134000Y-123359000D02*
G01*
X265134000Y-122259000D01*
X266234000Y-122259000D01*
X266234000Y-123359000D01*
X265134000Y-123359000D01*
G37*
G36*
X254974000Y-123359000D02*
G01*
X254974000Y-122259000D01*
X256074000Y-122259000D01*
X256074000Y-123359000D01*
X254974000Y-123359000D01*
G37*
G36*
X263864000Y-123359000D02*
G01*
X263864000Y-122259000D01*
X264964000Y-122259000D01*
X264964000Y-123359000D01*
X263864000Y-123359000D01*
G37*
G36*
X256244000Y-123359000D02*
G01*
X256244000Y-122259000D01*
X257344000Y-122259000D01*
X257344000Y-123359000D01*
X256244000Y-123359000D01*
G37*
G36*
X265134000Y-120819000D02*
G01*
X265134000Y-119719000D01*
X266234000Y-119719000D01*
X266234000Y-120819000D01*
X265134000Y-120819000D01*
G37*
G36*
X254974000Y-120819000D02*
G01*
X254974000Y-119719000D01*
X256074000Y-119719000D01*
X256074000Y-120819000D01*
X254974000Y-120819000D01*
G37*
G36*
X263864000Y-120819000D02*
G01*
X263864000Y-119719000D01*
X264964000Y-119719000D01*
X264964000Y-120819000D01*
X263864000Y-120819000D01*
G37*
G36*
X256244000Y-120819000D02*
G01*
X256244000Y-119719000D01*
X257344000Y-119719000D01*
X257344000Y-120819000D01*
X256244000Y-120819000D01*
G37*
G36*
X265134000Y-118279000D02*
G01*
X265134000Y-117179000D01*
X266234000Y-117179000D01*
X266234000Y-118279000D01*
X265134000Y-118279000D01*
G37*
G36*
X254974000Y-118279000D02*
G01*
X254974000Y-117179000D01*
X256074000Y-117179000D01*
X256074000Y-118279000D01*
X254974000Y-118279000D01*
G37*
G36*
X263864000Y-118279000D02*
G01*
X263864000Y-117179000D01*
X264964000Y-117179000D01*
X264964000Y-118279000D01*
X263864000Y-118279000D01*
G37*
G36*
X256244000Y-118279000D02*
G01*
X256244000Y-117179000D01*
X257344000Y-117179000D01*
X257344000Y-118279000D01*
X256244000Y-118279000D01*
G37*
G36*
X263864000Y-115739000D02*
G01*
X263864000Y-114639000D01*
X264964000Y-114639000D01*
X264964000Y-115739000D01*
X263864000Y-115739000D01*
G37*
G36*
X265134000Y-115739000D02*
G01*
X265134000Y-114639000D01*
X266234000Y-114639000D01*
X266234000Y-115739000D01*
X265134000Y-115739000D01*
G37*
G36*
X256244000Y-115739000D02*
G01*
X256244000Y-114639000D01*
X257344000Y-114639000D01*
X257344000Y-115739000D01*
X256244000Y-115739000D01*
G37*
G36*
X254974000Y-115739000D02*
G01*
X254974000Y-114639000D01*
X256074000Y-114639000D01*
X256074000Y-115739000D01*
X254974000Y-115739000D01*
G37*
D17*
X268260400Y-115316000D03*
X268260400Y-117856000D03*
X268260400Y-120396000D03*
X268260400Y-122936000D03*
X268260400Y-125476000D03*
X268260400Y-128016000D03*
X268260400Y-130556000D03*
X268260400Y-133096000D03*
X268260400Y-135636000D03*
X268260400Y-138176000D03*
X268260400Y-140716000D03*
X268260400Y-143256000D03*
X253040400Y-143256000D03*
X253040400Y-140716000D03*
X253040400Y-138176000D03*
X253040400Y-135636000D03*
X253040400Y-133096000D03*
X253040400Y-130556000D03*
X253040400Y-128016000D03*
X253040400Y-125476000D03*
X253040400Y-122936000D03*
X253040400Y-120396000D03*
X253040400Y-117856000D03*
X253040400Y-115316000D03*
G04 #@! TD*
D13*
G04 #@! TO.C,REF\u002A\u002A*
X269240000Y-158496000D03*
G36*
G01*
X268390000Y-159696000D02*
X270090000Y-159696000D01*
G75*
G02*
X270140000Y-159746000I0J-50000D01*
G01*
X270140000Y-160646000D01*
G75*
G02*
X270090000Y-160696000I-50000J0D01*
G01*
X268390000Y-160696000D01*
G75*
G02*
X268340000Y-160646000I0J50000D01*
G01*
X268340000Y-159746000D01*
G75*
G02*
X268390000Y-159696000I50000J0D01*
G01*
G37*
G36*
G01*
X268390000Y-156296000D02*
X270090000Y-156296000D01*
G75*
G02*
X270140000Y-156346000I0J-50000D01*
G01*
X270140000Y-157246000D01*
G75*
G02*
X270090000Y-157296000I-50000J0D01*
G01*
X268390000Y-157296000D01*
G75*
G02*
X268340000Y-157246000I0J50000D01*
G01*
X268340000Y-156346000D01*
G75*
G02*
X268390000Y-156296000I50000J0D01*
G01*
G37*
G04 #@! TD*
M02*
