M48
; DRILL file {KiCad 5.1.10} date Tue Nov 16 11:23:39 2021
; FORMAT={-:-/ absolute / metric / decimal}
; #@! TF.CreationDate,2021-11-16T11:23:39-06:00
; #@! TF.GenerationSoftware,Kicad,Pcbnew,5.1.10
; #@! TF.FileFunction,Plated,1,2,PTH
FMAT,2
METRIC
T1C0.300
T2C0.400
T3C0.800
T4C0.813
%
G90
G05
T2
X191.359Y-81.833
X210.004Y-67.06
X231.906Y-57.995
X239.522Y-93.726
X254.363Y-62.145
X254.363Y-96.145
X254.363Y-79.145
X259.334Y-98.298
X265.684Y-99.06
X265.938Y-82.042
X272.363Y-64.978
X273.682Y-124.076
X277.368Y-84.328
X277.368Y-101.346
X285.49Y-83.572
X285.496Y-86.106
X285.496Y-88.646
X285.496Y-91.186
X285.496Y-93.726
X285.496Y-96.266
X285.496Y-98.806
X285.496Y-101.346
X285.496Y-103.886
X285.496Y-106.426
X285.496Y-108.966
X285.496Y-111.506
X285.75Y-116.078
X290.496Y-82.081
X290.512Y-84.899
X290.576Y-87.376
X290.576Y-89.916
X290.576Y-92.456
X290.576Y-94.996
X290.576Y-97.536
X290.576Y-100.076
X290.576Y-102.616
X290.576Y-105.156
X290.576Y-107.696
X290.576Y-110.236
X292.862Y-117.856
X292.898Y-120.106
X295.568Y-125.642
X297.776Y-126.834
T3
X280.416Y-118.364
X280.416Y-120.364
T4
X280.472Y-83.058
X280.472Y-85.598
X280.472Y-88.138
X280.472Y-90.678
X280.472Y-93.218
X280.472Y-95.758
X280.472Y-98.298
X280.472Y-100.838
X280.472Y-103.378
X280.472Y-105.918
X280.472Y-108.458
X280.472Y-110.998
X295.692Y-83.058
X295.692Y-85.598
X295.692Y-88.138
X295.692Y-90.678
X295.692Y-93.218
X295.692Y-95.758
X295.692Y-98.298
X295.692Y-100.838
X295.692Y-103.378
X295.692Y-105.918
X295.692Y-108.458
X295.692Y-110.998
T1
X183.662Y-83.856G85X182.976Y-83.997
G05
X185.989Y-94.709G85X185.303Y-94.85
G05
X187.225Y-100.478G85X186.54Y-100.619
G05
X189.552Y-111.332G85X188.866Y-111.472
G05
X190.789Y-117.101G85X190.103Y-117.241
G05
X190.266Y-94.147G85X190.95Y-94.0
G05
X193.116Y-127.954G85X192.43Y-128.095
G05
X192.755Y-81.906G85X193.438Y-81.754
G05
X193.829Y-110.769G85X194.514Y-110.623
G05
X195.766Y-92.613G85X195.081Y-92.754
G05
X196.319Y-98.529G85X197.002Y-98.376
G05
X197.393Y-127.392G85X198.077Y-127.245
G05
X199.33Y-109.235G85X198.644Y-109.376
G05
X199.882Y-115.151G85X200.565Y-114.998
G05
X202.221Y-68.718G85X201.529Y-68.827
G05
X202.893Y-125.858G85X202.208Y-125.999
G05
X204.034Y-79.669G85X203.342Y-79.778
G05
X204.997Y-85.49G85X204.306Y-85.598
G05
X206.81Y-96.441G85X206.119Y-96.549
G05
X207.774Y-102.262G85X207.082Y-102.37
G05
X208.333Y-79.309G85X209.023Y-79.195
G05
X209.587Y-113.213G85X208.895Y-113.321
G05
X211.109Y-96.081G85X211.8Y-95.967
G05
X211.396Y-67.199G85X212.086Y-67.079
G05
X213.899Y-78.036G85X213.208Y-78.144
G05
X213.886Y-112.853G85X214.576Y-112.738
G05
X214.172Y-83.971G85X214.862Y-83.851
G05
X216.676Y-94.808G85X215.984Y-94.916
G05
X216.949Y-100.743G85X217.639Y-100.623
G05
X219.453Y-111.58G85X218.761Y-111.688
G05
X224.007Y-58.969G85X223.309Y-59.016
G05
X224.859Y-70.036G85X224.161Y-70.083
G05
X225.312Y-75.918G85X224.613Y-75.966
G05
X226.163Y-86.986G85X225.465Y-87.033
G05
X226.616Y-92.868G85X225.917Y-92.916
G05
X227.467Y-103.936G85X226.769Y-103.983
G05
X229.173Y-70.052G85X229.871Y-69.998
G05
X230.477Y-87.002G85X231.175Y-86.948
G05
X231.781Y-103.952G85X232.479Y-103.898
G05
X233.28Y-58.255G85X233.977Y-58.195
G05
X234.829Y-69.269G85X234.131Y-69.316
G05
X234.584Y-75.205G85X235.282Y-75.145
G05
X236.134Y-86.219G85X235.435Y-86.266
G05
X235.888Y-92.155G85X236.586Y-92.095
G05
X237.438Y-103.168G85X236.74Y-103.216
G05
X246.413Y-62.51G85X245.713Y-62.504
G05
X246.413Y-73.61G85X245.713Y-73.604
G05
X246.413Y-96.51G85X245.713Y-96.504
G05
X246.413Y-107.61G85X245.713Y-107.604
G05
X246.413Y-79.51G85X245.713Y-79.504
G05
X246.413Y-90.61G85X245.713Y-90.604
G05
X250.713Y-73.957G85X251.413Y-73.957
G05
X250.713Y-107.957G85X251.413Y-107.957
G05
X250.713Y-90.957G85X251.413Y-90.957
G05
X255.713Y-62.51G85X256.413Y-62.504
G05
X256.413Y-73.61G85X255.713Y-73.604
G05
X255.713Y-96.51G85X256.413Y-96.504
G05
X256.413Y-107.61G85X255.713Y-107.604
G05
X255.713Y-79.51G85X256.413Y-79.504
G05
X256.413Y-90.61G85X255.713Y-90.604
G05
X263.072Y-132.782G85X262.4Y-132.586
G05
X264.413Y-82.343G85X263.713Y-82.337
G05
X264.413Y-93.443G85X263.713Y-93.437
G05
X264.413Y-99.343G85X263.713Y-99.337
G05
X264.413Y-110.443G85X263.713Y-110.437
G05
X264.413Y-65.343G85X263.713Y-65.337
G05
X264.413Y-76.443G85X263.713Y-76.437
G05
X266.095Y-122.102G85X265.423Y-121.905
G05
X267.115Y-134.287G85X267.789Y-134.477
G05
X268.713Y-93.79G85X269.413Y-93.79
G05
X268.713Y-110.79G85X269.413Y-110.79
G05
X268.713Y-76.79G85X269.413Y-76.79
G05
X272.694Y-135.505G85X272.023Y-135.309
G05
X273.713Y-82.343G85X274.413Y-82.337
G05
X274.413Y-93.443G85X273.713Y-93.437
G05
X273.713Y-99.343G85X274.413Y-99.337
G05
X274.413Y-110.443G85X273.713Y-110.437
G05
X273.713Y-65.343G85X274.413Y-65.337
G05
X274.413Y-76.443G85X273.713Y-76.437
G05
X275.043Y-124.634G85X275.718Y-124.819
G05
X280.908Y-138.657G85X280.276Y-138.356
G05
X284.658Y-140.789G85X285.293Y-141.084
G05
X285.599Y-128.597G85X284.967Y-128.296
G05
X289.971Y-142.883G85X289.339Y-142.582
G05
X294.028Y-132.527G85X294.664Y-132.818
G05
T2
X184.909Y-93.25G85X185.495Y-93.124
G05
X188.472Y-109.873G85X189.059Y-109.747
G05
X192.036Y-126.495G85X192.622Y-126.369
G05
X195.469Y-90.986G85X194.882Y-91.112
G05
X199.032Y-107.609G85X198.446Y-107.734
G05
X202.596Y-124.231G85X202.009Y-124.357
G05
X203.024Y-78.161G85X203.616Y-78.063
G05
X205.8Y-94.933G85X206.392Y-94.835
G05
X208.577Y-111.704G85X209.169Y-111.606
G05
X213.679Y-76.397G85X213.087Y-76.495
G05
X216.455Y-93.169G85X215.863Y-93.267
G05
X219.232Y-109.941G85X218.64Y-110.039
G05
X223.984Y-68.445G85X224.583Y-68.399
G05
X225.289Y-85.395G85X225.887Y-85.349
G05
X226.593Y-102.345G85X227.191Y-102.299
G05
X234.752Y-67.617G85X234.154Y-67.663
G05
X236.057Y-84.567G85X235.458Y-84.613
G05
X237.361Y-101.516G85X236.763Y-101.562
G05
X245.663Y-71.957G85X246.263Y-71.957
G05
X245.663Y-105.957G85X246.263Y-105.957
G05
X245.663Y-88.957G85X246.263Y-88.957
G05
X256.463Y-71.957G85X255.863Y-71.957
G05
X256.463Y-105.957G85X255.863Y-105.957
G05
X256.463Y-88.957G85X255.863Y-88.957
G05
X262.801Y-130.987G85X263.378Y-131.151
G05
X263.663Y-91.79G85X264.263Y-91.79
G05
X263.663Y-108.79G85X264.263Y-108.79
G05
X263.663Y-74.79G85X264.263Y-74.79
G05
X273.193Y-133.928G85X272.615Y-133.765
G05
X274.463Y-91.79G85X273.863Y-91.79
G05
X274.463Y-108.79G85X273.863Y-108.79
G05
X274.463Y-74.79G85X273.863Y-74.79
G05
X280.927Y-136.842G85X281.47Y-137.095
G05
X290.715Y-141.406G85X290.171Y-141.152
G05
T0
M30
