G04 #@! TF.GenerationSoftware,KiCad,Pcbnew,5.1.10*
G04 #@! TF.CreationDate,2021-11-06T18:09:38-05:00*
G04 #@! TF.ProjectId,a_dux_dux,615f6475-785f-4647-9578-2e6b69636164,VERSION_HERE*
G04 #@! TF.SameCoordinates,Original*
G04 #@! TF.FileFunction,Copper,L2,Bot*
G04 #@! TF.FilePolarity,Positive*
%FSLAX46Y46*%
G04 Gerber Fmt 4.6, Leading zero omitted, Abs format (unit mm)*
G04 Created by KiCad (PCBNEW 5.1.10) date 2021-11-06 18:09:38*
%MOMM*%
%LPD*%
G01*
G04 APERTURE LIST*
G04 #@! TA.AperFunction,EtchedComponent*
%ADD10C,0.100000*%
G04 #@! TD*
G04 #@! TA.AperFunction,ComponentPad*
%ADD11C,2.032000*%
G04 #@! TD*
G04 #@! TA.AperFunction,SMDPad,CuDef*
%ADD12R,1.700000X0.900000*%
G04 #@! TD*
G04 #@! TA.AperFunction,SMDPad,CuDef*
%ADD13R,1.500000X0.700000*%
G04 #@! TD*
G04 #@! TA.AperFunction,SMDPad,CuDef*
%ADD14R,0.800000X1.000000*%
G04 #@! TD*
G04 #@! TA.AperFunction,ComponentPad*
%ADD15O,1.350000X1.350000*%
G04 #@! TD*
G04 #@! TA.AperFunction,ComponentPad*
%ADD16R,1.350000X1.350000*%
G04 #@! TD*
G04 #@! TA.AperFunction,SMDPad,CuDef*
%ADD17C,0.100000*%
G04 #@! TD*
G04 #@! TA.AperFunction,ComponentPad*
%ADD18C,1.524000*%
G04 #@! TD*
G04 #@! TA.AperFunction,ViaPad*
%ADD19C,0.800000*%
G04 #@! TD*
G04 #@! TA.AperFunction,Conductor*
%ADD20C,0.250000*%
G04 #@! TD*
G04 #@! TA.AperFunction,Conductor*
%ADD21C,0.500000*%
G04 #@! TD*
G04 APERTURE END LIST*
D10*
G04 #@! TO.C,C1*
G36*
X255524000Y-115443000D02*
G01*
X252984000Y-115443000D01*
X252984000Y-115062000D01*
X255524000Y-115062000D01*
X255524000Y-115443000D01*
G37*
X255524000Y-115443000D02*
X252984000Y-115443000D01*
X252984000Y-115062000D01*
X255524000Y-115062000D01*
X255524000Y-115443000D01*
G36*
X255524000Y-117983000D02*
G01*
X252984000Y-117983000D01*
X252984000Y-117602000D01*
X255524000Y-117602000D01*
X255524000Y-117983000D01*
G37*
X255524000Y-117983000D02*
X252984000Y-117983000D01*
X252984000Y-117602000D01*
X255524000Y-117602000D01*
X255524000Y-117983000D01*
G36*
X255524000Y-123063000D02*
G01*
X252984000Y-123063000D01*
X252984000Y-122682000D01*
X255524000Y-122682000D01*
X255524000Y-123063000D01*
G37*
X255524000Y-123063000D02*
X252984000Y-123063000D01*
X252984000Y-122682000D01*
X255524000Y-122682000D01*
X255524000Y-123063000D01*
G36*
X255524000Y-120523000D02*
G01*
X252984000Y-120523000D01*
X252984000Y-120142000D01*
X255524000Y-120142000D01*
X255524000Y-120523000D01*
G37*
X255524000Y-120523000D02*
X252984000Y-120523000D01*
X252984000Y-120142000D01*
X255524000Y-120142000D01*
X255524000Y-120523000D01*
G36*
X255524000Y-125603000D02*
G01*
X252984000Y-125603000D01*
X252984000Y-125222000D01*
X255524000Y-125222000D01*
X255524000Y-125603000D01*
G37*
X255524000Y-125603000D02*
X252984000Y-125603000D01*
X252984000Y-125222000D01*
X255524000Y-125222000D01*
X255524000Y-125603000D01*
G36*
X255524000Y-128143000D02*
G01*
X252984000Y-128143000D01*
X252984000Y-127762000D01*
X255524000Y-127762000D01*
X255524000Y-128143000D01*
G37*
X255524000Y-128143000D02*
X252984000Y-128143000D01*
X252984000Y-127762000D01*
X255524000Y-127762000D01*
X255524000Y-128143000D01*
G36*
X255524000Y-130683000D02*
G01*
X252984000Y-130683000D01*
X252984000Y-130302000D01*
X255524000Y-130302000D01*
X255524000Y-130683000D01*
G37*
X255524000Y-130683000D02*
X252984000Y-130683000D01*
X252984000Y-130302000D01*
X255524000Y-130302000D01*
X255524000Y-130683000D01*
G36*
X255524000Y-133223000D02*
G01*
X252984000Y-133223000D01*
X252984000Y-132842000D01*
X255524000Y-132842000D01*
X255524000Y-133223000D01*
G37*
X255524000Y-133223000D02*
X252984000Y-133223000D01*
X252984000Y-132842000D01*
X255524000Y-132842000D01*
X255524000Y-133223000D01*
G36*
X255524000Y-135763000D02*
G01*
X252984000Y-135763000D01*
X252984000Y-135382000D01*
X255524000Y-135382000D01*
X255524000Y-135763000D01*
G37*
X255524000Y-135763000D02*
X252984000Y-135763000D01*
X252984000Y-135382000D01*
X255524000Y-135382000D01*
X255524000Y-135763000D01*
G36*
X255524000Y-138303000D02*
G01*
X252984000Y-138303000D01*
X252984000Y-137922000D01*
X255524000Y-137922000D01*
X255524000Y-138303000D01*
G37*
X255524000Y-138303000D02*
X252984000Y-138303000D01*
X252984000Y-137922000D01*
X255524000Y-137922000D01*
X255524000Y-138303000D01*
G36*
X255524000Y-140843000D02*
G01*
X252984000Y-140843000D01*
X252984000Y-140462000D01*
X255524000Y-140462000D01*
X255524000Y-140843000D01*
G37*
X255524000Y-140843000D02*
X252984000Y-140843000D01*
X252984000Y-140462000D01*
X255524000Y-140462000D01*
X255524000Y-140843000D01*
G36*
X255524000Y-143383000D02*
G01*
X252984000Y-143383000D01*
X252984000Y-143002000D01*
X255524000Y-143002000D01*
X255524000Y-143383000D01*
G37*
X255524000Y-143383000D02*
X252984000Y-143383000D01*
X252984000Y-143002000D01*
X255524000Y-143002000D01*
X255524000Y-143383000D01*
G36*
X268224000Y-115443000D02*
G01*
X265684000Y-115443000D01*
X265684000Y-115062000D01*
X268224000Y-115062000D01*
X268224000Y-115443000D01*
G37*
X268224000Y-115443000D02*
X265684000Y-115443000D01*
X265684000Y-115062000D01*
X268224000Y-115062000D01*
X268224000Y-115443000D01*
G36*
X268224000Y-117983000D02*
G01*
X265684000Y-117983000D01*
X265684000Y-117602000D01*
X268224000Y-117602000D01*
X268224000Y-117983000D01*
G37*
X268224000Y-117983000D02*
X265684000Y-117983000D01*
X265684000Y-117602000D01*
X268224000Y-117602000D01*
X268224000Y-117983000D01*
G36*
X268224000Y-120523000D02*
G01*
X265684000Y-120523000D01*
X265684000Y-120142000D01*
X268224000Y-120142000D01*
X268224000Y-120523000D01*
G37*
X268224000Y-120523000D02*
X265684000Y-120523000D01*
X265684000Y-120142000D01*
X268224000Y-120142000D01*
X268224000Y-120523000D01*
G36*
X268224000Y-123063000D02*
G01*
X265684000Y-123063000D01*
X265684000Y-122682000D01*
X268224000Y-122682000D01*
X268224000Y-123063000D01*
G37*
X268224000Y-123063000D02*
X265684000Y-123063000D01*
X265684000Y-122682000D01*
X268224000Y-122682000D01*
X268224000Y-123063000D01*
G36*
X268224000Y-125603000D02*
G01*
X265684000Y-125603000D01*
X265684000Y-125222000D01*
X268224000Y-125222000D01*
X268224000Y-125603000D01*
G37*
X268224000Y-125603000D02*
X265684000Y-125603000D01*
X265684000Y-125222000D01*
X268224000Y-125222000D01*
X268224000Y-125603000D01*
G36*
X268224000Y-128143000D02*
G01*
X265684000Y-128143000D01*
X265684000Y-127762000D01*
X268224000Y-127762000D01*
X268224000Y-128143000D01*
G37*
X268224000Y-128143000D02*
X265684000Y-128143000D01*
X265684000Y-127762000D01*
X268224000Y-127762000D01*
X268224000Y-128143000D01*
G36*
X268224000Y-130683000D02*
G01*
X265684000Y-130683000D01*
X265684000Y-130302000D01*
X268224000Y-130302000D01*
X268224000Y-130683000D01*
G37*
X268224000Y-130683000D02*
X265684000Y-130683000D01*
X265684000Y-130302000D01*
X268224000Y-130302000D01*
X268224000Y-130683000D01*
G36*
X268224000Y-133223000D02*
G01*
X265684000Y-133223000D01*
X265684000Y-132842000D01*
X268224000Y-132842000D01*
X268224000Y-133223000D01*
G37*
X268224000Y-133223000D02*
X265684000Y-133223000D01*
X265684000Y-132842000D01*
X268224000Y-132842000D01*
X268224000Y-133223000D01*
G36*
X268224000Y-135763000D02*
G01*
X265684000Y-135763000D01*
X265684000Y-135382000D01*
X268224000Y-135382000D01*
X268224000Y-135763000D01*
G37*
X268224000Y-135763000D02*
X265684000Y-135763000D01*
X265684000Y-135382000D01*
X268224000Y-135382000D01*
X268224000Y-135763000D01*
G36*
X268224000Y-138303000D02*
G01*
X265684000Y-138303000D01*
X265684000Y-137922000D01*
X268224000Y-137922000D01*
X268224000Y-138303000D01*
G37*
X268224000Y-138303000D02*
X265684000Y-138303000D01*
X265684000Y-137922000D01*
X268224000Y-137922000D01*
X268224000Y-138303000D01*
G36*
X268224000Y-140843000D02*
G01*
X265684000Y-140843000D01*
X265684000Y-140462000D01*
X268224000Y-140462000D01*
X268224000Y-140843000D01*
G37*
X268224000Y-140843000D02*
X265684000Y-140843000D01*
X265684000Y-140462000D01*
X268224000Y-140462000D01*
X268224000Y-140843000D01*
G36*
X268224000Y-143383000D02*
G01*
X265684000Y-143383000D01*
X265684000Y-143002000D01*
X268224000Y-143002000D01*
X268224000Y-143383000D01*
G37*
X268224000Y-143383000D02*
X265684000Y-143383000D01*
X265684000Y-143002000D01*
X268224000Y-143002000D01*
X268224000Y-143383000D01*
G36*
X255524000Y-130275000D02*
G01*
X252984000Y-130275000D01*
X252984000Y-130656000D01*
X255524000Y-130656000D01*
X255524000Y-130275000D01*
G37*
X255524000Y-130275000D02*
X252984000Y-130275000D01*
X252984000Y-130656000D01*
X255524000Y-130656000D01*
X255524000Y-130275000D01*
G36*
X255524000Y-137895000D02*
G01*
X252984000Y-137895000D01*
X252984000Y-138276000D01*
X255524000Y-138276000D01*
X255524000Y-137895000D01*
G37*
X255524000Y-137895000D02*
X252984000Y-137895000D01*
X252984000Y-138276000D01*
X255524000Y-138276000D01*
X255524000Y-137895000D01*
G36*
X255524000Y-142975000D02*
G01*
X252984000Y-142975000D01*
X252984000Y-143356000D01*
X255524000Y-143356000D01*
X255524000Y-142975000D01*
G37*
X255524000Y-142975000D02*
X252984000Y-142975000D01*
X252984000Y-143356000D01*
X255524000Y-143356000D01*
X255524000Y-142975000D01*
G36*
X255524000Y-122655000D02*
G01*
X252984000Y-122655000D01*
X252984000Y-123036000D01*
X255524000Y-123036000D01*
X255524000Y-122655000D01*
G37*
X255524000Y-122655000D02*
X252984000Y-122655000D01*
X252984000Y-123036000D01*
X255524000Y-123036000D01*
X255524000Y-122655000D01*
G36*
X255524000Y-120115000D02*
G01*
X252984000Y-120115000D01*
X252984000Y-120496000D01*
X255524000Y-120496000D01*
X255524000Y-120115000D01*
G37*
X255524000Y-120115000D02*
X252984000Y-120115000D01*
X252984000Y-120496000D01*
X255524000Y-120496000D01*
X255524000Y-120115000D01*
G36*
X255524000Y-117575000D02*
G01*
X252984000Y-117575000D01*
X252984000Y-117956000D01*
X255524000Y-117956000D01*
X255524000Y-117575000D01*
G37*
X255524000Y-117575000D02*
X252984000Y-117575000D01*
X252984000Y-117956000D01*
X255524000Y-117956000D01*
X255524000Y-117575000D01*
G36*
X255524000Y-115035000D02*
G01*
X252984000Y-115035000D01*
X252984000Y-115416000D01*
X255524000Y-115416000D01*
X255524000Y-115035000D01*
G37*
X255524000Y-115035000D02*
X252984000Y-115035000D01*
X252984000Y-115416000D01*
X255524000Y-115416000D01*
X255524000Y-115035000D01*
G36*
X268224000Y-142975000D02*
G01*
X265684000Y-142975000D01*
X265684000Y-143356000D01*
X268224000Y-143356000D01*
X268224000Y-142975000D01*
G37*
X268224000Y-142975000D02*
X265684000Y-142975000D01*
X265684000Y-143356000D01*
X268224000Y-143356000D01*
X268224000Y-142975000D01*
G36*
X255524000Y-127735000D02*
G01*
X252984000Y-127735000D01*
X252984000Y-128116000D01*
X255524000Y-128116000D01*
X255524000Y-127735000D01*
G37*
X255524000Y-127735000D02*
X252984000Y-127735000D01*
X252984000Y-128116000D01*
X255524000Y-128116000D01*
X255524000Y-127735000D01*
G36*
X268224000Y-115035000D02*
G01*
X265684000Y-115035000D01*
X265684000Y-115416000D01*
X268224000Y-115416000D01*
X268224000Y-115035000D01*
G37*
X268224000Y-115035000D02*
X265684000Y-115035000D01*
X265684000Y-115416000D01*
X268224000Y-115416000D01*
X268224000Y-115035000D01*
G36*
X268224000Y-127735000D02*
G01*
X265684000Y-127735000D01*
X265684000Y-128116000D01*
X268224000Y-128116000D01*
X268224000Y-127735000D01*
G37*
X268224000Y-127735000D02*
X265684000Y-127735000D01*
X265684000Y-128116000D01*
X268224000Y-128116000D01*
X268224000Y-127735000D01*
G36*
X268224000Y-125195000D02*
G01*
X265684000Y-125195000D01*
X265684000Y-125576000D01*
X268224000Y-125576000D01*
X268224000Y-125195000D01*
G37*
X268224000Y-125195000D02*
X265684000Y-125195000D01*
X265684000Y-125576000D01*
X268224000Y-125576000D01*
X268224000Y-125195000D01*
G36*
X268224000Y-122655000D02*
G01*
X265684000Y-122655000D01*
X265684000Y-123036000D01*
X268224000Y-123036000D01*
X268224000Y-122655000D01*
G37*
X268224000Y-122655000D02*
X265684000Y-122655000D01*
X265684000Y-123036000D01*
X268224000Y-123036000D01*
X268224000Y-122655000D01*
G36*
X268224000Y-120115000D02*
G01*
X265684000Y-120115000D01*
X265684000Y-120496000D01*
X268224000Y-120496000D01*
X268224000Y-120115000D01*
G37*
X268224000Y-120115000D02*
X265684000Y-120115000D01*
X265684000Y-120496000D01*
X268224000Y-120496000D01*
X268224000Y-120115000D01*
G36*
X268224000Y-117575000D02*
G01*
X265684000Y-117575000D01*
X265684000Y-117956000D01*
X268224000Y-117956000D01*
X268224000Y-117575000D01*
G37*
X268224000Y-117575000D02*
X265684000Y-117575000D01*
X265684000Y-117956000D01*
X268224000Y-117956000D01*
X268224000Y-117575000D01*
G36*
X255524000Y-132815000D02*
G01*
X252984000Y-132815000D01*
X252984000Y-133196000D01*
X255524000Y-133196000D01*
X255524000Y-132815000D01*
G37*
X255524000Y-132815000D02*
X252984000Y-132815000D01*
X252984000Y-133196000D01*
X255524000Y-133196000D01*
X255524000Y-132815000D01*
G36*
X255524000Y-125195000D02*
G01*
X252984000Y-125195000D01*
X252984000Y-125576000D01*
X255524000Y-125576000D01*
X255524000Y-125195000D01*
G37*
X255524000Y-125195000D02*
X252984000Y-125195000D01*
X252984000Y-125576000D01*
X255524000Y-125576000D01*
X255524000Y-125195000D01*
G36*
X255524000Y-140435000D02*
G01*
X252984000Y-140435000D01*
X252984000Y-140816000D01*
X255524000Y-140816000D01*
X255524000Y-140435000D01*
G37*
X255524000Y-140435000D02*
X252984000Y-140435000D01*
X252984000Y-140816000D01*
X255524000Y-140816000D01*
X255524000Y-140435000D01*
G36*
X268224000Y-140435000D02*
G01*
X265684000Y-140435000D01*
X265684000Y-140816000D01*
X268224000Y-140816000D01*
X268224000Y-140435000D01*
G37*
X268224000Y-140435000D02*
X265684000Y-140435000D01*
X265684000Y-140816000D01*
X268224000Y-140816000D01*
X268224000Y-140435000D01*
G36*
X268224000Y-137895000D02*
G01*
X265684000Y-137895000D01*
X265684000Y-138276000D01*
X268224000Y-138276000D01*
X268224000Y-137895000D01*
G37*
X268224000Y-137895000D02*
X265684000Y-137895000D01*
X265684000Y-138276000D01*
X268224000Y-138276000D01*
X268224000Y-137895000D01*
G36*
X268224000Y-135355000D02*
G01*
X265684000Y-135355000D01*
X265684000Y-135736000D01*
X268224000Y-135736000D01*
X268224000Y-135355000D01*
G37*
X268224000Y-135355000D02*
X265684000Y-135355000D01*
X265684000Y-135736000D01*
X268224000Y-135736000D01*
X268224000Y-135355000D01*
G36*
X268224000Y-132815000D02*
G01*
X265684000Y-132815000D01*
X265684000Y-133196000D01*
X268224000Y-133196000D01*
X268224000Y-132815000D01*
G37*
X268224000Y-132815000D02*
X265684000Y-132815000D01*
X265684000Y-133196000D01*
X268224000Y-133196000D01*
X268224000Y-132815000D01*
G36*
X268224000Y-130275000D02*
G01*
X265684000Y-130275000D01*
X265684000Y-130656000D01*
X268224000Y-130656000D01*
X268224000Y-130275000D01*
G37*
X268224000Y-130275000D02*
X265684000Y-130275000D01*
X265684000Y-130656000D01*
X268224000Y-130656000D01*
X268224000Y-130275000D01*
G36*
X255524000Y-135355000D02*
G01*
X252984000Y-135355000D01*
X252984000Y-135736000D01*
X255524000Y-135736000D01*
X255524000Y-135355000D01*
G37*
X255524000Y-135355000D02*
X252984000Y-135355000D01*
X252984000Y-135736000D01*
X255524000Y-135736000D01*
X255524000Y-135355000D01*
G04 #@! TD*
D11*
G04 #@! TO.P,S8,1*
G04 #@! TO.N,P5*
X181523208Y-143798454D03*
G04 #@! TO.P,S8,2*
G04 #@! TO.N,GND*
X186799053Y-145053626D03*
G04 #@! TO.P,S8,1*
G04 #@! TO.N,P5*
X191388929Y-142165194D03*
G04 #@! TO.P,S8,2*
G04 #@! TO.N,GND*
X186799053Y-145053626D03*
G04 #@! TD*
G04 #@! TO.P,S2,1*
G04 #@! TO.N,P8*
X164973902Y-158571255D03*
G04 #@! TO.P,S2,2*
G04 #@! TO.N,GND*
X170303018Y-159576507D03*
G04 #@! TO.P,S2,1*
G04 #@! TO.N,P8*
X174751735Y-156475069D03*
G04 #@! TO.P,S2,2*
G04 #@! TO.N,GND*
X170303018Y-159576507D03*
G04 #@! TD*
G04 #@! TO.P,S12,1*
G04 #@! TO.N,P18*
X175970122Y-110255020D03*
G04 #@! TO.P,S12,2*
G04 #@! TO.N,GND*
X181245967Y-111510192D03*
G04 #@! TO.P,S12,1*
G04 #@! TO.N,P18*
X185835843Y-108621760D03*
G04 #@! TO.P,S12,2*
G04 #@! TO.N,GND*
X181245967Y-111510192D03*
G04 #@! TD*
G04 #@! TO.P,S14,1*
G04 #@! TO.N,P4*
X199551926Y-134472577D03*
G04 #@! TO.P,S14,2*
G04 #@! TO.N,GND*
X204698299Y-136182792D03*
G04 #@! TO.P,S14,1*
G04 #@! TO.N,P4*
X209522453Y-133705386D03*
G04 #@! TO.P,S14,2*
G04 #@! TO.N,GND*
X204698299Y-136182792D03*
G04 #@! TD*
G04 #@! TO.P,S10,1*
G04 #@! TO.N,P10*
X178746615Y-127026741D03*
G04 #@! TO.P,S10,2*
G04 #@! TO.N,GND*
X184022460Y-128281913D03*
G04 #@! TO.P,S10,1*
G04 #@! TO.N,P10*
X188612336Y-125393481D03*
G04 #@! TO.P,S10,2*
G04 #@! TO.N,GND*
X184022460Y-128281913D03*
G04 #@! TD*
G04 #@! TO.P,S30,1*
G04 #@! TO.N,P21*
X236630872Y-106947978D03*
G04 #@! TO.P,S30,2*
G04 #@! TO.N,GND*
X241630872Y-109047978D03*
G04 #@! TO.P,S30,1*
G04 #@! TO.N,P21*
X246630872Y-106947978D03*
G04 #@! TO.P,S30,2*
G04 #@! TO.N,GND*
X241630872Y-109047978D03*
G04 #@! TD*
G04 #@! TO.P,S6,1*
G04 #@! TO.N,P6*
X157846820Y-125326598D03*
G04 #@! TO.P,S6,2*
G04 #@! TO.N,GND*
X163175936Y-126331850D03*
G04 #@! TO.P,S6,1*
G04 #@! TO.N,P6*
X167624653Y-123230412D03*
G04 #@! TO.P,S6,2*
G04 #@! TO.N,GND*
X163175936Y-126331850D03*
G04 #@! TD*
G04 #@! TO.P,S22,1*
G04 #@! TO.N,P14*
X218630885Y-121114688D03*
G04 #@! TO.P,S22,2*
G04 #@! TO.N,GND*
X223630885Y-123214688D03*
G04 #@! TO.P,S22,1*
G04 #@! TO.N,P14*
X228630885Y-121114688D03*
G04 #@! TO.P,S22,2*
G04 #@! TO.N,GND*
X223630885Y-123214688D03*
G04 #@! TD*
G04 #@! TO.P,S20,1*
G04 #@! TO.N,P3*
X218630832Y-138114684D03*
G04 #@! TO.P,S20,2*
G04 #@! TO.N,GND*
X223630832Y-140214684D03*
G04 #@! TO.P,S20,1*
G04 #@! TO.N,P3*
X228630832Y-138114684D03*
G04 #@! TO.P,S20,2*
G04 #@! TO.N,GND*
X223630832Y-140214684D03*
G04 #@! TD*
G04 #@! TO.P,S26,1*
G04 #@! TO.N,P2*
X236630864Y-140947959D03*
G04 #@! TO.P,S26,2*
G04 #@! TO.N,GND*
X241630864Y-143047959D03*
G04 #@! TO.P,S26,1*
G04 #@! TO.N,P2*
X246630864Y-140947959D03*
G04 #@! TO.P,S26,2*
G04 #@! TO.N,GND*
X241630864Y-143047959D03*
G04 #@! TD*
G04 #@! TO.P,S18,1*
G04 #@! TO.N,P19*
X196943480Y-100572785D03*
G04 #@! TO.P,S18,2*
G04 #@! TO.N,GND*
X202089853Y-102283000D03*
G04 #@! TO.P,S18,1*
G04 #@! TO.N,P19*
X206914007Y-99805594D03*
G04 #@! TO.P,S18,2*
G04 #@! TO.N,GND*
X202089853Y-102283000D03*
G04 #@! TD*
G04 #@! TO.P,S24,1*
G04 #@! TO.N,P20*
X218630831Y-104114603D03*
G04 #@! TO.P,S24,2*
G04 #@! TO.N,GND*
X223630831Y-106214603D03*
G04 #@! TO.P,S24,1*
G04 #@! TO.N,P20*
X228630831Y-104114603D03*
G04 #@! TO.P,S24,2*
G04 #@! TO.N,GND*
X223630831Y-106214603D03*
G04 #@! TD*
G04 #@! TO.P,S32,2*
G04 #@! TO.N,GND*
X240020101Y-166640148D03*
G04 #@! TO.P,S32,1*
G04 #@! TO.N,P0*
X245402979Y-165980892D03*
G04 #@! TO.P,S32,2*
G04 #@! TO.N,GND*
X240020101Y-166640148D03*
G04 #@! TO.P,S32,1*
G04 #@! TO.N,P0*
X235780799Y-163258088D03*
G04 #@! TD*
G04 #@! TO.P,S28,1*
G04 #@! TO.N,P15*
X236630818Y-123947972D03*
G04 #@! TO.P,S28,2*
G04 #@! TO.N,GND*
X241630818Y-126047972D03*
G04 #@! TO.P,S28,1*
G04 #@! TO.N,P15*
X246630818Y-123947972D03*
G04 #@! TO.P,S28,2*
G04 #@! TO.N,GND*
X241630818Y-126047972D03*
G04 #@! TD*
G04 #@! TO.P,S34,2*
G04 #@! TO.N,GND*
X257543480Y-173194500D03*
G04 #@! TO.P,S34,1*
G04 #@! TO.N,P1*
X262962518Y-173404345D03*
G04 #@! TO.P,S34,2*
G04 #@! TO.N,GND*
X257543480Y-173194500D03*
G04 #@! TO.P,S34,1*
G04 #@! TO.N,P1*
X253899440Y-169178162D03*
G04 #@! TD*
G04 #@! TO.P,S16,1*
G04 #@! TO.N,P16*
X198247702Y-117522680D03*
G04 #@! TO.P,S16,2*
G04 #@! TO.N,GND*
X203394075Y-119232895D03*
G04 #@! TO.P,S16,1*
G04 #@! TO.N,P16*
X208218229Y-116755489D03*
G04 #@! TO.P,S16,2*
G04 #@! TO.N,GND*
X203394075Y-119232895D03*
G04 #@! TD*
G04 #@! TO.P,S4,1*
G04 #@! TO.N,P7*
X161410414Y-141948878D03*
G04 #@! TO.P,S4,2*
G04 #@! TO.N,GND*
X166739530Y-142954130D03*
G04 #@! TO.P,S4,1*
G04 #@! TO.N,P7*
X171188247Y-139852692D03*
G04 #@! TO.P,S4,2*
G04 #@! TO.N,GND*
X166739530Y-142954130D03*
G04 #@! TD*
G04 #@! TO.P,S32,1*
G04 #@! TO.N,P9*
X218517301Y-158371950D03*
G04 #@! TO.P,S32,2*
G04 #@! TO.N,GND*
X222756603Y-161754010D03*
G04 #@! TO.P,S32,1*
G04 #@! TO.N,P9*
X228139481Y-161094754D03*
G04 #@! TO.P,S32,2*
G04 #@! TO.N,GND*
X222756603Y-161754010D03*
G04 #@! TD*
D12*
G04 #@! TO.P,REF\u002A\u002A,1*
G04 #@! TO.N,RST*
X269240000Y-160196000D03*
G04 #@! TO.P,REF\u002A\u002A,2*
G04 #@! TO.N,GND*
X269240000Y-156796000D03*
G04 #@! TD*
D13*
G04 #@! TO.P,REF\u002A\u002A,1*
G04 #@! TO.N,N/C*
X266794000Y-147864000D03*
G04 #@! TO.P,REF\u002A\u002A,2*
G04 #@! TO.N,RAW*
X266794000Y-150864000D03*
G04 #@! TO.P,REF\u002A\u002A,3*
G04 #@! TO.N,BAT*
X266794000Y-152364000D03*
D14*
G04 #@! TO.P,REF\u002A\u002A,*
G04 #@! TO.N,*
X269654000Y-146464000D03*
X269654000Y-153764000D03*
X267444000Y-153764000D03*
X267444000Y-146464000D03*
G04 #@! TD*
D15*
G04 #@! TO.P,REF\u002A\u002A,2*
G04 #@! TO.N,BAT*
X252984000Y-152622000D03*
D16*
G04 #@! TO.P,REF\u002A\u002A,1*
G04 #@! TO.N,GND*
X252984000Y-150622000D03*
G04 #@! TD*
G04 #@! TA.AperFunction,SMDPad,CuDef*
D17*
G04 #@! TO.P,C1,*
G04 #@! TO.N,*
G36*
X255024000Y-128389000D02*
G01*
X255024000Y-127389000D01*
X256024000Y-127389000D01*
X256024000Y-128389000D01*
X255024000Y-128389000D01*
G37*
G04 #@! TD.AperFunction*
G04 #@! TA.AperFunction,SMDPad,CuDef*
G36*
X265184000Y-128389000D02*
G01*
X265184000Y-127389000D01*
X266184000Y-127389000D01*
X266184000Y-128389000D01*
X265184000Y-128389000D01*
G37*
G04 #@! TD.AperFunction*
G04 #@! TA.AperFunction,SMDPad,CuDef*
G04 #@! TO.P,C1,1*
G04 #@! TO.N,RAW*
G36*
X256294000Y-115689000D02*
G01*
X256294000Y-114689000D01*
X257294000Y-114689000D01*
X257294000Y-115689000D01*
X256294000Y-115689000D01*
G37*
G04 #@! TD.AperFunction*
G04 #@! TA.AperFunction,SMDPad,CuDef*
G04 #@! TO.P,C1,23*
G04 #@! TO.N,P8*
G36*
X263914000Y-141089000D02*
G01*
X263914000Y-140089000D01*
X264914000Y-140089000D01*
X264914000Y-141089000D01*
X263914000Y-141089000D01*
G37*
G04 #@! TD.AperFunction*
G04 #@! TA.AperFunction,SMDPad,CuDef*
G04 #@! TO.P,C1,*
G04 #@! TO.N,*
G36*
X255024000Y-143629000D02*
G01*
X255024000Y-142629000D01*
X256024000Y-142629000D01*
X256024000Y-143629000D01*
X255024000Y-143629000D01*
G37*
G04 #@! TD.AperFunction*
G04 #@! TA.AperFunction,SMDPad,CuDef*
G36*
X255024000Y-130929000D02*
G01*
X255024000Y-129929000D01*
X256024000Y-129929000D01*
X256024000Y-130929000D01*
X255024000Y-130929000D01*
G37*
G04 #@! TD.AperFunction*
G04 #@! TA.AperFunction,SMDPad,CuDef*
G04 #@! TO.P,C1,4*
G04 #@! TO.N,VCC*
G36*
X256294000Y-123309000D02*
G01*
X256294000Y-122309000D01*
X257294000Y-122309000D01*
X257294000Y-123309000D01*
X256294000Y-123309000D01*
G37*
G04 #@! TD.AperFunction*
G04 #@! TA.AperFunction,SMDPad,CuDef*
G04 #@! TO.P,C1,*
G04 #@! TO.N,*
G36*
X265184000Y-123309000D02*
G01*
X265184000Y-122309000D01*
X266184000Y-122309000D01*
X266184000Y-123309000D01*
X265184000Y-123309000D01*
G37*
G04 #@! TD.AperFunction*
G04 #@! TA.AperFunction,SMDPad,CuDef*
G36*
X265184000Y-136009000D02*
G01*
X265184000Y-135009000D01*
X266184000Y-135009000D01*
X266184000Y-136009000D01*
X265184000Y-136009000D01*
G37*
G04 #@! TD.AperFunction*
G04 #@! TA.AperFunction,SMDPad,CuDef*
G36*
X265184000Y-143629000D02*
G01*
X265184000Y-142629000D01*
X266184000Y-142629000D01*
X266184000Y-143629000D01*
X265184000Y-143629000D01*
G37*
G04 #@! TD.AperFunction*
G04 #@! TA.AperFunction,SMDPad,CuDef*
G04 #@! TO.P,C1,17*
G04 #@! TO.N,P2*
G36*
X263914000Y-125849000D02*
G01*
X263914000Y-124849000D01*
X264914000Y-124849000D01*
X264914000Y-125849000D01*
X263914000Y-125849000D01*
G37*
G04 #@! TD.AperFunction*
G04 #@! TA.AperFunction,SMDPad,CuDef*
G04 #@! TO.P,C1,11*
G04 #@! TO.N,P16*
G36*
X256294000Y-141089000D02*
G01*
X256294000Y-140089000D01*
X257294000Y-140089000D01*
X257294000Y-141089000D01*
X256294000Y-141089000D01*
G37*
G04 #@! TD.AperFunction*
G04 #@! TA.AperFunction,SMDPad,CuDef*
G04 #@! TO.P,C1,*
G04 #@! TO.N,*
G36*
X265184000Y-125849000D02*
G01*
X265184000Y-124849000D01*
X266184000Y-124849000D01*
X266184000Y-125849000D01*
X265184000Y-125849000D01*
G37*
G04 #@! TD.AperFunction*
G04 #@! TA.AperFunction,SMDPad,CuDef*
G36*
X255024000Y-123309000D02*
G01*
X255024000Y-122309000D01*
X256024000Y-122309000D01*
X256024000Y-123309000D01*
X255024000Y-123309000D01*
G37*
G04 #@! TD.AperFunction*
G04 #@! TA.AperFunction,SMDPad,CuDef*
G36*
X255024000Y-120769000D02*
G01*
X255024000Y-119769000D01*
X256024000Y-119769000D01*
X256024000Y-120769000D01*
X255024000Y-120769000D01*
G37*
G04 #@! TD.AperFunction*
G04 #@! TA.AperFunction,SMDPad,CuDef*
G36*
X265184000Y-118229000D02*
G01*
X265184000Y-117229000D01*
X266184000Y-117229000D01*
X266184000Y-118229000D01*
X265184000Y-118229000D01*
G37*
G04 #@! TD.AperFunction*
G04 #@! TA.AperFunction,SMDPad,CuDef*
G04 #@! TO.P,C1,2*
G04 #@! TO.N,GND*
G36*
X256294000Y-118229000D02*
G01*
X256294000Y-117229000D01*
X257294000Y-117229000D01*
X257294000Y-118229000D01*
X256294000Y-118229000D01*
G37*
G04 #@! TD.AperFunction*
G04 #@! TA.AperFunction,SMDPad,CuDef*
G04 #@! TO.P,C1,*
G04 #@! TO.N,*
G36*
X265184000Y-120769000D02*
G01*
X265184000Y-119769000D01*
X266184000Y-119769000D01*
X266184000Y-120769000D01*
X265184000Y-120769000D01*
G37*
G04 #@! TD.AperFunction*
G04 #@! TA.AperFunction,SMDPad,CuDef*
G36*
X265184000Y-130929000D02*
G01*
X265184000Y-129929000D01*
X266184000Y-129929000D01*
X266184000Y-130929000D01*
X265184000Y-130929000D01*
G37*
G04 #@! TD.AperFunction*
G04 #@! TA.AperFunction,SMDPad,CuDef*
G36*
X265184000Y-138549000D02*
G01*
X265184000Y-137549000D01*
X266184000Y-137549000D01*
X266184000Y-138549000D01*
X265184000Y-138549000D01*
G37*
G04 #@! TD.AperFunction*
G04 #@! TA.AperFunction,SMDPad,CuDef*
G04 #@! TO.P,C1,7*
G04 #@! TO.N,P19*
G36*
X256294000Y-130929000D02*
G01*
X256294000Y-129929000D01*
X257294000Y-129929000D01*
X257294000Y-130929000D01*
X256294000Y-130929000D01*
G37*
G04 #@! TD.AperFunction*
G04 #@! TA.AperFunction,SMDPad,CuDef*
G04 #@! TO.P,C1,16*
G04 #@! TO.N,GND*
G36*
X263914000Y-123309000D02*
G01*
X263914000Y-122309000D01*
X264914000Y-122309000D01*
X264914000Y-123309000D01*
X263914000Y-123309000D01*
G37*
G04 #@! TD.AperFunction*
G04 #@! TA.AperFunction,SMDPad,CuDef*
G04 #@! TO.P,C1,*
G04 #@! TO.N,*
G36*
X255024000Y-138549000D02*
G01*
X255024000Y-137549000D01*
X256024000Y-137549000D01*
X256024000Y-138549000D01*
X255024000Y-138549000D01*
G37*
G04 #@! TD.AperFunction*
G04 #@! TA.AperFunction,SMDPad,CuDef*
G04 #@! TO.P,C1,24*
G04 #@! TO.N,P9*
G36*
X263914000Y-143629000D02*
G01*
X263914000Y-142629000D01*
X264914000Y-142629000D01*
X264914000Y-143629000D01*
X263914000Y-143629000D01*
G37*
G04 #@! TD.AperFunction*
G04 #@! TA.AperFunction,SMDPad,CuDef*
G04 #@! TO.P,C1,18*
G04 #@! TO.N,P3*
G36*
X263914000Y-128389000D02*
G01*
X263914000Y-127389000D01*
X264914000Y-127389000D01*
X264914000Y-128389000D01*
X263914000Y-128389000D01*
G37*
G04 #@! TD.AperFunction*
G04 #@! TA.AperFunction,SMDPad,CuDef*
G04 #@! TO.P,C1,20*
G04 #@! TO.N,P5*
G36*
X263914000Y-133469000D02*
G01*
X263914000Y-132469000D01*
X264914000Y-132469000D01*
X264914000Y-133469000D01*
X263914000Y-133469000D01*
G37*
G04 #@! TD.AperFunction*
G04 #@! TA.AperFunction,SMDPad,CuDef*
G04 #@! TO.P,C1,*
G04 #@! TO.N,*
G36*
X265184000Y-133469000D02*
G01*
X265184000Y-132469000D01*
X266184000Y-132469000D01*
X266184000Y-133469000D01*
X265184000Y-133469000D01*
G37*
G04 #@! TD.AperFunction*
G04 #@! TA.AperFunction,SMDPad,CuDef*
G04 #@! TO.P,C1,10*
G04 #@! TO.N,P14*
G36*
X256294000Y-138549000D02*
G01*
X256294000Y-137549000D01*
X257294000Y-137549000D01*
X257294000Y-138549000D01*
X256294000Y-138549000D01*
G37*
G04 #@! TD.AperFunction*
G04 #@! TA.AperFunction,SMDPad,CuDef*
G04 #@! TO.P,C1,*
G04 #@! TO.N,*
G36*
X265184000Y-115689000D02*
G01*
X265184000Y-114689000D01*
X266184000Y-114689000D01*
X266184000Y-115689000D01*
X265184000Y-115689000D01*
G37*
G04 #@! TD.AperFunction*
G04 #@! TA.AperFunction,SMDPad,CuDef*
G04 #@! TO.P,C1,21*
G04 #@! TO.N,P6*
G36*
X263914000Y-136009000D02*
G01*
X263914000Y-135009000D01*
X264914000Y-135009000D01*
X264914000Y-136009000D01*
X263914000Y-136009000D01*
G37*
G04 #@! TD.AperFunction*
G04 #@! TA.AperFunction,SMDPad,CuDef*
G04 #@! TO.P,C1,19*
G04 #@! TO.N,P4*
G36*
X263914000Y-130929000D02*
G01*
X263914000Y-129929000D01*
X264914000Y-129929000D01*
X264914000Y-130929000D01*
X263914000Y-130929000D01*
G37*
G04 #@! TD.AperFunction*
G04 #@! TA.AperFunction,SMDPad,CuDef*
G04 #@! TO.P,C1,13*
G04 #@! TO.N,P1*
G36*
X263914000Y-115689000D02*
G01*
X263914000Y-114689000D01*
X264914000Y-114689000D01*
X264914000Y-115689000D01*
X263914000Y-115689000D01*
G37*
G04 #@! TD.AperFunction*
G04 #@! TA.AperFunction,SMDPad,CuDef*
G04 #@! TO.P,C1,12*
G04 #@! TO.N,P10*
G36*
X256294000Y-143629000D02*
G01*
X256294000Y-142629000D01*
X257294000Y-142629000D01*
X257294000Y-143629000D01*
X256294000Y-143629000D01*
G37*
G04 #@! TD.AperFunction*
G04 #@! TA.AperFunction,SMDPad,CuDef*
G04 #@! TO.P,C1,*
G04 #@! TO.N,*
G36*
X255024000Y-125849000D02*
G01*
X255024000Y-124849000D01*
X256024000Y-124849000D01*
X256024000Y-125849000D01*
X255024000Y-125849000D01*
G37*
G04 #@! TD.AperFunction*
G04 #@! TA.AperFunction,SMDPad,CuDef*
G04 #@! TO.P,C1,15*
G04 #@! TO.N,GND*
G36*
X263914000Y-120769000D02*
G01*
X263914000Y-119769000D01*
X264914000Y-119769000D01*
X264914000Y-120769000D01*
X263914000Y-120769000D01*
G37*
G04 #@! TD.AperFunction*
G04 #@! TA.AperFunction,SMDPad,CuDef*
G04 #@! TO.P,C1,22*
G04 #@! TO.N,P7*
G36*
X263914000Y-138549000D02*
G01*
X263914000Y-137549000D01*
X264914000Y-137549000D01*
X264914000Y-138549000D01*
X263914000Y-138549000D01*
G37*
G04 #@! TD.AperFunction*
G04 #@! TA.AperFunction,SMDPad,CuDef*
G04 #@! TO.P,C1,9*
G04 #@! TO.N,P15*
G36*
X256294000Y-136009000D02*
G01*
X256294000Y-135009000D01*
X257294000Y-135009000D01*
X257294000Y-136009000D01*
X256294000Y-136009000D01*
G37*
G04 #@! TD.AperFunction*
G04 #@! TA.AperFunction,SMDPad,CuDef*
G04 #@! TO.P,C1,*
G04 #@! TO.N,*
G36*
X255024000Y-118229000D02*
G01*
X255024000Y-117229000D01*
X256024000Y-117229000D01*
X256024000Y-118229000D01*
X255024000Y-118229000D01*
G37*
G04 #@! TD.AperFunction*
G04 #@! TA.AperFunction,SMDPad,CuDef*
G36*
X255024000Y-115689000D02*
G01*
X255024000Y-114689000D01*
X256024000Y-114689000D01*
X256024000Y-115689000D01*
X255024000Y-115689000D01*
G37*
G04 #@! TD.AperFunction*
G04 #@! TA.AperFunction,SMDPad,CuDef*
G04 #@! TO.P,C1,6*
G04 #@! TO.N,P20*
G36*
X256294000Y-128389000D02*
G01*
X256294000Y-127389000D01*
X257294000Y-127389000D01*
X257294000Y-128389000D01*
X256294000Y-128389000D01*
G37*
G04 #@! TD.AperFunction*
G04 #@! TA.AperFunction,SMDPad,CuDef*
G04 #@! TO.P,C1,14*
G04 #@! TO.N,P0*
G36*
X263914000Y-118229000D02*
G01*
X263914000Y-117229000D01*
X264914000Y-117229000D01*
X264914000Y-118229000D01*
X263914000Y-118229000D01*
G37*
G04 #@! TD.AperFunction*
G04 #@! TA.AperFunction,SMDPad,CuDef*
G04 #@! TO.P,C1,*
G04 #@! TO.N,*
G36*
X255024000Y-141089000D02*
G01*
X255024000Y-140089000D01*
X256024000Y-140089000D01*
X256024000Y-141089000D01*
X255024000Y-141089000D01*
G37*
G04 #@! TD.AperFunction*
G04 #@! TA.AperFunction,SMDPad,CuDef*
G04 #@! TO.P,C1,8*
G04 #@! TO.N,P18*
G36*
X256294000Y-133469000D02*
G01*
X256294000Y-132469000D01*
X257294000Y-132469000D01*
X257294000Y-133469000D01*
X256294000Y-133469000D01*
G37*
G04 #@! TD.AperFunction*
G04 #@! TA.AperFunction,SMDPad,CuDef*
G04 #@! TO.P,C1,*
G04 #@! TO.N,*
G36*
X255024000Y-136009000D02*
G01*
X255024000Y-135009000D01*
X256024000Y-135009000D01*
X256024000Y-136009000D01*
X255024000Y-136009000D01*
G37*
G04 #@! TD.AperFunction*
G04 #@! TA.AperFunction,SMDPad,CuDef*
G36*
X255024000Y-133469000D02*
G01*
X255024000Y-132469000D01*
X256024000Y-132469000D01*
X256024000Y-133469000D01*
X255024000Y-133469000D01*
G37*
G04 #@! TD.AperFunction*
G04 #@! TA.AperFunction,SMDPad,CuDef*
G04 #@! TO.P,C1,3*
G04 #@! TO.N,RST*
G36*
X256294000Y-120769000D02*
G01*
X256294000Y-119769000D01*
X257294000Y-119769000D01*
X257294000Y-120769000D01*
X256294000Y-120769000D01*
G37*
G04 #@! TD.AperFunction*
G04 #@! TA.AperFunction,SMDPad,CuDef*
G04 #@! TO.P,C1,5*
G04 #@! TO.N,P21*
G36*
X256294000Y-125849000D02*
G01*
X256294000Y-124849000D01*
X257294000Y-124849000D01*
X257294000Y-125849000D01*
X256294000Y-125849000D01*
G37*
G04 #@! TD.AperFunction*
G04 #@! TA.AperFunction,SMDPad,CuDef*
G04 #@! TO.P,C1,*
G04 #@! TO.N,*
G36*
X265184000Y-141089000D02*
G01*
X265184000Y-140089000D01*
X266184000Y-140089000D01*
X266184000Y-141089000D01*
X265184000Y-141089000D01*
G37*
G04 #@! TD.AperFunction*
D18*
X268260400Y-115316000D03*
X268260400Y-117856000D03*
X268260400Y-120396000D03*
X268260400Y-122936000D03*
X268260400Y-125476000D03*
X268260400Y-128016000D03*
X268260400Y-130556000D03*
X268260400Y-133096000D03*
X268260400Y-135636000D03*
X268260400Y-138176000D03*
X268260400Y-140716000D03*
X268260400Y-143256000D03*
X253040400Y-143256000D03*
X253040400Y-140716000D03*
X253040400Y-138176000D03*
X253040400Y-135636000D03*
X253040400Y-133096000D03*
X253040400Y-130556000D03*
X253040400Y-128016000D03*
X253040400Y-125476000D03*
X253040400Y-122936000D03*
X253040400Y-120396000D03*
X253040400Y-117856000D03*
X253040400Y-115316000D03*
G04 #@! TD*
D19*
G04 #@! TO.N,P7*
X263144000Y-137414000D03*
G04 #@! TO.N,GND*
X263144000Y-119634000D03*
X263144000Y-122174000D03*
X268136000Y-157900000D03*
X258064000Y-118364000D03*
G04 #@! TO.N,P6*
X263144000Y-134874000D03*
G04 #@! TO.N,P5*
X263144000Y-132334000D03*
G04 #@! TO.N,P4*
X263144000Y-129794000D03*
G04 #@! TO.N,P3*
X263144000Y-127254000D03*
G04 #@! TO.N,P0*
X263080500Y-117157500D03*
G04 #@! TO.N,P1*
X263063665Y-114338990D03*
G04 #@! TO.N,P19*
X258064000Y-131064000D03*
G04 #@! TO.N,P18*
X258064000Y-133604000D03*
G04 #@! TO.N,P15*
X258064000Y-136144000D03*
G04 #@! TO.N,P14*
X258064000Y-138684000D03*
G04 #@! TO.N,P16*
X258064000Y-141224000D03*
G04 #@! TO.N,P10*
X258064000Y-143764000D03*
G04 #@! TO.N,P20*
X258064000Y-128524000D03*
G04 #@! TO.N,P21*
X258064000Y-125984000D03*
G04 #@! TO.N,P8*
X263144000Y-139954000D03*
G04 #@! TO.N,P9*
X263144000Y-142494000D03*
G04 #@! TO.N,RAW*
X265430000Y-150114000D03*
X258058001Y-115829999D03*
G04 #@! TO.N,RST*
X258064000Y-120904000D03*
X270344000Y-159092000D03*
G04 #@! TO.N,VCC*
X258064000Y-123444000D03*
G04 #@! TO.N,P2*
X263144000Y-124714000D03*
G04 #@! TO.N,BAT*
X265466000Y-152364000D03*
G04 #@! TD*
D20*
G04 #@! TO.N,*
X265811000Y-143256000D02*
X265684000Y-143129000D01*
X268260400Y-143256000D02*
X265811000Y-143256000D01*
X265811000Y-140716000D02*
X265684000Y-140589000D01*
X268260400Y-140716000D02*
X265811000Y-140716000D01*
X265811000Y-138176000D02*
X265684000Y-138049000D01*
X268260400Y-138176000D02*
X265811000Y-138176000D01*
X265811000Y-135636000D02*
X265684000Y-135509000D01*
X268260400Y-135636000D02*
X265811000Y-135636000D01*
X265811000Y-133096000D02*
X265684000Y-132969000D01*
X268260400Y-133096000D02*
X265811000Y-133096000D01*
X265811000Y-130556000D02*
X265684000Y-130429000D01*
X268260400Y-130556000D02*
X265811000Y-130556000D01*
X265811000Y-128016000D02*
X265684000Y-127889000D01*
X268260400Y-128016000D02*
X265811000Y-128016000D01*
X265811000Y-125476000D02*
X265684000Y-125349000D01*
X268260400Y-125476000D02*
X265811000Y-125476000D01*
X265811000Y-122936000D02*
X265684000Y-122809000D01*
X268260400Y-122936000D02*
X265811000Y-122936000D01*
X265811000Y-120396000D02*
X265684000Y-120269000D01*
X268260400Y-120396000D02*
X265811000Y-120396000D01*
X265811000Y-117856000D02*
X265684000Y-117729000D01*
X268260400Y-117856000D02*
X265811000Y-117856000D01*
X265811000Y-115316000D02*
X265684000Y-115189000D01*
X268260400Y-115316000D02*
X265811000Y-115316000D01*
X255397000Y-115316000D02*
X255524000Y-115189000D01*
X253040400Y-115316000D02*
X255397000Y-115316000D01*
X255397000Y-117856000D02*
X255524000Y-117729000D01*
X253040400Y-117856000D02*
X255397000Y-117856000D01*
X255397000Y-120396000D02*
X255524000Y-120269000D01*
X253040400Y-120396000D02*
X255397000Y-120396000D01*
X255397000Y-122936000D02*
X255524000Y-122809000D01*
X253040400Y-122936000D02*
X255397000Y-122936000D01*
X255397000Y-125476000D02*
X255524000Y-125349000D01*
X253040400Y-125476000D02*
X255397000Y-125476000D01*
X255397000Y-128016000D02*
X255524000Y-127889000D01*
X253040400Y-128016000D02*
X255397000Y-128016000D01*
X255397000Y-130556000D02*
X255524000Y-130429000D01*
X253040400Y-130556000D02*
X255397000Y-130556000D01*
X255397000Y-133096000D02*
X255524000Y-132969000D01*
X253040400Y-133096000D02*
X255397000Y-133096000D01*
X255397000Y-135636000D02*
X255524000Y-135509000D01*
X253040400Y-135636000D02*
X255397000Y-135636000D01*
X255397000Y-138176000D02*
X255524000Y-138049000D01*
X253040400Y-138176000D02*
X255397000Y-138176000D01*
X255397000Y-140716000D02*
X255524000Y-140589000D01*
X253040400Y-140716000D02*
X255397000Y-140716000D01*
X255397000Y-143256000D02*
X255524000Y-143129000D01*
X253040400Y-143256000D02*
X255397000Y-143256000D01*
G04 #@! TO.N,P7*
X263779000Y-138049000D02*
X263144000Y-137414000D01*
X264414000Y-138049000D02*
X263779000Y-138049000D01*
X163506600Y-139852692D02*
X171188247Y-139852692D01*
X161410414Y-141948878D02*
X163506600Y-139852692D01*
X174904692Y-139852692D02*
X171188247Y-139852692D01*
X181483000Y-146431000D02*
X174904692Y-139852692D01*
X181827720Y-146775720D02*
X181483000Y-146431000D01*
X187706000Y-147066000D02*
X182118000Y-147066000D01*
X182118000Y-147066000D02*
X181483000Y-146431000D01*
X187996280Y-146775720D02*
X187706000Y-147066000D01*
X259307333Y-146775720D02*
X187996280Y-146775720D01*
X261112001Y-144971052D02*
X259307333Y-146775720D01*
X261112001Y-140850999D02*
X261112001Y-144971052D01*
X263914000Y-138049000D02*
X261112001Y-140850999D01*
X264414000Y-138049000D02*
X263914000Y-138049000D01*
D21*
G04 #@! TO.N,GND*
X257429000Y-117729000D02*
X258064000Y-118364000D01*
X256794000Y-117729000D02*
X257429000Y-117729000D01*
X263779000Y-122809000D02*
X263144000Y-122174000D01*
X264414000Y-122809000D02*
X263779000Y-122809000D01*
X264414000Y-122809000D02*
X264414000Y-120269000D01*
X263779000Y-120269000D02*
X263144000Y-119634000D01*
X264414000Y-120269000D02*
X263779000Y-120269000D01*
X258064000Y-118364000D02*
X258064000Y-118364000D01*
X269240000Y-156796000D02*
X268136000Y-157900000D01*
D20*
G04 #@! TO.N,P6*
X263779000Y-135509000D02*
X263144000Y-134874000D01*
X264414000Y-135509000D02*
X263779000Y-135509000D01*
X159943006Y-123230412D02*
X167624653Y-123230412D01*
X157846820Y-125326598D02*
X159943006Y-123230412D01*
X263914000Y-135509000D02*
X264414000Y-135509000D01*
X260661990Y-138761010D02*
X263914000Y-135509000D01*
X260661990Y-144784652D02*
X260661990Y-138761010D01*
X259120933Y-146325709D02*
X260661990Y-144784652D01*
X187684291Y-146325709D02*
X259120933Y-146325709D01*
X187452000Y-146558000D02*
X187684291Y-146325709D01*
X182298072Y-146558000D02*
X187452000Y-146558000D01*
X167624653Y-123230412D02*
X172056489Y-127662248D01*
X172056489Y-135283511D02*
X172113511Y-135283511D01*
X172056489Y-127662248D02*
X172056489Y-135283511D01*
X172175036Y-135345036D02*
X172175036Y-136434964D01*
X172113511Y-135283511D02*
X172175036Y-135345036D01*
X172175036Y-136434964D02*
X182298072Y-146558000D01*
G04 #@! TO.N,P5*
X181246732Y-143813365D02*
X182983213Y-142076884D01*
X263779000Y-132969000D02*
X263144000Y-132334000D01*
X264414000Y-132969000D02*
X263779000Y-132969000D01*
X194856955Y-145839029D02*
X258971204Y-145839028D01*
X191094810Y-142076884D02*
X194856955Y-145839029D01*
X194856955Y-145839029D02*
X194861029Y-145839029D01*
X258971204Y-145839028D02*
X260176030Y-144634202D01*
X260176030Y-144634202D02*
X260176030Y-136768968D01*
X260176030Y-136768968D02*
X263975998Y-132969000D01*
X263975998Y-132969000D02*
X264414000Y-132969000D01*
X183244778Y-142076884D02*
X183297116Y-142076884D01*
X183297116Y-142076884D02*
X191094810Y-142076884D01*
X182983213Y-142076884D02*
X183297116Y-142076884D01*
G04 #@! TO.N,P4*
X199273299Y-134506913D02*
X208363688Y-134506913D01*
X263779000Y-130429000D02*
X263144000Y-129794000D01*
X264414000Y-130429000D02*
X263779000Y-130429000D01*
X263975998Y-130429000D02*
X264414000Y-130429000D01*
X259726020Y-134678978D02*
X263975998Y-130429000D01*
X258784803Y-145389019D02*
X259726020Y-144447802D01*
X220988910Y-145389019D02*
X258784803Y-145389019D01*
X259726020Y-144447802D02*
X259726020Y-134678978D01*
X209235246Y-133635355D02*
X220988910Y-145389019D01*
X208398025Y-134472577D02*
X208519301Y-134351301D01*
X199551926Y-134472577D02*
X208398025Y-134472577D01*
X208519301Y-134351301D02*
X209235246Y-133635355D01*
X208363688Y-134506913D02*
X208519301Y-134351301D01*
G04 #@! TO.N,P3*
X218630832Y-138114684D02*
X228630832Y-138114684D01*
X263779000Y-127889000D02*
X263144000Y-127254000D01*
X264414000Y-127889000D02*
X263779000Y-127889000D01*
X258598402Y-144939010D02*
X235455158Y-144939010D01*
X235455158Y-144939010D02*
X228630832Y-138114684D01*
X259276010Y-144261402D02*
X258598402Y-144939010D01*
X259276010Y-132526990D02*
X259276010Y-144261402D01*
X263914000Y-127889000D02*
X259276010Y-132526990D01*
X264414000Y-127889000D02*
X263914000Y-127889000D01*
G04 #@! TO.N,P0*
X240281159Y-163453219D02*
X242987164Y-166159224D01*
X235789065Y-163453219D02*
X240281159Y-163453219D01*
X242987164Y-166159224D02*
X245415982Y-166159224D01*
X269797412Y-143964161D02*
X269797412Y-143813412D01*
X268914999Y-119308999D02*
X269797412Y-120191412D01*
X265493999Y-119308999D02*
X268914999Y-119308999D01*
X264414000Y-118229000D02*
X265493999Y-119308999D01*
X264414000Y-117729000D02*
X264414000Y-118229000D01*
X269797412Y-143813412D02*
X269797412Y-120191412D01*
X248101511Y-163473695D02*
X245415982Y-166159224D01*
X248101511Y-160077899D02*
X248101511Y-163473695D01*
X263386399Y-144793011D02*
X248101511Y-160077899D01*
X268968561Y-144793011D02*
X263386399Y-144793011D01*
X269797410Y-143964162D02*
X268968561Y-144793011D01*
X269797410Y-143813414D02*
X269797410Y-143964162D01*
X269797412Y-143813412D02*
X269797410Y-143813414D01*
X263842500Y-117157500D02*
X263080500Y-117157500D01*
X264414000Y-117729000D02*
X263842500Y-117157500D01*
G04 #@! TO.N,P1*
X259752334Y-170194161D02*
X262962518Y-173404345D01*
X254915439Y-170194161D02*
X259752334Y-170194161D01*
X253899440Y-169178162D02*
X254915439Y-170194161D01*
X248551521Y-163830243D02*
X253899440Y-169178162D01*
X269154963Y-145243021D02*
X263572799Y-145243021D01*
X263572799Y-145243021D02*
X248551521Y-160264299D01*
X270247423Y-144150561D02*
X269154963Y-145243021D01*
X270247423Y-118234261D02*
X270247423Y-144150561D01*
X248551521Y-160264299D02*
X248551521Y-163830243D01*
X268782161Y-116768999D02*
X270247423Y-118234261D01*
X265493999Y-116768999D02*
X268782161Y-116768999D01*
X264414000Y-115689000D02*
X265493999Y-116768999D01*
X264414000Y-115189000D02*
X264414000Y-115689000D01*
X264414000Y-115189000D02*
X263913675Y-115189000D01*
X263913675Y-115189000D02*
X263063665Y-114338990D01*
G04 #@! TO.N,P19*
X257429000Y-130429000D02*
X258064000Y-131064000D01*
X256794000Y-130429000D02*
X257429000Y-130429000D01*
X206146816Y-100572785D02*
X206914007Y-99805594D01*
X196943480Y-100572785D02*
X206146816Y-100572785D01*
X247376139Y-122156961D02*
X247394589Y-122175411D01*
X250557158Y-125337980D02*
X247376139Y-122156961D01*
X251373970Y-126149149D02*
X250562801Y-125337980D01*
X251373970Y-128183970D02*
X251373970Y-126149149D01*
X252658999Y-129468999D02*
X251373970Y-128183970D01*
X250562801Y-125337980D02*
X250557158Y-125337980D01*
X256333999Y-129468999D02*
X252658999Y-129468999D01*
X256794000Y-129929000D02*
X256333999Y-129468999D01*
X256794000Y-130429000D02*
X256794000Y-129929000D01*
X243327649Y-118108471D02*
X247376139Y-122156961D01*
X206271952Y-99764737D02*
X209875148Y-99764737D01*
X233231972Y-108012794D02*
X243327649Y-118108471D01*
X209875148Y-99764737D02*
X218123206Y-108012794D01*
X218123206Y-108012794D02*
X233231972Y-108012794D01*
G04 #@! TO.N,P18*
X257429000Y-132969000D02*
X258064000Y-133604000D01*
X256794000Y-132969000D02*
X257429000Y-132969000D01*
X175342690Y-110329921D02*
X177079171Y-108593440D01*
X250801764Y-126218996D02*
X233176208Y-108593440D01*
X250801764Y-129926126D02*
X250801764Y-126218996D01*
X255968001Y-131643001D02*
X252518639Y-131643001D01*
X256794000Y-132469000D02*
X255968001Y-131643001D01*
X256794000Y-132969000D02*
X256794000Y-132469000D01*
X233176208Y-108593440D02*
X232799440Y-108593440D01*
X252518639Y-131643001D02*
X250801764Y-129926126D01*
X232799440Y-108593440D02*
X233094748Y-108593440D01*
X177079171Y-108593440D02*
X232799440Y-108593440D01*
G04 #@! TO.N,P15*
X236630818Y-123947972D02*
X246630818Y-123947972D01*
X257429000Y-135509000D02*
X258064000Y-136144000D01*
X256794000Y-135509000D02*
X257429000Y-135509000D01*
X256333999Y-134548999D02*
X256794000Y-135009000D01*
X252884637Y-134548999D02*
X256333999Y-134548999D01*
X256794000Y-135009000D02*
X256794000Y-135509000D01*
X250175819Y-131840181D02*
X250175819Y-126252181D01*
X250175819Y-131840181D02*
X252884637Y-134548999D01*
X247871610Y-123947972D02*
X246630818Y-123947972D01*
X250175819Y-126252181D02*
X247871610Y-123947972D01*
G04 #@! TO.N,P14*
X218630885Y-121114688D02*
X228630885Y-121114688D01*
X257429000Y-138049000D02*
X258064000Y-138684000D01*
X256794000Y-138049000D02*
X257429000Y-138049000D01*
X256794000Y-137549000D02*
X256794000Y-138049000D01*
X256333999Y-137088999D02*
X256794000Y-137549000D01*
X250755409Y-137088999D02*
X256333999Y-137088999D01*
X236130099Y-128613901D02*
X242280312Y-128613902D01*
X242280312Y-128613902D02*
X250755409Y-137088999D01*
X228630885Y-121114688D02*
X236130099Y-128613901D01*
G04 #@! TO.N,P16*
X256187999Y-139482999D02*
X256794000Y-140089000D01*
X252512999Y-139482999D02*
X256187999Y-139482999D01*
X256794000Y-140089000D02*
X256794000Y-140589000D01*
X242093911Y-129063911D02*
X252512999Y-139482999D01*
X232592592Y-125712804D02*
X235943699Y-129063911D01*
X218203196Y-125712804D02*
X232592592Y-125712804D01*
X209190438Y-116700045D02*
X218203196Y-125712804D01*
X235943699Y-129063911D02*
X242093911Y-129063911D01*
X207753598Y-116700045D02*
X209190438Y-116700045D01*
X257429000Y-140589000D02*
X258064000Y-141224000D01*
X256794000Y-140589000D02*
X257429000Y-140589000D01*
X199014893Y-116755489D02*
X198247702Y-117522680D01*
X208218229Y-116755489D02*
X199014893Y-116755489D01*
G04 #@! TO.N,P10*
X180031142Y-125335167D02*
X188142739Y-125335167D01*
X178294661Y-127071648D02*
X180031142Y-125335167D01*
X257429000Y-143129000D02*
X258064000Y-143764000D01*
X256794000Y-143129000D02*
X257429000Y-143129000D01*
X256794000Y-142629000D02*
X256794000Y-143129000D01*
X256333999Y-142168999D02*
X256794000Y-142629000D01*
X251953399Y-141237761D02*
X252884637Y-142168999D01*
X251953399Y-139559809D02*
X251953399Y-141237761D01*
X241907510Y-129513920D02*
X251953399Y-139559809D01*
X235757298Y-129513920D02*
X241907510Y-129513920D01*
X252884637Y-142168999D02*
X256333999Y-142168999D01*
X232594544Y-126351166D02*
X235757298Y-129513920D01*
X189158738Y-126351166D02*
X232594544Y-126351166D01*
X188142739Y-125335167D02*
X189158738Y-126351166D01*
G04 #@! TO.N,P20*
X218630831Y-104114603D02*
X228630831Y-104114603D01*
X257429000Y-127889000D02*
X258064000Y-128524000D01*
X256794000Y-127889000D02*
X257429000Y-127889000D01*
X256794000Y-127889000D02*
X256794000Y-127389000D01*
X247300060Y-118522060D02*
X244475128Y-118522060D01*
X256794000Y-127389000D02*
X256333999Y-126928999D01*
X256333999Y-126928999D02*
X252790231Y-126928999D01*
X250743558Y-124887969D02*
X248412000Y-122556411D01*
X248412000Y-122556411D02*
X248412000Y-119634000D01*
X244475128Y-118522060D02*
X230067671Y-104114603D01*
X230067671Y-104114603D02*
X228630831Y-104114603D01*
X248412000Y-119634000D02*
X247300060Y-118522060D01*
X252790231Y-126928999D02*
X250749201Y-124887969D01*
X250749201Y-124887969D02*
X250743558Y-124887969D01*
G04 #@! TO.N,P21*
X236630872Y-106947978D02*
X246630872Y-106947978D01*
X257429000Y-125349000D02*
X258064000Y-125984000D01*
X256794000Y-125349000D02*
X257429000Y-125349000D01*
X256794000Y-124849000D02*
X256794000Y-125349000D01*
X256333999Y-124388999D02*
X256794000Y-124849000D01*
X250880999Y-124388999D02*
X256333999Y-124388999D01*
X248864447Y-122372447D02*
X250880999Y-124388999D01*
X248864447Y-119181553D02*
X248864447Y-122372447D01*
X236630872Y-106947978D02*
X248864447Y-119181553D01*
G04 #@! TO.N,P8*
X263779000Y-140589000D02*
X263144000Y-139954000D01*
X264414000Y-140589000D02*
X263779000Y-140589000D01*
X261620000Y-142883000D02*
X263914000Y-140589000D01*
X263914000Y-140589000D02*
X264414000Y-140589000D01*
X259493731Y-147225731D02*
X261620000Y-145099462D01*
X261620000Y-145099462D02*
X261620000Y-142883000D01*
X167070088Y-156475069D02*
X174751735Y-156475069D01*
X164973902Y-158571255D02*
X167070088Y-156475069D01*
X174751735Y-156475069D02*
X174751735Y-155038229D01*
X190405731Y-147225731D02*
X188308269Y-147225731D01*
X190405731Y-147225731D02*
X259493731Y-147225731D01*
X187911018Y-147622982D02*
X182166982Y-147622982D01*
X188308269Y-147225731D02*
X187911018Y-147622982D01*
X174751735Y-155038229D02*
X182166982Y-147622982D01*
G04 #@! TO.N,P9*
X225437976Y-158597218D02*
X228143982Y-161303224D01*
X218517065Y-158597218D02*
X225437976Y-158597218D01*
X263779000Y-143129000D02*
X263144000Y-142494000D01*
X264414000Y-143129000D02*
X263779000Y-143129000D01*
X238767574Y-161303224D02*
X228143982Y-161303224D01*
X240651844Y-163187494D02*
X238767574Y-161303224D01*
X244355506Y-163187494D02*
X240651844Y-163187494D01*
X264414000Y-143129000D02*
X244355506Y-163187494D01*
D21*
G04 #@! TO.N,RAW*
X266180000Y-150864000D02*
X265430000Y-150114000D01*
X266794000Y-150864000D02*
X266180000Y-150864000D01*
X257434999Y-115829999D02*
X256794000Y-115189000D01*
X258058001Y-115829999D02*
X257434999Y-115829999D01*
D20*
G04 #@! TO.N,RST*
X257429000Y-120269000D02*
X258064000Y-120904000D01*
X256794000Y-120269000D02*
X257429000Y-120269000D01*
X270344000Y-159092000D02*
X269240000Y-160196000D01*
D21*
G04 #@! TO.N,VCC*
X257429000Y-122809000D02*
X258064000Y-123444000D01*
X256794000Y-122809000D02*
X257429000Y-122809000D01*
D20*
G04 #@! TO.N,P2*
X236630864Y-140947959D02*
X246630864Y-140947959D01*
X263779000Y-125349000D02*
X263144000Y-124714000D01*
X264414000Y-125349000D02*
X263779000Y-125349000D01*
X250171906Y-144489001D02*
X246630864Y-140947959D01*
X258412001Y-144489001D02*
X250171906Y-144489001D01*
X258826000Y-130437000D02*
X258826000Y-144075002D01*
X258826000Y-144075002D02*
X258412001Y-144489001D01*
X263914000Y-125349000D02*
X258826000Y-130437000D01*
X264414000Y-125349000D02*
X263914000Y-125349000D01*
G04 #@! TO.N,BAT*
X267048000Y-152364000D02*
X265466000Y-152364000D01*
D21*
X266794000Y-152364000D02*
X265466000Y-152364000D01*
G04 #@! TD*
M02*
